<svg width="868" height="163" viewBox="0 0 868 163" fill="none" xmlns="http://www.w3.org/2000/svg">
<path d="M865.554 0.5C866.075 0.5 866.555 0.584318 866.916 0.825195C867.313 1.0899 867.5 1.49702 867.5 1.96387V1.99512L867.496 2.02637C867.176 4.58334 866.856 8.18781 866.535 12.8437L866.534 12.8428C866.373 17.3373 866.132 22.1511 865.812 27.2842L865.812 27.2852C865.652 32.2665 865.492 36.9267 865.331 41.2656V41.2666C865.17 45.4424 865.09 48.5678 865.09 50.6465C865.09 51.0567 864.902 51.4032 864.546 51.6172C864.23 51.8068 863.82 51.8691 863.385 51.8691C862.513 51.8691 861.731 51.6008 861.465 50.8037L861.454 50.7725L861.447 50.7393C859.049 38.1096 854.506 28.9106 847.871 23.0654L847.862 23.0566C841.373 17.042 833.463 14.0322 824.102 14.0322C820.927 14.0323 818.533 14.5101 816.87 15.417L816.854 15.4248C815.401 16.1515 814.354 17.465 813.741 19.4414C813.274 21.4752 813.034 24.3195 813.034 27.9922V139.093C813.034 143.731 813.516 147.19 814.444 149.512C815.345 151.764 817.065 153.272 819.665 154.037C822.49 154.82 826.77 155.223 832.537 155.223C832.745 155.223 832.95 155.276 833.131 155.396C833.309 155.515 833.436 155.681 833.526 155.86C833.699 156.206 833.76 156.661 833.76 157.168C833.76 157.676 833.699 158.131 833.526 158.477C833.437 158.656 833.309 158.821 833.131 158.939C832.95 159.06 832.745 159.114 832.537 159.114C828.033 159.114 822.967 159.034 817.34 158.873C811.722 158.713 805.541 158.632 798.797 158.632C792.374 158.632 786.354 158.713 780.736 158.873C775.109 159.034 769.963 159.114 765.298 159.114C765.09 159.114 764.885 159.06 764.704 158.939C764.526 158.821 764.398 158.656 764.309 158.477C764.136 158.131 764.075 157.676 764.075 157.168C764.075 156.661 764.136 156.206 764.309 155.86C764.399 155.681 764.526 155.515 764.704 155.396C764.885 155.276 765.09 155.223 765.298 155.223C770.908 155.223 775.111 154.82 777.937 154.035C780.705 153.266 782.494 151.753 783.391 149.512L783.396 149.498L783.401 149.485C784.48 147.174 785.042 143.726 785.042 139.093V27.5098C785.042 23.9957 784.721 21.3273 784.104 19.4746L784.096 19.4512L784.091 19.4287C783.635 17.4543 782.668 16.1484 781.221 15.4248L781.204 15.417L781.188 15.4072C779.693 14.5106 777.469 14.0322 774.456 14.0322C764.78 14.0322 756.55 17.2786 749.737 23.7744L749.736 23.7754C743.064 30.1301 737.718 39.2092 733.719 51.0469L733.718 51.0459C733.452 51.8422 732.671 52.1103 731.799 52.1104H731.749L731.701 52.1006C731.263 52.0129 730.873 51.8703 730.583 51.6387C730.273 51.3905 730.094 51.0506 730.094 50.6465V50.6104L730.099 50.5752C730.418 48.341 730.739 45.2199 731.06 41.207C731.381 37.0321 731.701 32.5357 732.022 27.7178L732.023 27.71L732.024 27.7012C732.505 22.891 732.826 18.2421 732.986 13.7549V13.7461L732.987 13.7373C733.308 9.24478 733.468 5.56198 733.468 2.68652C733.468 2.20807 733.588 1.75723 733.915 1.42969C734.243 1.10201 734.694 0.982422 735.173 0.982422C735.712 0.982433 736.209 1.09272 736.577 1.39941C736.963 1.72057 737.119 2.18159 737.119 2.68652C737.119 3.40236 737.297 4.00705 737.638 4.51855C737.977 5.02764 738.498 5.47216 739.229 5.8418C740.948 6.46429 742.826 6.93486 744.865 7.25C747.101 7.40943 748.93 7.48925 750.355 7.48926H750.373C764.183 7.971 780.324 8.21191 798.797 8.21191C808.636 8.21191 816.752 8.15027 823.144 8.02734L825.777 7.9707C832.528 7.64942 839.039 7.48926 845.31 7.48926C851.072 7.48926 855.359 7.16865 858.196 6.54102C861.116 5.77266 862.888 4.19029 863.631 1.81445C863.74 1.40361 863.961 1.05938 864.312 0.825195C864.662 0.592416 865.09 0.50003 865.554 0.5Z" stroke="white" stroke-opacity="0.3"/>
<path d="M705.314 7.48926C705.748 7.53379 705.966 7.90025 706.062 8.1875C706.168 8.50667 706.207 8.93407 706.207 9.43066C706.207 9.92704 706.168 10.3538 706.062 10.6729C705.959 10.9792 705.718 11.3759 705.226 11.376C698.958 11.376 694.133 13.8712 690.695 18.8721C687.398 23.7418 685.723 30.3788 685.723 38.832V105.83C685.723 117.312 683.215 127.364 678.183 135.967L678.181 135.971C673.15 144.409 666.091 150.979 657.015 155.68L657.008 155.683C647.929 160.222 637.325 162.483 625.213 162.483C613.419 162.483 602.82 160.221 593.425 155.686L593.422 155.685C584.184 151.147 576.883 144.658 571.53 136.224L571.524 136.214C566.328 127.607 563.74 117.311 563.74 105.349V27.5059C563.74 22.8601 563.338 19.4761 562.564 17.3105L562.561 17.3008C561.812 15.0537 560.253 13.5586 557.825 12.7998L557.807 12.7939L557.788 12.7861C555.468 11.8583 551.93 11.376 547.129 11.376C546.921 11.3759 546.716 11.323 546.535 11.2021C546.357 11.0833 546.23 10.918 546.14 10.7383C545.967 10.3929 545.906 9.93798 545.906 9.43066C545.906 8.92313 545.967 8.46755 546.14 8.12207C546.229 7.94247 546.357 7.77796 546.535 7.65918C546.716 7.53832 546.921 7.48443 547.129 7.48438C551.314 7.48437 555.979 7.64661 561.122 7.96777L561.123 7.9668C566.258 8.12728 571.716 8.20703 577.495 8.20703C583.596 8.20703 589.214 8.12727 594.35 7.9668V7.96777C599.492 7.64661 604.077 7.48437 608.103 7.48437C608.31 7.48441 608.515 7.53831 608.696 7.65918C608.874 7.77795 609.002 7.94246 609.092 8.12207C609.265 8.46755 609.325 8.92312 609.325 9.43066C609.325 9.93801 609.264 10.3929 609.092 10.7383C609.002 10.918 608.874 11.0833 608.696 11.2021C608.515 11.323 608.31 11.3759 608.103 11.376C603.301 11.376 599.763 11.8582 597.443 12.7861C595.167 13.6965 593.583 15.2763 592.669 17.5479C591.893 19.8807 591.491 23.3489 591.491 27.9873V96.9131C591.491 116.629 595.422 130.778 603.174 139.479C610.94 148.196 621.321 152.566 634.371 152.566C647.6 152.566 657.899 148.586 665.337 140.674C672.775 132.601 676.528 121.091 676.528 106.071V38.832C676.528 30.3932 674.539 23.7685 670.614 18.9023L670.608 18.8955L670.604 18.8887C666.852 13.8871 661.545 11.376 654.615 11.376C654.123 11.3759 653.881 10.9791 653.779 10.6729C653.673 10.3538 653.634 9.92703 653.634 9.43066C653.634 8.93407 653.673 8.50667 653.779 8.1875C653.881 7.88123 654.123 7.48446 654.615 7.48437C658.642 7.48437 662.749 7.64597 666.936 7.96777C671.264 8.12792 675.913 8.20703 680.885 8.20703C685.212 8.20703 689.459 8.12787 693.626 7.96777C697.811 7.64599 701.678 7.48437 705.226 7.48437L705.314 7.48926Z" stroke="white" stroke-opacity="0.3"/>
<path d="M439.52 4.82422C451.47 4.82422 462.149 7.00469 471.543 11.3779H471.542C481.077 15.5813 489.167 21.3232 495.802 28.6055C502.431 35.8812 507.444 44.1289 510.84 53.3447L511.168 54.209C514.506 63.1503 516.176 72.3222 516.176 81.7217C516.176 93.037 513.912 103.553 509.381 113.263C504.854 122.962 498.63 131.451 490.709 138.725C482.951 145.997 473.901 151.732 463.566 155.931L463.563 155.933C453.38 159.974 442.552 161.992 431.085 161.992C419.458 161.992 408.867 159.974 399.318 155.928L399.309 155.924C389.931 151.72 381.843 145.978 375.048 138.697L375.044 138.693C368.415 131.418 363.241 123.091 359.524 113.718L359.521 113.708V113.707C355.964 104.169 354.188 94.0686 354.188 83.4082C354.188 70.33 356.691 58.8426 361.713 48.96L361.716 48.9541C366.888 39.0945 373.68 30.9245 382.093 24.4521C390.493 17.8287 399.704 12.8998 409.723 9.66797C419.73 6.43973 429.663 4.82423 439.52 4.82422ZM429.88 12.3311C415.407 12.3311 404.318 17.8073 396.547 28.75C388.756 39.7215 384.83 54.9499 384.83 74.4912C384.83 86.1805 386.191 96.9801 388.909 106.893L389.167 107.804C391.864 117.184 395.535 125.428 400.174 132.54C405.115 139.711 410.843 145.276 417.354 149.249C424.026 153.061 431.251 154.968 439.038 154.968C447.933 154.968 455.863 152.428 462.844 147.351C469.821 142.276 475.313 134.808 479.303 124.914L479.306 124.908C483.45 115.024 485.532 102.963 485.532 88.71C485.532 73.9792 483.291 60.8674 478.818 49.3672C474.347 37.8685 467.969 28.8691 459.695 22.3457L459.69 22.3418C451.433 15.6726 441.505 12.3311 429.88 12.3311Z" stroke="white" stroke-opacity="0.3"/>
<path d="M257.652 6.75781C267.325 6.75781 275.575 7.96597 282.39 10.3975L283.039 10.6143C289.702 12.8894 294.876 16.3182 298.526 20.918C302.308 25.5221 304.184 31.3449 304.184 38.3467C304.184 47.3323 300.585 55.5653 293.441 63.0332L293.438 63.0371C289.105 67.4679 283.474 71.0797 276.561 73.8867C282.519 74.7406 287.932 76.2358 292.799 78.377H292.798C301.059 81.9408 307.48 86.8917 312.039 93.2393C316.606 99.4376 318.885 106.694 318.885 114.985C318.885 123.443 316.443 131.096 311.562 137.93C306.685 144.756 299.947 150.19 291.365 154.238L291.361 154.24C282.932 158.131 273.379 160.07 262.714 160.07C258.359 160.07 252.803 159.828 246.049 159.346H246.048C239.47 158.864 233.458 158.624 228.01 158.624C222.23 158.624 216.692 158.704 211.396 158.864L211.396 158.865C206.251 159.026 201.586 159.106 197.402 159.106C197.194 159.106 196.99 159.052 196.809 158.932C196.631 158.813 196.503 158.647 196.413 158.468C196.24 158.122 196.18 157.667 196.18 157.16C196.18 156.653 196.24 156.197 196.413 155.852C196.503 155.672 196.631 155.507 196.809 155.389C196.99 155.268 197.194 155.214 197.402 155.214C201.882 155.214 205.273 154.812 207.607 154.034L207.616 154.031C210.05 153.271 211.698 151.767 212.604 149.503L212.608 149.49L212.614 149.478C213.693 147.166 214.255 143.718 214.255 139.085L214.255 27.502C214.255 22.8604 213.772 19.4894 212.85 17.3359L212.845 17.3242C211.939 15.0599 210.291 13.5563 207.857 12.7959L207.839 12.79L207.821 12.7832C205.499 11.8541 202.118 11.373 197.644 11.373C197.151 11.373 196.91 10.9762 196.808 10.6699C196.701 10.3508 196.662 9.92335 196.662 9.42676C196.662 8.9304 196.701 8.50368 196.808 8.18457C196.91 7.87827 197.151 7.48054 197.644 7.48047C201.829 7.48047 206.494 7.64173 211.637 7.96289C216.772 8.12337 222.23 8.2041 228.01 8.2041C232.652 8.2041 237.456 7.96396 242.422 7.4834C247.419 6.99983 252.496 6.75783 257.652 6.75781ZM254.278 81.0215C252.683 81.0215 249.961 81.1021 246.105 81.2627H246.085C244.832 81.2627 243.553 81.3059 242.247 81.3916L242.247 139.085C242.247 142.255 242.562 144.929 243.184 147.115C243.933 149.05 245.428 150.562 247.731 151.64C250.051 152.563 253.663 153.045 258.617 153.045C269.629 153.045 277.495 150.252 282.343 144.778C287.218 139.114 289.688 131.133 289.688 120.769C289.687 108.961 286.817 99.4386 281.118 92.1572L281.11 92.1475C275.611 84.7625 266.709 81.0215 254.278 81.0215ZM254.038 13.0596C251.036 13.0596 248.632 13.5335 246.797 14.4492C245.163 15.3433 243.952 16.8378 243.184 18.9863C242.566 21.0028 242.247 23.9915 242.247 27.9834V73.3584C243.548 73.4106 244.748 73.4624 245.846 73.5146H251.387C259.92 73.5146 266.26 70.3655 270.493 64.0947C274.766 57.6039 276.915 49.7523 276.915 40.5156C276.915 34.4603 275.958 29.3956 274.068 25.3018L274.065 25.2939L274.062 25.2871C272.332 21.1975 269.748 18.1515 266.315 16.123L266.307 16.1182C263.03 14.0896 258.949 13.0596 254.038 13.0596Z" stroke="white" stroke-opacity="0.3"/>
<path d="M87.7275 5.79492C88.3871 5.71492 88.9661 5.727 89.4248 5.87988C89.8944 6.03647 90.2448 6.34852 90.3896 6.81934L150.624 125.362L152.043 128.12C155.286 134.378 158.097 139.466 160.477 143.387L161.014 144.183C163.676 148.078 166.109 150.895 168.309 152.659C170.81 154.376 173.28 155.215 175.726 155.215C176.23 155.215 176.692 155.371 177.013 155.756C177.319 156.124 177.431 156.621 177.431 157.16C177.431 157.699 177.319 158.197 177.013 158.565C176.692 158.951 176.23 159.106 175.726 159.106C170.895 159.106 165.823 158.946 160.512 158.624L160.511 158.623C155.379 158.302 150.409 158.143 145.601 158.143C140.147 158.143 135.421 158.303 131.421 158.623C127.388 158.946 122.876 159.106 117.885 159.106C117.418 159.106 117.011 158.919 116.746 158.522C116.505 158.161 116.421 157.682 116.421 157.16C116.421 156.639 116.505 156.16 116.746 155.799C117.011 155.402 117.418 155.215 117.885 155.215C121.154 155.215 123.683 154.895 125.496 154.277C127.308 153.66 128.335 152.773 128.744 151.683L128.747 151.676L128.75 151.668C129.247 150.461 129.205 148.589 128.489 145.965C127.779 143.361 126.43 140.101 124.429 136.18L124.428 136.179L108.096 103.917H49.6279L40.2568 124.591C35.9524 134.157 35.9418 141.57 39.9619 146.981C44.0189 152.442 50.4338 155.215 59.3223 155.215C59.8273 155.215 60.2891 155.37 60.6104 155.756C60.9169 156.124 61.0273 156.621 61.0273 157.16C61.0273 157.699 60.9171 158.197 60.6104 158.565C60.2891 158.951 59.8273 159.106 59.3223 159.106C54.4915 159.106 50.0595 158.946 46.0273 158.623C42.0288 158.303 36.9818 158.143 30.8838 158.143C24.6248 158.143 19.5795 158.302 15.7432 158.622L15.7441 158.623C12.0295 158.946 7.43482 159.106 1.96387 159.106C1.49701 159.106 1.08991 158.919 0.825195 158.522C0.584314 158.161 0.5 157.682 0.5 157.16C0.500033 156.639 0.58438 156.16 0.825195 155.799C1.08991 155.402 1.49694 155.215 1.96387 155.215C6.23156 155.215 9.83404 154.345 12.7939 152.633C15.914 150.76 18.9961 147.458 22.0264 142.674L22.0293 142.67C25.2227 137.72 28.8259 130.757 32.8379 121.771L32.8389 121.768L85.1357 6.81055H85.1367C85.2994 6.38735 85.6783 6.14012 86.0957 6.00098C86.5242 5.85814 87.0768 5.7969 87.7275 5.79492ZM53.1406 96.1689H104.174L77.249 42.9834L53.1406 96.1689Z" stroke="white" stroke-opacity="0.3"/>
</svg>
