<svg width="779" height="227" viewBox="0 0 779 227" fill="none" xmlns="http://www.w3.org/2000/svg">
<path d="M731.593 80.5703C732.334 80.5703 732.972 80.6732 733.439 80.9404C733.949 81.2316 734.225 81.701 734.225 82.2881V106.236C745.304 105.843 758.314 104.901 773.255 103.407L773.279 103.405H773.305C773.585 103.405 773.807 103.548 773.963 103.704C774.118 103.859 774.247 104.064 774.36 104.29C774.584 104.738 774.794 105.375 774.996 106.179C775.626 107.663 775.936 109.344 775.936 111.212C775.936 113.31 775.516 115.403 774.683 117.487C774.373 118.409 774.021 119.133 773.604 119.609C773.171 120.105 772.616 120.378 771.979 120.225V120.226C760.342 117.675 747.757 116.128 734.225 115.586V187.328C734.225 194.96 736.131 200.483 739.844 204.007L740.218 204.335C744.118 207.673 749.145 209.358 755.341 209.358C763.325 209.358 771.135 206.367 778.779 200.332L778.82 200.301L778.866 200.277L779.475 199.973L779.58 199.92H779.698C780.192 199.92 780.646 200.045 781.041 200.309C781.422 200.563 781.722 200.928 781.952 201.376C782.267 201.805 782.481 202.253 782.481 202.703C782.481 203.188 782.235 203.57 781.854 203.843C774.327 211.366 766.987 216.976 759.832 220.655L759.822 220.66C752.65 224.144 745.065 225.886 737.073 225.886C728.06 225.886 720.347 223.734 713.958 219.406C707.484 215.021 704.3 207.628 704.3 197.375V129.784C704.3 123.518 703.181 119.32 701.082 117.03C698.996 114.755 695.12 113.539 689.272 113.539C689.099 113.539 688.951 113.476 688.844 113.411C688.733 113.345 688.631 113.257 688.538 113.164C688.352 112.978 688.154 112.719 687.943 112.403L687.906 112.348L687.885 112.284C687.666 111.627 687.555 110.964 687.555 110.299C687.555 109.482 687.653 108.795 687.895 108.288C688.119 107.631 688.536 107.07 689.253 107.06V107.059C699.548 106.655 707.774 104.436 713.968 100.44L713.974 100.437C720.366 96.4414 725.277 90.34 728.695 82.0967L728.702 82.0801L728.71 82.0645C729.23 81.0249 730.261 80.5704 731.593 80.5703Z" stroke="white" stroke-opacity="0.3"/>
<path d="M573.298 100.973C574.479 100.973 575.601 101.559 576.66 102.606C577.885 103.432 578.67 104.365 578.67 105.431V172.717C578.67 183.627 580.768 191.719 584.884 197.074C588.98 202.404 595.134 205.1 603.44 205.1C609.025 205.1 614.727 203.504 620.553 200.29L620.56 200.287C623.663 198.632 626.414 196.712 628.819 194.528V142.575C628.819 136.003 628.033 131.145 626.509 127.948C625.75 126.356 624.816 125.195 623.724 124.432C622.636 123.671 621.361 123.285 619.881 123.285C617.749 123.285 615.185 123.965 612.177 125.369L612.076 125.416H611.66C610.716 125.416 610.091 124.623 609.674 123.58L609.669 123.566L609.664 123.552C609.453 122.919 609.348 122.348 609.415 121.877C609.45 121.634 609.533 121.401 609.687 121.203C609.83 121.019 610.016 120.892 610.228 120.812L651.025 101.326V101.327C651.519 101.082 652.106 100.973 652.764 100.973C653.944 100.973 655.066 101.56 656.125 102.606C657.35 103.432 658.135 104.365 658.135 105.431V186.418C658.135 193.307 658.745 198.085 659.917 200.826C660.594 202.173 661.448 203.158 662.47 203.808C663.494 204.46 664.718 204.795 666.159 204.795C668.898 204.795 672.983 203.711 678.454 201.482L678.545 201.445H679.252C680.182 201.446 680.802 202.217 681.219 203.238C681.524 203.753 681.73 204.247 681.73 204.686C681.73 204.924 681.67 205.162 681.517 205.366C681.376 205.553 681.185 205.673 680.98 205.749L638.977 226.144L638.976 226.143C638.482 226.388 637.894 226.498 637.235 226.498C635.895 226.498 634.723 225.7 633.711 224.314C632.699 222.93 631.791 220.89 630.973 218.229L630.971 218.221L630.968 218.212C629.865 214.117 629.191 208.954 628.937 202.731C624.029 208.361 618.876 213.108 613.474 216.967L613.467 216.972C604.864 222.912 595.632 225.89 585.781 225.89C574.506 225.89 565.535 222.399 558.929 215.38L558.924 215.375L558.919 215.369C552.53 208.156 549.354 198.794 549.354 187.331V142.575C549.354 136.003 548.568 131.145 547.044 127.948C546.285 126.356 545.351 125.195 544.259 124.432C543.171 123.671 541.897 123.285 540.416 123.285C538.287 123.285 535.828 123.964 533.028 125.363L532.923 125.416H532.5C531.98 125.416 531.511 125.25 531.114 124.92C530.727 124.597 530.432 124.137 530.209 123.58L530.203 123.566L530.199 123.552C529.988 122.919 529.883 122.348 529.95 121.877C529.985 121.634 530.068 121.401 530.222 121.203C530.365 121.019 530.553 120.891 530.765 120.811L571.561 101.326L571.616 101.299L571.678 101.287L573.2 100.982L573.249 100.973H573.298Z" stroke="white" stroke-opacity="0.3"/>
<path d="M455.692 99.7539C468.358 99.7539 479.413 102.717 488.841 108.66C498.25 114.592 505.415 122.472 510.328 132.292C515.442 141.905 517.999 152.237 517.999 163.278C517.999 175.544 514.931 186.499 508.786 196.125L508.783 196.129C502.644 205.542 494.357 212.907 483.931 218.223L483.93 218.222C473.707 223.537 462.567 226.193 450.517 226.193C437.854 226.193 426.701 223.333 417.074 217.598L417.063 217.591C407.652 211.658 400.385 203.777 395.27 193.955L395.268 193.951C390.156 183.933 387.602 173.097 387.602 161.451C387.602 148.17 390.975 136.897 397.746 127.664C404.496 118.257 413.091 111.299 423.525 106.798C433.937 102.103 444.661 99.7539 455.692 99.7539ZM445.341 107.147C441.358 107.147 437.897 108.036 434.94 109.798C431.983 111.56 429.504 114.211 427.51 117.776C423.513 124.921 421.483 135.703 421.483 150.186C421.483 163.742 423.203 175.765 426.634 186.259C430.067 196.559 434.701 204.604 440.519 210.421H440.518C446.324 216.025 452.698 218.799 459.65 218.799C463.523 218.799 466.903 217.857 469.808 215.986C472.714 214.114 475.173 211.294 477.172 207.497L477.174 207.492C481.38 199.681 483.508 188.512 483.508 173.935C483.508 159.767 481.686 147.648 478.057 137.567C474.422 127.47 469.691 119.943 463.891 114.942L463.884 114.937L464.218 114.563L463.884 114.936C458.072 109.725 451.894 107.147 445.341 107.147Z" stroke="white" stroke-opacity="0.3"/>
<path d="M269.466 0.5C270.647 0.5 271.769 1.08661 272.828 2.13379C274.053 2.95917 274.838 3.89235 274.838 4.95801V119.69C280.456 114.58 285.884 110.395 291.123 107.138C298.725 102.209 307.751 99.7549 318.181 99.7549C327.396 99.755 335.903 101.906 343.692 106.211C351.497 110.524 357.651 116.991 362.157 125.59L362.593 126.403C367.019 134.859 369.222 145.027 369.222 156.886C369.222 171.569 366.059 184.143 359.713 194.587L359.714 194.588C353.58 205.015 345.394 212.896 335.159 218.219L335.16 218.22C325.141 223.536 314.405 226.194 302.957 226.194C294.17 226.194 285.586 224.661 277.21 221.597L277.2 221.593C270.942 219.151 265.141 215.91 259.796 211.873L232.529 224.322L232.43 224.367H231.713C231.222 224.367 230.774 224.243 230.411 223.953C230.05 223.664 229.825 223.252 229.705 222.771C229.585 222.29 229.594 221.811 229.838 221.403C230.069 221.019 230.455 220.79 230.902 220.664C235.667 217.872 239.235 214.098 241.617 209.334L241.621 209.327C244.212 204.345 245.522 198.036 245.522 190.377V42.4072C245.522 35.3125 244.809 30.3337 243.438 27.3955L243.432 27.3828L243.427 27.3691C242.849 25.9253 242.02 24.8732 240.954 24.1777C239.886 23.481 238.54 23.1172 236.889 23.1172C234.522 23.1172 231.146 24.0629 226.729 26.0166L225.732 26.4658H225.318C224.799 26.4657 224.329 26.3002 223.933 25.9697C223.545 25.6466 223.25 25.1864 223.027 24.6299L223.022 24.6162L223.018 24.6016C222.809 23.9759 222.688 23.4329 222.688 22.9971C222.688 22.5699 222.812 22.0934 223.269 21.8652L223.278 21.8604L267.73 0.852539L267.785 0.826172L267.846 0.814453L269.368 0.509766L269.416 0.5H269.466ZM303.87 116.892C294.539 116.892 284.864 120.298 274.838 127.16V171.5L274.843 172.535C274.959 183.177 276.875 191.98 280.562 198.968L280.923 199.622C284.676 206.33 289.167 211.213 294.383 214.304C299.802 217.515 305.093 219.105 310.264 219.105C314.538 219.105 318.297 218.013 321.557 215.84C324.82 213.664 327.611 210.386 329.916 205.977C334.531 197.147 336.861 184.757 336.861 168.76C336.861 151.139 333.921 138.169 328.12 129.768L328.117 129.764C322.324 121.174 314.259 116.892 303.87 116.892Z" stroke="white" stroke-opacity="0.3"/>
<path d="M110.607 28.8164C111.441 28.8164 112.137 28.8934 112.668 29.0703C113.178 29.2405 113.617 29.534 113.802 30.0195L189.909 179.8L189.911 179.805C197.014 194.213 202.878 204.11 207.503 209.539C212.118 214.956 216.862 217.584 221.736 217.584C222.347 217.584 222.888 217.772 223.262 218.221C223.621 218.652 223.759 219.245 223.759 219.911C223.759 220.577 223.621 221.169 223.262 221.601C222.888 222.05 222.347 222.237 221.736 222.237C217.664 222.237 211.362 222.034 202.836 221.628V221.627C193.906 221.221 187.523 221.02 183.679 221.02C178.617 221.02 172.436 221.221 165.135 221.627C158.23 222.033 152.739 222.237 148.665 222.237C148.114 222.237 147.643 222.019 147.336 221.559C147.053 221.134 146.947 220.56 146.947 219.911C146.947 219.262 147.053 218.688 147.336 218.264C147.643 217.803 148.113 217.584 148.665 217.584C153.923 217.584 157.579 217.075 159.709 216.112C160.853 215.54 161.689 214.79 162.241 213.869C162.795 212.946 163.084 211.821 163.084 210.473C163.084 208.831 162.598 206.585 161.59 203.711C160.585 200.846 159.072 197.391 157.048 193.344L136.379 152.516H62.3477L50.4736 178.707L50.4746 178.708C47.8573 184.547 46.5606 189.957 46.5605 194.944C46.5605 202.118 49.0422 207.647 53.9775 211.599L54.4668 211.965C59.5756 215.696 66.299 217.584 74.6807 217.584C75.2914 217.584 75.832 217.772 76.2061 218.221C76.5656 218.652 76.7021 219.245 76.7021 219.911C76.7021 220.577 76.5655 221.169 76.2061 221.601C75.832 222.049 75.2914 222.237 74.6807 222.237C71.0122 222.237 65.7223 222.034 58.8184 221.628V221.627C51.1128 221.221 44.4251 221.02 38.7539 221.02C33.2857 221.02 26.6986 221.221 18.9922 221.627C12.0866 222.033 6.49406 222.237 2.21777 222.237C1.66636 222.237 1.19571 222.019 0.888672 221.559C0.605538 221.134 0.500043 220.56 0.5 219.911C0.5 219.263 0.605556 218.688 0.888672 218.264C1.1957 217.803 1.66621 217.584 2.21777 217.584C7.83691 217.584 12.5152 216.48 16.2773 214.302C20.0441 211.918 23.8478 207.825 27.6787 201.978C31.5153 195.918 36.0698 187.015 41.3418 175.255L41.3428 175.252L107.412 30.0225L107.429 29.9863L107.451 29.9521C108.01 29.1151 109.168 28.8164 110.607 28.8164ZM66.666 142.99H131.558L97.3213 75.3623L66.666 142.99Z" stroke="white" stroke-opacity="0.3"/>
</svg>
