<svg width="68" height="62" viewBox="0 0 68 62" fill="none" xmlns="http://www.w3.org/2000/svg">
<path d="M20.865 42.6515C17.7057 42.6515 14.8315 42.103 12.2426 41.006C9.69753 39.8652 7.50352 38.3074 5.66055 36.3328C3.86146 34.3582 2.4573 32.0984 1.44805 29.5533C0.482688 26.9644 4.23509e-06 24.2219 3.72872e-06 21.3258C3.10726e-06 17.7715 0.680132 14.656 2.04042 11.9793C3.44458 9.3026 5.28756 7.08665 7.56933 5.33144C9.8511 3.53236 12.3523 2.19401 15.0728 1.3164C17.7934 0.438798 20.492 -3.58294e-06 23.1687 -4.05095e-06C26.4159 -4.6187e-06 29.312 0.592377 31.857 1.77714C34.446 2.91803 36.6399 4.47577 38.439 6.45038C40.2381 8.42499 41.5984 10.6629 42.5199 13.1641C43.4853 15.6652 43.9679 18.2322 43.9679 20.865C43.9679 23.9366 43.3536 26.7889 42.125 29.4217C40.8963 32.0545 39.2069 34.3582 37.0568 36.3328C34.9506 38.3074 32.4933 39.8651 29.6849 41.006C26.9205 42.103 23.9805 42.6515 20.865 42.6515ZM23.1029 41.0719C25.7357 41.0719 28.0833 40.3698 30.1457 38.9656C32.2519 37.5614 33.8974 35.4991 35.0822 32.7785C36.3109 30.014 36.9252 26.6792 36.9252 22.7738C36.9252 18.693 36.267 15.0728 34.9506 11.9135C33.6342 8.75409 31.7473 6.27486 29.29 4.47578C26.8327 2.63281 23.8928 1.71133 20.4701 1.71133C16.2137 1.71133 12.9008 3.24713 10.5312 6.31875C8.2056 9.34648 7.04277 13.559 7.04277 18.9562C7.04277 22.1156 7.4377 25.0556 8.22754 27.7762C9.01738 30.4529 10.1144 32.8004 11.5185 34.8189C12.9666 36.8374 14.656 38.3952 16.5867 39.4922C18.5613 40.5453 20.7334 41.0719 23.1029 41.0719Z" fill="#321EED"/>
<path d="M44.7557 61.4484C41.5963 61.4484 38.7221 60.8999 36.1332 59.8029C33.5882 58.662 31.3941 57.1043 29.5512 55.1297C27.7521 53.1551 26.3479 50.8952 25.3387 48.3502C24.3733 45.7613 23.8906 43.0187 23.8906 40.1226C23.8906 36.5684 24.5708 33.4529 25.9311 30.7762C27.3352 28.0995 29.1782 25.8835 31.46 24.1283C33.7417 22.3292 36.2429 20.9909 38.9635 20.1133C41.684 19.2357 44.3827 18.7969 47.0594 18.7969C50.3065 18.7969 53.2026 19.3893 55.7476 20.574C58.3366 21.7149 60.5306 23.2726 62.3297 25.2473C64.1288 27.2219 65.489 29.4598 66.4105 31.9609C67.3759 34.4621 67.8586 37.0291 67.8586 39.6619C67.8586 42.7335 67.2443 45.5857 66.0156 48.2185C64.787 50.8513 63.0976 53.1551 60.9474 55.1297C58.8412 57.1043 56.3839 58.662 53.5756 59.8029C50.8111 60.8999 47.8712 61.4484 44.7557 61.4484ZM46.9936 59.8687C49.6264 59.8687 51.974 59.1667 54.0363 57.7625C56.1426 56.3583 57.7881 54.2959 58.9728 51.5754C60.2015 48.8109 60.8158 45.476 60.8158 41.5707C60.8158 37.4898 60.1576 33.8697 58.8412 30.7103C57.5248 27.551 55.6379 25.0717 53.1807 23.2727C50.7234 21.4297 47.7834 20.5082 44.3607 20.5082C40.1044 20.5082 36.7914 22.044 34.4219 25.1156C32.0962 28.1434 30.9334 32.3559 30.9334 37.7531C30.9334 40.9125 31.3283 43.8525 32.1182 46.573C32.908 49.2497 34.005 51.5973 35.4092 53.6158C36.8572 55.6343 38.5466 57.192 40.4773 58.289C42.452 59.3422 44.624 59.8687 46.9936 59.8687Z" fill="black"/>
</svg>
