<svg width="407" height="219" viewBox="0 0 407 219" fill="none" xmlns="http://www.w3.org/2000/svg">
<mask id="path-1-outside-1_898_2112" maskUnits="userSpaceOnUse" x="0" y="0" width="407" height="219" fill="black">
<rect fill="white" width="407" height="219"/>
<path d="M46.26 217.21C16.1667 217.21 1.12 201.3 1.12 169.48C1.12 137.907 15.6733 104.607 44.78 69.58C75.12 33.0733 105.46 14.82 135.8 14.82C136.787 14.82 137.28 15.3133 137.28 16.3C137.28 17.2867 136.787 17.78 135.8 17.78C130.867 19.0133 127.043 20.37 124.33 21.85C99.6633 33.69 70.9267 67.36 38.12 122.86C27.5133 140.373 22.21 157.64 22.21 174.66C22.21 185.02 24.1833 193.407 28.13 199.82C32.8167 208.207 39.8467 212.4 49.22 212.4C66.24 212.4 84.2467 204.877 103.24 189.83C111.133 183.91 118.41 177.373 125.07 170.22C131.977 162.82 138.39 154.927 144.31 146.54C148.75 139.88 152.943 132.85 156.89 125.45C161.083 118.05 164.907 110.157 168.36 101.77C177.733 79.57 182.42 61.07 182.42 46.27C182.42 28.7567 175.883 20 162.81 20C151.71 20 141.473 24.81 132.1 34.43C123.713 42.8167 118.163 52.8067 115.45 64.4C114.957 67.6067 114.463 70.69 113.97 73.65C113.723 76.61 113.6 79.6933 113.6 82.9C113.6 102.633 119.89 112.5 132.47 112.5C133.457 112.5 134.32 112.377 135.06 112.13C136.047 111.883 136.91 111.76 137.65 111.76C138.883 111.76 139.5 112.253 139.5 113.24C139.5 114.72 137.033 115.46 132.1 115.46C123.96 115.46 117.793 111.39 113.6 103.25C110.393 97.0833 108.79 89.4367 108.79 80.31C108.79 77.35 108.913 74.5133 109.16 71.8C109.407 68.84 109.9 66.0033 110.64 63.29C113.353 50.2167 120.383 38.7467 131.73 28.88C143.323 18.0267 155.657 12.6 168.73 12.6C180.077 12.6 188.71 18.0267 194.63 28.88C199.317 37.2667 201.66 47.75 201.66 60.33C201.66 75.13 198.7 89.8067 192.78 104.36C179.707 135.933 160.467 161.957 135.06 182.43C107.433 205.617 77.8333 217.21 46.26 217.21ZM280.294 208.7C264.507 208.7 250.447 205.247 238.114 198.34C222.574 189.707 214.804 178.36 214.804 164.3C214.804 153.447 219.244 144.937 228.124 138.77C236.264 133.343 245.76 130.63 256.614 130.63C278.567 130.63 299.287 139.633 318.774 157.64C319.02 157.887 319.144 158.257 319.144 158.75C319.144 159.737 318.65 160.353 317.664 160.6L316.554 160.23C301.014 145.43 283.87 138.03 265.124 138.03C255.75 138.03 247.734 140.127 241.074 144.32C232.687 149.253 228.494 155.913 228.494 164.3C228.494 178.113 233.92 188.72 244.774 196.12C254.147 202.533 265.987 205.74 280.294 205.74C300.767 205.74 319.02 200.067 335.054 188.72C352.814 176.88 363.544 161.217 367.244 141.73C367.737 139.757 367.984 138.03 367.984 136.55C367.984 134.823 367.984 133.097 367.984 131.37C367.984 119.037 363.544 109.417 354.664 102.51C353.924 102.017 353.184 101.523 352.444 101.03C339.617 105.717 326.297 108.06 312.484 108.06C296.45 108.06 288.434 105.347 288.434 99.92C288.434 93.0133 298.054 89.56 317.294 89.56C330.12 89.56 341.59 90.9167 351.704 93.63C356.39 91.1633 360.83 88.08 365.024 84.38C380.317 71.5533 387.964 55.89 387.964 37.39C387.964 27.03 385.004 18.89 379.084 12.97C373.164 7.04998 365.024 4.08998 354.664 4.08998C332.71 4.08998 312.114 17.2867 292.874 43.68C284.24 55.7667 279.924 65.51 279.924 72.91C279.924 80.5567 285.104 84.38 295.464 84.38C304.837 84.38 315.69 79.6933 328.024 70.32C340.85 60.4533 347.264 50.8333 347.264 41.46C347.264 38.0067 345.66 35.54 342.454 34.06C341.96 33.5667 341.714 33.1967 341.714 32.95C341.714 32.21 342.084 31.84 342.824 31.84C347.264 31.84 349.484 35.0467 349.484 41.46C349.484 52.3133 343.194 62.7967 330.614 72.91C318.034 82.0367 306.317 86.6 295.464 86.6C279.43 86.6 271.414 79.0767 271.414 64.03C271.414 56.3833 273.757 49.1067 278.444 42.2C282.637 36.5267 287.447 31.3467 292.874 26.66C298.547 21.9733 305.084 17.6567 312.484 13.71C327.037 5.81666 341.097 1.86999 354.664 1.86999C368.23 1.86999 379.7 4.58333 389.074 10.01C399.927 16.67 405.354 26.4133 405.354 39.24C405.354 52.0667 400.297 64.2767 390.184 75.87C382.044 84.9967 372.547 92.0267 361.694 96.96C363.42 97.7 365.147 98.5633 366.874 99.55C383.154 107.937 391.294 121.257 391.294 139.51V140.99C391.294 163.93 377.85 181.69 350.964 194.27C330.244 203.89 306.687 208.7 280.294 208.7ZM301.384 99.18C301.384 101.647 306.07 102.88 315.444 102.88C325.804 102.88 335.67 100.907 345.044 96.96C338.63 94.2467 331.354 92.89 323.214 92.89C308.66 92.89 301.384 94.9867 301.384 99.18Z"/>
</mask>
<path d="M44.78 69.58L44.0109 68.9408L44.0109 68.9409L44.78 69.58ZM135.8 17.78V16.78H135.677L135.557 16.8098L135.8 17.78ZM124.33 21.85L124.763 22.7515L124.786 22.7403L124.809 22.7279L124.33 21.85ZM38.12 122.86L38.9754 123.378L38.9809 123.369L38.12 122.86ZM28.13 199.82L29.0029 199.332L28.9927 199.314L28.9817 199.296L28.13 199.82ZM103.24 189.83L102.64 189.03L102.629 189.038L102.619 189.046L103.24 189.83ZM125.07 170.22L124.339 169.538L124.338 169.539L125.07 170.22ZM144.31 146.54L145.127 147.117L145.135 147.106L145.142 147.095L144.31 146.54ZM156.89 125.45L156.02 124.957L156.014 124.968L156.008 124.979L156.89 125.45ZM168.36 101.77L167.439 101.381L167.435 101.389L168.36 101.77ZM132.1 34.43L132.807 35.1372L132.816 35.1279L132.1 34.43ZM115.45 64.4L114.476 64.1721L114.468 64.2097L114.462 64.2479L115.45 64.4ZM113.97 73.65L112.984 73.4856L112.977 73.5261L112.973 73.5669L113.97 73.65ZM135.06 112.13L134.817 111.16L134.78 111.169L134.744 111.181L135.06 112.13ZM113.6 103.25L114.489 102.792L114.487 102.789L113.6 103.25ZM109.16 71.8L110.156 71.8905L110.157 71.883L109.16 71.8ZM110.64 63.29L111.605 63.5531L111.613 63.5234L111.619 63.4932L110.64 63.29ZM131.73 28.88L132.386 29.6346L132.4 29.6226L132.413 29.61L131.73 28.88ZM194.63 28.88L193.752 29.3589L193.757 29.3678L194.63 28.88ZM192.78 104.36L193.704 104.743L193.706 104.737L192.78 104.36ZM135.06 182.43L134.433 181.651L134.425 181.658L134.417 181.664L135.06 182.43ZM46.26 217.21V216.21C31.3822 216.21 20.4038 212.28 13.1315 204.59C5.84944 196.89 2.12 185.249 2.12 169.48H1.12H0.120002C0.120002 185.531 3.9139 197.755 11.6785 205.965C19.4529 214.185 31.0445 218.21 46.26 218.21V217.21ZM1.12 169.48H2.12C2.12 138.224 16.5271 105.144 45.5491 70.2191L44.78 69.58L44.0109 68.9409C14.8195 104.069 0.120002 137.589 0.120002 169.48H1.12ZM44.78 69.58L45.5491 70.2192C75.8064 33.812 105.892 15.82 135.8 15.82V14.82V13.82C105.028 13.82 74.4336 32.3347 44.0109 68.9408L44.78 69.58ZM135.8 14.82V15.82C135.966 15.82 136.071 15.8411 136.131 15.8612C136.187 15.8796 136.202 15.8959 136.203 15.8971C136.204 15.8983 136.22 15.9134 136.239 15.9687C136.259 16.0289 136.28 16.1337 136.28 16.3H137.28H138.28C138.28 15.6525 138.117 14.9832 137.617 14.4829C137.117 13.9825 136.447 13.82 135.8 13.82V14.82ZM137.28 16.3H136.28C136.28 16.4663 136.259 16.5711 136.239 16.6313C136.22 16.6865 136.204 16.7017 136.203 16.7029C136.202 16.704 136.187 16.7204 136.131 16.7388C136.071 16.7588 135.966 16.78 135.8 16.78V17.78V18.78C136.447 18.78 137.117 18.6174 137.617 18.1171C138.117 17.6167 138.28 16.9475 138.28 16.3H137.28ZM135.8 17.78L135.557 16.8098C130.587 18.0524 126.671 19.4338 123.851 20.9721L124.33 21.85L124.809 22.7279C127.415 21.3062 131.146 19.9743 136.043 18.7501L135.8 17.78ZM124.33 21.85L123.897 20.9485C111.384 26.9547 97.9264 38.45 83.5169 55.3333C69.0985 72.227 53.6798 94.5718 37.2592 122.351L38.12 122.86L38.9809 123.369C55.3669 95.6482 70.7199 73.408 85.0381 56.6317C99.3653 39.845 112.609 28.5852 124.763 22.7515L124.33 21.85ZM38.12 122.86L37.2646 122.342C26.5827 139.98 21.21 157.423 21.21 174.66H22.21H23.21C23.21 157.857 28.444 140.767 38.9754 123.378L38.12 122.86ZM22.21 174.66H21.21C21.21 185.138 23.2048 193.725 27.2783 200.344L28.13 199.82L28.9817 199.296C25.1619 193.089 23.21 184.902 23.21 174.66H22.21ZM28.13 199.82L27.2571 200.308C29.671 204.628 32.7152 207.913 36.4052 210.114C40.0965 212.316 44.3796 213.4 49.22 213.4V212.4V211.4C44.6871 211.4 40.7685 210.388 37.4298 208.396C34.0898 206.404 31.2757 203.399 29.0029 199.332L28.13 199.82ZM49.22 212.4V213.4C66.5437 213.4 84.764 205.743 103.861 190.614L103.24 189.83L102.619 189.046C83.7293 204.011 65.9363 211.4 49.22 211.4V212.4ZM103.24 189.83L103.84 190.63C111.78 184.675 119.101 178.099 125.802 170.901L125.07 170.22L124.338 169.539C117.719 176.648 110.486 183.145 102.64 189.03L103.24 189.83ZM125.07 170.22L125.801 170.902C132.739 163.469 139.181 155.54 145.127 147.117L144.31 146.54L143.493 145.963C137.599 154.313 131.214 162.171 124.339 169.538L125.07 170.22ZM144.31 146.54L145.142 147.095C149.601 140.406 153.811 133.348 157.772 125.921L156.89 125.45L156.008 124.979C152.076 132.352 147.899 139.354 143.478 145.985L144.31 146.54ZM156.89 125.45L157.76 125.943C161.975 118.504 165.817 110.573 169.285 102.151L168.36 101.77L167.435 101.389C163.997 109.74 160.191 117.596 156.02 124.957L156.89 125.45ZM168.36 101.77L169.281 102.159C178.678 79.9037 183.42 61.2615 183.42 46.27H182.42H181.42C181.42 60.8785 176.789 79.2363 167.439 101.381L168.36 101.77ZM182.42 46.27H183.42C183.42 37.4179 181.773 30.5967 178.319 25.9693C174.824 21.287 169.592 19 162.81 19V20V21C169.101 21 173.675 23.0914 176.716 27.1657C179.799 31.2949 181.42 37.6088 181.42 46.27H182.42ZM162.81 20V19C151.385 19 140.903 23.9624 131.384 33.7321L132.1 34.43L132.816 35.1279C142.044 25.6576 152.035 21 162.81 21V20ZM132.1 34.43L131.393 33.7229C122.874 42.2419 117.232 52.3981 114.476 64.1721L115.45 64.4L116.424 64.6279C119.095 53.2153 124.553 43.3914 132.807 35.1371L132.1 34.43ZM115.45 64.4L114.462 64.2479C113.969 67.4508 113.476 70.53 112.984 73.4856L113.97 73.65L114.956 73.8144C115.45 70.85 115.944 67.7625 116.438 64.552L115.45 64.4ZM113.97 73.65L112.973 73.5669C112.724 76.5566 112.6 79.6678 112.6 82.9H113.6H114.6C114.6 79.7189 114.722 76.6633 114.967 73.733L113.97 73.65ZM113.6 82.9H112.6C112.6 92.8407 114.178 100.468 117.474 105.638C120.819 110.884 125.869 113.5 132.47 113.5V112.5V111.5C126.491 111.5 122.106 109.183 119.161 104.562C116.167 99.8656 114.6 92.6926 114.6 82.9H113.6ZM132.47 112.5V113.5C133.537 113.5 134.511 113.367 135.376 113.079L135.06 112.13L134.744 111.181C134.129 111.386 133.376 111.5 132.47 111.5V112.5ZM135.06 112.13L135.303 113.1C136.237 112.866 137.016 112.76 137.65 112.76V111.76V110.76C136.804 110.76 135.856 110.9 134.817 111.16L135.06 112.13ZM137.65 111.76V112.76C138.16 112.76 138.357 112.866 138.413 112.911C138.426 112.921 138.5 112.967 138.5 113.24H139.5H140.5C140.5 112.526 140.266 111.832 139.662 111.349C139.101 110.9 138.374 110.76 137.65 110.76V111.76ZM139.5 113.24H138.5C138.5 113.29 138.495 113.355 138.369 113.468C138.214 113.607 137.908 113.784 137.363 113.947C136.273 114.274 134.541 114.46 132.1 114.46V115.46V116.46C134.592 116.46 136.561 116.276 137.937 115.863C138.625 115.656 139.244 115.37 139.706 114.955C140.197 114.513 140.5 113.93 140.5 113.24H139.5ZM132.1 115.46V114.46C128.205 114.46 124.824 113.489 121.921 111.573C119.011 109.652 116.526 106.746 114.489 102.792L113.6 103.25L112.711 103.708C114.868 107.894 117.562 111.093 120.819 113.242C124.082 115.396 127.855 116.46 132.1 116.46V115.46ZM113.6 103.25L114.487 102.789C111.374 96.802 109.79 89.3245 109.79 80.31H108.79H107.79C107.79 89.5488 109.413 97.3646 112.713 103.711L113.6 103.25ZM108.79 80.31H109.79C109.79 77.3777 109.912 74.5713 110.156 71.8905L109.16 71.8L108.164 71.7095C107.914 74.4553 107.79 77.3223 107.79 80.31H108.79ZM109.16 71.8L110.157 71.883C110.398 68.9805 110.882 66.2043 111.605 63.5531L110.64 63.29L109.675 63.0269C108.918 65.8023 108.415 68.6995 108.163 71.717L109.16 71.8ZM110.64 63.29L111.619 63.4932C114.282 50.6608 121.183 39.3768 132.386 29.6346L131.73 28.88L131.074 28.1254C119.584 38.1166 112.424 49.7725 109.661 63.0868L110.64 63.29ZM131.73 28.88L132.413 29.61C143.863 18.8908 155.963 13.6 168.73 13.6V12.6V11.6C155.351 11.6 142.783 17.1625 131.047 28.15L131.73 28.88ZM168.73 12.6V13.6C174.237 13.6 179.043 14.9145 183.183 17.5166C187.327 20.1215 190.857 24.0506 193.752 29.3588L194.63 28.88L195.508 28.4011C192.483 22.8561 188.736 18.6452 184.247 15.8234C179.754 12.9988 174.57 11.6 168.73 11.6V12.6ZM194.63 28.88L193.757 29.3678C198.339 37.5663 200.66 47.8695 200.66 60.33H201.66H202.66C202.66 47.6305 200.295 36.9671 195.503 28.3922L194.63 28.88ZM201.66 60.33H200.66C200.66 74.993 197.728 89.5421 191.854 103.983L192.78 104.36L193.706 104.737C199.672 90.0713 202.66 75.267 202.66 60.33H201.66ZM192.78 104.36L191.856 103.977C178.844 135.404 159.703 161.288 134.433 181.651L135.06 182.43L135.687 183.209C161.231 162.625 180.57 136.463 193.704 104.743L192.78 104.36ZM135.06 182.43L134.417 181.664C106.943 204.722 77.565 216.21 46.26 216.21V217.21V218.21C78.1016 218.21 107.923 206.511 135.703 183.196L135.06 182.43ZM238.114 198.34L238.602 197.467L238.599 197.466L238.114 198.34ZM228.124 138.77L227.569 137.938L227.561 137.943L227.553 137.949L228.124 138.77ZM318.774 157.64L319.481 156.933L319.467 156.919L319.452 156.906L318.774 157.64ZM317.664 160.6L317.347 161.549L317.624 161.641L317.906 161.57L317.664 160.6ZM316.554 160.23L315.864 160.954L316.026 161.108L316.237 161.179L316.554 160.23ZM241.074 144.32L241.581 145.182L241.594 145.174L241.606 145.166L241.074 144.32ZM244.774 196.12L245.338 195.295L245.337 195.294L244.774 196.12ZM335.054 188.72L334.499 187.888L334.487 187.896L334.476 187.904L335.054 188.72ZM367.244 141.73L366.274 141.487L366.267 141.515L366.261 141.543L367.244 141.73ZM354.664 102.51L355.278 101.721L355.249 101.698L355.218 101.678L354.664 102.51ZM352.444 101.03L352.998 100.198L352.577 99.9168L352.1 100.091L352.444 101.03ZM351.704 93.63L351.445 94.5958L351.823 94.6973L352.169 94.5149L351.704 93.63ZM365.024 84.38L364.381 83.6138L364.371 83.6219L364.362 83.6302L365.024 84.38ZM379.084 12.97L379.791 12.2629L379.791 12.2629L379.084 12.97ZM292.874 43.68L292.066 43.0909L292.06 43.0988L292.874 43.68ZM328.024 70.32L328.629 71.1162L328.633 71.1126L328.024 70.32ZM342.454 34.06L341.747 34.7671L341.873 34.8932L342.035 34.968L342.454 34.06ZM330.614 72.91L331.201 73.7194L331.221 73.7049L331.24 73.6894L330.614 72.91ZM278.444 42.2L277.64 41.6056L277.628 41.6218L277.616 41.6385L278.444 42.2ZM292.874 26.66L292.237 25.889L292.228 25.896L292.22 25.9032L292.874 26.66ZM312.484 13.71L312.954 14.5924L312.96 14.589L312.484 13.71ZM389.074 10.01L389.597 9.15767L389.586 9.15098L389.575 9.14457L389.074 10.01ZM390.184 75.87L390.93 76.5357L390.937 76.5274L390.184 75.87ZM361.694 96.96L361.28 96.0496L359.218 96.9869L361.3 97.8791L361.694 96.96ZM366.874 99.55L366.378 100.418L366.396 100.429L366.416 100.439L366.874 99.55ZM350.964 194.27L351.385 195.177L351.387 195.176L350.964 194.27ZM345.044 96.96L345.432 97.8816L347.615 96.9622L345.433 96.039L345.044 96.96ZM280.294 208.7V207.7C264.658 207.7 250.77 204.281 238.602 197.467L238.114 198.34L237.625 199.213C250.125 206.212 264.356 209.7 280.294 209.7V208.7ZM238.114 198.34L238.599 197.466C223.279 188.954 215.804 177.897 215.804 164.3H214.804H213.804C213.804 178.823 221.869 190.459 237.628 199.214L238.114 198.34ZM214.804 164.3H215.804C215.804 153.773 220.084 145.57 228.694 139.591L228.124 138.77L227.553 137.949C218.403 144.303 213.804 153.121 213.804 164.3H214.804ZM228.124 138.77L228.678 139.602C236.636 134.297 245.935 131.63 256.614 131.63V130.63V129.63C245.585 129.63 235.891 132.39 227.569 137.938L228.124 138.77ZM256.614 130.63V131.63C278.265 131.63 298.752 140.501 318.095 158.374L318.774 157.64L319.452 156.906C299.822 138.766 278.869 129.63 256.614 129.63V130.63ZM318.774 157.64L318.067 158.347C318.068 158.348 318.084 158.363 318.102 158.419C318.123 158.479 318.144 158.584 318.144 158.75H319.144H320.144C320.144 158.103 319.981 157.433 319.481 156.933L318.774 157.64ZM319.144 158.75H318.144C318.144 159.074 318.065 159.237 317.993 159.328C317.918 159.421 317.764 159.544 317.421 159.63L317.664 160.6L317.906 161.57C318.55 161.409 319.136 161.1 319.555 160.577C319.975 160.051 320.144 159.412 320.144 158.75H319.144ZM317.664 160.6L317.98 159.651L316.87 159.281L316.554 160.23L316.237 161.179L317.347 161.549L317.664 160.6ZM316.554 160.23L317.243 159.506C301.546 144.556 284.165 137.03 265.124 137.03V138.03V139.03C283.576 139.03 300.481 146.304 315.864 160.954L316.554 160.23ZM265.124 138.03V137.03C255.598 137.03 247.389 139.162 240.541 143.474L241.074 144.32L241.606 145.166C248.079 141.091 255.902 139.03 265.124 139.03V138.03ZM241.074 144.32L240.567 143.458C231.933 148.537 227.494 155.496 227.494 164.3H228.494H229.494C229.494 156.33 233.441 149.97 241.581 145.182L241.074 144.32ZM228.494 164.3H227.494C227.494 178.424 233.067 189.349 244.21 196.946L244.774 196.12L245.337 195.294C234.773 188.091 229.494 177.803 229.494 164.3H228.494ZM244.774 196.12L244.209 196.945C253.787 203.499 265.838 206.74 280.294 206.74V205.74V204.74C266.136 204.74 254.507 201.568 245.338 195.295L244.774 196.12ZM280.294 205.74V206.74C300.965 206.74 319.422 201.008 335.631 189.536L335.054 188.72L334.476 187.904C318.619 199.126 300.569 204.74 280.294 204.74V205.74ZM335.054 188.72L335.608 189.552C353.573 177.576 364.472 161.689 368.226 141.917L367.244 141.73L366.261 141.543C362.615 160.745 352.054 176.184 334.499 187.888L335.054 188.72ZM367.244 141.73L368.214 141.973C368.72 139.947 368.984 138.136 368.984 136.55H367.984H366.984C366.984 137.924 366.754 139.566 366.274 141.487L367.244 141.73ZM367.984 136.55H368.984C368.984 136.547 368.984 136.543 368.984 136.54C368.984 136.537 368.984 136.533 368.984 136.53C368.984 136.526 368.984 136.523 368.984 136.52C368.984 136.516 368.984 136.513 368.984 136.51C368.984 136.506 368.984 136.503 368.984 136.499C368.984 136.496 368.984 136.493 368.984 136.489C368.984 136.486 368.984 136.483 368.984 136.479C368.984 136.476 368.984 136.472 368.984 136.469C368.984 136.466 368.984 136.462 368.984 136.459C368.984 136.456 368.984 136.452 368.984 136.449C368.984 136.445 368.984 136.442 368.984 136.439C368.984 136.435 368.984 136.432 368.984 136.429C368.984 136.425 368.984 136.422 368.984 136.418C368.984 136.415 368.984 136.412 368.984 136.408C368.984 136.405 368.984 136.402 368.984 136.398C368.984 136.395 368.984 136.391 368.984 136.388C368.984 136.385 368.984 136.381 368.984 136.378C368.984 136.375 368.984 136.371 368.984 136.368C368.984 136.365 368.984 136.361 368.984 136.358C368.984 136.354 368.984 136.351 368.984 136.348C368.984 136.344 368.984 136.341 368.984 136.338C368.984 136.334 368.984 136.331 368.984 136.327C368.984 136.324 368.984 136.321 368.984 136.317C368.984 136.314 368.984 136.311 368.984 136.307C368.984 136.304 368.984 136.3 368.984 136.297C368.984 136.294 368.984 136.29 368.984 136.287C368.984 136.284 368.984 136.28 368.984 136.277C368.984 136.273 368.984 136.27 368.984 136.267C368.984 136.263 368.984 136.26 368.984 136.257C368.984 136.253 368.984 136.25 368.984 136.246C368.984 136.243 368.984 136.24 368.984 136.236C368.984 136.233 368.984 136.23 368.984 136.226C368.984 136.223 368.984 136.22 368.984 136.216C368.984 136.213 368.984 136.209 368.984 136.206C368.984 136.203 368.984 136.199 368.984 136.196C368.984 136.193 368.984 136.189 368.984 136.186C368.984 136.182 368.984 136.179 368.984 136.176C368.984 136.172 368.984 136.169 368.984 136.166C368.984 136.162 368.984 136.159 368.984 136.155C368.984 136.152 368.984 136.149 368.984 136.145C368.984 136.142 368.984 136.139 368.984 136.135C368.984 136.132 368.984 136.128 368.984 136.125C368.984 136.122 368.984 136.118 368.984 136.115C368.984 136.112 368.984 136.108 368.984 136.105C368.984 136.101 368.984 136.098 368.984 136.095C368.984 136.091 368.984 136.088 368.984 136.085C368.984 136.081 368.984 136.078 368.984 136.074C368.984 136.071 368.984 136.068 368.984 136.064C368.984 136.061 368.984 136.058 368.984 136.054C368.984 136.051 368.984 136.048 368.984 136.044C368.984 136.041 368.984 136.037 368.984 136.034C368.984 136.031 368.984 136.027 368.984 136.024C368.984 136.021 368.984 136.017 368.984 136.014C368.984 136.01 368.984 136.007 368.984 136.004C368.984 136 368.984 135.997 368.984 135.994C368.984 135.99 368.984 135.987 368.984 135.983C368.984 135.98 368.984 135.977 368.984 135.973C368.984 135.97 368.984 135.967 368.984 135.963C368.984 135.96 368.984 135.956 368.984 135.953C368.984 135.95 368.984 135.946 368.984 135.943C368.984 135.94 368.984 135.936 368.984 135.933C368.984 135.929 368.984 135.926 368.984 135.923C368.984 135.919 368.984 135.916 368.984 135.913C368.984 135.909 368.984 135.906 368.984 135.902C368.984 135.899 368.984 135.896 368.984 135.892C368.984 135.889 368.984 135.886 368.984 135.882C368.984 135.879 368.984 135.876 368.984 135.872C368.984 135.869 368.984 135.865 368.984 135.862C368.984 135.859 368.984 135.855 368.984 135.852C368.984 135.849 368.984 135.845 368.984 135.842C368.984 135.838 368.984 135.835 368.984 135.832C368.984 135.828 368.984 135.825 368.984 135.822C368.984 135.818 368.984 135.815 368.984 135.811C368.984 135.808 368.984 135.805 368.984 135.801C368.984 135.798 368.984 135.795 368.984 135.791C368.984 135.788 368.984 135.784 368.984 135.781C368.984 135.778 368.984 135.774 368.984 135.771C368.984 135.768 368.984 135.764 368.984 135.761C368.984 135.757 368.984 135.754 368.984 135.751C368.984 135.747 368.984 135.744 368.984 135.741C368.984 135.737 368.984 135.734 368.984 135.731C368.984 135.727 368.984 135.724 368.984 135.72C368.984 135.717 368.984 135.714 368.984 135.71C368.984 135.707 368.984 135.704 368.984 135.7C368.984 135.697 368.984 135.693 368.984 135.69C368.984 135.687 368.984 135.683 368.984 135.68C368.984 135.677 368.984 135.673 368.984 135.67C368.984 135.666 368.984 135.663 368.984 135.66C368.984 135.656 368.984 135.653 368.984 135.65C368.984 135.646 368.984 135.643 368.984 135.639C368.984 135.636 368.984 135.633 368.984 135.629C368.984 135.626 368.984 135.623 368.984 135.619C368.984 135.616 368.984 135.612 368.984 135.609C368.984 135.606 368.984 135.602 368.984 135.599C368.984 135.596 368.984 135.592 368.984 135.589C368.984 135.585 368.984 135.582 368.984 135.579C368.984 135.575 368.984 135.572 368.984 135.569C368.984 135.565 368.984 135.562 368.984 135.559C368.984 135.555 368.984 135.552 368.984 135.548C368.984 135.545 368.984 135.542 368.984 135.538C368.984 135.535 368.984 135.532 368.984 135.528C368.984 135.525 368.984 135.521 368.984 135.518C368.984 135.515 368.984 135.511 368.984 135.508C368.984 135.505 368.984 135.501 368.984 135.498C368.984 135.494 368.984 135.491 368.984 135.488C368.984 135.484 368.984 135.481 368.984 135.478C368.984 135.474 368.984 135.471 368.984 135.467C368.984 135.464 368.984 135.461 368.984 135.457C368.984 135.454 368.984 135.451 368.984 135.447C368.984 135.444 368.984 135.44 368.984 135.437C368.984 135.434 368.984 135.43 368.984 135.427C368.984 135.424 368.984 135.42 368.984 135.417C368.984 135.414 368.984 135.41 368.984 135.407C368.984 135.403 368.984 135.4 368.984 135.397C368.984 135.393 368.984 135.39 368.984 135.387C368.984 135.383 368.984 135.38 368.984 135.376C368.984 135.373 368.984 135.37 368.984 135.366C368.984 135.363 368.984 135.36 368.984 135.356C368.984 135.353 368.984 135.349 368.984 135.346C368.984 135.343 368.984 135.339 368.984 135.336C368.984 135.333 368.984 135.329 368.984 135.326C368.984 135.322 368.984 135.319 368.984 135.316C368.984 135.312 368.984 135.309 368.984 135.306C368.984 135.302 368.984 135.299 368.984 135.295C368.984 135.292 368.984 135.289 368.984 135.285C368.984 135.282 368.984 135.279 368.984 135.275C368.984 135.272 368.984 135.268 368.984 135.265C368.984 135.262 368.984 135.258 368.984 135.255C368.984 135.252 368.984 135.248 368.984 135.245C368.984 135.242 368.984 135.238 368.984 135.235C368.984 135.231 368.984 135.228 368.984 135.225C368.984 135.221 368.984 135.218 368.984 135.215C368.984 135.211 368.984 135.208 368.984 135.204C368.984 135.201 368.984 135.198 368.984 135.194C368.984 135.191 368.984 135.188 368.984 135.184C368.984 135.181 368.984 135.177 368.984 135.174C368.984 135.171 368.984 135.167 368.984 135.164C368.984 135.161 368.984 135.157 368.984 135.154C368.984 135.15 368.984 135.147 368.984 135.144C368.984 135.14 368.984 135.137 368.984 135.134C368.984 135.13 368.984 135.127 368.984 135.123C368.984 135.12 368.984 135.117 368.984 135.113C368.984 135.11 368.984 135.107 368.984 135.103C368.984 135.1 368.984 135.096 368.984 135.093C368.984 135.09 368.984 135.086 368.984 135.083C368.984 135.08 368.984 135.076 368.984 135.073C368.984 135.07 368.984 135.066 368.984 135.063C368.984 135.059 368.984 135.056 368.984 135.053C368.984 135.049 368.984 135.046 368.984 135.043C368.984 135.039 368.984 135.036 368.984 135.032C368.984 135.029 368.984 135.026 368.984 135.022C368.984 135.019 368.984 135.016 368.984 135.012C368.984 135.009 368.984 135.005 368.984 135.002C368.984 134.999 368.984 134.995 368.984 134.992C368.984 134.989 368.984 134.985 368.984 134.982C368.984 134.978 368.984 134.975 368.984 134.972C368.984 134.968 368.984 134.965 368.984 134.962C368.984 134.958 368.984 134.955 368.984 134.951C368.984 134.948 368.984 134.945 368.984 134.941C368.984 134.938 368.984 134.935 368.984 134.931C368.984 134.928 368.984 134.925 368.984 134.921C368.984 134.918 368.984 134.914 368.984 134.911C368.984 134.908 368.984 134.904 368.984 134.901C368.984 134.898 368.984 134.894 368.984 134.891C368.984 134.887 368.984 134.884 368.984 134.881C368.984 134.877 368.984 134.874 368.984 134.871C368.984 134.867 368.984 134.864 368.984 134.86C368.984 134.857 368.984 134.854 368.984 134.85C368.984 134.847 368.984 134.844 368.984 134.84C368.984 134.837 368.984 134.833 368.984 134.83C368.984 134.827 368.984 134.823 368.984 134.82C368.984 134.817 368.984 134.813 368.984 134.81C368.984 134.806 368.984 134.803 368.984 134.8C368.984 134.796 368.984 134.793 368.984 134.79C368.984 134.786 368.984 134.783 368.984 134.779C368.984 134.776 368.984 134.773 368.984 134.769C368.984 134.766 368.984 134.763 368.984 134.759C368.984 134.756 368.984 134.753 368.984 134.749C368.984 134.746 368.984 134.742 368.984 134.739C368.984 134.736 368.984 134.732 368.984 134.729C368.984 134.726 368.984 134.722 368.984 134.719C368.984 134.715 368.984 134.712 368.984 134.709C368.984 134.705 368.984 134.702 368.984 134.699C368.984 134.695 368.984 134.692 368.984 134.688C368.984 134.685 368.984 134.682 368.984 134.678C368.984 134.675 368.984 134.672 368.984 134.668C368.984 134.665 368.984 134.661 368.984 134.658C368.984 134.655 368.984 134.651 368.984 134.648C368.984 134.645 368.984 134.641 368.984 134.638C368.984 134.634 368.984 134.631 368.984 134.628C368.984 134.624 368.984 134.621 368.984 134.618C368.984 134.614 368.984 134.611 368.984 134.607C368.984 134.604 368.984 134.601 368.984 134.597C368.984 134.594 368.984 134.591 368.984 134.587C368.984 134.584 368.984 134.581 368.984 134.577C368.984 134.574 368.984 134.57 368.984 134.567C368.984 134.564 368.984 134.56 368.984 134.557C368.984 134.554 368.984 134.55 368.984 134.547C368.984 134.543 368.984 134.54 368.984 134.537C368.984 134.533 368.984 134.53 368.984 134.527C368.984 134.523 368.984 134.52 368.984 134.516C368.984 134.513 368.984 134.51 368.984 134.506C368.984 134.503 368.984 134.5 368.984 134.496C368.984 134.493 368.984 134.489 368.984 134.486C368.984 134.483 368.984 134.479 368.984 134.476C368.984 134.473 368.984 134.469 368.984 134.466C368.984 134.462 368.984 134.459 368.984 134.456C368.984 134.452 368.984 134.449 368.984 134.446C368.984 134.442 368.984 134.439 368.984 134.436C368.984 134.432 368.984 134.429 368.984 134.425C368.984 134.422 368.984 134.419 368.984 134.415C368.984 134.412 368.984 134.409 368.984 134.405C368.984 134.402 368.984 134.398 368.984 134.395C368.984 134.392 368.984 134.388 368.984 134.385C368.984 134.382 368.984 134.378 368.984 134.375C368.984 134.371 368.984 134.368 368.984 134.365C368.984 134.361 368.984 134.358 368.984 134.355C368.984 134.351 368.984 134.348 368.984 134.344C368.984 134.341 368.984 134.338 368.984 134.334C368.984 134.331 368.984 134.328 368.984 134.324C368.984 134.321 368.984 134.317 368.984 134.314C368.984 134.311 368.984 134.307 368.984 134.304C368.984 134.301 368.984 134.297 368.984 134.294C368.984 134.29 368.984 134.287 368.984 134.284C368.984 134.28 368.984 134.277 368.984 134.274C368.984 134.27 368.984 134.267 368.984 134.264C368.984 134.26 368.984 134.257 368.984 134.253C368.984 134.25 368.984 134.247 368.984 134.243C368.984 134.24 368.984 134.237 368.984 134.233C368.984 134.23 368.984 134.226 368.984 134.223C368.984 134.22 368.984 134.216 368.984 134.213C368.984 134.21 368.984 134.206 368.984 134.203C368.984 134.199 368.984 134.196 368.984 134.193C368.984 134.189 368.984 134.186 368.984 134.183C368.984 134.179 368.984 134.176 368.984 134.172C368.984 134.169 368.984 134.166 368.984 134.162C368.984 134.159 368.984 134.156 368.984 134.152C368.984 134.149 368.984 134.145 368.984 134.142C368.984 134.139 368.984 134.135 368.984 134.132C368.984 134.129 368.984 134.125 368.984 134.122C368.984 134.119 368.984 134.115 368.984 134.112C368.984 134.108 368.984 134.105 368.984 134.102C368.984 134.098 368.984 134.095 368.984 134.092C368.984 134.088 368.984 134.085 368.984 134.081C368.984 134.078 368.984 134.075 368.984 134.071C368.984 134.068 368.984 134.065 368.984 134.061C368.984 134.058 368.984 134.054 368.984 134.051C368.984 134.048 368.984 134.044 368.984 134.041C368.984 134.038 368.984 134.034 368.984 134.031C368.984 134.027 368.984 134.024 368.984 134.021C368.984 134.017 368.984 134.014 368.984 134.011C368.984 134.007 368.984 134.004 368.984 134C368.984 133.997 368.984 133.994 368.984 133.99C368.984 133.987 368.984 133.984 368.984 133.98C368.984 133.977 368.984 133.973 368.984 133.97C368.984 133.967 368.984 133.963 368.984 133.96C368.984 133.957 368.984 133.953 368.984 133.95C368.984 133.947 368.984 133.943 368.984 133.94C368.984 133.936 368.984 133.933 368.984 133.93C368.984 133.926 368.984 133.923 368.984 133.92C368.984 133.916 368.984 133.913 368.984 133.909C368.984 133.906 368.984 133.903 368.984 133.899C368.984 133.896 368.984 133.893 368.984 133.889C368.984 133.886 368.984 133.882 368.984 133.879C368.984 133.876 368.984 133.872 368.984 133.869C368.984 133.866 368.984 133.862 368.984 133.859C368.984 133.855 368.984 133.852 368.984 133.849C368.984 133.845 368.984 133.842 368.984 133.839C368.984 133.835 368.984 133.832 368.984 133.828C368.984 133.825 368.984 133.822 368.984 133.818C368.984 133.815 368.984 133.812 368.984 133.808C368.984 133.805 368.984 133.801 368.984 133.798C368.984 133.795 368.984 133.791 368.984 133.788C368.984 133.785 368.984 133.781 368.984 133.778C368.984 133.775 368.984 133.771 368.984 133.768C368.984 133.764 368.984 133.761 368.984 133.758C368.984 133.754 368.984 133.751 368.984 133.748C368.984 133.744 368.984 133.741 368.984 133.737C368.984 133.734 368.984 133.731 368.984 133.727C368.984 133.724 368.984 133.721 368.984 133.717C368.984 133.714 368.984 133.71 368.984 133.707C368.984 133.704 368.984 133.7 368.984 133.697C368.984 133.694 368.984 133.69 368.984 133.687C368.984 133.683 368.984 133.68 368.984 133.677C368.984 133.673 368.984 133.67 368.984 133.667C368.984 133.663 368.984 133.66 368.984 133.656C368.984 133.653 368.984 133.65 368.984 133.646C368.984 133.643 368.984 133.64 368.984 133.636C368.984 133.633 368.984 133.63 368.984 133.626C368.984 133.623 368.984 133.619 368.984 133.616C368.984 133.613 368.984 133.609 368.984 133.606C368.984 133.603 368.984 133.599 368.984 133.596C368.984 133.592 368.984 133.589 368.984 133.586C368.984 133.582 368.984 133.579 368.984 133.576C368.984 133.572 368.984 133.569 368.984 133.565C368.984 133.562 368.984 133.559 368.984 133.555C368.984 133.552 368.984 133.549 368.984 133.545C368.984 133.542 368.984 133.538 368.984 133.535C368.984 133.532 368.984 133.528 368.984 133.525C368.984 133.522 368.984 133.518 368.984 133.515C368.984 133.511 368.984 133.508 368.984 133.505C368.984 133.501 368.984 133.498 368.984 133.495C368.984 133.491 368.984 133.488 368.984 133.484C368.984 133.481 368.984 133.478 368.984 133.474C368.984 133.471 368.984 133.468 368.984 133.464C368.984 133.461 368.984 133.458 368.984 133.454C368.984 133.451 368.984 133.447 368.984 133.444C368.984 133.441 368.984 133.437 368.984 133.434C368.984 133.431 368.984 133.427 368.984 133.424C368.984 133.42 368.984 133.417 368.984 133.414C368.984 133.41 368.984 133.407 368.984 133.404C368.984 133.4 368.984 133.397 368.984 133.393C368.984 133.39 368.984 133.387 368.984 133.383C368.984 133.38 368.984 133.377 368.984 133.373C368.984 133.37 368.984 133.366 368.984 133.363C368.984 133.36 368.984 133.356 368.984 133.353C368.984 133.35 368.984 133.346 368.984 133.343C368.984 133.339 368.984 133.336 368.984 133.333C368.984 133.329 368.984 133.326 368.984 133.323C368.984 133.319 368.984 133.316 368.984 133.312C368.984 133.309 368.984 133.306 368.984 133.302C368.984 133.299 368.984 133.296 368.984 133.292C368.984 133.289 368.984 133.286 368.984 133.282C368.984 133.279 368.984 133.275 368.984 133.272C368.984 133.269 368.984 133.265 368.984 133.262C368.984 133.259 368.984 133.255 368.984 133.252C368.984 133.248 368.984 133.245 368.984 133.242C368.984 133.238 368.984 133.235 368.984 133.232C368.984 133.228 368.984 133.225 368.984 133.221C368.984 133.218 368.984 133.215 368.984 133.211C368.984 133.208 368.984 133.205 368.984 133.201C368.984 133.198 368.984 133.194 368.984 133.191C368.984 133.188 368.984 133.184 368.984 133.181C368.984 133.178 368.984 133.174 368.984 133.171C368.984 133.167 368.984 133.164 368.984 133.161C368.984 133.157 368.984 133.154 368.984 133.151C368.984 133.147 368.984 133.144 368.984 133.141C368.984 133.137 368.984 133.134 368.984 133.13C368.984 133.127 368.984 133.124 368.984 133.12C368.984 133.117 368.984 133.114 368.984 133.11C368.984 133.107 368.984 133.103 368.984 133.1C368.984 133.097 368.984 133.093 368.984 133.09C368.984 133.087 368.984 133.083 368.984 133.08C368.984 133.076 368.984 133.073 368.984 133.07C368.984 133.066 368.984 133.063 368.984 133.06C368.984 133.056 368.984 133.053 368.984 133.049C368.984 133.046 368.984 133.043 368.984 133.039C368.984 133.036 368.984 133.033 368.984 133.029C368.984 133.026 368.984 133.022 368.984 133.019C368.984 133.016 368.984 133.012 368.984 133.009C368.984 133.006 368.984 133.002 368.984 132.999C368.984 132.995 368.984 132.992 368.984 132.989C368.984 132.985 368.984 132.982 368.984 132.979C368.984 132.975 368.984 132.972 368.984 132.969C368.984 132.965 368.984 132.962 368.984 132.958C368.984 132.955 368.984 132.952 368.984 132.948C368.984 132.945 368.984 132.942 368.984 132.938C368.984 132.935 368.984 132.931 368.984 132.928C368.984 132.925 368.984 132.921 368.984 132.918C368.984 132.915 368.984 132.911 368.984 132.908C368.984 132.904 368.984 132.901 368.984 132.898C368.984 132.894 368.984 132.891 368.984 132.888C368.984 132.884 368.984 132.881 368.984 132.877C368.984 132.874 368.984 132.871 368.984 132.867C368.984 132.864 368.984 132.861 368.984 132.857C368.984 132.854 368.984 132.85 368.984 132.847C368.984 132.844 368.984 132.84 368.984 132.837C368.984 132.834 368.984 132.83 368.984 132.827C368.984 132.823 368.984 132.82 368.984 132.817C368.984 132.813 368.984 132.81 368.984 132.807C368.984 132.803 368.984 132.8 368.984 132.797C368.984 132.793 368.984 132.79 368.984 132.786C368.984 132.783 368.984 132.78 368.984 132.776C368.984 132.773 368.984 132.77 368.984 132.766C368.984 132.763 368.984 132.759 368.984 132.756C368.984 132.753 368.984 132.749 368.984 132.746C368.984 132.743 368.984 132.739 368.984 132.736C368.984 132.732 368.984 132.729 368.984 132.726C368.984 132.722 368.984 132.719 368.984 132.716C368.984 132.712 368.984 132.709 368.984 132.705C368.984 132.702 368.984 132.699 368.984 132.695C368.984 132.692 368.984 132.689 368.984 132.685C368.984 132.682 368.984 132.678 368.984 132.675C368.984 132.672 368.984 132.668 368.984 132.665C368.984 132.662 368.984 132.658 368.984 132.655C368.984 132.652 368.984 132.648 368.984 132.645C368.984 132.641 368.984 132.638 368.984 132.635C368.984 132.631 368.984 132.628 368.984 132.625C368.984 132.621 368.984 132.618 368.984 132.614C368.984 132.611 368.984 132.608 368.984 132.604C368.984 132.601 368.984 132.598 368.984 132.594C368.984 132.591 368.984 132.587 368.984 132.584C368.984 132.581 368.984 132.577 368.984 132.574C368.984 132.571 368.984 132.567 368.984 132.564C368.984 132.56 368.984 132.557 368.984 132.554C368.984 132.55 368.984 132.547 368.984 132.544C368.984 132.54 368.984 132.537 368.984 132.533C368.984 132.53 368.984 132.527 368.984 132.523C368.984 132.52 368.984 132.517 368.984 132.513C368.984 132.51 368.984 132.506 368.984 132.503C368.984 132.5 368.984 132.496 368.984 132.493C368.984 132.49 368.984 132.486 368.984 132.483C368.984 132.48 368.984 132.476 368.984 132.473C368.984 132.469 368.984 132.466 368.984 132.463C368.984 132.459 368.984 132.456 368.984 132.453C368.984 132.449 368.984 132.446 368.984 132.442C368.984 132.439 368.984 132.436 368.984 132.432C368.984 132.429 368.984 132.426 368.984 132.422C368.984 132.419 368.984 132.415 368.984 132.412C368.984 132.409 368.984 132.405 368.984 132.402C368.984 132.399 368.984 132.395 368.984 132.392C368.984 132.388 368.984 132.385 368.984 132.382C368.984 132.378 368.984 132.375 368.984 132.372C368.984 132.368 368.984 132.365 368.984 132.361C368.984 132.358 368.984 132.355 368.984 132.351C368.984 132.348 368.984 132.345 368.984 132.341C368.984 132.338 368.984 132.335 368.984 132.331C368.984 132.328 368.984 132.324 368.984 132.321C368.984 132.318 368.984 132.314 368.984 132.311C368.984 132.308 368.984 132.304 368.984 132.301C368.984 132.297 368.984 132.294 368.984 132.291C368.984 132.287 368.984 132.284 368.984 132.281C368.984 132.277 368.984 132.274 368.984 132.27C368.984 132.267 368.984 132.264 368.984 132.26C368.984 132.257 368.984 132.254 368.984 132.25C368.984 132.247 368.984 132.243 368.984 132.24C368.984 132.237 368.984 132.233 368.984 132.23C368.984 132.227 368.984 132.223 368.984 132.22C368.984 132.216 368.984 132.213 368.984 132.21C368.984 132.206 368.984 132.203 368.984 132.2C368.984 132.196 368.984 132.193 368.984 132.189C368.984 132.186 368.984 132.183 368.984 132.179C368.984 132.176 368.984 132.173 368.984 132.169C368.984 132.166 368.984 132.163 368.984 132.159C368.984 132.156 368.984 132.152 368.984 132.149C368.984 132.146 368.984 132.142 368.984 132.139C368.984 132.136 368.984 132.132 368.984 132.129C368.984 132.125 368.984 132.122 368.984 132.119C368.984 132.115 368.984 132.112 368.984 132.109C368.984 132.105 368.984 132.102 368.984 132.098C368.984 132.095 368.984 132.092 368.984 132.088C368.984 132.085 368.984 132.082 368.984 132.078C368.984 132.075 368.984 132.071 368.984 132.068C368.984 132.065 368.984 132.061 368.984 132.058C368.984 132.055 368.984 132.051 368.984 132.048C368.984 132.044 368.984 132.041 368.984 132.038C368.984 132.034 368.984 132.031 368.984 132.028C368.984 132.024 368.984 132.021 368.984 132.017C368.984 132.014 368.984 132.011 368.984 132.007C368.984 132.004 368.984 132.001 368.984 131.997C368.984 131.994 368.984 131.991 368.984 131.987C368.984 131.984 368.984 131.98 368.984 131.977C368.984 131.974 368.984 131.97 368.984 131.967C368.984 131.964 368.984 131.96 368.984 131.957C368.984 131.953 368.984 131.95 368.984 131.947C368.984 131.943 368.984 131.94 368.984 131.937C368.984 131.933 368.984 131.93 368.984 131.926C368.984 131.923 368.984 131.92 368.984 131.916C368.984 131.913 368.984 131.91 368.984 131.906C368.984 131.903 368.984 131.899 368.984 131.896C368.984 131.893 368.984 131.889 368.984 131.886C368.984 131.883 368.984 131.879 368.984 131.876C368.984 131.872 368.984 131.869 368.984 131.866C368.984 131.862 368.984 131.859 368.984 131.856C368.984 131.852 368.984 131.849 368.984 131.846C368.984 131.842 368.984 131.839 368.984 131.835C368.984 131.832 368.984 131.829 368.984 131.825C368.984 131.822 368.984 131.819 368.984 131.815C368.984 131.812 368.984 131.808 368.984 131.805C368.984 131.802 368.984 131.798 368.984 131.795C368.984 131.792 368.984 131.788 368.984 131.785C368.984 131.781 368.984 131.778 368.984 131.775C368.984 131.771 368.984 131.768 368.984 131.765C368.984 131.761 368.984 131.758 368.984 131.754C368.984 131.751 368.984 131.748 368.984 131.744C368.984 131.741 368.984 131.738 368.984 131.734C368.984 131.731 368.984 131.727 368.984 131.724C368.984 131.721 368.984 131.717 368.984 131.714C368.984 131.711 368.984 131.707 368.984 131.704C368.984 131.7 368.984 131.697 368.984 131.694C368.984 131.69 368.984 131.687 368.984 131.684C368.984 131.68 368.984 131.677 368.984 131.674C368.984 131.67 368.984 131.667 368.984 131.663C368.984 131.66 368.984 131.657 368.984 131.653C368.984 131.65 368.984 131.647 368.984 131.643C368.984 131.64 368.984 131.636 368.984 131.633C368.984 131.63 368.984 131.626 368.984 131.623C368.984 131.62 368.984 131.616 368.984 131.613C368.984 131.609 368.984 131.606 368.984 131.603C368.984 131.599 368.984 131.596 368.984 131.593C368.984 131.589 368.984 131.586 368.984 131.582C368.984 131.579 368.984 131.576 368.984 131.572C368.984 131.569 368.984 131.566 368.984 131.562C368.984 131.559 368.984 131.555 368.984 131.552C368.984 131.549 368.984 131.545 368.984 131.542C368.984 131.539 368.984 131.535 368.984 131.532C368.984 131.528 368.984 131.525 368.984 131.522C368.984 131.518 368.984 131.515 368.984 131.512C368.984 131.508 368.984 131.505 368.984 131.502C368.984 131.498 368.984 131.495 368.984 131.491C368.984 131.488 368.984 131.485 368.984 131.481C368.984 131.478 368.984 131.475 368.984 131.471C368.984 131.468 368.984 131.464 368.984 131.461C368.984 131.458 368.984 131.454 368.984 131.451C368.984 131.448 368.984 131.444 368.984 131.441C368.984 131.437 368.984 131.434 368.984 131.431C368.984 131.427 368.984 131.424 368.984 131.421C368.984 131.417 368.984 131.414 368.984 131.41C368.984 131.407 368.984 131.404 368.984 131.4C368.984 131.397 368.984 131.394 368.984 131.39C368.984 131.387 368.984 131.383 368.984 131.38C368.984 131.377 368.984 131.373 368.984 131.37H367.984H366.984C366.984 131.373 366.984 131.377 366.984 131.38C366.984 131.383 366.984 131.387 366.984 131.39C366.984 131.394 366.984 131.397 366.984 131.4C366.984 131.404 366.984 131.407 366.984 131.41C366.984 131.414 366.984 131.417 366.984 131.421C366.984 131.424 366.984 131.427 366.984 131.431C366.984 131.434 366.984 131.437 366.984 131.441C366.984 131.444 366.984 131.448 366.984 131.451C366.984 131.454 366.984 131.458 366.984 131.461C366.984 131.464 366.984 131.468 366.984 131.471C366.984 131.475 366.984 131.478 366.984 131.481C366.984 131.485 366.984 131.488 366.984 131.491C366.984 131.495 366.984 131.498 366.984 131.502C366.984 131.505 366.984 131.508 366.984 131.512C366.984 131.515 366.984 131.518 366.984 131.522C366.984 131.525 366.984 131.528 366.984 131.532C366.984 131.535 366.984 131.539 366.984 131.542C366.984 131.545 366.984 131.549 366.984 131.552C366.984 131.555 366.984 131.559 366.984 131.562C366.984 131.566 366.984 131.569 366.984 131.572C366.984 131.576 366.984 131.579 366.984 131.582C366.984 131.586 366.984 131.589 366.984 131.593C366.984 131.596 366.984 131.599 366.984 131.603C366.984 131.606 366.984 131.609 366.984 131.613C366.984 131.616 366.984 131.62 366.984 131.623C366.984 131.626 366.984 131.63 366.984 131.633C366.984 131.636 366.984 131.64 366.984 131.643C366.984 131.647 366.984 131.65 366.984 131.653C366.984 131.657 366.984 131.66 366.984 131.663C366.984 131.667 366.984 131.67 366.984 131.674C366.984 131.677 366.984 131.68 366.984 131.684C366.984 131.687 366.984 131.69 366.984 131.694C366.984 131.697 366.984 131.7 366.984 131.704C366.984 131.707 366.984 131.711 366.984 131.714C366.984 131.717 366.984 131.721 366.984 131.724C366.984 131.727 366.984 131.731 366.984 131.734C366.984 131.738 366.984 131.741 366.984 131.744C366.984 131.748 366.984 131.751 366.984 131.754C366.984 131.758 366.984 131.761 366.984 131.765C366.984 131.768 366.984 131.771 366.984 131.775C366.984 131.778 366.984 131.781 366.984 131.785C366.984 131.788 366.984 131.792 366.984 131.795C366.984 131.798 366.984 131.802 366.984 131.805C366.984 131.808 366.984 131.812 366.984 131.815C366.984 131.819 366.984 131.822 366.984 131.825C366.984 131.829 366.984 131.832 366.984 131.835C366.984 131.839 366.984 131.842 366.984 131.846C366.984 131.849 366.984 131.852 366.984 131.856C366.984 131.859 366.984 131.862 366.984 131.866C366.984 131.869 366.984 131.872 366.984 131.876C366.984 131.879 366.984 131.883 366.984 131.886C366.984 131.889 366.984 131.893 366.984 131.896C366.984 131.899 366.984 131.903 366.984 131.906C366.984 131.91 366.984 131.913 366.984 131.916C366.984 131.92 366.984 131.923 366.984 131.926C366.984 131.93 366.984 131.933 366.984 131.937C366.984 131.94 366.984 131.943 366.984 131.947C366.984 131.95 366.984 131.953 366.984 131.957C366.984 131.96 366.984 131.964 366.984 131.967C366.984 131.97 366.984 131.974 366.984 131.977C366.984 131.98 366.984 131.984 366.984 131.987C366.984 131.991 366.984 131.994 366.984 131.997C366.984 132.001 366.984 132.004 366.984 132.007C366.984 132.011 366.984 132.014 366.984 132.017C366.984 132.021 366.984 132.024 366.984 132.028C366.984 132.031 366.984 132.034 366.984 132.038C366.984 132.041 366.984 132.044 366.984 132.048C366.984 132.051 366.984 132.055 366.984 132.058C366.984 132.061 366.984 132.065 366.984 132.068C366.984 132.071 366.984 132.075 366.984 132.078C366.984 132.082 366.984 132.085 366.984 132.088C366.984 132.092 366.984 132.095 366.984 132.098C366.984 132.102 366.984 132.105 366.984 132.109C366.984 132.112 366.984 132.115 366.984 132.119C366.984 132.122 366.984 132.125 366.984 132.129C366.984 132.132 366.984 132.136 366.984 132.139C366.984 132.142 366.984 132.146 366.984 132.149C366.984 132.152 366.984 132.156 366.984 132.159C366.984 132.163 366.984 132.166 366.984 132.169C366.984 132.173 366.984 132.176 366.984 132.179C366.984 132.183 366.984 132.186 366.984 132.189C366.984 132.193 366.984 132.196 366.984 132.2C366.984 132.203 366.984 132.206 366.984 132.21C366.984 132.213 366.984 132.216 366.984 132.22C366.984 132.223 366.984 132.227 366.984 132.23C366.984 132.233 366.984 132.237 366.984 132.24C366.984 132.243 366.984 132.247 366.984 132.25C366.984 132.254 366.984 132.257 366.984 132.26C366.984 132.264 366.984 132.267 366.984 132.27C366.984 132.274 366.984 132.277 366.984 132.281C366.984 132.284 366.984 132.287 366.984 132.291C366.984 132.294 366.984 132.297 366.984 132.301C366.984 132.304 366.984 132.308 366.984 132.311C366.984 132.314 366.984 132.318 366.984 132.321C366.984 132.324 366.984 132.328 366.984 132.331C366.984 132.335 366.984 132.338 366.984 132.341C366.984 132.345 366.984 132.348 366.984 132.351C366.984 132.355 366.984 132.358 366.984 132.361C366.984 132.365 366.984 132.368 366.984 132.372C366.984 132.375 366.984 132.378 366.984 132.382C366.984 132.385 366.984 132.388 366.984 132.392C366.984 132.395 366.984 132.399 366.984 132.402C366.984 132.405 366.984 132.409 366.984 132.412C366.984 132.415 366.984 132.419 366.984 132.422C366.984 132.426 366.984 132.429 366.984 132.432C366.984 132.436 366.984 132.439 366.984 132.442C366.984 132.446 366.984 132.449 366.984 132.453C366.984 132.456 366.984 132.459 366.984 132.463C366.984 132.466 366.984 132.469 366.984 132.473C366.984 132.476 366.984 132.48 366.984 132.483C366.984 132.486 366.984 132.49 366.984 132.493C366.984 132.496 366.984 132.5 366.984 132.503C366.984 132.506 366.984 132.51 366.984 132.513C366.984 132.517 366.984 132.52 366.984 132.523C366.984 132.527 366.984 132.53 366.984 132.533C366.984 132.537 366.984 132.54 366.984 132.544C366.984 132.547 366.984 132.55 366.984 132.554C366.984 132.557 366.984 132.56 366.984 132.564C366.984 132.567 366.984 132.571 366.984 132.574C366.984 132.577 366.984 132.581 366.984 132.584C366.984 132.587 366.984 132.591 366.984 132.594C366.984 132.598 366.984 132.601 366.984 132.604C366.984 132.608 366.984 132.611 366.984 132.614C366.984 132.618 366.984 132.621 366.984 132.625C366.984 132.628 366.984 132.631 366.984 132.635C366.984 132.638 366.984 132.641 366.984 132.645C366.984 132.648 366.984 132.652 366.984 132.655C366.984 132.658 366.984 132.662 366.984 132.665C366.984 132.668 366.984 132.672 366.984 132.675C366.984 132.678 366.984 132.682 366.984 132.685C366.984 132.689 366.984 132.692 366.984 132.695C366.984 132.699 366.984 132.702 366.984 132.705C366.984 132.709 366.984 132.712 366.984 132.716C366.984 132.719 366.984 132.722 366.984 132.726C366.984 132.729 366.984 132.732 366.984 132.736C366.984 132.739 366.984 132.743 366.984 132.746C366.984 132.749 366.984 132.753 366.984 132.756C366.984 132.759 366.984 132.763 366.984 132.766C366.984 132.77 366.984 132.773 366.984 132.776C366.984 132.78 366.984 132.783 366.984 132.786C366.984 132.79 366.984 132.793 366.984 132.797C366.984 132.8 366.984 132.803 366.984 132.807C366.984 132.81 366.984 132.813 366.984 132.817C366.984 132.82 366.984 132.823 366.984 132.827C366.984 132.83 366.984 132.834 366.984 132.837C366.984 132.84 366.984 132.844 366.984 132.847C366.984 132.85 366.984 132.854 366.984 132.857C366.984 132.861 366.984 132.864 366.984 132.867C366.984 132.871 366.984 132.874 366.984 132.877C366.984 132.881 366.984 132.884 366.984 132.888C366.984 132.891 366.984 132.894 366.984 132.898C366.984 132.901 366.984 132.904 366.984 132.908C366.984 132.911 366.984 132.915 366.984 132.918C366.984 132.921 366.984 132.925 366.984 132.928C366.984 132.931 366.984 132.935 366.984 132.938C366.984 132.942 366.984 132.945 366.984 132.948C366.984 132.952 366.984 132.955 366.984 132.958C366.984 132.962 366.984 132.965 366.984 132.969C366.984 132.972 366.984 132.975 366.984 132.979C366.984 132.982 366.984 132.985 366.984 132.989C366.984 132.992 366.984 132.995 366.984 132.999C366.984 133.002 366.984 133.006 366.984 133.009C366.984 133.012 366.984 133.016 366.984 133.019C366.984 133.022 366.984 133.026 366.984 133.029C366.984 133.033 366.984 133.036 366.984 133.039C366.984 133.043 366.984 133.046 366.984 133.049C366.984 133.053 366.984 133.056 366.984 133.06C366.984 133.063 366.984 133.066 366.984 133.07C366.984 133.073 366.984 133.076 366.984 133.08C366.984 133.083 366.984 133.087 366.984 133.09C366.984 133.093 366.984 133.097 366.984 133.1C366.984 133.103 366.984 133.107 366.984 133.11C366.984 133.114 366.984 133.117 366.984 133.12C366.984 133.124 366.984 133.127 366.984 133.13C366.984 133.134 366.984 133.137 366.984 133.141C366.984 133.144 366.984 133.147 366.984 133.151C366.984 133.154 366.984 133.157 366.984 133.161C366.984 133.164 366.984 133.167 366.984 133.171C366.984 133.174 366.984 133.178 366.984 133.181C366.984 133.184 366.984 133.188 366.984 133.191C366.984 133.194 366.984 133.198 366.984 133.201C366.984 133.205 366.984 133.208 366.984 133.211C366.984 133.215 366.984 133.218 366.984 133.221C366.984 133.225 366.984 133.228 366.984 133.232C366.984 133.235 366.984 133.238 366.984 133.242C366.984 133.245 366.984 133.248 366.984 133.252C366.984 133.255 366.984 133.259 366.984 133.262C366.984 133.265 366.984 133.269 366.984 133.272C366.984 133.275 366.984 133.279 366.984 133.282C366.984 133.286 366.984 133.289 366.984 133.292C366.984 133.296 366.984 133.299 366.984 133.302C366.984 133.306 366.984 133.309 366.984 133.312C366.984 133.316 366.984 133.319 366.984 133.323C366.984 133.326 366.984 133.329 366.984 133.333C366.984 133.336 366.984 133.339 366.984 133.343C366.984 133.346 366.984 133.35 366.984 133.353C366.984 133.356 366.984 133.36 366.984 133.363C366.984 133.366 366.984 133.37 366.984 133.373C366.984 133.377 366.984 133.38 366.984 133.383C366.984 133.387 366.984 133.39 366.984 133.393C366.984 133.397 366.984 133.4 366.984 133.404C366.984 133.407 366.984 133.41 366.984 133.414C366.984 133.417 366.984 133.42 366.984 133.424C366.984 133.427 366.984 133.431 366.984 133.434C366.984 133.437 366.984 133.441 366.984 133.444C366.984 133.447 366.984 133.451 366.984 133.454C366.984 133.458 366.984 133.461 366.984 133.464C366.984 133.468 366.984 133.471 366.984 133.474C366.984 133.478 366.984 133.481 366.984 133.484C366.984 133.488 366.984 133.491 366.984 133.495C366.984 133.498 366.984 133.501 366.984 133.505C366.984 133.508 366.984 133.511 366.984 133.515C366.984 133.518 366.984 133.522 366.984 133.525C366.984 133.528 366.984 133.532 366.984 133.535C366.984 133.538 366.984 133.542 366.984 133.545C366.984 133.549 366.984 133.552 366.984 133.555C366.984 133.559 366.984 133.562 366.984 133.565C366.984 133.569 366.984 133.572 366.984 133.576C366.984 133.579 366.984 133.582 366.984 133.586C366.984 133.589 366.984 133.592 366.984 133.596C366.984 133.599 366.984 133.603 366.984 133.606C366.984 133.609 366.984 133.613 366.984 133.616C366.984 133.619 366.984 133.623 366.984 133.626C366.984 133.63 366.984 133.633 366.984 133.636C366.984 133.64 366.984 133.643 366.984 133.646C366.984 133.65 366.984 133.653 366.984 133.656C366.984 133.66 366.984 133.663 366.984 133.667C366.984 133.67 366.984 133.673 366.984 133.677C366.984 133.68 366.984 133.683 366.984 133.687C366.984 133.69 366.984 133.694 366.984 133.697C366.984 133.7 366.984 133.704 366.984 133.707C366.984 133.71 366.984 133.714 366.984 133.717C366.984 133.721 366.984 133.724 366.984 133.727C366.984 133.731 366.984 133.734 366.984 133.737C366.984 133.741 366.984 133.744 366.984 133.748C366.984 133.751 366.984 133.754 366.984 133.758C366.984 133.761 366.984 133.764 366.984 133.768C366.984 133.771 366.984 133.775 366.984 133.778C366.984 133.781 366.984 133.785 366.984 133.788C366.984 133.791 366.984 133.795 366.984 133.798C366.984 133.801 366.984 133.805 366.984 133.808C366.984 133.812 366.984 133.815 366.984 133.818C366.984 133.822 366.984 133.825 366.984 133.828C366.984 133.832 366.984 133.835 366.984 133.839C366.984 133.842 366.984 133.845 366.984 133.849C366.984 133.852 366.984 133.855 366.984 133.859C366.984 133.862 366.984 133.866 366.984 133.869C366.984 133.872 366.984 133.876 366.984 133.879C366.984 133.882 366.984 133.886 366.984 133.889C366.984 133.893 366.984 133.896 366.984 133.899C366.984 133.903 366.984 133.906 366.984 133.909C366.984 133.913 366.984 133.916 366.984 133.92C366.984 133.923 366.984 133.926 366.984 133.93C366.984 133.933 366.984 133.936 366.984 133.94C366.984 133.943 366.984 133.947 366.984 133.95C366.984 133.953 366.984 133.957 366.984 133.96C366.984 133.963 366.984 133.967 366.984 133.97C366.984 133.973 366.984 133.977 366.984 133.98C366.984 133.984 366.984 133.987 366.984 133.99C366.984 133.994 366.984 133.997 366.984 134C366.984 134.004 366.984 134.007 366.984 134.011C366.984 134.014 366.984 134.017 366.984 134.021C366.984 134.024 366.984 134.027 366.984 134.031C366.984 134.034 366.984 134.038 366.984 134.041C366.984 134.044 366.984 134.048 366.984 134.051C366.984 134.054 366.984 134.058 366.984 134.061C366.984 134.065 366.984 134.068 366.984 134.071C366.984 134.075 366.984 134.078 366.984 134.081C366.984 134.085 366.984 134.088 366.984 134.092C366.984 134.095 366.984 134.098 366.984 134.102C366.984 134.105 366.984 134.108 366.984 134.112C366.984 134.115 366.984 134.119 366.984 134.122C366.984 134.125 366.984 134.129 366.984 134.132C366.984 134.135 366.984 134.139 366.984 134.142C366.984 134.145 366.984 134.149 366.984 134.152C366.984 134.156 366.984 134.159 366.984 134.162C366.984 134.166 366.984 134.169 366.984 134.172C366.984 134.176 366.984 134.179 366.984 134.183C366.984 134.186 366.984 134.189 366.984 134.193C366.984 134.196 366.984 134.199 366.984 134.203C366.984 134.206 366.984 134.21 366.984 134.213C366.984 134.216 366.984 134.22 366.984 134.223C366.984 134.226 366.984 134.23 366.984 134.233C366.984 134.237 366.984 134.24 366.984 134.243C366.984 134.247 366.984 134.25 366.984 134.253C366.984 134.257 366.984 134.26 366.984 134.264C366.984 134.267 366.984 134.27 366.984 134.274C366.984 134.277 366.984 134.28 366.984 134.284C366.984 134.287 366.984 134.29 366.984 134.294C366.984 134.297 366.984 134.301 366.984 134.304C366.984 134.307 366.984 134.311 366.984 134.314C366.984 134.317 366.984 134.321 366.984 134.324C366.984 134.328 366.984 134.331 366.984 134.334C366.984 134.338 366.984 134.341 366.984 134.344C366.984 134.348 366.984 134.351 366.984 134.355C366.984 134.358 366.984 134.361 366.984 134.365C366.984 134.368 366.984 134.371 366.984 134.375C366.984 134.378 366.984 134.382 366.984 134.385C366.984 134.388 366.984 134.392 366.984 134.395C366.984 134.398 366.984 134.402 366.984 134.405C366.984 134.409 366.984 134.412 366.984 134.415C366.984 134.419 366.984 134.422 366.984 134.425C366.984 134.429 366.984 134.432 366.984 134.436C366.984 134.439 366.984 134.442 366.984 134.446C366.984 134.449 366.984 134.452 366.984 134.456C366.984 134.459 366.984 134.462 366.984 134.466C366.984 134.469 366.984 134.473 366.984 134.476C366.984 134.479 366.984 134.483 366.984 134.486C366.984 134.489 366.984 134.493 366.984 134.496C366.984 134.5 366.984 134.503 366.984 134.506C366.984 134.51 366.984 134.513 366.984 134.516C366.984 134.52 366.984 134.523 366.984 134.527C366.984 134.53 366.984 134.533 366.984 134.537C366.984 134.54 366.984 134.543 366.984 134.547C366.984 134.55 366.984 134.554 366.984 134.557C366.984 134.56 366.984 134.564 366.984 134.567C366.984 134.57 366.984 134.574 366.984 134.577C366.984 134.581 366.984 134.584 366.984 134.587C366.984 134.591 366.984 134.594 366.984 134.597C366.984 134.601 366.984 134.604 366.984 134.607C366.984 134.611 366.984 134.614 366.984 134.618C366.984 134.621 366.984 134.624 366.984 134.628C366.984 134.631 366.984 134.634 366.984 134.638C366.984 134.641 366.984 134.645 366.984 134.648C366.984 134.651 366.984 134.655 366.984 134.658C366.984 134.661 366.984 134.665 366.984 134.668C366.984 134.672 366.984 134.675 366.984 134.678C366.984 134.682 366.984 134.685 366.984 134.688C366.984 134.692 366.984 134.695 366.984 134.699C366.984 134.702 366.984 134.705 366.984 134.709C366.984 134.712 366.984 134.715 366.984 134.719C366.984 134.722 366.984 134.726 366.984 134.729C366.984 134.732 366.984 134.736 366.984 134.739C366.984 134.742 366.984 134.746 366.984 134.749C366.984 134.753 366.984 134.756 366.984 134.759C366.984 134.763 366.984 134.766 366.984 134.769C366.984 134.773 366.984 134.776 366.984 134.779C366.984 134.783 366.984 134.786 366.984 134.79C366.984 134.793 366.984 134.796 366.984 134.8C366.984 134.803 366.984 134.806 366.984 134.81C366.984 134.813 366.984 134.817 366.984 134.82C366.984 134.823 366.984 134.827 366.984 134.83C366.984 134.833 366.984 134.837 366.984 134.84C366.984 134.844 366.984 134.847 366.984 134.85C366.984 134.854 366.984 134.857 366.984 134.86C366.984 134.864 366.984 134.867 366.984 134.871C366.984 134.874 366.984 134.877 366.984 134.881C366.984 134.884 366.984 134.887 366.984 134.891C366.984 134.894 366.984 134.898 366.984 134.901C366.984 134.904 366.984 134.908 366.984 134.911C366.984 134.914 366.984 134.918 366.984 134.921C366.984 134.925 366.984 134.928 366.984 134.931C366.984 134.935 366.984 134.938 366.984 134.941C366.984 134.945 366.984 134.948 366.984 134.951C366.984 134.955 366.984 134.958 366.984 134.962C366.984 134.965 366.984 134.968 366.984 134.972C366.984 134.975 366.984 134.978 366.984 134.982C366.984 134.985 366.984 134.989 366.984 134.992C366.984 134.995 366.984 134.999 366.984 135.002C366.984 135.005 366.984 135.009 366.984 135.012C366.984 135.016 366.984 135.019 366.984 135.022C366.984 135.026 366.984 135.029 366.984 135.032C366.984 135.036 366.984 135.039 366.984 135.043C366.984 135.046 366.984 135.049 366.984 135.053C366.984 135.056 366.984 135.059 366.984 135.063C366.984 135.066 366.984 135.07 366.984 135.073C366.984 135.076 366.984 135.08 366.984 135.083C366.984 135.086 366.984 135.09 366.984 135.093C366.984 135.096 366.984 135.1 366.984 135.103C366.984 135.107 366.984 135.11 366.984 135.113C366.984 135.117 366.984 135.12 366.984 135.123C366.984 135.127 366.984 135.13 366.984 135.134C366.984 135.137 366.984 135.14 366.984 135.144C366.984 135.147 366.984 135.15 366.984 135.154C366.984 135.157 366.984 135.161 366.984 135.164C366.984 135.167 366.984 135.171 366.984 135.174C366.984 135.177 366.984 135.181 366.984 135.184C366.984 135.188 366.984 135.191 366.984 135.194C366.984 135.198 366.984 135.201 366.984 135.204C366.984 135.208 366.984 135.211 366.984 135.215C366.984 135.218 366.984 135.221 366.984 135.225C366.984 135.228 366.984 135.231 366.984 135.235C366.984 135.238 366.984 135.242 366.984 135.245C366.984 135.248 366.984 135.252 366.984 135.255C366.984 135.258 366.984 135.262 366.984 135.265C366.984 135.268 366.984 135.272 366.984 135.275C366.984 135.279 366.984 135.282 366.984 135.285C366.984 135.289 366.984 135.292 366.984 135.295C366.984 135.299 366.984 135.302 366.984 135.306C366.984 135.309 366.984 135.312 366.984 135.316C366.984 135.319 366.984 135.322 366.984 135.326C366.984 135.329 366.984 135.333 366.984 135.336C366.984 135.339 366.984 135.343 366.984 135.346C366.984 135.349 366.984 135.353 366.984 135.356C366.984 135.36 366.984 135.363 366.984 135.366C366.984 135.37 366.984 135.373 366.984 135.376C366.984 135.38 366.984 135.383 366.984 135.387C366.984 135.39 366.984 135.393 366.984 135.397C366.984 135.4 366.984 135.403 366.984 135.407C366.984 135.41 366.984 135.414 366.984 135.417C366.984 135.42 366.984 135.424 366.984 135.427C366.984 135.43 366.984 135.434 366.984 135.437C366.984 135.44 366.984 135.444 366.984 135.447C366.984 135.451 366.984 135.454 366.984 135.457C366.984 135.461 366.984 135.464 366.984 135.467C366.984 135.471 366.984 135.474 366.984 135.478C366.984 135.481 366.984 135.484 366.984 135.488C366.984 135.491 366.984 135.494 366.984 135.498C366.984 135.501 366.984 135.505 366.984 135.508C366.984 135.511 366.984 135.515 366.984 135.518C366.984 135.521 366.984 135.525 366.984 135.528C366.984 135.532 366.984 135.535 366.984 135.538C366.984 135.542 366.984 135.545 366.984 135.548C366.984 135.552 366.984 135.555 366.984 135.559C366.984 135.562 366.984 135.565 366.984 135.569C366.984 135.572 366.984 135.575 366.984 135.579C366.984 135.582 366.984 135.585 366.984 135.589C366.984 135.592 366.984 135.596 366.984 135.599C366.984 135.602 366.984 135.606 366.984 135.609C366.984 135.612 366.984 135.616 366.984 135.619C366.984 135.623 366.984 135.626 366.984 135.629C366.984 135.633 366.984 135.636 366.984 135.639C366.984 135.643 366.984 135.646 366.984 135.65C366.984 135.653 366.984 135.656 366.984 135.66C366.984 135.663 366.984 135.666 366.984 135.67C366.984 135.673 366.984 135.677 366.984 135.68C366.984 135.683 366.984 135.687 366.984 135.69C366.984 135.693 366.984 135.697 366.984 135.7C366.984 135.704 366.984 135.707 366.984 135.71C366.984 135.714 366.984 135.717 366.984 135.72C366.984 135.724 366.984 135.727 366.984 135.731C366.984 135.734 366.984 135.737 366.984 135.741C366.984 135.744 366.984 135.747 366.984 135.751C366.984 135.754 366.984 135.757 366.984 135.761C366.984 135.764 366.984 135.768 366.984 135.771C366.984 135.774 366.984 135.778 366.984 135.781C366.984 135.784 366.984 135.788 366.984 135.791C366.984 135.795 366.984 135.798 366.984 135.801C366.984 135.805 366.984 135.808 366.984 135.811C366.984 135.815 366.984 135.818 366.984 135.822C366.984 135.825 366.984 135.828 366.984 135.832C366.984 135.835 366.984 135.838 366.984 135.842C366.984 135.845 366.984 135.849 366.984 135.852C366.984 135.855 366.984 135.859 366.984 135.862C366.984 135.865 366.984 135.869 366.984 135.872C366.984 135.876 366.984 135.879 366.984 135.882C366.984 135.886 366.984 135.889 366.984 135.892C366.984 135.896 366.984 135.899 366.984 135.902C366.984 135.906 366.984 135.909 366.984 135.913C366.984 135.916 366.984 135.919 366.984 135.923C366.984 135.926 366.984 135.929 366.984 135.933C366.984 135.936 366.984 135.94 366.984 135.943C366.984 135.946 366.984 135.95 366.984 135.953C366.984 135.956 366.984 135.96 366.984 135.963C366.984 135.967 366.984 135.97 366.984 135.973C366.984 135.977 366.984 135.98 366.984 135.983C366.984 135.987 366.984 135.99 366.984 135.994C366.984 135.997 366.984 136 366.984 136.004C366.984 136.007 366.984 136.01 366.984 136.014C366.984 136.017 366.984 136.021 366.984 136.024C366.984 136.027 366.984 136.031 366.984 136.034C366.984 136.037 366.984 136.041 366.984 136.044C366.984 136.048 366.984 136.051 366.984 136.054C366.984 136.058 366.984 136.061 366.984 136.064C366.984 136.068 366.984 136.071 366.984 136.074C366.984 136.078 366.984 136.081 366.984 136.085C366.984 136.088 366.984 136.091 366.984 136.095C366.984 136.098 366.984 136.101 366.984 136.105C366.984 136.108 366.984 136.112 366.984 136.115C366.984 136.118 366.984 136.122 366.984 136.125C366.984 136.128 366.984 136.132 366.984 136.135C366.984 136.139 366.984 136.142 366.984 136.145C366.984 136.149 366.984 136.152 366.984 136.155C366.984 136.159 366.984 136.162 366.984 136.166C366.984 136.169 366.984 136.172 366.984 136.176C366.984 136.179 366.984 136.182 366.984 136.186C366.984 136.189 366.984 136.193 366.984 136.196C366.984 136.199 366.984 136.203 366.984 136.206C366.984 136.209 366.984 136.213 366.984 136.216C366.984 136.22 366.984 136.223 366.984 136.226C366.984 136.23 366.984 136.233 366.984 136.236C366.984 136.24 366.984 136.243 366.984 136.246C366.984 136.25 366.984 136.253 366.984 136.257C366.984 136.26 366.984 136.263 366.984 136.267C366.984 136.27 366.984 136.273 366.984 136.277C366.984 136.28 366.984 136.284 366.984 136.287C366.984 136.29 366.984 136.294 366.984 136.297C366.984 136.3 366.984 136.304 366.984 136.307C366.984 136.311 366.984 136.314 366.984 136.317C366.984 136.321 366.984 136.324 366.984 136.327C366.984 136.331 366.984 136.334 366.984 136.338C366.984 136.341 366.984 136.344 366.984 136.348C366.984 136.351 366.984 136.354 366.984 136.358C366.984 136.361 366.984 136.365 366.984 136.368C366.984 136.371 366.984 136.375 366.984 136.378C366.984 136.381 366.984 136.385 366.984 136.388C366.984 136.391 366.984 136.395 366.984 136.398C366.984 136.402 366.984 136.405 366.984 136.408C366.984 136.412 366.984 136.415 366.984 136.418C366.984 136.422 366.984 136.425 366.984 136.429C366.984 136.432 366.984 136.435 366.984 136.439C366.984 136.442 366.984 136.445 366.984 136.449C366.984 136.452 366.984 136.456 366.984 136.459C366.984 136.462 366.984 136.466 366.984 136.469C366.984 136.472 366.984 136.476 366.984 136.479C366.984 136.483 366.984 136.486 366.984 136.489C366.984 136.493 366.984 136.496 366.984 136.499C366.984 136.503 366.984 136.506 366.984 136.51C366.984 136.513 366.984 136.516 366.984 136.52C366.984 136.523 366.984 136.526 366.984 136.53C366.984 136.533 366.984 136.537 366.984 136.54C366.984 136.543 366.984 136.547 366.984 136.55H367.984ZM367.984 131.37H368.984C368.984 118.762 364.427 108.837 355.278 101.721L354.664 102.51L354.05 103.299C362.66 109.997 366.984 119.311 366.984 131.37H367.984ZM354.664 102.51L355.218 101.678C354.478 101.185 353.738 100.691 352.998 100.198L352.444 101.03L351.889 101.862C352.629 102.355 353.369 102.849 354.109 103.342L354.664 102.51ZM352.444 101.03L352.1 100.091C339.385 104.737 326.181 107.06 312.484 107.06V108.06V109.06C326.413 109.06 339.849 106.697 352.787 101.969L352.444 101.03ZM312.484 108.06V107.06C304.497 107.06 298.617 106.381 294.767 105.078C290.898 103.768 289.434 101.978 289.434 99.92H288.434H287.434C287.434 103.289 289.978 105.568 294.126 106.972C298.292 108.382 304.437 109.06 312.484 109.06V108.06ZM288.434 99.92H289.434C289.434 98.4522 289.935 97.1828 290.97 96.0679C292.026 94.9308 293.67 93.9229 295.987 93.0912C300.631 91.424 307.706 90.56 317.294 90.56V89.56V88.56C307.642 88.56 300.287 89.4226 295.311 91.2088C292.818 92.1038 290.854 93.2542 289.505 94.707C288.135 96.1822 287.434 97.9344 287.434 99.92H288.434ZM317.294 89.56V90.56C330.052 90.56 341.432 91.9096 351.445 94.5958L351.704 93.63L351.963 92.6641C341.749 89.9237 330.189 88.56 317.294 88.56V89.56ZM351.704 93.63L352.169 94.5149C356.93 92.0092 361.436 88.8796 365.685 85.1298L365.024 84.38L364.362 83.6302C360.225 87.2804 355.85 90.3175 351.238 92.7451L351.704 93.63ZM365.024 84.38L365.666 85.1462C381.166 72.1466 388.964 56.2112 388.964 37.39H387.964H386.964C386.964 55.5688 379.468 70.9601 364.381 83.6138L365.024 84.38ZM387.964 37.39H388.964C388.964 26.8315 385.941 18.4129 379.791 12.2629L379.084 12.97L378.377 13.6771C384.067 19.3671 386.964 27.2285 386.964 37.39H387.964ZM379.084 12.97L379.791 12.2629C373.641 6.1129 365.222 3.08998 354.664 3.08998V4.08998V5.08998C364.825 5.08998 372.687 7.98706 378.377 13.6771L379.084 12.97ZM354.664 4.08998V3.08998C332.257 3.08998 311.398 16.571 292.066 43.0909L292.874 43.68L293.682 44.2691C312.83 18.0023 333.164 5.08998 354.664 5.08998V4.08998ZM292.874 43.68L292.06 43.0988C283.407 55.2131 278.924 65.1771 278.924 72.91H279.924H280.924C280.924 65.8429 285.074 56.3202 293.687 44.2612L292.874 43.68ZM279.924 72.91H278.924C278.924 76.9834 280.32 80.1801 283.215 82.3171C286.053 84.4121 290.19 85.38 295.464 85.38V84.38V83.38C290.377 83.38 286.744 82.4362 284.403 80.7079C282.118 79.0215 280.924 76.4833 280.924 72.91H279.924ZM295.464 84.38V85.38C305.158 85.38 316.225 80.5428 328.629 71.1162L328.024 70.32L327.419 69.5238C315.155 78.8439 304.517 83.38 295.464 83.38V84.38ZM328.024 70.32L328.633 71.1126C341.533 61.1902 348.264 51.3115 348.264 41.46H347.264H346.264C346.264 50.3552 340.168 59.7165 327.414 69.5274L328.024 70.32ZM347.264 41.46H348.264C348.264 39.5741 347.824 37.8971 346.9 36.475C345.976 35.0544 344.613 33.9551 342.873 33.152L342.454 34.06L342.035 34.968C343.501 35.6449 344.543 36.519 345.223 37.565C345.902 38.6096 346.264 39.8925 346.264 41.46H347.264ZM342.454 34.06L343.161 33.3529C342.938 33.1297 342.803 32.9663 342.731 32.8578C342.695 32.8048 342.687 32.7821 342.688 32.7867C342.689 32.7893 342.714 32.8487 342.714 32.95H341.714H340.714C340.714 33.3739 340.91 33.7324 341.067 33.9672C341.241 34.2287 341.476 34.4969 341.747 34.7671L342.454 34.06ZM341.714 32.95H342.714C342.714 32.8453 342.727 32.7945 342.732 32.7806C342.735 32.7715 342.728 32.7949 342.698 32.8246C342.669 32.8543 342.645 32.8611 342.654 32.858C342.668 32.8534 342.719 32.84 342.824 32.84V31.84V30.84C342.3 30.84 341.723 30.9717 341.284 31.4104C340.845 31.8491 340.714 32.4258 340.714 32.95H341.714ZM342.824 31.84V32.84C344.768 32.84 346.101 33.5213 346.996 34.8142C347.938 36.1737 348.484 38.3378 348.484 41.46H349.484H350.484C350.484 38.1688 349.92 35.5229 348.641 33.6758C347.316 31.7621 345.319 30.84 342.824 30.84V31.84ZM349.484 41.46H348.484C348.484 51.8857 342.449 62.1121 329.987 72.1306L330.614 72.91L331.24 73.6894C343.938 63.4812 350.484 52.7409 350.484 41.46H349.484ZM330.614 72.91L330.026 72.1006C317.546 81.1549 306.033 85.6 295.464 85.6V86.6V87.6C306.601 87.6 318.521 82.9184 331.201 73.7194L330.614 72.91ZM295.464 86.6V85.6C287.586 85.6 281.864 83.7505 278.11 80.2283C274.369 76.7173 272.414 71.3824 272.414 64.03H271.414H270.414C270.414 71.7243 272.466 77.6743 276.742 81.6867C281.005 85.6878 287.308 87.6 295.464 87.6V86.6ZM271.414 64.03H272.414C272.414 56.6019 274.686 49.5183 279.271 42.7615L278.444 42.2L277.616 41.6385C272.828 48.695 270.414 56.1648 270.414 64.03H271.414ZM278.444 42.2L279.248 42.7944C283.396 37.1816 288.156 32.0559 293.527 27.4168L292.874 26.66L292.22 25.9032C286.738 30.6374 281.878 35.8717 277.64 41.6056L278.444 42.2ZM292.874 26.66L293.511 27.431C299.126 22.7923 305.605 18.5118 312.954 14.5923L312.484 13.71L312.013 12.8276C304.562 16.8015 297.968 21.1543 292.237 25.889L292.874 26.66ZM312.484 13.71L312.96 14.589C327.399 6.75775 341.296 2.86999 354.664 2.86999V1.86999V0.869991C340.898 0.869991 326.675 4.87557 312.007 12.831L312.484 13.71ZM354.664 1.86999V2.86999C368.098 2.86999 379.386 5.55656 388.573 10.8754L389.074 10.01L389.575 9.14457C380.015 3.61009 368.362 0.869991 354.664 0.869991V1.86999ZM389.074 10.01L388.551 10.8623C399.105 17.3388 404.354 26.7579 404.354 39.24H405.354H406.354C406.354 26.0687 400.749 16.0012 389.597 9.15767L389.074 10.01ZM405.354 39.24H404.354C404.354 51.7788 399.418 63.7633 389.43 75.2126L390.184 75.87L390.937 76.5274C401.176 64.79 406.354 52.3545 406.354 39.24H405.354ZM390.184 75.87L389.437 75.2044C381.388 84.23 372.003 91.1754 361.28 96.0496L361.694 96.96L362.107 97.8704C373.091 92.878 382.7 85.7634 390.93 76.5356L390.184 75.87ZM361.694 96.96L361.3 97.8791C362.989 98.6033 364.682 99.4494 366.378 100.418L366.874 99.55L367.37 98.6817C365.612 97.6773 363.851 96.7967 362.088 96.0408L361.694 96.96ZM366.874 99.55L366.416 100.439C374.421 104.563 380.376 109.873 384.335 116.351C388.294 122.83 390.294 130.536 390.294 139.51H391.294H392.294C392.294 130.231 390.223 122.15 386.042 115.309C381.861 108.467 375.606 102.924 367.332 98.661L366.874 99.55ZM391.294 139.51H390.294V140.99H391.294H392.294V139.51H391.294ZM391.294 140.99H390.294C390.294 163.422 377.199 180.891 350.54 193.364L350.964 194.27L351.387 195.176C378.502 182.489 392.294 164.438 392.294 140.99H391.294ZM350.964 194.27L350.543 193.363C329.974 202.913 306.564 207.7 280.294 207.7V208.7V209.7C306.81 209.7 330.514 204.867 351.385 195.177L350.964 194.27ZM301.384 99.18H300.384C300.384 100.168 300.873 100.976 301.643 101.584C302.383 102.168 303.412 102.598 304.644 102.922C307.116 103.572 310.735 103.88 315.444 103.88V102.88V101.88C310.779 101.88 307.368 101.571 305.153 100.988C304.042 100.695 303.313 100.354 302.882 100.014C302.48 99.6967 302.384 99.4256 302.384 99.18H301.384ZM315.444 102.88V103.88C325.934 103.88 335.933 101.881 345.432 97.8816L345.044 96.96L344.656 96.0384C335.407 99.9323 325.673 101.88 315.444 101.88V102.88ZM345.044 96.96L345.433 96.039C338.878 93.2655 331.465 91.89 323.214 91.89V92.89V93.89C331.242 93.89 338.383 95.2278 344.654 97.881L345.044 96.96ZM323.214 92.89V91.89C315.913 91.89 310.341 92.4133 306.564 93.5016C304.678 94.0452 303.158 94.7519 302.094 95.6716C301.001 96.6168 300.384 97.7969 300.384 99.18H301.384H302.384C302.384 98.4664 302.676 97.812 303.402 97.1847C304.157 96.5318 305.367 95.9281 307.118 95.4234C310.618 94.415 315.961 93.89 323.214 93.89V92.89Z" fill="black" fill-opacity="0.15" mask="url(#path-1-outside-1_898_2112)"/>
</svg>
