<svg width="423" height="237" viewBox="0 0 423 237" fill="none" xmlns="http://www.w3.org/2000/svg">
<mask id="path-1-outside-1_898_2128" maskUnits="userSpaceOnUse" x="0" y="0" width="424" height="237" fill="black">
<rect fill="white" width="424" height="237"/>
<path d="M46.26 235.21C16.1667 235.21 1.12 219.3 1.12 187.48C1.12 155.907 15.6733 122.607 44.78 87.58C75.12 51.0733 105.46 32.82 135.8 32.82C136.787 32.82 137.28 33.3133 137.28 34.3C137.28 35.2867 136.787 35.78 135.8 35.78C130.867 37.0133 127.043 38.37 124.33 39.85C99.6633 51.69 70.9267 85.36 38.12 140.86C27.5133 158.373 22.21 175.64 22.21 192.66C22.21 203.02 24.1833 211.407 28.13 217.82C32.8167 226.207 39.8467 230.4 49.22 230.4C66.24 230.4 84.2467 222.877 103.24 207.83C111.133 201.91 118.41 195.373 125.07 188.22C131.977 180.82 138.39 172.927 144.31 164.54C148.75 157.88 152.943 150.85 156.89 143.45C161.083 136.05 164.907 128.157 168.36 119.77C177.733 97.57 182.42 79.07 182.42 64.27C182.42 46.7567 175.883 38 162.81 38C151.71 38 141.473 42.81 132.1 52.43C123.713 60.8167 118.163 70.8067 115.45 82.4C114.957 85.6067 114.463 88.69 113.97 91.65C113.723 94.61 113.6 97.6933 113.6 100.9C113.6 120.633 119.89 130.5 132.47 130.5C133.457 130.5 134.32 130.377 135.06 130.13C136.047 129.883 136.91 129.76 137.65 129.76C138.883 129.76 139.5 130.253 139.5 131.24C139.5 132.72 137.033 133.46 132.1 133.46C123.96 133.46 117.793 129.39 113.6 121.25C110.393 115.083 108.79 107.437 108.79 98.31C108.79 95.35 108.913 92.5133 109.16 89.8C109.407 86.84 109.9 84.0033 110.64 81.29C113.353 68.2167 120.383 56.7467 131.73 46.88C143.323 36.0267 155.657 30.6 168.73 30.6C180.077 30.6 188.71 36.0267 194.63 46.88C199.317 55.2667 201.66 65.75 201.66 78.33C201.66 93.13 198.7 107.807 192.78 122.36C179.707 153.933 160.467 179.957 135.06 200.43C107.433 223.617 77.8333 235.21 46.26 235.21ZM259.574 227.81C228.247 227.81 212.584 210.543 212.584 176.01C212.584 169.843 212.954 164.417 213.694 159.73C217.887 135.063 234.044 108.793 262.164 80.92C283.87 59.2133 308.907 39.9733 337.274 23.2C362.187 8.64665 385.004 1.36999 405.724 1.36999C416.577 1.36999 422.004 3.46666 422.004 7.65999C422.004 9.13999 420.894 9.87999 418.674 9.87999C416.7 9.87999 413.864 9.50998 410.164 8.76998C406.957 7.78333 404.244 7.29 402.024 7.29C382.537 7.29 361.447 14.4433 338.754 28.75C313.84 43.7967 290.037 68.2167 267.344 102.01C243.417 137.777 231.454 169.227 231.454 196.36C231.454 213.133 238.237 221.52 251.804 221.52C270.55 221.52 292.134 209.187 316.554 184.52C340.974 159.607 353.184 137.9 353.184 119.4C353.184 110.52 350.84 103.243 346.154 97.57C341.467 91.65 334.684 88.69 325.804 88.69C312.73 88.69 301.384 93.5 291.764 103.12C282.144 112.74 277.334 124.21 277.334 137.53C277.334 139.257 277.95 141.97 279.184 145.67C279.924 147.397 280.417 148.877 280.664 150.11C280.91 151.097 281.034 151.837 281.034 152.33C281.034 153.07 280.54 153.563 279.554 153.81L278.444 153.07C275.237 148.877 273.634 142.833 273.634 134.94C273.634 119.893 278.937 107.437 289.544 97.57C299.657 87.7033 312.36 82.77 327.654 82.77C340.234 82.77 350.84 87.4567 359.474 96.83C367.86 105.957 372.054 117.057 372.054 130.13C372.054 154.057 359.227 176.627 333.574 197.84C308.907 217.82 284.24 227.81 259.574 227.81Z"/>
</mask>
<path d="M44.78 87.58L44.0109 86.9408L44.0109 86.9409L44.78 87.58ZM135.8 35.78V34.78H135.677L135.557 34.8098L135.8 35.78ZM124.33 39.85L124.763 40.7515L124.786 40.7403L124.809 40.7279L124.33 39.85ZM38.12 140.86L38.9754 141.378L38.9809 141.369L38.12 140.86ZM28.13 217.82L29.0029 217.332L28.9927 217.314L28.9817 217.296L28.13 217.82ZM103.24 207.83L102.64 207.03L102.629 207.038L102.619 207.046L103.24 207.83ZM125.07 188.22L124.339 187.538L124.338 187.539L125.07 188.22ZM144.31 164.54L145.127 165.117L145.135 165.106L145.142 165.095L144.31 164.54ZM156.89 143.45L156.02 142.957L156.014 142.968L156.008 142.979L156.89 143.45ZM168.36 119.77L167.439 119.381L167.435 119.389L168.36 119.77ZM132.1 52.43L132.807 53.1372L132.816 53.1279L132.1 52.43ZM115.45 82.4L114.476 82.1721L114.468 82.2097L114.462 82.2479L115.45 82.4ZM113.97 91.65L112.984 91.4856L112.977 91.5261L112.973 91.567L113.97 91.65ZM135.06 130.13L134.817 129.16L134.78 129.169L134.744 129.181L135.06 130.13ZM113.6 121.25L114.489 120.792L114.487 120.789L113.6 121.25ZM109.16 89.8L110.156 89.8905L110.157 89.883L109.16 89.8ZM110.64 81.29L111.605 81.5531L111.613 81.5234L111.619 81.4932L110.64 81.29ZM131.73 46.88L132.386 47.6346L132.4 47.6226L132.413 47.61L131.73 46.88ZM194.63 46.88L193.752 47.3589L193.757 47.3678L194.63 46.88ZM192.78 122.36L193.704 122.743L193.706 122.737L192.78 122.36ZM135.06 200.43L134.433 199.651L134.425 199.658L134.417 199.664L135.06 200.43ZM46.26 235.21V234.21C31.3822 234.21 20.4038 230.28 13.1315 222.59C5.84944 214.89 2.12 203.249 2.12 187.48H1.12H0.120003C0.120003 203.531 3.9139 215.755 11.6785 223.965C19.4529 232.185 31.0445 236.21 46.26 236.21V235.21ZM1.12 187.48H2.12C2.12 156.224 16.5271 123.144 45.5491 88.2191L44.78 87.58L44.0109 86.9409C14.8195 122.069 0.120003 155.589 0.120003 187.48H1.12ZM44.78 87.58L45.5491 88.2191C75.8064 51.812 105.892 33.82 135.8 33.82V32.82V31.82C105.028 31.82 74.4336 50.3347 44.0109 86.9408L44.78 87.58ZM135.8 32.82V33.82C135.966 33.82 136.071 33.8411 136.131 33.8612C136.187 33.8796 136.202 33.8959 136.203 33.8971C136.204 33.8983 136.22 33.9134 136.239 33.9687C136.259 34.0289 136.28 34.1337 136.28 34.3H137.28H138.28C138.28 33.6525 138.117 32.9832 137.617 32.4829C137.117 31.9825 136.447 31.82 135.8 31.82V32.82ZM137.28 34.3H136.28C136.28 34.4663 136.259 34.5711 136.239 34.6313C136.22 34.6866 136.204 34.7017 136.203 34.7029C136.202 34.704 136.187 34.7204 136.131 34.7388C136.071 34.7589 135.966 34.78 135.8 34.78V35.78V36.78C136.447 36.78 137.117 36.6174 137.617 36.1171C138.117 35.6167 138.28 34.9475 138.28 34.3H137.28ZM135.8 35.78L135.557 34.8098C130.587 36.0524 126.671 37.4338 123.851 38.9721L124.33 39.85L124.809 40.7279C127.415 39.3062 131.146 37.9743 136.043 36.7501L135.8 35.78ZM124.33 39.85L123.897 38.9485C111.384 44.9547 97.9264 56.45 83.5169 73.3333C69.0985 90.227 53.6798 112.572 37.2592 140.351L38.12 140.86L38.9809 141.369C55.3669 113.648 70.7199 91.408 85.0381 74.6317C99.3653 57.845 112.609 46.5853 124.763 40.7515L124.33 39.85ZM38.12 140.86L37.2646 140.342C26.5827 157.98 21.21 175.423 21.21 192.66H22.21H23.21C23.21 175.857 28.444 158.767 38.9754 141.378L38.12 140.86ZM22.21 192.66H21.21C21.21 203.138 23.2048 211.725 27.2783 218.344L28.13 217.82L28.9817 217.296C25.1619 211.089 23.21 202.902 23.21 192.66H22.21ZM28.13 217.82L27.2571 218.308C29.671 222.628 32.7152 225.913 36.4052 228.114C40.0965 230.316 44.3796 231.4 49.22 231.4V230.4V229.4C44.6871 229.4 40.7685 228.388 37.4298 226.396C34.0898 224.404 31.2757 221.399 29.0029 217.332L28.13 217.82ZM49.22 230.4V231.4C66.5437 231.4 84.764 223.743 103.861 208.614L103.24 207.83L102.619 207.046C83.7293 222.011 65.9363 229.4 49.22 229.4V230.4ZM103.24 207.83L103.84 208.63C111.78 202.675 119.101 196.099 125.802 188.901L125.07 188.22L124.338 187.539C117.719 194.648 110.486 201.145 102.64 207.03L103.24 207.83ZM125.07 188.22L125.801 188.902C132.739 181.469 139.181 173.54 145.127 165.117L144.31 164.54L143.493 163.963C137.599 172.313 131.214 180.171 124.339 187.538L125.07 188.22ZM144.31 164.54L145.142 165.095C149.601 158.406 153.811 151.348 157.772 143.921L156.89 143.45L156.008 142.979C152.076 150.352 147.899 157.354 143.478 163.985L144.31 164.54ZM156.89 143.45L157.76 143.943C161.975 136.504 165.817 128.573 169.285 120.151L168.36 119.77L167.435 119.389C163.997 127.74 160.191 135.596 156.02 142.957L156.89 143.45ZM168.36 119.77L169.281 120.159C178.678 97.9037 183.42 79.2615 183.42 64.27H182.42H181.42C181.42 78.8785 176.789 97.2363 167.439 119.381L168.36 119.77ZM182.42 64.27H183.42C183.42 55.4179 181.773 48.5968 178.319 43.9693C174.824 39.287 169.592 37 162.81 37V38V39C169.101 39 173.675 41.0914 176.716 45.1657C179.799 49.2949 181.42 55.6087 181.42 64.27H182.42ZM162.81 38V37C151.385 37 140.903 41.9624 131.384 51.7321L132.1 52.43L132.816 53.1279C142.044 43.6575 152.035 39 162.81 39V38ZM132.1 52.43L131.393 51.7229C122.874 60.2419 117.232 70.3981 114.476 82.1721L115.45 82.4L116.424 82.6279C119.095 71.2153 124.553 61.3914 132.807 53.1371L132.1 52.43ZM115.45 82.4L114.462 82.2479C113.969 85.4508 113.476 88.53 112.984 91.4856L113.97 91.65L114.956 91.8144C115.45 88.85 115.944 85.7625 116.438 82.552L115.45 82.4ZM113.97 91.65L112.973 91.567C112.724 94.5566 112.6 97.6678 112.6 100.9H113.6H114.6C114.6 97.7189 114.722 94.6633 114.967 91.733L113.97 91.65ZM113.6 100.9H112.6C112.6 110.841 114.178 118.468 117.474 123.638C120.819 128.884 125.869 131.5 132.47 131.5V130.5V129.5C126.491 129.5 122.106 127.183 119.161 122.562C116.167 117.866 114.6 110.693 114.6 100.9H113.6ZM132.47 130.5V131.5C133.537 131.5 134.511 131.367 135.376 131.079L135.06 130.13L134.744 129.181C134.129 129.386 133.376 129.5 132.47 129.5V130.5ZM135.06 130.13L135.303 131.1C136.237 130.866 137.016 130.76 137.65 130.76V129.76V128.76C136.804 128.76 135.856 128.9 134.817 129.16L135.06 130.13ZM137.65 129.76V130.76C138.16 130.76 138.357 130.866 138.413 130.911C138.426 130.921 138.5 130.967 138.5 131.24H139.5H140.5C140.5 130.526 140.266 129.832 139.662 129.349C139.101 128.9 138.374 128.76 137.65 128.76V129.76ZM139.5 131.24H138.5C138.5 131.29 138.495 131.355 138.369 131.468C138.214 131.607 137.908 131.784 137.363 131.947C136.273 132.274 134.541 132.46 132.1 132.46V133.46V134.46C134.592 134.46 136.561 134.276 137.937 133.863C138.625 133.656 139.244 133.37 139.706 132.955C140.197 132.513 140.5 131.93 140.5 131.24H139.5ZM132.1 133.46V132.46C128.205 132.46 124.824 131.489 121.921 129.573C119.011 127.652 116.526 124.746 114.489 120.792L113.6 121.25L112.711 121.708C114.868 125.894 117.562 129.093 120.819 131.242C124.082 133.396 127.855 134.46 132.1 134.46V133.46ZM113.6 121.25L114.487 120.789C111.374 114.802 109.79 107.325 109.79 98.31H108.79H107.79C107.79 107.549 109.413 115.365 112.713 121.711L113.6 121.25ZM108.79 98.31H109.79C109.79 95.3777 109.912 92.5713 110.156 89.8905L109.16 89.8L108.164 89.7095C107.914 92.4553 107.79 95.3223 107.79 98.31H108.79ZM109.16 89.8L110.157 89.883C110.398 86.9805 110.882 84.2043 111.605 81.5531L110.64 81.29L109.675 81.0269C108.918 83.8023 108.415 86.6995 108.163 89.7169L109.16 89.8ZM110.64 81.29L111.619 81.4932C114.282 68.6608 121.183 57.3768 132.386 47.6346L131.73 46.88L131.074 46.1254C119.584 56.1166 112.424 67.7725 109.661 81.0868L110.64 81.29ZM131.73 46.88L132.413 47.61C143.863 36.8908 155.963 31.6 168.73 31.6V30.6V29.6C155.351 29.6 142.783 35.1625 131.047 46.15L131.73 46.88ZM168.73 30.6V31.6C174.237 31.6 179.043 32.9145 183.183 35.5166C187.327 38.1215 190.857 42.0506 193.752 47.3588L194.63 46.88L195.508 46.4011C192.483 40.8561 188.736 36.6452 184.247 33.8233C179.754 30.9988 174.57 29.6 168.73 29.6V30.6ZM194.63 46.88L193.757 47.3678C198.339 55.5663 200.66 65.8695 200.66 78.33H201.66H202.66C202.66 65.6305 200.295 54.9671 195.503 46.3922L194.63 46.88ZM201.66 78.33H200.66C200.66 92.993 197.728 107.542 191.854 121.983L192.78 122.36L193.706 122.737C199.672 108.071 202.66 93.267 202.66 78.33H201.66ZM192.78 122.36L191.856 121.977C178.844 153.404 159.703 179.288 134.433 199.651L135.06 200.43L135.687 201.209C161.231 180.625 180.57 154.463 193.704 122.743L192.78 122.36ZM135.06 200.43L134.417 199.664C106.943 222.722 77.565 234.21 46.26 234.21V235.21V236.21C78.1016 236.21 107.923 224.511 135.703 201.196L135.06 200.43ZM213.694 159.73L212.708 159.562L212.706 159.574L213.694 159.73ZM262.164 80.92L262.868 81.6302L262.871 81.6271L262.164 80.92ZM337.274 23.2L336.769 22.3365L336.765 22.3392L337.274 23.2ZM410.164 8.76998L409.87 9.72576L409.918 9.74064L409.968 9.75056L410.164 8.76998ZM338.754 28.75L339.271 29.606L339.279 29.601L339.287 29.5959L338.754 28.75ZM267.344 102.01L266.513 101.452L266.513 101.454L267.344 102.01ZM316.554 184.52L317.264 185.224L317.268 185.22L316.554 184.52ZM346.154 97.57L345.37 98.1907L345.376 98.1989L345.383 98.2069L346.154 97.57ZM291.764 103.12L292.471 103.827L291.764 103.12ZM279.184 145.67L278.235 145.986L278.248 146.026L278.265 146.064L279.184 145.67ZM280.664 150.11L279.683 150.306L279.688 150.329L279.694 150.353L280.664 150.11ZM279.554 153.81L278.999 154.642L279.367 154.887L279.796 154.78L279.554 153.81ZM278.444 153.07L277.649 153.677L277.75 153.81L277.889 153.902L278.444 153.07ZM289.544 97.57L290.225 98.3022L290.233 98.2941L290.242 98.2858L289.544 97.57ZM359.474 96.83L360.21 96.1534L360.209 96.1525L359.474 96.83ZM333.574 197.84L334.203 198.617L334.211 198.611L333.574 197.84ZM259.574 227.81V226.81C244.091 226.81 232.655 222.548 225.072 214.188C217.472 205.81 213.584 193.145 213.584 176.01H212.584H211.584C211.584 193.408 215.527 206.643 223.591 215.532C231.671 224.439 243.73 228.81 259.574 228.81V227.81ZM212.584 176.01H213.584C213.584 169.881 213.952 164.508 214.681 159.886L213.694 159.73L212.706 159.574C211.956 164.325 211.584 169.806 211.584 176.01H212.584ZM213.694 159.73L214.68 159.898C218.823 135.525 234.816 109.436 262.868 81.6302L262.164 80.92L261.46 80.2098C233.271 108.151 216.951 134.601 212.708 159.562L213.694 159.73ZM262.164 80.92L262.871 81.6271C284.514 59.9839 309.483 40.7945 337.783 24.0608L337.274 23.2L336.765 22.3392C308.331 39.1521 283.227 58.4427 261.457 80.2129L262.164 80.92ZM337.274 23.2L337.778 24.0635C362.596 9.56609 385.237 2.36999 405.724 2.36999V1.36999V0.369987C384.77 0.369987 361.778 7.72722 336.769 22.3365L337.274 23.2ZM405.724 1.36999V2.36999C411.115 2.36999 415.035 2.89471 417.573 3.87529C418.835 4.36264 419.692 4.93924 420.229 5.56135C420.749 6.16412 421.004 6.84896 421.004 7.66H422.004H423.004C423.004 6.37436 422.58 5.22461 421.743 4.25488C420.923 3.30449 419.746 2.57067 418.294 2.00969C415.405 0.8936 411.186 0.369987 405.724 0.369987V1.36999ZM422.004 7.66H421.004C421.004 8.10868 420.859 8.33108 420.616 8.49294C420.302 8.70251 419.704 8.87999 418.674 8.87999V9.87999V10.88C419.863 10.88 420.93 10.6875 421.726 10.157C422.593 9.5789 423.004 8.6913 423.004 7.66H422.004ZM418.674 9.87999V8.87999C416.801 8.87999 414.042 8.52591 410.36 7.7894L410.164 8.76998L409.968 9.75056C413.685 10.4941 416.599 10.88 418.674 10.88V9.87999ZM410.164 8.76998L410.458 7.8142C407.199 6.8116 404.38 6.29 402.024 6.29V7.29V8.29C404.107 8.29 406.715 8.75505 409.87 9.72576L410.164 8.76998ZM402.024 7.29V6.29C382.29 6.29 361.015 13.5333 338.22 27.9041L338.754 28.75L339.287 29.5959C361.879 15.3534 382.784 8.29 402.024 8.29V7.29ZM338.754 28.75L338.237 27.894C313.159 43.0399 289.258 67.5832 266.513 101.452L267.344 102.01L268.174 102.567C290.816 68.8501 314.522 44.5534 339.271 29.606L338.754 28.75ZM267.344 102.01L266.513 101.454C242.535 137.297 230.454 168.944 230.454 196.36H231.454H232.454C232.454 169.509 244.299 138.257 268.175 102.566L267.344 102.01ZM231.454 196.36H230.454C230.454 204.855 232.167 211.412 235.764 215.859C239.393 220.346 244.803 222.52 251.804 222.52V221.52V220.52C245.237 220.52 240.473 218.501 237.319 214.601C234.132 210.661 232.454 204.638 232.454 196.36H231.454ZM251.804 221.52V222.52C270.969 222.52 292.801 209.934 317.264 185.224L316.554 184.52L315.843 183.816C291.467 208.439 270.131 220.52 251.804 220.52V221.52ZM316.554 184.52L317.268 185.22C341.727 160.267 354.184 138.313 354.184 119.4H353.184H352.184C352.184 137.487 340.221 158.946 315.84 183.82L316.554 184.52ZM353.184 119.4H354.184C354.184 110.337 351.788 102.821 346.925 96.9331L346.154 97.57L345.383 98.2069C349.892 103.666 352.184 110.703 352.184 119.4H353.184ZM346.154 97.57L346.938 96.9493C342.027 90.7461 334.929 87.69 325.804 87.69V88.69V89.69C334.438 89.69 340.907 92.5539 345.37 98.1907L346.154 97.57ZM325.804 88.69V87.69C312.453 87.69 300.856 92.6139 291.057 102.413L291.764 103.12L292.471 103.827C301.912 94.3861 313.007 89.69 325.804 89.69V88.69ZM291.764 103.12L291.057 102.413C281.254 112.216 276.334 123.938 276.334 137.53H277.334H278.334C278.334 124.481 283.034 113.264 292.471 103.827L291.764 103.12ZM277.334 137.53H276.334C276.334 139.432 277 142.28 278.235 145.986L279.184 145.67L280.132 145.354C278.901 141.66 278.334 139.081 278.334 137.53H277.334ZM279.184 145.67L278.265 146.064C278.989 147.755 279.455 149.165 279.683 150.306L280.664 150.11L281.644 149.914C281.379 148.588 280.858 147.038 280.103 145.276L279.184 145.67ZM280.664 150.11L279.694 150.353C279.937 151.325 280.034 151.966 280.034 152.33H281.034H282.034C282.034 151.708 281.884 150.868 281.634 149.867L280.664 150.11ZM281.034 152.33H280.034C280.034 152.453 280.003 152.501 279.957 152.548C279.884 152.621 279.704 152.742 279.311 152.84L279.554 153.81L279.796 154.78C280.39 154.632 280.95 154.383 281.371 153.962C281.817 153.516 282.034 152.947 282.034 152.33H281.034ZM279.554 153.81L280.108 152.978L278.998 152.238L278.444 153.07L277.889 153.902L278.999 154.642L279.554 153.81ZM278.444 153.07L279.238 152.463C276.216 148.511 274.634 142.717 274.634 134.94H273.634H272.634C272.634 142.949 274.258 149.242 277.649 153.677L278.444 153.07ZM273.634 134.94H274.634C274.634 120.159 279.83 107.972 290.225 98.3022L289.544 97.57L288.863 96.8378C278.044 106.902 272.634 119.628 272.634 134.94H273.634ZM289.544 97.57L290.242 98.2858C300.152 88.6172 312.598 83.77 327.654 83.77V82.77V81.77C312.123 81.77 299.162 86.7895 288.845 96.8542L289.544 97.57ZM327.654 82.77V83.77C339.95 83.77 350.291 88.3367 358.738 97.5075L359.474 96.83L360.209 96.1525C351.389 86.5767 340.517 81.77 327.654 81.77V82.77ZM359.474 96.83L358.737 97.5066C366.945 106.438 371.054 117.292 371.054 130.13H372.054H373.054C373.054 116.821 368.776 105.475 360.21 96.1534L359.474 96.83ZM372.054 130.13H371.054C371.054 153.655 358.454 175.968 332.936 197.069L333.574 197.84L334.211 198.611C360 177.285 373.054 154.459 373.054 130.13H372.054ZM333.574 197.84L332.944 197.063C308.404 216.941 283.952 226.81 259.574 226.81V227.81V228.81C284.528 228.81 309.41 218.699 334.203 198.617L333.574 197.84Z" fill="white" fill-opacity="0.2" mask="url(#path-1-outside-1_898_2128)"/>
</svg>
