<svg width="477" height="242" viewBox="0 0 477 242" fill="none" xmlns="http://www.w3.org/2000/svg">
<mask id="path-1-outside-1_898_2128" maskUnits="userSpaceOnUse" x="0" y="0" width="477" height="242" fill="black">
<rect fill="white" width="477" height="242"/>
<path d="M46.26 240.21C16.1667 240.21 1.12 224.3 1.12 192.48C1.12 160.907 15.6733 127.607 44.78 92.58C75.12 56.0733 105.46 37.82 135.8 37.82C136.787 37.82 137.28 38.3133 137.28 39.3C137.28 40.2867 136.787 40.78 135.8 40.78C130.867 42.0133 127.043 43.37 124.33 44.85C99.6633 56.69 70.9267 90.36 38.12 145.86C27.5133 163.373 22.21 180.64 22.21 197.66C22.21 208.02 24.1833 216.407 28.13 222.82C32.8167 231.207 39.8467 235.4 49.22 235.4C66.24 235.4 84.2467 227.877 103.24 212.83C111.133 206.91 118.41 200.373 125.07 193.22C131.977 185.82 138.39 177.927 144.31 169.54C148.75 162.88 152.943 155.85 156.89 148.45C161.083 141.05 164.907 133.157 168.36 124.77C177.733 102.57 182.42 84.07 182.42 69.27C182.42 51.7567 175.883 43 162.81 43C151.71 43 141.473 47.81 132.1 57.43C123.713 65.8167 118.163 75.8067 115.45 87.4C114.957 90.6067 114.463 93.69 113.97 96.65C113.723 99.61 113.6 102.693 113.6 105.9C113.6 125.633 119.89 135.5 132.47 135.5C133.457 135.5 134.32 135.377 135.06 135.13C136.047 134.883 136.91 134.76 137.65 134.76C138.883 134.76 139.5 135.253 139.5 136.24C139.5 137.72 137.033 138.46 132.1 138.46C123.96 138.46 117.793 134.39 113.6 126.25C110.393 120.083 108.79 112.437 108.79 103.31C108.79 100.35 108.913 97.5133 109.16 94.8C109.407 91.84 109.9 89.0033 110.64 86.29C113.353 73.2167 120.383 61.7467 131.73 51.88C143.323 41.0267 155.657 35.6 168.73 35.6C180.077 35.6 188.71 41.0267 194.63 51.88C199.317 60.2667 201.66 70.75 201.66 83.33C201.66 98.13 198.7 112.807 192.78 127.36C179.707 158.933 160.467 184.957 135.06 205.43C107.433 228.617 77.8333 240.21 46.26 240.21ZM259.204 228.37C258.71 227.877 261.177 226.52 266.604 224.3C273.51 221.587 281.774 217.517 291.394 212.09C297.56 203.95 306.44 188.163 318.034 164.73C317.787 164.483 315.567 163.99 311.374 163.25C307.427 162.263 301.507 160.907 293.614 159.18C288.927 158.193 284.487 157.453 280.294 156.96C276.347 156.467 272.647 156.22 269.194 156.22C261.547 156.22 252.79 158.933 242.924 164.36C230.344 171.267 221.834 175.337 217.394 176.57C216.9 176.817 216.16 176.94 215.174 176.94C210.734 176.94 208.514 174.72 208.514 170.28C208.514 167.813 209.747 166.21 212.214 165.47C214.68 164.483 217.64 163.373 221.094 162.14C224.794 160.907 228.864 159.18 233.304 156.96C253.53 147.587 273.634 134.637 293.614 118.11C313.84 101.337 334.19 81.2333 354.664 57.8C360.83 50.6467 367.367 44.11 374.274 38.19C381.18 32.0233 388.457 26.35 396.104 21.17C415.344 8.34333 432.24 1.93 446.794 1.93C453.7 1.93 459.867 3.41 465.294 6.36999C471.954 10.07 475.284 14.88 475.284 20.8C475.284 22.28 474.79 23.02 473.804 23.02C472.817 23.02 472.2 22.5267 471.954 21.54C471.214 10.6866 462.827 5.25998 446.794 5.25998C433.474 5.25998 417.44 12.4133 398.694 26.72C391.787 32.1467 385.004 38.0667 378.344 44.48C371.93 50.6467 365.517 57.3067 359.104 64.46C346.524 78.7667 333.327 92.4567 319.514 105.53C305.7 118.603 291.27 130.813 276.224 142.16C280.17 140.187 284.364 139.2 288.804 139.2C292.75 139.2 298.917 140.31 307.304 142.53C310.51 143.27 313.594 144.133 316.554 145.12C319.76 145.86 322.967 146.6 326.174 147.34C354.294 88.3867 371.684 58.91 378.344 58.91C379.577 58.91 380.194 59.65 380.194 61.13C380.194 63.35 378.714 67.2967 375.754 72.97C368.6 86.0433 361.94 99.1167 355.774 112.19C349.607 125.017 343.81 137.597 338.384 149.93C341.097 150.423 343.687 150.917 346.154 151.41C348.867 151.657 351.334 151.78 353.554 151.78C363.914 151.78 373.287 150.3 381.674 147.34C393.267 143.147 399.064 137.103 399.064 129.21C399.064 125.017 397.214 121.81 393.514 119.59L388.334 116.26C388.334 115.027 389.074 114.41 390.554 114.41C394.254 114.41 397.584 116.507 400.544 120.7C403.01 124.153 404.244 127.853 404.244 131.8C404.244 143.64 396.597 152.767 381.304 159.18C369.464 164.36 356.884 166.95 343.564 166.95C341.837 166.95 339.864 166.95 337.644 166.95C335.67 166.703 333.697 166.457 331.724 166.21C326.297 180.517 322.104 191.617 319.144 199.51C316.184 207.403 314.704 212.337 314.704 214.31C314.704 220.23 323.707 224.547 341.714 227.26V228C337.767 227.507 333.204 227.137 328.024 226.89C323.09 226.397 317.417 226.15 311.004 226.15C301.137 226.15 289.297 226.52 275.484 227.26C272.277 227.507 266.85 227.877 259.204 228.37Z"/>
</mask>
<path d="M44.78 92.58L44.0109 91.9408L44.0109 91.9409L44.78 92.58ZM135.8 40.78V39.78H135.677L135.557 39.8098L135.8 40.78ZM124.33 44.85L124.763 45.7515L124.786 45.7403L124.809 45.7279L124.33 44.85ZM38.12 145.86L38.9754 146.378L38.9809 146.369L38.12 145.86ZM28.13 222.82L29.0029 222.332L28.9927 222.314L28.9817 222.296L28.13 222.82ZM103.24 212.83L102.64 212.03L102.629 212.038L102.619 212.046L103.24 212.83ZM125.07 193.22L124.339 192.538L124.338 192.539L125.07 193.22ZM144.31 169.54L145.127 170.117L145.135 170.106L145.142 170.095L144.31 169.54ZM156.89 148.45L156.02 147.957L156.014 147.968L156.008 147.979L156.89 148.45ZM168.36 124.77L167.439 124.381L167.435 124.389L168.36 124.77ZM132.1 57.43L132.807 58.1372L132.816 58.1279L132.1 57.43ZM115.45 87.4L114.476 87.1721L114.468 87.2097L114.462 87.2479L115.45 87.4ZM113.97 96.65L112.984 96.4856L112.977 96.5261L112.973 96.5669L113.97 96.65ZM135.06 135.13L134.817 134.16L134.78 134.169L134.744 134.181L135.06 135.13ZM113.6 126.25L114.489 125.792L114.487 125.789L113.6 126.25ZM109.16 94.8L110.156 94.8905L110.157 94.883L109.16 94.8ZM110.64 86.29L111.605 86.5531L111.613 86.5234L111.619 86.4932L110.64 86.29ZM131.73 51.88L132.386 52.6346L132.4 52.6226L132.413 52.61L131.73 51.88ZM194.63 51.88L193.752 52.3589L193.757 52.3678L194.63 51.88ZM192.78 127.36L193.704 127.743L193.706 127.737L192.78 127.36ZM135.06 205.43L134.433 204.651L134.425 204.658L134.417 204.664L135.06 205.43ZM46.26 240.21V239.21C31.3822 239.21 20.4038 235.28 13.1315 227.59C5.84944 219.89 2.12 208.249 2.12 192.48H1.12H0.120002C0.120002 208.531 3.9139 220.755 11.6785 228.965C19.4529 237.185 31.0445 241.21 46.26 241.21V240.21ZM1.12 192.48H2.12C2.12 161.224 16.5271 128.144 45.5491 93.2191L44.78 92.58L44.0109 91.9409C14.8195 127.069 0.120002 160.589 0.120002 192.48H1.12ZM44.78 92.58L45.5491 93.2192C75.8064 56.812 105.892 38.82 135.8 38.82V37.82V36.82C105.028 36.82 74.4336 55.3347 44.0109 91.9408L44.78 92.58ZM135.8 37.82V38.82C135.966 38.82 136.071 38.8411 136.131 38.8612C136.187 38.8796 136.202 38.8959 136.203 38.8971C136.204 38.8983 136.22 38.9134 136.239 38.9687C136.259 39.0289 136.28 39.1337 136.28 39.3H137.28H138.28C138.28 38.6525 138.117 37.9832 137.617 37.4829C137.117 36.9825 136.447 36.82 135.8 36.82V37.82ZM137.28 39.3H136.28C136.28 39.4663 136.259 39.5711 136.239 39.6313C136.22 39.6865 136.204 39.7017 136.203 39.7029C136.202 39.704 136.187 39.7204 136.131 39.7388C136.071 39.7588 135.966 39.78 135.8 39.78V40.78V41.78C136.447 41.78 137.117 41.6174 137.617 41.1171C138.117 40.6167 138.28 39.9475 138.28 39.3H137.28ZM135.8 40.78L135.557 39.8098C130.587 41.0524 126.671 42.4338 123.851 43.9721L124.33 44.85L124.809 45.7279C127.415 44.3062 131.146 42.9743 136.043 41.7501L135.8 40.78ZM124.33 44.85L123.897 43.9485C111.384 49.9547 97.9264 61.45 83.5169 78.3333C69.0985 95.227 53.6798 117.572 37.2592 145.351L38.12 145.86L38.9809 146.369C55.3669 118.648 70.7199 96.408 85.0381 79.6317C99.3653 62.845 112.609 51.5852 124.763 45.7515L124.33 44.85ZM38.12 145.86L37.2646 145.342C26.5827 162.98 21.21 180.423 21.21 197.66H22.21H23.21C23.21 180.857 28.444 163.767 38.9754 146.378L38.12 145.86ZM22.21 197.66H21.21C21.21 208.138 23.2048 216.725 27.2783 223.344L28.13 222.82L28.9817 222.296C25.1619 216.089 23.21 207.902 23.21 197.66H22.21ZM28.13 222.82L27.2571 223.308C29.671 227.628 32.7152 230.913 36.4052 233.114C40.0965 235.316 44.3796 236.4 49.22 236.4V235.4V234.4C44.6871 234.4 40.7685 233.388 37.4298 231.396C34.0898 229.404 31.2757 226.399 29.0029 222.332L28.13 222.82ZM49.22 235.4V236.4C66.5437 236.4 84.764 228.743 103.861 213.614L103.24 212.83L102.619 212.046C83.7293 227.011 65.9363 234.4 49.22 234.4V235.4ZM103.24 212.83L103.84 213.63C111.78 207.675 119.101 201.099 125.802 193.901L125.07 193.22L124.338 192.539C117.719 199.648 110.486 206.145 102.64 212.03L103.24 212.83ZM125.07 193.22L125.801 193.902C132.739 186.469 139.181 178.54 145.127 170.117L144.31 169.54L143.493 168.963C137.599 177.313 131.214 185.171 124.339 192.538L125.07 193.22ZM144.31 169.54L145.142 170.095C149.601 163.406 153.811 156.348 157.772 148.921L156.89 148.45L156.008 147.979C152.076 155.352 147.899 162.354 143.478 168.985L144.31 169.54ZM156.89 148.45L157.76 148.943C161.975 141.504 165.817 133.573 169.285 125.151L168.36 124.77L167.435 124.389C163.997 132.74 160.191 140.596 156.02 147.957L156.89 148.45ZM168.36 124.77L169.281 125.159C178.678 102.904 183.42 84.2615 183.42 69.27H182.42H181.42C181.42 83.8785 176.789 102.236 167.439 124.381L168.36 124.77ZM182.42 69.27H183.42C183.42 60.4179 181.773 53.5967 178.319 48.9693C174.824 44.287 169.592 42 162.81 42V43V44C169.101 44 173.675 46.0914 176.716 50.1657C179.799 54.2949 181.42 60.6088 181.42 69.27H182.42ZM162.81 43V42C151.385 42 140.903 46.9624 131.384 56.7321L132.1 57.43L132.816 58.1279C142.044 48.6576 152.035 44 162.81 44V43ZM132.1 57.43L131.393 56.7229C122.874 65.2419 117.232 75.3981 114.476 87.1721L115.45 87.4L116.424 87.6279C119.095 76.2153 124.553 66.3914 132.807 58.1371L132.1 57.43ZM115.45 87.4L114.462 87.2479C113.969 90.4508 113.476 93.53 112.984 96.4856L113.97 96.65L114.956 96.8144C115.45 93.85 115.944 90.7625 116.438 87.552L115.45 87.4ZM113.97 96.65L112.973 96.5669C112.724 99.5566 112.6 102.668 112.6 105.9H113.6H114.6C114.6 102.719 114.722 99.6633 114.967 96.733L113.97 96.65ZM113.6 105.9H112.6C112.6 115.841 114.178 123.468 117.474 128.638C120.819 133.884 125.869 136.5 132.47 136.5V135.5V134.5C126.491 134.5 122.106 132.183 119.161 127.562C116.167 122.866 114.6 115.693 114.6 105.9H113.6ZM132.47 135.5V136.5C133.537 136.5 134.511 136.367 135.376 136.079L135.06 135.13L134.744 134.181C134.129 134.386 133.376 134.5 132.47 134.5V135.5ZM135.06 135.13L135.303 136.1C136.237 135.866 137.016 135.76 137.65 135.76V134.76V133.76C136.804 133.76 135.856 133.9 134.817 134.16L135.06 135.13ZM137.65 134.76V135.76C138.16 135.76 138.357 135.866 138.413 135.911C138.426 135.921 138.5 135.967 138.5 136.24H139.5H140.5C140.5 135.526 140.266 134.832 139.662 134.349C139.101 133.9 138.374 133.76 137.65 133.76V134.76ZM139.5 136.24H138.5C138.5 136.29 138.495 136.355 138.369 136.468C138.214 136.607 137.908 136.784 137.363 136.947C136.273 137.274 134.541 137.46 132.1 137.46V138.46V139.46C134.592 139.46 136.561 139.276 137.937 138.863C138.625 138.656 139.244 138.37 139.706 137.955C140.197 137.513 140.5 136.93 140.5 136.24H139.5ZM132.1 138.46V137.46C128.205 137.46 124.824 136.489 121.921 134.573C119.011 132.652 116.526 129.746 114.489 125.792L113.6 126.25L112.711 126.708C114.868 130.894 117.562 134.093 120.819 136.242C124.082 138.396 127.855 139.46 132.1 139.46V138.46ZM113.6 126.25L114.487 125.789C111.374 119.802 109.79 112.325 109.79 103.31H108.79H107.79C107.79 112.549 109.413 120.365 112.713 126.711L113.6 126.25ZM108.79 103.31H109.79C109.79 100.378 109.912 97.5713 110.156 94.8905L109.16 94.8L108.164 94.7095C107.914 97.4553 107.79 100.322 107.79 103.31H108.79ZM109.16 94.8L110.157 94.883C110.398 91.9805 110.882 89.2043 111.605 86.5531L110.64 86.29L109.675 86.0269C108.918 88.8023 108.415 91.6995 108.163 94.717L109.16 94.8ZM110.64 86.29L111.619 86.4932C114.282 73.6608 121.183 62.3768 132.386 52.6346L131.73 51.88L131.074 51.1254C119.584 61.1166 112.424 72.7725 109.661 86.0868L110.64 86.29ZM131.73 51.88L132.413 52.61C143.863 41.8908 155.963 36.6 168.73 36.6V35.6V34.6C155.351 34.6 142.783 40.1625 131.047 51.15L131.73 51.88ZM168.73 35.6V36.6C174.237 36.6 179.043 37.9145 183.183 40.5166C187.327 43.1215 190.857 47.0506 193.752 52.3588L194.63 51.88L195.508 51.4011C192.483 45.8561 188.736 41.6452 184.247 38.8234C179.754 35.9988 174.57 34.6 168.73 34.6V35.6ZM194.63 51.88L193.757 52.3678C198.339 60.5663 200.66 70.8695 200.66 83.33H201.66H202.66C202.66 70.6305 200.295 59.9671 195.503 51.3922L194.63 51.88ZM201.66 83.33H200.66C200.66 97.993 197.728 112.542 191.854 126.983L192.78 127.36L193.706 127.737C199.672 113.071 202.66 98.267 202.66 83.33H201.66ZM192.78 127.36L191.856 126.977C178.844 158.404 159.703 184.288 134.433 204.651L135.06 205.43L135.687 206.209C161.231 185.625 180.57 159.463 193.704 127.743L192.78 127.36ZM135.06 205.43L134.417 204.664C106.943 227.722 77.565 239.21 46.26 239.21V240.21V241.21C78.1016 241.21 107.923 229.511 135.703 206.196L135.06 205.43ZM259.204 228.37L258.497 229.077L258.817 229.397L259.268 229.368L259.204 228.37ZM266.604 224.3L266.238 223.369L266.225 223.374L266.604 224.3ZM291.394 212.09L291.885 212.961L292.066 212.859L292.191 212.694L291.394 212.09ZM318.034 164.73L318.93 165.173L319.248 164.53L318.741 164.023L318.034 164.73ZM311.374 163.25L311.131 164.22L311.165 164.229L311.2 164.235L311.374 163.25ZM293.614 159.18L293.827 158.203L293.82 158.201L293.614 159.18ZM280.294 156.96L280.17 157.952L280.177 157.953L280.294 156.96ZM242.924 164.36L243.405 165.237L243.406 165.236L242.924 164.36ZM217.394 176.57L217.126 175.606L217.033 175.632L216.946 175.676L217.394 176.57ZM212.214 165.47L212.501 166.428L212.544 166.415L212.585 166.398L212.214 165.47ZM221.094 162.14L220.777 161.191L220.767 161.195L220.757 161.198L221.094 162.14ZM233.304 156.96L232.883 156.053L232.87 156.059L232.856 156.066L233.304 156.96ZM293.614 118.11L294.251 118.881L294.252 118.88L293.614 118.11ZM354.664 57.8L355.417 58.458L355.421 58.4529L354.664 57.8ZM374.274 38.19L374.924 38.9493L374.932 38.9427L374.94 38.9359L374.274 38.19ZM396.104 21.17L395.549 20.3379L395.543 20.3421L396.104 21.17ZM465.294 6.36999L465.779 5.4958L465.773 5.49209L465.294 6.36999ZM471.954 21.54L470.956 21.608L470.962 21.6965L470.984 21.7825L471.954 21.54ZM398.694 26.72L398.087 25.925L398.076 25.9337L398.694 26.72ZM378.344 44.48L379.037 45.2008L379.037 45.2003L378.344 44.48ZM359.104 64.46L358.359 63.7924L358.353 63.7997L359.104 64.46ZM319.514 105.53L318.826 104.804L318.826 104.804L319.514 105.53ZM276.224 142.16L275.622 141.362L276.671 143.054L276.224 142.16ZM307.304 142.53L307.048 143.497L307.063 143.501L307.079 143.504L307.304 142.53ZM316.554 145.12L316.237 146.069L316.283 146.084L316.329 146.094L316.554 145.12ZM326.174 147.34L325.949 148.314L326.731 148.495L327.076 147.771L326.174 147.34ZM375.754 72.97L376.631 73.45L376.636 73.4413L376.64 73.4326L375.754 72.97ZM355.774 112.19L356.675 112.623L356.678 112.617L355.774 112.19ZM338.384 149.93L337.468 149.527L336.958 150.687L338.205 150.914L338.384 149.93ZM346.154 151.41L345.958 152.391L346.01 152.401L346.063 152.406L346.154 151.41ZM381.674 147.34L382.007 148.283L382.014 148.28L381.674 147.34ZM393.514 119.59L392.973 120.431L392.986 120.44L392.999 120.447L393.514 119.59ZM388.334 116.26H387.334V116.806L387.793 117.101L388.334 116.26ZM400.544 120.7L399.727 121.277L399.73 121.281L400.544 120.7ZM381.304 159.18L380.917 158.258L380.91 158.261L380.903 158.264L381.304 159.18ZM337.644 166.95L337.52 167.942L337.581 167.95H337.644V166.95ZM331.724 166.21L331.848 165.218L331.068 165.12L330.789 165.855L331.724 166.21ZM319.144 199.51L318.207 199.159L318.207 199.159L319.144 199.51ZM341.714 227.26H342.714V226.399L341.863 226.271L341.714 227.26ZM341.714 228L341.59 228.992L342.714 229.133V228H341.714ZM328.024 226.89L327.924 227.885L327.95 227.888L327.976 227.889L328.024 226.89ZM275.484 227.26L275.43 226.261L275.419 226.262L275.407 226.263L275.484 227.26ZM259.204 228.37L259.911 227.663C259.999 227.751 260.089 227.887 260.125 228.066C260.161 228.241 260.132 228.385 260.102 228.473C260.052 228.615 259.987 228.648 260.073 228.568C260.223 228.427 260.561 228.191 261.166 227.859C262.346 227.209 264.275 226.333 266.982 225.226L266.604 224.3L266.225 223.374C263.506 224.487 261.488 225.399 260.202 226.106C259.573 226.452 259.048 226.787 258.705 227.109C258.544 227.259 258.324 227.496 258.213 227.816C258.152 227.993 258.115 228.219 258.166 228.468C258.219 228.723 258.347 228.927 258.497 229.077L259.204 228.37ZM266.604 224.3L266.969 225.231C273.935 222.494 282.242 218.401 291.885 212.961L291.394 212.09L290.902 211.219C281.305 216.633 273.086 220.679 266.238 223.369L266.604 224.3ZM291.394 212.09L292.191 212.694C298.422 204.469 307.339 188.603 318.93 165.173L318.034 164.73L317.137 164.287C305.542 187.724 296.699 203.431 290.597 211.486L291.394 212.09ZM318.034 164.73L318.741 164.023C318.558 163.84 318.33 163.743 318.233 163.703C318.096 163.646 317.936 163.592 317.766 163.541C317.423 163.438 316.964 163.324 316.401 163.199C315.269 162.947 313.648 162.636 311.547 162.265L311.374 163.25L311.2 164.235C313.292 164.604 314.878 164.909 315.967 165.151C316.513 165.273 316.917 165.374 317.191 165.457C317.33 165.498 317.416 165.529 317.464 165.549C317.553 165.586 317.448 165.559 317.327 165.437L318.034 164.73ZM311.374 163.25L311.616 162.28C307.655 161.289 301.723 159.93 293.827 158.203L293.614 159.18L293.4 160.157C301.291 161.883 307.199 163.237 311.131 164.22L311.374 163.25ZM293.614 159.18L293.82 158.201C289.107 157.209 284.637 156.464 280.411 155.967L280.294 156.96L280.177 157.953C284.337 158.443 288.747 159.177 293.408 160.159L293.614 159.18ZM280.294 156.96L280.418 155.968C276.436 155.47 272.694 155.22 269.194 155.22V156.22V157.22C272.6 157.22 276.258 157.463 280.17 157.952L280.294 156.96ZM269.194 156.22V155.22C261.317 155.22 252.391 158.012 242.442 163.484L242.924 164.36L243.406 165.236C253.189 159.855 261.777 157.22 269.194 157.22V156.22ZM242.924 164.36L242.442 163.483C229.842 170.401 221.434 174.41 217.126 175.606L217.394 176.57L217.661 177.534C222.233 176.264 230.845 172.132 243.405 165.237L242.924 164.36ZM217.394 176.57L216.946 175.676C216.662 175.818 216.109 175.94 215.174 175.94V176.94V177.94C216.211 177.94 217.139 177.816 217.841 177.464L217.394 176.57ZM215.174 176.94V175.94C213.108 175.94 211.742 175.424 210.886 174.568C210.029 173.712 209.514 172.346 209.514 170.28H208.514H207.514C207.514 172.654 208.108 174.618 209.472 175.982C210.835 177.346 212.8 177.94 215.174 177.94V176.94ZM208.514 170.28H209.514C209.514 169.218 209.777 168.428 210.231 167.837C210.689 167.242 211.413 166.754 212.501 166.428L212.214 165.47L211.926 164.512C210.547 164.926 209.422 165.61 208.646 166.618C207.867 167.63 207.514 168.876 207.514 170.28H208.514ZM212.214 165.47L212.585 166.398C215.037 165.418 217.984 164.312 221.43 163.082L221.094 162.14L220.757 161.198C217.296 162.434 214.324 163.549 211.842 164.542L212.214 165.47ZM221.094 162.14L221.41 163.089C225.165 161.837 229.279 160.09 233.751 157.854L233.304 156.96L232.856 156.066C228.448 158.27 224.422 159.976 220.777 161.191L221.094 162.14ZM233.304 156.96L233.724 157.867C254.04 148.453 274.215 135.453 294.251 118.881L293.614 118.11L292.976 117.339C273.052 133.82 253.021 146.721 232.883 156.053L233.304 156.96ZM293.614 118.11L294.252 118.88C314.527 102.067 334.914 81.9244 355.417 58.4579L354.664 57.8L353.911 57.1421C333.466 80.5422 313.154 100.607 292.975 117.34L293.614 118.11ZM354.664 57.8L355.421 58.4529C361.556 51.3362 368.057 44.8353 374.924 38.9493L374.274 38.19L373.623 37.4307C366.677 43.3847 360.105 49.9571 353.906 57.1471L354.664 57.8ZM374.274 38.19L374.94 38.9359C381.813 32.7988 389.055 27.1529 396.665 21.9979L396.104 21.17L395.543 20.3421C387.859 25.5471 380.547 31.2478 373.608 37.4441L374.274 38.19ZM396.104 21.17L396.658 22.002C415.823 9.22577 432.523 2.93 446.794 2.93V1.93V0.929999C431.958 0.929999 414.865 7.4609 395.549 20.3379L396.104 21.17ZM446.794 1.93V2.93C453.553 2.93 459.552 4.37706 464.815 7.24788L465.294 6.36999L465.773 5.49209C460.182 2.44293 453.848 0.929999 446.794 0.929999V1.93ZM465.294 6.36999L464.808 7.24414C471.256 10.8266 474.284 15.3499 474.284 20.8H475.284H476.284C476.284 14.4101 472.651 9.31341 465.779 5.49583L465.294 6.36999ZM475.284 20.8H474.284C474.284 21.4605 474.168 21.7809 474.082 21.9103C474.047 21.9617 474.022 21.978 474.004 21.9868C473.982 21.9977 473.925 22.02 473.804 22.02V23.02V24.02C474.588 24.02 475.291 23.7019 475.746 23.0197C476.153 22.409 476.284 21.6195 476.284 20.8H475.284ZM473.804 23.02V22.02C473.479 22.02 473.316 21.9415 473.226 21.8691C473.132 21.7942 473.009 21.6399 472.924 21.2975L471.954 21.54L470.984 21.7825C471.145 22.4267 471.453 23.0125 471.976 23.4309C472.503 23.8518 473.141 24.02 473.804 24.02V23.02ZM471.954 21.54L472.951 21.472C472.562 15.7633 470.136 11.3919 465.652 8.49041C461.226 5.62667 454.897 4.25998 446.794 4.25998V5.25998V6.25998C454.724 6.25998 460.605 7.60662 464.565 10.1696C468.468 12.6948 470.605 16.4634 470.956 21.608L471.954 21.54ZM446.794 5.25998V4.25998C433.141 4.25998 416.889 11.5763 398.087 25.925L398.694 26.72L399.3 27.5149C417.992 13.2503 433.806 6.25998 446.794 6.25998V5.25998ZM398.694 26.72L398.076 25.9337C391.141 31.3821 384.333 37.3243 377.65 43.7597L378.344 44.48L379.037 45.2003C385.674 38.809 392.433 32.9112 399.312 27.5063L398.694 26.72ZM378.344 44.48L377.651 43.7592C371.218 49.9442 364.788 56.6222 358.359 63.7924L359.104 64.46L359.848 65.1275C366.246 57.9912 372.643 51.3491 379.037 45.2008L378.344 44.48ZM359.104 64.46L358.353 63.7997C345.793 78.0834 332.617 91.7514 318.826 104.804L319.514 105.53L320.201 106.256C334.037 93.1619 347.255 79.4499 359.855 65.1203L359.104 64.46ZM319.514 105.53L318.826 104.804C305.04 117.852 290.638 130.038 275.622 141.362L276.224 142.16L276.826 142.958C291.902 131.589 306.361 119.355 320.201 106.256L319.514 105.53ZM276.224 142.16L276.671 143.054C280.478 141.151 284.518 140.2 288.804 140.2V139.2V138.2C284.209 138.2 279.863 139.222 275.776 141.266L276.224 142.16ZM288.804 139.2V140.2C292.611 140.2 298.669 141.279 307.048 143.497L307.304 142.53L307.56 141.563C299.165 139.341 292.89 138.2 288.804 138.2V139.2ZM307.304 142.53L307.079 143.504C310.256 144.238 313.309 145.093 316.237 146.069L316.554 145.12L316.87 144.171C313.878 143.174 310.764 142.302 307.529 141.556L307.304 142.53ZM316.554 145.12L316.329 146.094C319.535 146.834 322.742 147.574 325.949 148.314L326.174 147.34L326.399 146.366C323.192 145.626 319.985 144.886 316.779 144.146L316.554 145.12ZM326.174 147.34L327.076 147.771C341.133 118.301 352.495 96.2254 361.167 81.5256C365.506 74.1714 369.153 68.6953 372.112 65.069C373.593 63.254 374.876 61.9343 375.963 61.0769C377.077 60.1977 377.854 59.91 378.344 59.91V58.91V57.91C377.168 57.91 375.945 58.5434 374.724 59.5066C373.475 60.4914 372.087 61.9352 370.562 63.8047C367.508 67.5476 363.801 73.1252 359.445 80.5094C350.727 95.2863 339.335 117.425 325.271 146.909L326.174 147.34ZM378.344 58.91V59.91C378.753 59.91 378.895 60.0242 378.963 60.1052C379.06 60.2211 379.194 60.5042 379.194 61.13H380.194H381.194C381.194 60.2757 381.019 59.4489 380.499 58.8248C379.95 58.1658 379.167 57.91 378.344 57.91V58.91ZM380.194 61.13H379.194C379.194 62.0558 378.876 63.4606 378.147 65.4039C377.427 67.325 376.337 69.6904 374.867 72.5074L375.754 72.97L376.64 73.4326C378.131 70.5762 379.26 68.1317 380.02 66.1061C380.771 64.1027 381.194 62.4242 381.194 61.13H380.194ZM375.754 72.97L374.876 72.49C367.714 85.5803 361.045 98.6714 354.869 111.763L355.774 112.19L356.678 112.617C362.836 99.5619 369.487 86.5064 376.631 73.45L375.754 72.97ZM355.774 112.19L354.872 111.757C348.701 124.593 342.9 137.183 337.468 149.527L338.384 149.93L339.299 150.333C344.721 138.01 350.513 125.44 356.675 112.623L355.774 112.19ZM338.384 149.93L338.205 150.914C340.913 151.406 343.497 151.898 345.958 152.391L346.154 151.41L346.35 150.429C343.877 149.935 341.281 149.44 338.563 148.946L338.384 149.93ZM346.154 151.41L346.063 152.406C348.8 152.655 351.298 152.78 353.554 152.78V151.78V150.78C351.37 150.78 348.934 150.659 346.244 150.414L346.154 151.41ZM353.554 151.78V152.78C364.009 152.78 373.497 151.286 382.007 148.283L381.674 147.34L381.341 146.397C373.077 149.314 363.819 150.78 353.554 150.78V151.78ZM381.674 147.34L382.014 148.28C393.745 144.037 400.064 137.745 400.064 129.21H399.064H398.064C398.064 136.461 392.789 142.256 381.334 146.4L381.674 147.34ZM399.064 129.21H400.064C400.064 124.653 398.019 121.127 394.028 118.733L393.514 119.59L392.999 120.447C396.409 122.493 398.064 125.38 398.064 129.21H399.064ZM393.514 119.59L394.054 118.749L388.874 115.419L388.334 116.26L387.793 117.101L392.973 120.431L393.514 119.59ZM388.334 116.26H389.334C389.334 115.85 389.448 115.708 389.529 115.641C389.645 115.544 389.928 115.41 390.554 115.41V114.41V113.41C389.699 113.41 388.873 113.584 388.248 114.104C387.589 114.653 387.334 115.436 387.334 116.26H388.334ZM390.554 114.41V115.41C393.813 115.41 396.876 117.238 399.727 121.277L400.544 120.7L401.361 120.123C398.292 115.776 394.694 113.41 390.554 113.41V114.41ZM400.544 120.7L399.73 121.281C402.085 124.578 403.244 128.078 403.244 131.8H404.244H405.244C405.244 127.629 403.936 123.728 401.357 120.119L400.544 120.7ZM404.244 131.8H403.244C403.244 143.075 396.015 151.926 380.917 158.258L381.304 159.18L381.69 160.102C397.179 153.607 405.244 144.205 405.244 131.8H404.244ZM381.304 159.18L380.903 158.264C369.193 163.387 356.75 165.95 343.564 165.95V166.95V167.95C357.017 167.95 369.734 165.333 381.705 160.096L381.304 159.18ZM343.564 166.95V165.95C343.56 165.95 343.557 165.95 343.554 165.95C343.55 165.95 343.547 165.95 343.543 165.95C343.54 165.95 343.537 165.95 343.533 165.95C343.53 165.95 343.527 165.95 343.523 165.95C343.52 165.95 343.516 165.95 343.513 165.95C343.51 165.95 343.506 165.95 343.503 165.95C343.499 165.95 343.496 165.95 343.493 165.95C343.489 165.95 343.486 165.95 343.483 165.95C343.479 165.95 343.476 165.95 343.472 165.95C343.469 165.95 343.466 165.95 343.462 165.95C343.459 165.95 343.455 165.95 343.452 165.95C343.449 165.95 343.445 165.95 343.442 165.95C343.438 165.95 343.435 165.95 343.432 165.95C343.428 165.95 343.425 165.95 343.421 165.95C343.418 165.95 343.415 165.95 343.411 165.95C343.408 165.95 343.404 165.95 343.401 165.95C343.398 165.95 343.394 165.95 343.391 165.95C343.387 165.95 343.384 165.95 343.381 165.95C343.377 165.95 343.374 165.95 343.37 165.95C343.367 165.95 343.364 165.95 343.36 165.95C343.357 165.95 343.353 165.95 343.35 165.95C343.347 165.95 343.343 165.95 343.34 165.95C343.336 165.95 343.333 165.95 343.329 165.95C343.326 165.95 343.323 165.95 343.319 165.95C343.316 165.95 343.312 165.95 343.309 165.95C343.306 165.95 343.302 165.95 343.299 165.95C343.295 165.95 343.292 165.95 343.288 165.95C343.285 165.95 343.282 165.95 343.278 165.95C343.275 165.95 343.271 165.95 343.268 165.95C343.264 165.95 343.261 165.95 343.258 165.95C343.254 165.95 343.251 165.95 343.247 165.95C343.244 165.95 343.24 165.95 343.237 165.95C343.234 165.95 343.23 165.95 343.227 165.95C343.223 165.95 343.22 165.95 343.216 165.95C343.213 165.95 343.21 165.95 343.206 165.95C343.203 165.95 343.199 165.95 343.196 165.95C343.192 165.95 343.189 165.95 343.185 165.95C343.182 165.95 343.179 165.95 343.175 165.95C343.172 165.95 343.168 165.95 343.165 165.95C343.161 165.95 343.158 165.95 343.154 165.95C343.151 165.95 343.148 165.95 343.144 165.95C343.141 165.95 343.137 165.95 343.134 165.95C343.13 165.95 343.127 165.95 343.123 165.95C343.12 165.95 343.117 165.95 343.113 165.95C343.11 165.95 343.106 165.95 343.103 165.95C343.099 165.95 343.096 165.95 343.092 165.95C343.089 165.95 343.085 165.95 343.082 165.95C343.078 165.95 343.075 165.95 343.072 165.95C343.068 165.95 343.065 165.95 343.061 165.95C343.058 165.95 343.054 165.95 343.051 165.95C343.047 165.95 343.044 165.95 343.04 165.95C343.037 165.95 343.033 165.95 343.03 165.95C343.026 165.95 343.023 165.95 343.02 165.95C343.016 165.95 343.013 165.95 343.009 165.95C343.006 165.95 343.002 165.95 342.999 165.95C342.995 165.95 342.992 165.95 342.988 165.95C342.985 165.95 342.981 165.95 342.978 165.95C342.974 165.95 342.971 165.95 342.967 165.95C342.964 165.95 342.96 165.95 342.957 165.95C342.953 165.95 342.95 165.95 342.946 165.95C342.943 165.95 342.94 165.95 342.936 165.95C342.933 165.95 342.929 165.95 342.926 165.95C342.922 165.95 342.919 165.95 342.915 165.95C342.912 165.95 342.908 165.95 342.905 165.95C342.901 165.95 342.898 165.95 342.894 165.95C342.891 165.95 342.887 165.95 342.884 165.95C342.88 165.95 342.877 165.95 342.873 165.95C342.87 165.95 342.866 165.95 342.863 165.95C342.859 165.95 342.856 165.95 342.852 165.95C342.849 165.95 342.845 165.95 342.842 165.95C342.838 165.95 342.835 165.95 342.831 165.95C342.828 165.95 342.824 165.95 342.821 165.95C342.817 165.95 342.814 165.95 342.81 165.95C342.807 165.95 342.803 165.95 342.8 165.95C342.796 165.95 342.793 165.95 342.789 165.95C342.786 165.95 342.782 165.95 342.778 165.95C342.775 165.95 342.771 165.95 342.768 165.95C342.764 165.95 342.761 165.95 342.757 165.95C342.754 165.95 342.75 165.95 342.747 165.95C342.743 165.95 342.74 165.95 342.736 165.95C342.733 165.95 342.729 165.95 342.726 165.95C342.722 165.95 342.719 165.95 342.715 165.95C342.712 165.95 342.708 165.95 342.705 165.95C342.701 165.95 342.697 165.95 342.694 165.95C342.69 165.95 342.687 165.95 342.683 165.95C342.68 165.95 342.676 165.95 342.673 165.95C342.669 165.95 342.666 165.95 342.662 165.95C342.659 165.95 342.655 165.95 342.652 165.95C342.648 165.95 342.644 165.95 342.641 165.95C342.637 165.95 342.634 165.95 342.63 165.95C342.627 165.95 342.623 165.95 342.62 165.95C342.616 165.95 342.613 165.95 342.609 165.95C342.605 165.95 342.602 165.95 342.598 165.95C342.595 165.95 342.591 165.95 342.588 165.95C342.584 165.95 342.581 165.95 342.577 165.95C342.574 165.95 342.57 165.95 342.566 165.95C342.563 165.95 342.559 165.95 342.556 165.95C342.552 165.95 342.549 165.95 342.545 165.95C342.542 165.95 342.538 165.95 342.534 165.95C342.531 165.95 342.527 165.95 342.524 165.95C342.52 165.95 342.517 165.95 342.513 165.95C342.509 165.95 342.506 165.95 342.502 165.95C342.499 165.95 342.495 165.95 342.492 165.95C342.488 165.95 342.485 165.95 342.481 165.95C342.477 165.95 342.474 165.95 342.47 165.95C342.467 165.95 342.463 165.95 342.46 165.95C342.456 165.95 342.452 165.95 342.449 165.95C342.445 165.95 342.442 165.95 342.438 165.95C342.435 165.95 342.431 165.95 342.427 165.95C342.424 165.95 342.42 165.95 342.417 165.95C342.413 165.95 342.409 165.95 342.406 165.95C342.402 165.95 342.399 165.95 342.395 165.95C342.392 165.95 342.388 165.95 342.384 165.95C342.381 165.95 342.377 165.95 342.374 165.95C342.37 165.95 342.366 165.95 342.363 165.95C342.359 165.95 342.356 165.95 342.352 165.95C342.349 165.95 342.345 165.95 342.341 165.95C342.338 165.95 342.334 165.95 342.331 165.95C342.327 165.95 342.323 165.95 342.32 165.95C342.316 165.95 342.313 165.95 342.309 165.95C342.305 165.95 342.302 165.95 342.298 165.95C342.295 165.95 342.291 165.95 342.287 165.95C342.284 165.95 342.28 165.95 342.277 165.95C342.273 165.95 342.269 165.95 342.266 165.95C342.262 165.95 342.259 165.95 342.255 165.95C342.251 165.95 342.248 165.95 342.244 165.95C342.24 165.95 342.237 165.95 342.233 165.95C342.23 165.95 342.226 165.95 342.222 165.95C342.219 165.95 342.215 165.95 342.212 165.95C342.208 165.95 342.204 165.95 342.201 165.95C342.197 165.95 342.194 165.95 342.19 165.95C342.186 165.95 342.183 165.95 342.179 165.95C342.175 165.95 342.172 165.95 342.168 165.95C342.165 165.95 342.161 165.95 342.157 165.95C342.154 165.95 342.15 165.95 342.146 165.95C342.143 165.95 342.139 165.95 342.136 165.95C342.132 165.95 342.128 165.95 342.125 165.95C342.121 165.95 342.117 165.95 342.114 165.95C342.11 165.95 342.106 165.95 342.103 165.95C342.099 165.95 342.096 165.95 342.092 165.95C342.088 165.95 342.085 165.95 342.081 165.95C342.077 165.95 342.074 165.95 342.07 165.95C342.066 165.95 342.063 165.95 342.059 165.95C342.056 165.95 342.052 165.95 342.048 165.95C342.045 165.95 342.041 165.95 342.037 165.95C342.034 165.95 342.03 165.95 342.026 165.95C342.023 165.95 342.019 165.95 342.015 165.95C342.012 165.95 342.008 165.95 342.005 165.95C342.001 165.95 341.997 165.95 341.994 165.95C341.99 165.95 341.986 165.95 341.983 165.95C341.979 165.95 341.975 165.95 341.972 165.95C341.968 165.95 341.964 165.95 341.961 165.95C341.957 165.95 341.953 165.95 341.95 165.95C341.946 165.95 341.942 165.95 341.939 165.95C341.935 165.95 341.931 165.95 341.928 165.95C341.924 165.95 341.92 165.95 341.917 165.95C341.913 165.95 341.909 165.95 341.906 165.95C341.902 165.95 341.898 165.95 341.895 165.95C341.891 165.95 341.887 165.95 341.884 165.95C341.88 165.95 341.876 165.95 341.873 165.95C341.869 165.95 341.865 165.95 341.862 165.95C341.858 165.95 341.854 165.95 341.851 165.95C341.847 165.95 341.843 165.95 341.84 165.95C341.836 165.95 341.832 165.95 341.829 165.95C341.825 165.95 341.821 165.95 341.817 165.95C341.814 165.95 341.81 165.95 341.806 165.95C341.803 165.95 341.799 165.95 341.795 165.95C341.792 165.95 341.788 165.95 341.784 165.95C341.781 165.95 341.777 165.95 341.773 165.95C341.77 165.95 341.766 165.95 341.762 165.95C341.758 165.95 341.755 165.95 341.751 165.95C341.747 165.95 341.744 165.95 341.74 165.95C341.736 165.95 341.733 165.95 341.729 165.95C341.725 165.95 341.722 165.95 341.718 165.95C341.714 165.95 341.71 165.95 341.707 165.95C341.703 165.95 341.699 165.95 341.696 165.95C341.692 165.95 341.688 165.95 341.685 165.95C341.681 165.95 341.677 165.95 341.673 165.95C341.67 165.95 341.666 165.95 341.662 165.95C341.659 165.95 341.655 165.95 341.651 165.95C341.647 165.95 341.644 165.95 341.64 165.95C341.636 165.95 341.633 165.95 341.629 165.95C341.625 165.95 341.621 165.95 341.618 165.95C341.614 165.95 341.61 165.95 341.607 165.95C341.603 165.95 341.599 165.95 341.595 165.95C341.592 165.95 341.588 165.95 341.584 165.95C341.581 165.95 341.577 165.95 341.573 165.95C341.569 165.95 341.566 165.95 341.562 165.95C341.558 165.95 341.554 165.95 341.551 165.95C341.547 165.95 341.543 165.95 341.54 165.95C341.536 165.95 341.532 165.95 341.528 165.95C341.525 165.95 341.521 165.95 341.517 165.95C341.513 165.95 341.51 165.95 341.506 165.95C341.502 165.95 341.498 165.95 341.495 165.95C341.491 165.95 341.487 165.95 341.483 165.95C341.48 165.95 341.476 165.95 341.472 165.95C341.469 165.95 341.465 165.95 341.461 165.95C341.457 165.95 341.454 165.95 341.45 165.95C341.446 165.95 341.442 165.95 341.439 165.95C341.435 165.95 341.431 165.95 341.427 165.95C341.424 165.95 341.42 165.95 341.416 165.95C341.412 165.95 341.409 165.95 341.405 165.95C341.401 165.95 341.397 165.95 341.394 165.95C341.39 165.95 341.386 165.95 341.382 165.95C341.379 165.95 341.375 165.95 341.371 165.95C341.367 165.95 341.364 165.95 341.36 165.95C341.356 165.95 341.352 165.95 341.348 165.95C341.345 165.95 341.341 165.95 341.337 165.95C341.333 165.95 341.33 165.95 341.326 165.95C341.322 165.95 341.318 165.95 341.315 165.95C341.311 165.95 341.307 165.95 341.303 165.95C341.3 165.95 341.296 165.95 341.292 165.95C341.288 165.95 341.284 165.95 341.281 165.95C341.277 165.95 341.273 165.95 341.269 165.95C341.266 165.95 341.262 165.95 341.258 165.95C341.254 165.95 341.25 165.95 341.247 165.95C341.243 165.95 341.239 165.95 341.235 165.95C341.232 165.95 341.228 165.95 341.224 165.95C341.22 165.95 341.216 165.95 341.213 165.95C341.209 165.95 341.205 165.95 341.201 165.95C341.197 165.95 341.194 165.95 341.19 165.95C341.186 165.95 341.182 165.95 341.179 165.95C341.175 165.95 341.171 165.95 341.167 165.95C341.163 165.95 341.16 165.95 341.156 165.95C341.152 165.95 341.148 165.95 341.144 165.95C341.141 165.95 341.137 165.95 341.133 165.95C341.129 165.95 341.125 165.95 341.122 165.95C341.118 165.95 341.114 165.95 341.11 165.95C341.106 165.95 341.103 165.95 341.099 165.95C341.095 165.95 341.091 165.95 341.087 165.95C341.084 165.95 341.08 165.95 341.076 165.95C341.072 165.95 341.068 165.95 341.065 165.95C341.061 165.95 341.057 165.95 341.053 165.95C341.049 165.95 341.046 165.95 341.042 165.95C341.038 165.95 341.034 165.95 341.03 165.95C341.026 165.95 341.023 165.95 341.019 165.95C341.015 165.95 341.011 165.95 341.007 165.95C341.004 165.95 341 165.95 340.996 165.95C340.992 165.95 340.988 165.95 340.984 165.95C340.981 165.95 340.977 165.95 340.973 165.95C340.969 165.95 340.965 165.95 340.961 165.95C340.958 165.95 340.954 165.95 340.95 165.95C340.946 165.95 340.942 165.95 340.939 165.95C340.935 165.95 340.931 165.95 340.927 165.95C340.923 165.95 340.919 165.95 340.916 165.95C340.912 165.95 340.908 165.95 340.904 165.95C340.9 165.95 340.896 165.95 340.893 165.95C340.889 165.95 340.885 165.95 340.881 165.95C340.877 165.95 340.873 165.95 340.869 165.95C340.866 165.95 340.862 165.95 340.858 165.95C340.854 165.95 340.85 165.95 340.846 165.95C340.843 165.95 340.839 165.95 340.835 165.95C340.831 165.95 340.827 165.95 340.823 165.95C340.82 165.95 340.816 165.95 340.812 165.95C340.808 165.95 340.804 165.95 340.8 165.95C340.796 165.95 340.793 165.95 340.789 165.95C340.785 165.95 340.781 165.95 340.777 165.95C340.773 165.95 340.769 165.95 340.766 165.95C340.762 165.95 340.758 165.95 340.754 165.95C340.75 165.95 340.746 165.95 340.742 165.95C340.739 165.95 340.735 165.95 340.731 165.95C340.727 165.95 340.723 165.95 340.719 165.95C340.715 165.95 340.711 165.95 340.708 165.95C340.704 165.95 340.7 165.95 340.696 165.95C340.692 165.95 340.688 165.95 340.684 165.95C340.681 165.95 340.677 165.95 340.673 165.95C340.669 165.95 340.665 165.95 340.661 165.95C340.657 165.95 340.653 165.95 340.65 165.95C340.646 165.95 340.642 165.95 340.638 165.95C340.634 165.95 340.63 165.95 340.626 165.95C340.622 165.95 340.618 165.95 340.615 165.95C340.611 165.95 340.607 165.95 340.603 165.95C340.599 165.95 340.595 165.95 340.591 165.95C340.587 165.95 340.584 165.95 340.58 165.95C340.576 165.95 340.572 165.95 340.568 165.95C340.564 165.95 340.56 165.95 340.556 165.95C340.552 165.95 340.549 165.95 340.545 165.95C340.541 165.95 340.537 165.95 340.533 165.95C340.529 165.95 340.525 165.95 340.521 165.95C340.517 165.95 340.513 165.95 340.51 165.95C340.506 165.95 340.502 165.95 340.498 165.95C340.494 165.95 340.49 165.95 340.486 165.95C340.482 165.95 340.478 165.95 340.474 165.95C340.471 165.95 340.467 165.95 340.463 165.95C340.459 165.95 340.455 165.95 340.451 165.95C340.447 165.95 340.443 165.95 340.439 165.95C340.435 165.95 340.431 165.95 340.428 165.95C340.424 165.95 340.42 165.95 340.416 165.95C340.412 165.95 340.408 165.95 340.404 165.95C340.4 165.95 340.396 165.95 340.392 165.95C340.388 165.95 340.384 165.95 340.381 165.95C340.377 165.95 340.373 165.95 340.369 165.95C340.365 165.95 340.361 165.95 340.357 165.95C340.353 165.95 340.349 165.95 340.345 165.95C340.341 165.95 340.337 165.95 340.333 165.95C340.33 165.95 340.326 165.95 340.322 165.95C340.318 165.95 340.314 165.95 340.31 165.95C340.306 165.95 340.302 165.95 340.298 165.95C340.294 165.95 340.29 165.95 340.286 165.95C340.282 165.95 340.278 165.95 340.274 165.95C340.271 165.95 340.267 165.95 340.263 165.95C340.259 165.95 340.255 165.95 340.251 165.95C340.247 165.95 340.243 165.95 340.239 165.95C340.235 165.95 340.231 165.95 340.227 165.95C340.223 165.95 340.219 165.95 340.215 165.95C340.211 165.95 340.207 165.95 340.204 165.95C340.2 165.95 340.196 165.95 340.192 165.95C340.188 165.95 340.184 165.95 340.18 165.95C340.176 165.95 340.172 165.95 340.168 165.95C340.164 165.95 340.16 165.95 340.156 165.95C340.152 165.95 340.148 165.95 340.144 165.95C340.14 165.95 340.136 165.95 340.132 165.95C340.128 165.95 340.124 165.95 340.12 165.95C340.116 165.95 340.113 165.95 340.109 165.95C340.105 165.95 340.101 165.95 340.097 165.95C340.093 165.95 340.089 165.95 340.085 165.95C340.081 165.95 340.077 165.95 340.073 165.95C340.069 165.95 340.065 165.95 340.061 165.95C340.057 165.95 340.053 165.95 340.049 165.95C340.045 165.95 340.041 165.95 340.037 165.95C340.033 165.95 340.029 165.95 340.025 165.95C340.021 165.95 340.017 165.95 340.013 165.95C340.009 165.95 340.005 165.95 340.001 165.95C339.997 165.95 339.993 165.95 339.989 165.95C339.985 165.95 339.981 165.95 339.977 165.95C339.973 165.95 339.969 165.95 339.965 165.95C339.961 165.95 339.958 165.95 339.954 165.95C339.95 165.95 339.946 165.95 339.942 165.95C339.938 165.95 339.934 165.95 339.93 165.95C339.926 165.95 339.922 165.95 339.918 165.95C339.914 165.95 339.91 165.95 339.906 165.95C339.902 165.95 339.898 165.95 339.894 165.95C339.89 165.95 339.886 165.95 339.882 165.95C339.878 165.95 339.874 165.95 339.87 165.95C339.866 165.95 339.862 165.95 339.858 165.95C339.854 165.95 339.85 165.95 339.846 165.95C339.842 165.95 339.838 165.95 339.834 165.95C339.83 165.95 339.826 165.95 339.822 165.95C339.818 165.95 339.814 165.95 339.81 165.95C339.806 165.95 339.802 165.95 339.798 165.95C339.794 165.95 339.789 165.95 339.785 165.95C339.781 165.95 339.777 165.95 339.773 165.95C339.769 165.95 339.765 165.95 339.761 165.95C339.757 165.95 339.753 165.95 339.749 165.95C339.745 165.95 339.741 165.95 339.737 165.95C339.733 165.95 339.729 165.95 339.725 165.95C339.721 165.95 339.717 165.95 339.713 165.95C339.709 165.95 339.705 165.95 339.701 165.95C339.697 165.95 339.693 165.95 339.689 165.95C339.685 165.95 339.681 165.95 339.677 165.95C339.673 165.95 339.669 165.95 339.665 165.95C339.661 165.95 339.657 165.95 339.653 165.95C339.649 165.95 339.645 165.95 339.641 165.95C339.637 165.95 339.632 165.95 339.628 165.95C339.624 165.95 339.62 165.95 339.616 165.95C339.612 165.95 339.608 165.95 339.604 165.95C339.6 165.95 339.596 165.95 339.592 165.95C339.588 165.95 339.584 165.95 339.58 165.95C339.576 165.95 339.572 165.95 339.568 165.95C339.564 165.95 339.56 165.95 339.556 165.95C339.552 165.95 339.548 165.95 339.544 165.95C339.539 165.95 339.535 165.95 339.531 165.95C339.527 165.95 339.523 165.95 339.519 165.95C339.515 165.95 339.511 165.95 339.507 165.95C339.503 165.95 339.499 165.95 339.495 165.95C339.491 165.95 339.487 165.95 339.483 165.95C339.479 165.95 339.475 165.95 339.47 165.95C339.466 165.95 339.462 165.95 339.458 165.95C339.454 165.95 339.45 165.95 339.446 165.95C339.442 165.95 339.438 165.95 339.434 165.95C339.43 165.95 339.426 165.95 339.422 165.95C339.418 165.95 339.414 165.95 339.409 165.95C339.405 165.95 339.401 165.95 339.397 165.95C339.393 165.95 339.389 165.95 339.385 165.95C339.381 165.95 339.377 165.95 339.373 165.95C339.369 165.95 339.365 165.95 339.361 165.95C339.356 165.95 339.352 165.95 339.348 165.95C339.344 165.95 339.34 165.95 339.336 165.95C339.332 165.95 339.328 165.95 339.324 165.95C339.32 165.95 339.316 165.95 339.312 165.95C339.307 165.95 339.303 165.95 339.299 165.95C339.295 165.95 339.291 165.95 339.287 165.95C339.283 165.95 339.279 165.95 339.275 165.95C339.271 165.95 339.267 165.95 339.262 165.95C339.258 165.95 339.254 165.95 339.25 165.95C339.246 165.95 339.242 165.95 339.238 165.95C339.234 165.95 339.23 165.95 339.226 165.95C339.221 165.95 339.217 165.95 339.213 165.95C339.209 165.95 339.205 165.95 339.201 165.95C339.197 165.95 339.193 165.95 339.189 165.95C339.185 165.95 339.18 165.95 339.176 165.95C339.172 165.95 339.168 165.95 339.164 165.95C339.16 165.95 339.156 165.95 339.152 165.95C339.148 165.95 339.143 165.95 339.139 165.95C339.135 165.95 339.131 165.95 339.127 165.95C339.123 165.95 339.119 165.95 339.115 165.95C339.11 165.95 339.106 165.95 339.102 165.95C339.098 165.95 339.094 165.95 339.09 165.95C339.086 165.95 339.082 165.95 339.078 165.95C339.073 165.95 339.069 165.95 339.065 165.95C339.061 165.95 339.057 165.95 339.053 165.95C339.049 165.95 339.045 165.95 339.04 165.95C339.036 165.95 339.032 165.95 339.028 165.95C339.024 165.95 339.02 165.95 339.016 165.95C339.011 165.95 339.007 165.95 339.003 165.95C338.999 165.95 338.995 165.95 338.991 165.95C338.987 165.95 338.983 165.95 338.978 165.95C338.974 165.95 338.97 165.95 338.966 165.95C338.962 165.95 338.958 165.95 338.954 165.95C338.949 165.95 338.945 165.95 338.941 165.95C338.937 165.95 338.933 165.95 338.929 165.95C338.925 165.95 338.92 165.95 338.916 165.95C338.912 165.95 338.908 165.95 338.904 165.95C338.9 165.95 338.895 165.95 338.891 165.95C338.887 165.95 338.883 165.95 338.879 165.95C338.875 165.95 338.871 165.95 338.866 165.95C338.862 165.95 338.858 165.95 338.854 165.95C338.85 165.95 338.846 165.95 338.841 165.95C338.837 165.95 338.833 165.95 338.829 165.95C338.825 165.95 338.821 165.95 338.817 165.95C338.812 165.95 338.808 165.95 338.804 165.95C338.8 165.95 338.796 165.95 338.792 165.95C338.787 165.95 338.783 165.95 338.779 165.95C338.775 165.95 338.771 165.95 338.767 165.95C338.762 165.95 338.758 165.95 338.754 165.95C338.75 165.95 338.746 165.95 338.741 165.95C338.737 165.95 338.733 165.95 338.729 165.95C338.725 165.95 338.721 165.95 338.716 165.95C338.712 165.95 338.708 165.95 338.704 165.95C338.7 165.95 338.696 165.95 338.691 165.95C338.687 165.95 338.683 165.95 338.679 165.95C338.675 165.95 338.67 165.95 338.666 165.95C338.662 165.95 338.658 165.95 338.654 165.95C338.649 165.95 338.645 165.95 338.641 165.95C338.637 165.95 338.633 165.95 338.629 165.95C338.624 165.95 338.62 165.95 338.616 165.95C338.612 165.95 338.608 165.95 338.603 165.95C338.599 165.95 338.595 165.95 338.591 165.95C338.587 165.95 338.582 165.95 338.578 165.95C338.574 165.95 338.57 165.95 338.566 165.95C338.561 165.95 338.557 165.95 338.553 165.95C338.549 165.95 338.545 165.95 338.54 165.95C338.536 165.95 338.532 165.95 338.528 165.95C338.524 165.95 338.519 165.95 338.515 165.95C338.511 165.95 338.507 165.95 338.503 165.95C338.498 165.95 338.494 165.95 338.49 165.95C338.486 165.95 338.481 165.95 338.477 165.95C338.473 165.95 338.469 165.95 338.465 165.95C338.46 165.95 338.456 165.95 338.452 165.95C338.448 165.95 338.444 165.95 338.439 165.95C338.435 165.95 338.431 165.95 338.427 165.95C338.422 165.95 338.418 165.95 338.414 165.95C338.41 165.95 338.406 165.95 338.401 165.95C338.397 165.95 338.393 165.95 338.389 165.95C338.384 165.95 338.38 165.95 338.376 165.95C338.372 165.95 338.368 165.95 338.363 165.95C338.359 165.95 338.355 165.95 338.351 165.95C338.346 165.95 338.342 165.95 338.338 165.95C338.334 165.95 338.329 165.95 338.325 165.95C338.321 165.95 338.317 165.95 338.312 165.95C338.308 165.95 338.304 165.95 338.3 165.95C338.296 165.95 338.291 165.95 338.287 165.95C338.283 165.95 338.279 165.95 338.274 165.95C338.27 165.95 338.266 165.95 338.262 165.95C338.257 165.95 338.253 165.95 338.249 165.95C338.245 165.95 338.24 165.95 338.236 165.95C338.232 165.95 338.228 165.95 338.223 165.95C338.219 165.95 338.215 165.95 338.211 165.95C338.206 165.95 338.202 165.95 338.198 165.95C338.194 165.95 338.189 165.95 338.185 165.95C338.181 165.95 338.177 165.95 338.172 165.95C338.168 165.95 338.164 165.95 338.159 165.95C338.155 165.95 338.151 165.95 338.147 165.95C338.142 165.95 338.138 165.95 338.134 165.95C338.13 165.95 338.125 165.95 338.121 165.95C338.117 165.95 338.113 165.95 338.108 165.95C338.104 165.95 338.1 165.95 338.096 165.95C338.091 165.95 338.087 165.95 338.083 165.95C338.078 165.95 338.074 165.95 338.07 165.95C338.066 165.95 338.061 165.95 338.057 165.95C338.053 165.95 338.048 165.95 338.044 165.95C338.04 165.95 338.036 165.95 338.031 165.95C338.027 165.95 338.023 165.95 338.019 165.95C338.014 165.95 338.01 165.95 338.006 165.95C338.001 165.95 337.997 165.95 337.993 165.95C337.989 165.95 337.984 165.95 337.98 165.95C337.976 165.95 337.971 165.95 337.967 165.95C337.963 165.95 337.959 165.95 337.954 165.95C337.95 165.95 337.946 165.95 337.941 165.95C337.937 165.95 337.933 165.95 337.928 165.95C337.924 165.95 337.92 165.95 337.916 165.95C337.911 165.95 337.907 165.95 337.903 165.95C337.898 165.95 337.894 165.95 337.89 165.95C337.886 165.95 337.881 165.95 337.877 165.95C337.873 165.95 337.868 165.95 337.864 165.95C337.86 165.95 337.855 165.95 337.851 165.95C337.847 165.95 337.842 165.95 337.838 165.95C337.834 165.95 337.83 165.95 337.825 165.95C337.821 165.95 337.817 165.95 337.812 165.95C337.808 165.95 337.804 165.95 337.799 165.95C337.795 165.95 337.791 165.95 337.786 165.95C337.782 165.95 337.778 165.95 337.773 165.95C337.769 165.95 337.765 165.95 337.761 165.95C337.756 165.95 337.752 165.95 337.748 165.95C337.743 165.95 337.739 165.95 337.735 165.95C337.73 165.95 337.726 165.95 337.722 165.95C337.717 165.95 337.713 165.95 337.709 165.95C337.704 165.95 337.7 165.95 337.696 165.95C337.691 165.95 337.687 165.95 337.683 165.95C337.678 165.95 337.674 165.95 337.67 165.95C337.665 165.95 337.661 165.95 337.657 165.95C337.652 165.95 337.648 165.95 337.644 165.95V166.95V167.95C337.648 167.95 337.652 167.95 337.657 167.95C337.661 167.95 337.665 167.95 337.67 167.95C337.674 167.95 337.678 167.95 337.683 167.95C337.687 167.95 337.691 167.95 337.696 167.95C337.7 167.95 337.704 167.95 337.709 167.95C337.713 167.95 337.717 167.95 337.722 167.95C337.726 167.95 337.73 167.95 337.735 167.95C337.739 167.95 337.743 167.95 337.748 167.95C337.752 167.95 337.756 167.95 337.761 167.95C337.765 167.95 337.769 167.95 337.773 167.95C337.778 167.95 337.782 167.95 337.786 167.95C337.791 167.95 337.795 167.95 337.799 167.95C337.804 167.95 337.808 167.95 337.812 167.95C337.817 167.95 337.821 167.95 337.825 167.95C337.83 167.95 337.834 167.95 337.838 167.95C337.842 167.95 337.847 167.95 337.851 167.95C337.855 167.95 337.86 167.95 337.864 167.95C337.868 167.95 337.873 167.95 337.877 167.95C337.881 167.95 337.886 167.95 337.89 167.95C337.894 167.95 337.898 167.95 337.903 167.95C337.907 167.95 337.911 167.95 337.916 167.95C337.92 167.95 337.924 167.95 337.928 167.95C337.933 167.95 337.937 167.95 337.941 167.95C337.946 167.95 337.95 167.95 337.954 167.95C337.959 167.95 337.963 167.95 337.967 167.95C337.971 167.95 337.976 167.95 337.98 167.95C337.984 167.95 337.989 167.95 337.993 167.95C337.997 167.95 338.001 167.95 338.006 167.95C338.01 167.95 338.014 167.95 338.019 167.95C338.023 167.95 338.027 167.95 338.031 167.95C338.036 167.95 338.04 167.95 338.044 167.95C338.048 167.95 338.053 167.95 338.057 167.95C338.061 167.95 338.066 167.95 338.07 167.95C338.074 167.95 338.078 167.95 338.083 167.95C338.087 167.95 338.091 167.95 338.096 167.95C338.1 167.95 338.104 167.95 338.108 167.95C338.113 167.95 338.117 167.95 338.121 167.95C338.125 167.95 338.13 167.95 338.134 167.95C338.138 167.95 338.142 167.95 338.147 167.95C338.151 167.95 338.155 167.95 338.159 167.95C338.164 167.95 338.168 167.95 338.172 167.95C338.177 167.95 338.181 167.95 338.185 167.95C338.189 167.95 338.194 167.95 338.198 167.95C338.202 167.95 338.206 167.95 338.211 167.95C338.215 167.95 338.219 167.95 338.223 167.95C338.228 167.95 338.232 167.95 338.236 167.95C338.24 167.95 338.245 167.95 338.249 167.95C338.253 167.95 338.257 167.95 338.262 167.95C338.266 167.95 338.27 167.95 338.274 167.95C338.279 167.95 338.283 167.95 338.287 167.95C338.291 167.95 338.296 167.95 338.3 167.95C338.304 167.95 338.308 167.95 338.312 167.95C338.317 167.95 338.321 167.95 338.325 167.95C338.329 167.95 338.334 167.95 338.338 167.95C338.342 167.95 338.346 167.95 338.351 167.95C338.355 167.95 338.359 167.95 338.363 167.95C338.368 167.95 338.372 167.95 338.376 167.95C338.38 167.95 338.384 167.95 338.389 167.95C338.393 167.95 338.397 167.95 338.401 167.95C338.406 167.95 338.41 167.95 338.414 167.95C338.418 167.95 338.422 167.95 338.427 167.95C338.431 167.95 338.435 167.95 338.439 167.95C338.444 167.95 338.448 167.95 338.452 167.95C338.456 167.95 338.46 167.95 338.465 167.95C338.469 167.95 338.473 167.95 338.477 167.95C338.481 167.95 338.486 167.95 338.49 167.95C338.494 167.95 338.498 167.95 338.503 167.95C338.507 167.95 338.511 167.95 338.515 167.95C338.519 167.95 338.524 167.95 338.528 167.95C338.532 167.95 338.536 167.95 338.54 167.95C338.545 167.95 338.549 167.95 338.553 167.95C338.557 167.95 338.561 167.95 338.566 167.95C338.57 167.95 338.574 167.95 338.578 167.95C338.582 167.95 338.587 167.95 338.591 167.95C338.595 167.95 338.599 167.95 338.603 167.95C338.608 167.95 338.612 167.95 338.616 167.95C338.62 167.95 338.624 167.95 338.629 167.95C338.633 167.95 338.637 167.95 338.641 167.95C338.645 167.95 338.649 167.95 338.654 167.95C338.658 167.95 338.662 167.95 338.666 167.95C338.67 167.95 338.675 167.95 338.679 167.95C338.683 167.95 338.687 167.95 338.691 167.95C338.696 167.95 338.7 167.95 338.704 167.95C338.708 167.95 338.712 167.95 338.716 167.95C338.721 167.95 338.725 167.95 338.729 167.95C338.733 167.95 338.737 167.95 338.741 167.95C338.746 167.95 338.75 167.95 338.754 167.95C338.758 167.95 338.762 167.95 338.767 167.95C338.771 167.95 338.775 167.95 338.779 167.95C338.783 167.95 338.787 167.95 338.792 167.95C338.796 167.95 338.8 167.95 338.804 167.95C338.808 167.95 338.812 167.95 338.817 167.95C338.821 167.95 338.825 167.95 338.829 167.95C338.833 167.95 338.837 167.95 338.841 167.95C338.846 167.95 338.85 167.95 338.854 167.95C338.858 167.95 338.862 167.95 338.866 167.95C338.871 167.95 338.875 167.95 338.879 167.95C338.883 167.95 338.887 167.95 338.891 167.95C338.895 167.95 338.9 167.95 338.904 167.95C338.908 167.95 338.912 167.95 338.916 167.95C338.92 167.95 338.925 167.95 338.929 167.95C338.933 167.95 338.937 167.95 338.941 167.95C338.945 167.95 338.949 167.95 338.954 167.95C338.958 167.95 338.962 167.95 338.966 167.95C338.97 167.95 338.974 167.95 338.978 167.95C338.983 167.95 338.987 167.95 338.991 167.95C338.995 167.95 338.999 167.95 339.003 167.95C339.007 167.95 339.011 167.95 339.016 167.95C339.02 167.95 339.024 167.95 339.028 167.95C339.032 167.95 339.036 167.95 339.04 167.95C339.045 167.95 339.049 167.95 339.053 167.95C339.057 167.95 339.061 167.95 339.065 167.95C339.069 167.95 339.073 167.95 339.078 167.95C339.082 167.95 339.086 167.95 339.09 167.95C339.094 167.95 339.098 167.95 339.102 167.95C339.106 167.95 339.11 167.95 339.115 167.95C339.119 167.95 339.123 167.95 339.127 167.95C339.131 167.95 339.135 167.95 339.139 167.95C339.143 167.95 339.148 167.95 339.152 167.95C339.156 167.95 339.16 167.95 339.164 167.95C339.168 167.95 339.172 167.95 339.176 167.95C339.18 167.95 339.185 167.95 339.189 167.95C339.193 167.95 339.197 167.95 339.201 167.95C339.205 167.95 339.209 167.95 339.213 167.95C339.217 167.95 339.221 167.95 339.226 167.95C339.23 167.95 339.234 167.95 339.238 167.95C339.242 167.95 339.246 167.95 339.25 167.95C339.254 167.95 339.258 167.95 339.262 167.95C339.267 167.95 339.271 167.95 339.275 167.95C339.279 167.95 339.283 167.95 339.287 167.95C339.291 167.95 339.295 167.95 339.299 167.95C339.303 167.95 339.307 167.95 339.312 167.95C339.316 167.95 339.32 167.95 339.324 167.95C339.328 167.95 339.332 167.95 339.336 167.95C339.34 167.95 339.344 167.95 339.348 167.95C339.352 167.95 339.356 167.95 339.361 167.95C339.365 167.95 339.369 167.95 339.373 167.95C339.377 167.95 339.381 167.95 339.385 167.95C339.389 167.95 339.393 167.95 339.397 167.95C339.401 167.95 339.405 167.95 339.409 167.95C339.414 167.95 339.418 167.95 339.422 167.95C339.426 167.95 339.43 167.95 339.434 167.95C339.438 167.95 339.442 167.95 339.446 167.95C339.45 167.95 339.454 167.95 339.458 167.95C339.462 167.95 339.466 167.95 339.47 167.95C339.475 167.95 339.479 167.95 339.483 167.95C339.487 167.95 339.491 167.95 339.495 167.95C339.499 167.95 339.503 167.95 339.507 167.95C339.511 167.95 339.515 167.95 339.519 167.95C339.523 167.95 339.527 167.95 339.531 167.95C339.535 167.95 339.539 167.95 339.544 167.95C339.548 167.95 339.552 167.95 339.556 167.95C339.56 167.95 339.564 167.95 339.568 167.95C339.572 167.95 339.576 167.95 339.58 167.95C339.584 167.95 339.588 167.95 339.592 167.95C339.596 167.95 339.6 167.95 339.604 167.95C339.608 167.95 339.612 167.95 339.616 167.95C339.62 167.95 339.624 167.95 339.628 167.95C339.632 167.95 339.637 167.95 339.641 167.95C339.645 167.95 339.649 167.95 339.653 167.95C339.657 167.95 339.661 167.95 339.665 167.95C339.669 167.95 339.673 167.95 339.677 167.95C339.681 167.95 339.685 167.95 339.689 167.95C339.693 167.95 339.697 167.95 339.701 167.95C339.705 167.95 339.709 167.95 339.713 167.95C339.717 167.95 339.721 167.95 339.725 167.95C339.729 167.95 339.733 167.95 339.737 167.95C339.741 167.95 339.745 167.95 339.749 167.95C339.753 167.95 339.757 167.95 339.761 167.95C339.765 167.95 339.769 167.95 339.773 167.95C339.777 167.95 339.781 167.95 339.785 167.95C339.789 167.95 339.794 167.95 339.798 167.95C339.802 167.95 339.806 167.95 339.81 167.95C339.814 167.95 339.818 167.95 339.822 167.95C339.826 167.95 339.83 167.95 339.834 167.95C339.838 167.95 339.842 167.95 339.846 167.95C339.85 167.95 339.854 167.95 339.858 167.95C339.862 167.95 339.866 167.95 339.87 167.95C339.874 167.95 339.878 167.95 339.882 167.95C339.886 167.95 339.89 167.95 339.894 167.95C339.898 167.95 339.902 167.95 339.906 167.95C339.91 167.95 339.914 167.95 339.918 167.95C339.922 167.95 339.926 167.95 339.93 167.95C339.934 167.95 339.938 167.95 339.942 167.95C339.946 167.95 339.95 167.95 339.954 167.95C339.958 167.95 339.961 167.95 339.965 167.95C339.969 167.95 339.973 167.95 339.977 167.95C339.981 167.95 339.985 167.95 339.989 167.95C339.993 167.95 339.997 167.95 340.001 167.95C340.005 167.95 340.009 167.95 340.013 167.95C340.017 167.95 340.021 167.95 340.025 167.95C340.029 167.95 340.033 167.95 340.037 167.95C340.041 167.95 340.045 167.95 340.049 167.95C340.053 167.95 340.057 167.95 340.061 167.95C340.065 167.95 340.069 167.95 340.073 167.95C340.077 167.95 340.081 167.95 340.085 167.95C340.089 167.95 340.093 167.95 340.097 167.95C340.101 167.95 340.105 167.95 340.109 167.95C340.113 167.95 340.116 167.95 340.12 167.95C340.124 167.95 340.128 167.95 340.132 167.95C340.136 167.95 340.14 167.95 340.144 167.95C340.148 167.95 340.152 167.95 340.156 167.95C340.16 167.95 340.164 167.95 340.168 167.95C340.172 167.95 340.176 167.95 340.18 167.95C340.184 167.95 340.188 167.95 340.192 167.95C340.196 167.95 340.2 167.95 340.204 167.95C340.207 167.95 340.211 167.95 340.215 167.95C340.219 167.95 340.223 167.95 340.227 167.95C340.231 167.95 340.235 167.95 340.239 167.95C340.243 167.95 340.247 167.95 340.251 167.95C340.255 167.95 340.259 167.95 340.263 167.95C340.267 167.95 340.271 167.95 340.274 167.95C340.278 167.95 340.282 167.95 340.286 167.95C340.29 167.95 340.294 167.95 340.298 167.95C340.302 167.95 340.306 167.95 340.31 167.95C340.314 167.95 340.318 167.95 340.322 167.95C340.326 167.95 340.33 167.95 340.333 167.95C340.337 167.95 340.341 167.95 340.345 167.95C340.349 167.95 340.353 167.95 340.357 167.95C340.361 167.95 340.365 167.95 340.369 167.95C340.373 167.95 340.377 167.95 340.381 167.95C340.384 167.95 340.388 167.95 340.392 167.95C340.396 167.95 340.4 167.95 340.404 167.95C340.408 167.95 340.412 167.95 340.416 167.95C340.42 167.95 340.424 167.95 340.428 167.95C340.431 167.95 340.435 167.95 340.439 167.95C340.443 167.95 340.447 167.95 340.451 167.95C340.455 167.95 340.459 167.95 340.463 167.95C340.467 167.95 340.471 167.95 340.474 167.95C340.478 167.95 340.482 167.95 340.486 167.95C340.49 167.95 340.494 167.95 340.498 167.95C340.502 167.95 340.506 167.95 340.51 167.95C340.513 167.95 340.517 167.95 340.521 167.95C340.525 167.95 340.529 167.95 340.533 167.95C340.537 167.95 340.541 167.95 340.545 167.95C340.549 167.95 340.552 167.95 340.556 167.95C340.56 167.95 340.564 167.95 340.568 167.95C340.572 167.95 340.576 167.95 340.58 167.95C340.584 167.95 340.587 167.95 340.591 167.95C340.595 167.95 340.599 167.95 340.603 167.95C340.607 167.95 340.611 167.95 340.615 167.95C340.618 167.95 340.622 167.95 340.626 167.95C340.63 167.95 340.634 167.95 340.638 167.95C340.642 167.95 340.646 167.95 340.65 167.95C340.653 167.95 340.657 167.95 340.661 167.95C340.665 167.95 340.669 167.95 340.673 167.95C340.677 167.95 340.681 167.95 340.684 167.95C340.688 167.95 340.692 167.95 340.696 167.95C340.7 167.95 340.704 167.95 340.708 167.95C340.711 167.95 340.715 167.95 340.719 167.95C340.723 167.95 340.727 167.95 340.731 167.95C340.735 167.95 340.739 167.95 340.742 167.95C340.746 167.95 340.75 167.95 340.754 167.95C340.758 167.95 340.762 167.95 340.766 167.95C340.769 167.95 340.773 167.95 340.777 167.95C340.781 167.95 340.785 167.95 340.789 167.95C340.793 167.95 340.796 167.95 340.8 167.95C340.804 167.95 340.808 167.95 340.812 167.95C340.816 167.95 340.82 167.95 340.823 167.95C340.827 167.95 340.831 167.95 340.835 167.95C340.839 167.95 340.843 167.95 340.846 167.95C340.85 167.95 340.854 167.95 340.858 167.95C340.862 167.95 340.866 167.95 340.869 167.95C340.873 167.95 340.877 167.95 340.881 167.95C340.885 167.95 340.889 167.95 340.893 167.95C340.896 167.95 340.9 167.95 340.904 167.95C340.908 167.95 340.912 167.95 340.916 167.95C340.919 167.95 340.923 167.95 340.927 167.95C340.931 167.95 340.935 167.95 340.939 167.95C340.942 167.95 340.946 167.95 340.95 167.95C340.954 167.95 340.958 167.95 340.961 167.95C340.965 167.95 340.969 167.95 340.973 167.95C340.977 167.95 340.981 167.95 340.984 167.95C340.988 167.95 340.992 167.95 340.996 167.95C341 167.95 341.004 167.95 341.007 167.95C341.011 167.95 341.015 167.95 341.019 167.95C341.023 167.95 341.026 167.95 341.03 167.95C341.034 167.95 341.038 167.95 341.042 167.95C341.046 167.95 341.049 167.95 341.053 167.95C341.057 167.95 341.061 167.95 341.065 167.95C341.068 167.95 341.072 167.95 341.076 167.95C341.08 167.95 341.084 167.95 341.087 167.95C341.091 167.95 341.095 167.95 341.099 167.95C341.103 167.95 341.106 167.95 341.11 167.95C341.114 167.95 341.118 167.95 341.122 167.95C341.125 167.95 341.129 167.95 341.133 167.95C341.137 167.95 341.141 167.95 341.144 167.95C341.148 167.95 341.152 167.95 341.156 167.95C341.16 167.95 341.163 167.95 341.167 167.95C341.171 167.95 341.175 167.95 341.179 167.95C341.182 167.95 341.186 167.95 341.19 167.95C341.194 167.95 341.197 167.95 341.201 167.95C341.205 167.95 341.209 167.95 341.213 167.95C341.216 167.95 341.22 167.95 341.224 167.95C341.228 167.95 341.232 167.95 341.235 167.95C341.239 167.95 341.243 167.95 341.247 167.95C341.25 167.95 341.254 167.95 341.258 167.95C341.262 167.95 341.266 167.95 341.269 167.95C341.273 167.95 341.277 167.95 341.281 167.95C341.284 167.95 341.288 167.95 341.292 167.95C341.296 167.95 341.3 167.95 341.303 167.95C341.307 167.95 341.311 167.95 341.315 167.95C341.318 167.95 341.322 167.95 341.326 167.95C341.33 167.95 341.333 167.95 341.337 167.95C341.341 167.95 341.345 167.95 341.348 167.95C341.352 167.95 341.356 167.95 341.36 167.95C341.364 167.95 341.367 167.95 341.371 167.95C341.375 167.95 341.379 167.95 341.382 167.95C341.386 167.95 341.39 167.95 341.394 167.95C341.397 167.95 341.401 167.95 341.405 167.95C341.409 167.95 341.412 167.95 341.416 167.95C341.42 167.95 341.424 167.95 341.427 167.95C341.431 167.95 341.435 167.95 341.439 167.95C341.442 167.95 341.446 167.95 341.45 167.95C341.454 167.95 341.457 167.95 341.461 167.95C341.465 167.95 341.469 167.95 341.472 167.95C341.476 167.95 341.48 167.95 341.483 167.95C341.487 167.95 341.491 167.95 341.495 167.95C341.498 167.95 341.502 167.95 341.506 167.95C341.51 167.95 341.513 167.95 341.517 167.95C341.521 167.95 341.525 167.95 341.528 167.95C341.532 167.95 341.536 167.95 341.54 167.95C341.543 167.95 341.547 167.95 341.551 167.95C341.554 167.95 341.558 167.95 341.562 167.95C341.566 167.95 341.569 167.95 341.573 167.95C341.577 167.95 341.581 167.95 341.584 167.95C341.588 167.95 341.592 167.95 341.595 167.95C341.599 167.95 341.603 167.95 341.607 167.95C341.61 167.95 341.614 167.95 341.618 167.95C341.621 167.95 341.625 167.95 341.629 167.95C341.633 167.95 341.636 167.95 341.64 167.95C341.644 167.95 341.647 167.95 341.651 167.95C341.655 167.95 341.659 167.95 341.662 167.95C341.666 167.95 341.67 167.95 341.673 167.95C341.677 167.95 341.681 167.95 341.685 167.95C341.688 167.95 341.692 167.95 341.696 167.95C341.699 167.95 341.703 167.95 341.707 167.95C341.71 167.95 341.714 167.95 341.718 167.95C341.722 167.95 341.725 167.95 341.729 167.95C341.733 167.95 341.736 167.95 341.74 167.95C341.744 167.95 341.747 167.95 341.751 167.95C341.755 167.95 341.758 167.95 341.762 167.95C341.766 167.95 341.77 167.95 341.773 167.95C341.777 167.95 341.781 167.95 341.784 167.95C341.788 167.95 341.792 167.95 341.795 167.95C341.799 167.95 341.803 167.95 341.806 167.95C341.81 167.95 341.814 167.95 341.817 167.95C341.821 167.95 341.825 167.95 341.829 167.95C341.832 167.95 341.836 167.95 341.84 167.95C341.843 167.95 341.847 167.95 341.851 167.95C341.854 167.95 341.858 167.95 341.862 167.95C341.865 167.95 341.869 167.95 341.873 167.95C341.876 167.95 341.88 167.95 341.884 167.95C341.887 167.95 341.891 167.95 341.895 167.95C341.898 167.95 341.902 167.95 341.906 167.95C341.909 167.95 341.913 167.95 341.917 167.95C341.92 167.95 341.924 167.95 341.928 167.95C341.931 167.95 341.935 167.95 341.939 167.95C341.942 167.95 341.946 167.95 341.95 167.95C341.953 167.95 341.957 167.95 341.961 167.95C341.964 167.95 341.968 167.95 341.972 167.95C341.975 167.95 341.979 167.95 341.983 167.95C341.986 167.95 341.99 167.95 341.994 167.95C341.997 167.95 342.001 167.95 342.005 167.95C342.008 167.95 342.012 167.95 342.015 167.95C342.019 167.95 342.023 167.95 342.026 167.95C342.03 167.95 342.034 167.95 342.037 167.95C342.041 167.95 342.045 167.95 342.048 167.95C342.052 167.95 342.056 167.95 342.059 167.95C342.063 167.95 342.066 167.95 342.07 167.95C342.074 167.95 342.077 167.95 342.081 167.95C342.085 167.95 342.088 167.95 342.092 167.95C342.096 167.95 342.099 167.95 342.103 167.95C342.106 167.95 342.11 167.95 342.114 167.95C342.117 167.95 342.121 167.95 342.125 167.95C342.128 167.95 342.132 167.95 342.136 167.95C342.139 167.95 342.143 167.95 342.146 167.95C342.15 167.95 342.154 167.95 342.157 167.95C342.161 167.95 342.165 167.95 342.168 167.95C342.172 167.95 342.175 167.95 342.179 167.95C342.183 167.95 342.186 167.95 342.19 167.95C342.194 167.95 342.197 167.95 342.201 167.95C342.204 167.95 342.208 167.95 342.212 167.95C342.215 167.95 342.219 167.95 342.222 167.95C342.226 167.95 342.23 167.95 342.233 167.95C342.237 167.95 342.24 167.95 342.244 167.95C342.248 167.95 342.251 167.95 342.255 167.95C342.259 167.95 342.262 167.95 342.266 167.95C342.269 167.95 342.273 167.95 342.277 167.95C342.28 167.95 342.284 167.95 342.287 167.95C342.291 167.95 342.295 167.95 342.298 167.95C342.302 167.95 342.305 167.95 342.309 167.95C342.313 167.95 342.316 167.95 342.32 167.95C342.323 167.95 342.327 167.95 342.331 167.95C342.334 167.95 342.338 167.95 342.341 167.95C342.345 167.95 342.349 167.95 342.352 167.95C342.356 167.95 342.359 167.95 342.363 167.95C342.366 167.95 342.37 167.95 342.374 167.95C342.377 167.95 342.381 167.95 342.384 167.95C342.388 167.95 342.392 167.95 342.395 167.95C342.399 167.95 342.402 167.95 342.406 167.95C342.409 167.95 342.413 167.95 342.417 167.95C342.42 167.95 342.424 167.95 342.427 167.95C342.431 167.95 342.435 167.95 342.438 167.95C342.442 167.95 342.445 167.95 342.449 167.95C342.452 167.95 342.456 167.95 342.46 167.95C342.463 167.95 342.467 167.95 342.47 167.95C342.474 167.95 342.477 167.95 342.481 167.95C342.485 167.95 342.488 167.95 342.492 167.95C342.495 167.95 342.499 167.95 342.502 167.95C342.506 167.95 342.509 167.95 342.513 167.95C342.517 167.95 342.52 167.95 342.524 167.95C342.527 167.95 342.531 167.95 342.534 167.95C342.538 167.95 342.542 167.95 342.545 167.95C342.549 167.95 342.552 167.95 342.556 167.95C342.559 167.95 342.563 167.95 342.566 167.95C342.57 167.95 342.574 167.95 342.577 167.95C342.581 167.95 342.584 167.95 342.588 167.95C342.591 167.95 342.595 167.95 342.598 167.95C342.602 167.95 342.605 167.95 342.609 167.95C342.613 167.95 342.616 167.95 342.62 167.95C342.623 167.95 342.627 167.95 342.63 167.95C342.634 167.95 342.637 167.95 342.641 167.95C342.644 167.95 342.648 167.95 342.652 167.95C342.655 167.95 342.659 167.95 342.662 167.95C342.666 167.95 342.669 167.95 342.673 167.95C342.676 167.95 342.68 167.95 342.683 167.95C342.687 167.95 342.69 167.95 342.694 167.95C342.697 167.95 342.701 167.95 342.705 167.95C342.708 167.95 342.712 167.95 342.715 167.95C342.719 167.95 342.722 167.95 342.726 167.95C342.729 167.95 342.733 167.95 342.736 167.95C342.74 167.95 342.743 167.95 342.747 167.95C342.75 167.95 342.754 167.95 342.757 167.95C342.761 167.95 342.764 167.95 342.768 167.95C342.771 167.95 342.775 167.95 342.778 167.95C342.782 167.95 342.786 167.95 342.789 167.95C342.793 167.95 342.796 167.95 342.8 167.95C342.803 167.95 342.807 167.95 342.81 167.95C342.814 167.95 342.817 167.95 342.821 167.95C342.824 167.95 342.828 167.95 342.831 167.95C342.835 167.95 342.838 167.95 342.842 167.95C342.845 167.95 342.849 167.95 342.852 167.95C342.856 167.95 342.859 167.95 342.863 167.95C342.866 167.95 342.87 167.95 342.873 167.95C342.877 167.95 342.88 167.95 342.884 167.95C342.887 167.95 342.891 167.95 342.894 167.95C342.898 167.95 342.901 167.95 342.905 167.95C342.908 167.95 342.912 167.95 342.915 167.95C342.919 167.95 342.922 167.95 342.926 167.95C342.929 167.95 342.933 167.95 342.936 167.95C342.94 167.95 342.943 167.95 342.946 167.95C342.95 167.95 342.953 167.95 342.957 167.95C342.96 167.95 342.964 167.95 342.967 167.95C342.971 167.95 342.974 167.95 342.978 167.95C342.981 167.95 342.985 167.95 342.988 167.95C342.992 167.95 342.995 167.95 342.999 167.95C343.002 167.95 343.006 167.95 343.009 167.95C343.013 167.95 343.016 167.95 343.02 167.95C343.023 167.95 343.026 167.95 343.03 167.95C343.033 167.95 343.037 167.95 343.04 167.95C343.044 167.95 343.047 167.95 343.051 167.95C343.054 167.95 343.058 167.95 343.061 167.95C343.065 167.95 343.068 167.95 343.072 167.95C343.075 167.95 343.078 167.95 343.082 167.95C343.085 167.95 343.089 167.95 343.092 167.95C343.096 167.95 343.099 167.95 343.103 167.95C343.106 167.95 343.11 167.95 343.113 167.95C343.117 167.95 343.12 167.95 343.123 167.95C343.127 167.95 343.13 167.95 343.134 167.95C343.137 167.95 343.141 167.95 343.144 167.95C343.148 167.95 343.151 167.95 343.154 167.95C343.158 167.95 343.161 167.95 343.165 167.95C343.168 167.95 343.172 167.95 343.175 167.95C343.179 167.95 343.182 167.95 343.185 167.95C343.189 167.95 343.192 167.95 343.196 167.95C343.199 167.95 343.203 167.95 343.206 167.95C343.21 167.95 343.213 167.95 343.216 167.95C343.22 167.95 343.223 167.95 343.227 167.95C343.23 167.95 343.234 167.95 343.237 167.95C343.24 167.95 343.244 167.95 343.247 167.95C343.251 167.95 343.254 167.95 343.258 167.95C343.261 167.95 343.264 167.95 343.268 167.95C343.271 167.95 343.275 167.95 343.278 167.95C343.282 167.95 343.285 167.95 343.288 167.95C343.292 167.95 343.295 167.95 343.299 167.95C343.302 167.95 343.306 167.95 343.309 167.95C343.312 167.95 343.316 167.95 343.319 167.95C343.323 167.95 343.326 167.95 343.329 167.95C343.333 167.95 343.336 167.95 343.34 167.95C343.343 167.95 343.347 167.95 343.35 167.95C343.353 167.95 343.357 167.95 343.36 167.95C343.364 167.95 343.367 167.95 343.37 167.95C343.374 167.95 343.377 167.95 343.381 167.95C343.384 167.95 343.387 167.95 343.391 167.95C343.394 167.95 343.398 167.95 343.401 167.95C343.404 167.95 343.408 167.95 343.411 167.95C343.415 167.95 343.418 167.95 343.421 167.95C343.425 167.95 343.428 167.95 343.432 167.95C343.435 167.95 343.438 167.95 343.442 167.95C343.445 167.95 343.449 167.95 343.452 167.95C343.455 167.95 343.459 167.95 343.462 167.95C343.466 167.95 343.469 167.95 343.472 167.95C343.476 167.95 343.479 167.95 343.483 167.95C343.486 167.95 343.489 167.95 343.493 167.95C343.496 167.95 343.499 167.95 343.503 167.95C343.506 167.95 343.51 167.95 343.513 167.95C343.516 167.95 343.52 167.95 343.523 167.95C343.527 167.95 343.53 167.95 343.533 167.95C343.537 167.95 343.54 167.95 343.543 167.95C343.547 167.95 343.55 167.95 343.554 167.95C343.557 167.95 343.56 167.95 343.564 167.95V166.95ZM337.644 166.95L337.768 165.958C335.794 165.711 333.821 165.464 331.848 165.218L331.724 166.21L331.6 167.202C333.573 167.449 335.546 167.696 337.52 167.942L337.644 166.95ZM331.724 166.21L330.789 165.855C325.362 180.162 321.168 191.264 318.207 199.159L319.144 199.51L320.08 199.861C323.039 191.97 327.232 180.871 332.659 166.565L331.724 166.21ZM319.144 199.51L318.207 199.159C316.724 203.115 315.605 206.345 314.856 208.843C314.119 211.299 313.704 213.158 313.704 214.31H314.704H315.704C315.704 213.489 316.029 211.894 316.772 209.417C317.502 206.981 318.604 203.798 320.08 199.861L319.144 199.51ZM314.704 214.31H313.704C313.704 217.873 316.43 220.686 321.024 222.889C325.66 225.112 332.53 226.887 341.565 228.249L341.714 227.26L341.863 226.271C332.891 224.919 326.255 223.179 321.889 221.086C317.479 218.972 315.704 216.667 315.704 214.31H314.704ZM341.714 227.26H340.714V228H341.714H342.714V227.26H341.714ZM341.714 228L341.838 227.008C337.859 226.51 333.27 226.139 328.071 225.891L328.024 226.89L327.976 227.889C333.138 228.135 337.675 228.503 341.59 228.992L341.714 228ZM328.024 226.89L328.123 225.895C323.149 225.398 317.441 225.15 311.004 225.15V226.15V227.15C317.393 227.15 323.032 227.396 327.924 227.885L328.024 226.89ZM311.004 226.15V225.15C301.114 225.15 289.255 225.521 275.43 226.261L275.484 227.26L275.537 228.259C289.339 227.519 301.16 227.15 311.004 227.15V226.15ZM275.484 227.26L275.407 226.263C272.207 226.509 266.786 226.879 259.139 227.372L259.204 228.37L259.268 229.368C266.915 228.875 272.347 228.504 275.56 228.257L275.484 227.26Z" fill="black" fill-opacity="0.15" mask="url(#path-1-outside-1_898_2128)"/>
</svg>
