<svg width="398" height="210" viewBox="0 0 398 210" fill="none" xmlns="http://www.w3.org/2000/svg">
<mask id="path-1-outside-1_898_2176" maskUnits="userSpaceOnUse" x="0" y="0" width="398" height="210" fill="black">
<rect fill="white" width="398" height="210"/>
<path d="M46.26 208.21C16.1667 208.21 1.12 192.3 1.12 160.48C1.12 128.907 15.6733 95.6067 44.78 60.58C75.12 24.0733 105.46 5.82 135.8 5.82C136.787 5.82 137.28 6.31333 137.28 7.29998C137.28 8.28665 136.787 8.77998 135.8 8.77998C130.867 10.0133 127.043 11.37 124.33 12.85C99.6633 24.69 70.9267 58.36 38.12 113.86C27.5133 131.373 22.21 148.64 22.21 165.66C22.21 176.02 24.1833 184.407 28.13 190.82C32.8167 199.207 39.8467 203.4 49.22 203.4C66.24 203.4 84.2467 195.877 103.24 180.83C111.133 174.91 118.41 168.373 125.07 161.22C131.977 153.82 138.39 145.927 144.31 137.54C148.75 130.88 152.943 123.85 156.89 116.45C161.083 109.05 164.907 101.157 168.36 92.77C177.733 70.57 182.42 52.07 182.42 37.27C182.42 19.7567 175.883 11 162.81 11C151.71 11 141.473 15.81 132.1 25.43C123.713 33.8167 118.163 43.8067 115.45 55.4C114.957 58.6067 114.463 61.69 113.97 64.65C113.723 67.61 113.6 70.6933 113.6 73.9C113.6 93.6333 119.89 103.5 132.47 103.5C133.457 103.5 134.32 103.377 135.06 103.13C136.047 102.883 136.91 102.76 137.65 102.76C138.883 102.76 139.5 103.253 139.5 104.24C139.5 105.72 137.033 106.46 132.1 106.46C123.96 106.46 117.793 102.39 113.6 94.25C110.393 88.0833 108.79 80.4367 108.79 71.31C108.79 68.35 108.913 65.5133 109.16 62.8C109.407 59.84 109.9 57.0033 110.64 54.29C113.353 41.2167 120.383 29.7467 131.73 19.88C143.323 9.02666 155.657 3.59999 168.73 3.59999C180.077 3.59999 188.71 9.02666 194.63 19.88C199.317 28.2667 201.66 38.75 201.66 51.33C201.66 66.13 198.7 80.8067 192.78 95.36C179.707 126.933 160.467 152.957 135.06 173.43C107.433 196.617 77.8333 208.21 46.26 208.21ZM241.444 197.48C234.044 197.48 230.344 195.753 230.344 192.3C230.344 189.093 231.824 183.05 234.784 174.17C241.937 153.943 254.024 131.62 271.044 107.2C288.31 82.5333 310.51 55.77 337.644 26.91C333.697 28.39 328.517 29.13 322.104 29.13C319.637 29.13 316.43 29.0067 312.484 28.76C308.537 28.2667 303.727 27.7733 298.054 27.28C295.587 27.0333 290.16 25.9233 281.774 23.95C278.567 22.9633 275.607 22.3467 272.894 22.1C270.18 21.6067 267.837 21.36 265.864 21.36C256.244 21.36 249.46 27.8967 245.514 40.97C245.267 42.6967 245.02 44.4233 244.774 46.15C244.774 47.63 244.527 49.2333 244.034 50.96C243.294 55.6467 241.32 57.99 238.114 57.99C235.4 57.99 234.044 56.2633 234.044 52.81C234.044 50.3433 234.784 47.8767 236.264 45.41C238.73 40.97 239.964 38.75 239.964 38.75C245.637 24.9367 249.46 16.7967 251.434 14.33C257.354 5.94332 264.877 1.74999 274.004 1.74999C275.977 1.74999 278.444 1.99666 281.404 2.49C284.364 2.98333 287.817 3.72332 291.764 4.70999C298.177 6.43665 305.947 7.66998 315.074 8.40999C324.2 9.14999 334.807 9.52 346.894 9.52C352.074 9.52 359.474 8.28666 369.094 5.82C374.027 4.58665 378.22 3.72332 381.674 3.22999C385.374 2.48998 388.21 2.11998 390.184 2.11998C394.377 2.11998 396.474 3.10665 396.474 5.07999C396.474 8.03999 393.514 10.63 387.594 12.85C383.154 14.33 378.837 15.07 374.644 15.07C373.164 15.07 371.684 15.07 370.204 15.07C368.724 14.8233 366.997 14.5767 365.024 14.33C348.004 26.91 333.574 40.6 321.734 55.4C287.2 98.8133 266.234 137.17 258.834 170.47C258.34 172.937 257.847 176.02 257.354 179.72C257.107 183.173 256.737 186.997 256.244 191.19C255.75 195.383 250.817 197.48 241.444 197.48Z"/>
</mask>
<path d="M44.78 60.58L44.0109 59.9408L44.0109 59.9409L44.78 60.58ZM135.8 8.77998V7.77998H135.677L135.557 7.80984L135.8 8.77998ZM124.33 12.85L124.763 13.7515L124.786 13.7403L124.809 13.7279L124.33 12.85ZM38.12 113.86L38.9754 114.378L38.9809 114.369L38.12 113.86ZM28.13 190.82L29.0029 190.332L28.9927 190.314L28.9817 190.296L28.13 190.82ZM103.24 180.83L102.64 180.03L102.629 180.038L102.619 180.046L103.24 180.83ZM125.07 161.22L124.339 160.538L124.338 160.539L125.07 161.22ZM144.31 137.54L145.127 138.117L145.135 138.106L145.142 138.095L144.31 137.54ZM156.89 116.45L156.02 115.957L156.014 115.968L156.008 115.979L156.89 116.45ZM168.36 92.77L167.439 92.381L167.435 92.3892L168.36 92.77ZM132.1 25.43L132.807 26.1372L132.816 26.1279L132.1 25.43ZM115.45 55.4L114.476 55.1721L114.468 55.2097L114.462 55.2479L115.45 55.4ZM113.97 64.65L112.984 64.4856L112.977 64.5261L112.973 64.5669L113.97 64.65ZM135.06 103.13L134.817 102.16L134.78 102.169L134.744 102.181L135.06 103.13ZM113.6 94.25L114.489 93.792L114.487 93.7886L113.6 94.25ZM109.16 62.8L110.156 62.8905L110.157 62.883L109.16 62.8ZM110.64 54.29L111.605 54.5531L111.613 54.5234L111.619 54.4932L110.64 54.29ZM131.73 19.88L132.386 20.6346L132.4 20.6226L132.413 20.61L131.73 19.88ZM194.63 19.88L193.752 20.3589L193.757 20.3678L194.63 19.88ZM192.78 95.36L193.704 95.7426L193.706 95.7368L192.78 95.36ZM135.06 173.43L134.433 172.651L134.425 172.658L134.417 172.664L135.06 173.43ZM46.26 208.21V207.21C31.3822 207.21 20.4038 203.28 13.1315 195.59C5.84944 187.89 2.12 176.249 2.12 160.48H1.12H0.120002C0.120002 176.531 3.9139 188.755 11.6785 196.965C19.4529 205.185 31.0445 209.21 46.26 209.21V208.21ZM1.12 160.48H2.12C2.12 129.224 16.5271 96.1439 45.5491 61.2191L44.78 60.58L44.0109 59.9409C14.8195 95.0695 0.120002 128.589 0.120002 160.48H1.12ZM44.78 60.58L45.5491 61.2192C75.8064 24.812 105.892 6.82 135.8 6.82V5.82V4.82C105.028 4.82 74.4336 23.3347 44.0109 59.9408L44.78 60.58ZM135.8 5.82V6.82C135.966 6.82 136.071 6.84114 136.131 6.86118C136.187 6.87962 136.202 6.89594 136.203 6.89711C136.204 6.89828 136.22 6.91343 136.239 6.96872C136.259 7.02886 136.28 7.13367 136.28 7.29998H137.28H138.28C138.28 6.65251 138.117 5.98323 137.617 5.48288C137.117 4.98254 136.447 4.82 135.8 4.82V5.82ZM137.28 7.29998H136.28C136.28 7.4663 136.259 7.57112 136.239 7.63126C136.22 7.68655 136.204 7.70171 136.203 7.70288C136.202 7.70405 136.187 7.72037 136.131 7.7388C136.071 7.75885 135.966 7.77998 135.8 7.77998V8.77998V9.77998C136.447 9.77998 137.117 9.61744 137.617 9.11709C138.117 8.61674 138.28 7.94746 138.28 7.29998H137.28ZM135.8 8.77998L135.557 7.80984C130.587 9.05236 126.671 10.4338 123.851 11.9721L124.33 12.85L124.809 13.7279C127.415 12.3062 131.146 10.9743 136.043 9.75013L135.8 8.77998ZM124.33 12.85L123.897 11.9485C111.384 17.9547 97.9264 29.45 83.5169 46.3333C69.0985 63.227 53.6798 85.5718 37.2592 113.351L38.12 113.86L38.9809 114.369C55.3669 86.6482 70.7199 64.408 85.0381 47.6317C99.3653 30.845 112.609 19.5852 124.763 13.7515L124.33 12.85ZM38.12 113.86L37.2646 113.342C26.5827 130.98 21.21 148.423 21.21 165.66H22.21H23.21C23.21 148.857 28.444 131.767 38.9754 114.378L38.12 113.86ZM22.21 165.66H21.21C21.21 176.138 23.2048 184.725 27.2783 191.344L28.13 190.82L28.9817 190.296C25.1619 184.089 23.21 175.902 23.21 165.66H22.21ZM28.13 190.82L27.2571 191.308C29.671 195.628 32.7152 198.913 36.4052 201.114C40.0965 203.316 44.3796 204.4 49.22 204.4V203.4V202.4C44.6871 202.4 40.7685 201.388 37.4298 199.396C34.0898 197.404 31.2757 194.399 29.0029 190.332L28.13 190.82ZM49.22 203.4V204.4C66.5437 204.4 84.764 196.743 103.861 181.614L103.24 180.83L102.619 180.046C83.7293 195.011 65.9363 202.4 49.22 202.4V203.4ZM103.24 180.83L103.84 181.63C111.78 175.675 119.101 169.099 125.802 161.901L125.07 161.22L124.338 160.539C117.719 167.648 110.486 174.145 102.64 180.03L103.24 180.83ZM125.07 161.22L125.801 161.902C132.739 154.469 139.181 146.54 145.127 138.117L144.31 137.54L143.493 136.963C137.599 145.313 131.214 153.171 124.339 160.538L125.07 161.22ZM144.31 137.54L145.142 138.095C149.601 131.406 153.811 124.348 157.772 116.921L156.89 116.45L156.008 115.979C152.076 123.352 147.899 130.354 143.478 136.985L144.31 137.54ZM156.89 116.45L157.76 116.943C161.975 109.504 165.817 101.573 169.285 93.1507L168.36 92.77L167.435 92.3892C163.997 100.74 160.191 108.596 156.02 115.957L156.89 116.45ZM168.36 92.77L169.281 93.159C178.678 70.9037 183.42 52.2615 183.42 37.27H182.42H181.42C181.42 51.8785 176.789 70.2363 167.439 92.381L168.36 92.77ZM182.42 37.27H183.42C183.42 28.4179 181.773 21.5967 178.319 16.9693C174.824 12.287 169.592 10 162.81 10V11V12C169.101 12 173.675 14.0914 176.716 18.1657C179.799 22.2949 181.42 28.6088 181.42 37.27H182.42ZM162.81 11V10C151.385 10 140.903 14.9624 131.384 24.7321L132.1 25.43L132.816 26.1279C142.044 16.6576 152.035 12 162.81 12V11ZM132.1 25.43L131.393 24.7229C122.874 33.2419 117.232 43.3981 114.476 55.1721L115.45 55.4L116.424 55.6279C119.095 44.2153 124.553 34.3914 132.807 26.1371L132.1 25.43ZM115.45 55.4L114.462 55.2479C113.969 58.4508 113.476 61.53 112.984 64.4856L113.97 64.65L114.956 64.8144C115.45 61.85 115.944 58.7625 116.438 55.552L115.45 55.4ZM113.97 64.65L112.973 64.5669C112.724 67.5566 112.6 70.6678 112.6 73.9H113.6H114.6C114.6 70.7189 114.722 67.6633 114.967 64.733L113.97 64.65ZM113.6 73.9H112.6C112.6 83.8407 114.178 91.4677 117.474 96.6376C120.819 101.884 125.869 104.5 132.47 104.5V103.5V102.5C126.491 102.5 122.106 100.183 119.161 95.5624C116.167 90.8656 114.6 83.6926 114.6 73.9H113.6ZM132.47 103.5V104.5C133.537 104.5 134.511 104.367 135.376 104.079L135.06 103.13L134.744 102.181C134.129 102.386 133.376 102.5 132.47 102.5V103.5ZM135.06 103.13L135.303 104.1C136.237 103.866 137.016 103.76 137.65 103.76V102.76V101.76C136.804 101.76 135.856 101.9 134.817 102.16L135.06 103.13ZM137.65 102.76V103.76C138.16 103.76 138.357 103.866 138.413 103.911C138.426 103.921 138.5 103.967 138.5 104.24H139.5H140.5C140.5 103.526 140.266 102.832 139.662 102.349C139.101 101.9 138.374 101.76 137.65 101.76V102.76ZM139.5 104.24H138.5C138.5 104.29 138.495 104.355 138.369 104.468C138.214 104.607 137.908 104.784 137.363 104.947C136.273 105.274 134.541 105.46 132.1 105.46V106.46V107.46C134.592 107.46 136.561 107.276 137.937 106.863C138.625 106.656 139.244 106.37 139.706 105.955C140.197 105.513 140.5 104.93 140.5 104.24H139.5ZM132.1 106.46V105.46C128.205 105.46 124.824 104.489 121.921 102.573C119.011 100.652 116.526 97.7456 114.489 93.792L113.6 94.25L112.711 94.708C114.868 98.8944 117.562 102.093 120.819 104.242C124.082 106.396 127.855 107.46 132.1 107.46V106.46ZM113.6 94.25L114.487 93.7886C111.374 87.802 109.79 80.3245 109.79 71.31H108.79H107.79C107.79 80.5488 109.413 88.3646 112.713 94.7114L113.6 94.25ZM108.79 71.31H109.79C109.79 68.3777 109.912 65.5713 110.156 62.8905L109.16 62.8L108.164 62.7095C107.914 65.4553 107.79 68.3223 107.79 71.31H108.79ZM109.16 62.8L110.157 62.883C110.398 59.9805 110.882 57.2043 111.605 54.5531L110.64 54.29L109.675 54.0269C108.918 56.8023 108.415 59.6995 108.163 62.717L109.16 62.8ZM110.64 54.29L111.619 54.4932C114.282 41.6608 121.183 30.3768 132.386 20.6346L131.73 19.88L131.074 19.1254C119.584 29.1166 112.424 40.7725 109.661 54.0868L110.64 54.29ZM131.73 19.88L132.413 20.61C143.863 9.89082 155.963 4.59999 168.73 4.59999V3.59999V2.59999C155.351 2.59999 142.783 8.16249 131.047 19.15L131.73 19.88ZM168.73 3.59999V4.59999C174.237 4.59999 179.043 5.91454 183.183 8.51662C187.327 11.1215 190.857 15.0506 193.752 20.3588L194.63 19.88L195.508 19.4011C192.483 13.8561 188.736 9.64517 184.247 6.82335C179.754 3.99876 174.57 2.59999 168.73 2.59999V3.59999ZM194.63 19.88L193.757 20.3678C198.339 28.5663 200.66 38.8695 200.66 51.33H201.66H202.66C202.66 38.6305 200.295 27.9671 195.503 19.3922L194.63 19.88ZM201.66 51.33H200.66C200.66 65.993 197.728 80.5421 191.854 94.9832L192.78 95.36L193.706 95.7368C199.672 81.0713 202.66 66.267 202.66 51.33H201.66ZM192.78 95.36L191.856 94.9774C178.844 126.404 159.703 152.288 134.433 172.651L135.06 173.43L135.687 174.209C161.231 153.625 180.57 127.463 193.704 95.7426L192.78 95.36ZM135.06 173.43L134.417 172.664C106.943 195.722 77.565 207.21 46.26 207.21V208.21V209.21C78.1016 209.21 107.923 197.511 135.703 174.196L135.06 173.43ZM234.784 174.17L233.841 173.837L233.838 173.845L233.835 173.854L234.784 174.17ZM271.044 107.2L270.224 106.627L270.223 106.628L271.044 107.2ZM337.644 26.91L338.372 27.595L337.293 25.9737L337.644 26.91ZM312.484 28.76L312.36 29.7523L312.39 29.7561L312.421 29.758L312.484 28.76ZM298.054 27.28L297.954 28.2751L297.967 28.2762L298.054 27.28ZM281.774 23.95L281.48 24.9058L281.512 24.9157L281.545 24.9234L281.774 23.95ZM272.894 22.1L272.715 23.0839L272.759 23.0918L272.803 23.0959L272.894 22.1ZM245.514 40.97L244.556 40.681L244.534 40.7535L244.524 40.8286L245.514 40.97ZM244.774 46.15L243.784 46.0086L243.774 46.0789V46.15H244.774ZM244.034 50.96L243.072 50.6853L243.055 50.7439L243.046 50.804L244.034 50.96ZM236.264 45.41L237.121 45.9245L237.13 45.9102L237.138 45.8956L236.264 45.41ZM239.964 38.75L240.838 39.2356L240.866 39.1843L240.889 39.1299L239.964 38.75ZM251.434 14.33L252.215 14.9547L252.233 14.9312L252.251 14.9067L251.434 14.33ZM281.404 2.49L281.239 3.47639L281.239 3.47639L281.404 2.49ZM291.764 4.70999L292.024 3.74438L292.015 3.74204L292.006 3.73985L291.764 4.70999ZM369.094 5.82L368.851 4.84984L368.845 4.85134L369.094 5.82ZM381.674 3.22999L381.815 4.21994L381.843 4.21601L381.87 4.21057L381.674 3.22999ZM387.594 12.85L387.91 13.7987L387.927 13.7928L387.945 13.7863L387.594 12.85ZM370.204 15.07L370.039 16.0564L370.121 16.07H370.204V15.07ZM365.024 14.33L365.148 13.3377L364.751 13.2881L364.429 13.5258L365.024 14.33ZM321.734 55.4L320.953 54.7753L320.951 54.7775L321.734 55.4ZM258.834 170.47L257.857 170.253L257.855 170.263L257.853 170.274L258.834 170.47ZM257.354 179.72L256.362 179.588L256.358 179.618L256.356 179.649L257.354 179.72ZM256.244 191.19L257.237 191.307L256.244 191.19ZM241.444 197.48V196.48C237.79 196.48 235.191 196.049 233.542 195.279C232.729 194.9 232.189 194.458 231.851 193.985C231.52 193.522 231.344 192.974 231.344 192.3H230.344H229.344C229.344 193.353 229.63 194.316 230.224 195.147C230.811 195.969 231.658 196.607 232.696 197.091C234.746 198.048 237.697 198.48 241.444 198.48V197.48ZM230.344 192.3H231.344C231.344 190.82 231.69 188.603 232.425 185.6C233.156 182.615 234.257 178.912 235.732 174.486L234.784 174.17L233.835 173.854C232.35 178.308 231.231 182.067 230.482 185.125C229.738 188.166 229.344 190.573 229.344 192.3H230.344ZM234.784 174.17L235.726 174.503C242.841 154.387 254.877 132.144 271.864 107.772L271.044 107.2L270.223 106.628C253.17 131.096 241.033 153.5 233.841 173.837L234.784 174.17ZM271.044 107.2L271.863 107.773C289.095 83.1561 311.262 56.4302 338.372 27.595L337.644 26.91L336.915 26.225C309.759 55.1098 287.526 81.9106 270.224 106.627L271.044 107.2ZM337.644 26.91L337.293 25.9737C333.501 27.3956 328.453 28.13 322.104 28.13V29.13V30.13C328.581 30.13 333.893 29.3844 337.995 27.8463L337.644 26.91ZM322.104 29.13V28.13C319.666 28.13 316.483 28.008 312.546 27.7619L312.484 28.76L312.421 29.758C316.378 30.0053 319.608 30.13 322.104 30.13V29.13ZM312.484 28.76L312.608 27.7677C308.645 27.2723 303.821 26.7777 298.14 26.2837L298.054 27.28L297.967 28.2762C303.633 28.7689 308.429 29.261 312.36 29.7523L312.484 28.76ZM298.054 27.28L298.153 26.285C295.765 26.0461 290.407 24.9541 282.003 22.9766L281.774 23.95L281.545 24.9234C289.914 26.8926 295.409 28.0205 297.954 28.275L298.054 27.28ZM281.774 23.95L282.068 22.9942C278.809 21.9916 275.78 21.3583 272.984 21.1041L272.894 22.1L272.803 23.0959C275.434 23.335 278.325 23.935 281.48 24.9058L281.774 23.95ZM272.894 22.1L273.073 21.1161C270.322 20.6159 267.915 20.36 265.864 20.36V21.36V22.36C267.759 22.36 270.039 22.5974 272.715 23.0839L272.894 22.1ZM265.864 21.36V20.36C260.801 20.36 256.45 22.0903 252.867 25.5424C249.309 28.9711 246.558 34.0494 244.556 40.681L245.514 40.97L246.471 41.259C248.416 34.8173 251.03 30.0906 254.255 26.9826C257.456 23.898 261.306 22.36 265.864 22.36V21.36ZM245.514 40.97L244.524 40.8286C244.523 40.8319 244.523 40.8353 244.522 40.8387C244.522 40.8421 244.521 40.8454 244.521 40.8488C244.52 40.8522 244.52 40.8555 244.519 40.8589C244.519 40.8623 244.518 40.8657 244.518 40.869C244.517 40.8724 244.517 40.8758 244.517 40.8792C244.516 40.8825 244.516 40.8859 244.515 40.8893C244.515 40.8926 244.514 40.896 244.514 40.8994C244.513 40.9028 244.513 40.9061 244.512 40.9095C244.512 40.9129 244.511 40.9162 244.511 40.9196C244.51 40.923 244.51 40.9264 244.509 40.9297C244.509 40.9331 244.508 40.9365 244.508 40.9399C244.507 40.9432 244.507 40.9466 244.506 40.95C244.506 40.9533 244.505 40.9567 244.505 40.9601C244.504 40.9635 244.504 40.9668 244.503 40.9702C244.503 40.9736 244.503 40.977 244.502 40.9803C244.502 40.9837 244.501 40.9871 244.501 40.9904C244.5 40.9938 244.5 40.9972 244.499 41.0006C244.499 41.0039 244.498 41.0073 244.498 41.0107C244.497 41.014 244.497 41.0174 244.496 41.0208C244.496 41.0242 244.495 41.0275 244.495 41.0309C244.494 41.0343 244.494 41.0377 244.493 41.041C244.493 41.0444 244.492 41.0478 244.492 41.0511C244.491 41.0545 244.491 41.0579 244.49 41.0613C244.49 41.0646 244.49 41.068 244.489 41.0714C244.489 41.0748 244.488 41.0781 244.488 41.0815C244.487 41.0849 244.487 41.0882 244.486 41.0916C244.486 41.095 244.485 41.0984 244.485 41.1017C244.484 41.1051 244.484 41.1085 244.483 41.1118C244.483 41.1152 244.482 41.1186 244.482 41.122C244.481 41.1253 244.481 41.1287 244.48 41.1321C244.48 41.1355 244.479 41.1388 244.479 41.1422C244.478 41.1456 244.478 41.1489 244.477 41.1523C244.477 41.1557 244.477 41.1591 244.476 41.1624C244.476 41.1658 244.475 41.1692 244.475 41.1726C244.474 41.1759 244.474 41.1793 244.473 41.1827C244.473 41.186 244.472 41.1894 244.472 41.1928C244.471 41.1962 244.471 41.1995 244.47 41.2029C244.47 41.2063 244.469 41.2096 244.469 41.213C244.468 41.2164 244.468 41.2198 244.467 41.2231C244.467 41.2265 244.466 41.2299 244.466 41.2333C244.465 41.2366 244.465 41.24 244.464 41.2434C244.464 41.2467 244.464 41.2501 244.463 41.2535C244.463 41.2569 244.462 41.2602 244.462 41.2636C244.461 41.267 244.461 41.2704 244.46 41.2737C244.46 41.2771 244.459 41.2805 244.459 41.2838C244.458 41.2872 244.458 41.2906 244.457 41.294C244.457 41.2973 244.456 41.3007 244.456 41.3041C244.455 41.3074 244.455 41.3108 244.454 41.3142C244.454 41.3176 244.453 41.3209 244.453 41.3243C244.452 41.3277 244.452 41.3311 244.451 41.3344C244.451 41.3378 244.451 41.3412 244.45 41.3445C244.45 41.3479 244.449 41.3513 244.449 41.3547C244.448 41.358 244.448 41.3614 244.447 41.3648C244.447 41.3682 244.446 41.3715 244.446 41.3749C244.445 41.3783 244.445 41.3816 244.444 41.385C244.444 41.3884 244.443 41.3918 244.443 41.3951C244.442 41.3985 244.442 41.4019 244.441 41.4052C244.441 41.4086 244.44 41.412 244.44 41.4154C244.439 41.4187 244.439 41.4221 244.438 41.4255C244.438 41.4289 244.437 41.4322 244.437 41.4356C244.437 41.439 244.436 41.4423 244.436 41.4457C244.435 41.4491 244.435 41.4525 244.434 41.4558C244.434 41.4592 244.433 41.4626 244.433 41.466C244.432 41.4693 244.432 41.4727 244.431 41.4761C244.431 41.4794 244.43 41.4828 244.43 41.4862C244.429 41.4896 244.429 41.4929 244.428 41.4963C244.428 41.4997 244.427 41.503 244.427 41.5064C244.426 41.5098 244.426 41.5132 244.425 41.5165C244.425 41.5199 244.424 41.5233 244.424 41.5267C244.424 41.53 244.423 41.5334 244.423 41.5368C244.422 41.5401 244.422 41.5435 244.421 41.5469C244.421 41.5503 244.42 41.5536 244.42 41.557C244.419 41.5604 244.419 41.5637 244.418 41.5671C244.418 41.5705 244.417 41.5739 244.417 41.5772C244.416 41.5806 244.416 41.584 244.415 41.5874C244.415 41.5907 244.414 41.5941 244.414 41.5975C244.413 41.6008 244.413 41.6042 244.412 41.6076C244.412 41.611 244.411 41.6143 244.411 41.6177C244.411 41.6211 244.41 41.6245 244.41 41.6278C244.409 41.6312 244.409 41.6346 244.408 41.6379C244.408 41.6413 244.407 41.6447 244.407 41.6481C244.406 41.6514 244.406 41.6548 244.405 41.6582C244.405 41.6615 244.404 41.6649 244.404 41.6683C244.403 41.6717 244.403 41.675 244.402 41.6784C244.402 41.6818 244.401 41.6852 244.401 41.6885C244.4 41.6919 244.4 41.6953 244.399 41.6986C244.399 41.702 244.398 41.7054 244.398 41.7088C244.398 41.7121 244.397 41.7155 244.397 41.7189C244.396 41.7223 244.396 41.7256 244.395 41.729C244.395 41.7324 244.394 41.7357 244.394 41.7391C244.393 41.7425 244.393 41.7459 244.392 41.7492C244.392 41.7526 244.391 41.756 244.391 41.7593C244.39 41.7627 244.39 41.7661 244.389 41.7695C244.389 41.7728 244.388 41.7762 244.388 41.7796C244.387 41.783 244.387 41.7863 244.386 41.7897C244.386 41.7931 244.385 41.7964 244.385 41.7998C244.385 41.8032 244.384 41.8066 244.384 41.8099C244.383 41.8133 244.383 41.8167 244.382 41.8201C244.382 41.8234 244.381 41.8268 244.381 41.8302C244.38 41.8335 244.38 41.8369 244.379 41.8403C244.379 41.8437 244.378 41.847 244.378 41.8504C244.377 41.8538 244.377 41.8571 244.376 41.8605C244.376 41.8639 244.375 41.8673 244.375 41.8706C244.374 41.874 244.374 41.8774 244.373 41.8808C244.373 41.8841 244.372 41.8875 244.372 41.8909C244.371 41.8942 244.371 41.8976 244.371 41.901C244.37 41.9044 244.37 41.9077 244.369 41.9111C244.369 41.9145 244.368 41.9179 244.368 41.9212C244.367 41.9246 244.367 41.928 244.366 41.9313C244.366 41.9347 244.365 41.9381 244.365 41.9415C244.364 41.9448 244.364 41.9482 244.363 41.9516C244.363 41.9549 244.362 41.9583 244.362 41.9617C244.361 41.9651 244.361 41.9684 244.36 41.9718C244.36 41.9752 244.359 41.9786 244.359 41.9819C244.358 41.9853 244.358 41.9887 244.358 41.992C244.357 41.9954 244.357 41.9988 244.356 42.0022C244.356 42.0055 244.355 42.0089 244.355 42.0123C244.354 42.0157 244.354 42.019 244.353 42.0224C244.353 42.0258 244.352 42.0291 244.352 42.0325C244.351 42.0359 244.351 42.0393 244.35 42.0426C244.35 42.046 244.349 42.0494 244.349 42.0527C244.348 42.0561 244.348 42.0595 244.347 42.0629C244.347 42.0662 244.346 42.0696 244.346 42.073C244.345 42.0764 244.345 42.0797 244.345 42.0831C244.344 42.0865 244.344 42.0898 244.343 42.0932C244.343 42.0966 244.342 42.1 244.342 42.1033C244.341 42.1067 244.341 42.1101 244.34 42.1135C244.34 42.1168 244.339 42.1202 244.339 42.1236C244.338 42.1269 244.338 42.1303 244.337 42.1337C244.337 42.1371 244.336 42.1404 244.336 42.1438C244.335 42.1472 244.335 42.1505 244.334 42.1539C244.334 42.1573 244.333 42.1607 244.333 42.164C244.332 42.1674 244.332 42.1708 244.332 42.1742C244.331 42.1775 244.331 42.1809 244.33 42.1843C244.33 42.1876 244.329 42.191 244.329 42.1944C244.328 42.1978 244.328 42.2011 244.327 42.2045C244.327 42.2079 244.326 42.2112 244.326 42.2146C244.325 42.218 244.325 42.2214 244.324 42.2247C244.324 42.2281 244.323 42.2315 244.323 42.2349C244.322 42.2382 244.322 42.2416 244.321 42.245C244.321 42.2483 244.32 42.2517 244.32 42.2551C244.319 42.2585 244.319 42.2618 244.318 42.2652C244.318 42.2686 244.318 42.272 244.317 42.2753C244.317 42.2787 244.316 42.2821 244.316 42.2854C244.315 42.2888 244.315 42.2922 244.314 42.2956C244.314 42.2989 244.313 42.3023 244.313 42.3057C244.312 42.309 244.312 42.3124 244.311 42.3158C244.311 42.3192 244.31 42.3225 244.31 42.3259C244.309 42.3293 244.309 42.3327 244.308 42.336C244.308 42.3394 244.307 42.3428 244.307 42.3461C244.306 42.3495 244.306 42.3529 244.305 42.3563C244.305 42.3596 244.305 42.363 244.304 42.3664C244.304 42.3698 244.303 42.3731 244.303 42.3765C244.302 42.3799 244.302 42.3832 244.301 42.3866C244.301 42.39 244.3 42.3934 244.3 42.3967C244.299 42.4001 244.299 42.4035 244.298 42.4068C244.298 42.4102 244.297 42.4136 244.297 42.417C244.296 42.4203 244.296 42.4237 244.295 42.4271C244.295 42.4305 244.294 42.4338 244.294 42.4372C244.293 42.4406 244.293 42.4439 244.292 42.4473C244.292 42.4507 244.292 42.4541 244.291 42.4574C244.291 42.4608 244.29 42.4642 244.29 42.4676C244.289 42.4709 244.289 42.4743 244.288 42.4777C244.288 42.481 244.287 42.4844 244.287 42.4878C244.286 42.4912 244.286 42.4945 244.285 42.4979C244.285 42.5013 244.284 42.5046 244.284 42.508C244.283 42.5114 244.283 42.5148 244.282 42.5181C244.282 42.5215 244.281 42.5249 244.281 42.5283C244.28 42.5316 244.28 42.535 244.279 42.5384C244.279 42.5417 244.279 42.5451 244.278 42.5485C244.278 42.5519 244.277 42.5552 244.277 42.5586C244.276 42.562 244.276 42.5654 244.275 42.5687C244.275 42.5721 244.274 42.5755 244.274 42.5788C244.273 42.5822 244.273 42.5856 244.272 42.589C244.272 42.5923 244.271 42.5957 244.271 42.5991C244.27 42.6024 244.27 42.6058 244.269 42.6092C244.269 42.6126 244.268 42.6159 244.268 42.6193C244.267 42.6227 244.267 42.6261 244.266 42.6294C244.266 42.6328 244.266 42.6362 244.265 42.6395C244.265 42.6429 244.264 42.6463 244.264 42.6497C244.263 42.653 244.263 42.6564 244.262 42.6598C244.262 42.6632 244.261 42.6665 244.261 42.6699C244.26 42.6733 244.26 42.6766 244.259 42.68C244.259 42.6834 244.258 42.6868 244.258 42.6901C244.257 42.6935 244.257 42.6969 244.256 42.7002C244.256 42.7036 244.255 42.707 244.255 42.7104C244.254 42.7137 244.254 42.7171 244.253 42.7205C244.253 42.7239 244.252 42.7272 244.252 42.7306C244.252 42.734 244.251 42.7373 244.251 42.7407C244.25 42.7441 244.25 42.7475 244.249 42.7508C244.249 42.7542 244.248 42.7576 244.248 42.761C244.247 42.7643 244.247 42.7677 244.246 42.7711C244.246 42.7744 244.245 42.7778 244.245 42.7812C244.244 42.7846 244.244 42.7879 244.243 42.7913C244.243 42.7947 244.242 42.798 244.242 42.8014C244.241 42.8048 244.241 42.8082 244.24 42.8115C244.24 42.8149 244.239 42.8183 244.239 42.8217C244.239 42.825 244.238 42.8284 244.238 42.8318C244.237 42.8351 244.237 42.8385 244.236 42.8419C244.236 42.8453 244.235 42.8486 244.235 42.852C244.234 42.8554 244.234 42.8587 244.233 42.8621C244.233 42.8655 244.232 42.8689 244.232 42.8722C244.231 42.8756 244.231 42.879 244.23 42.8824C244.23 42.8857 244.229 42.8891 244.229 42.8925C244.228 42.8958 244.228 42.8992 244.227 42.9026C244.227 42.906 244.226 42.9093 244.226 42.9127C244.226 42.9161 244.225 42.9195 244.225 42.9228C244.224 42.9262 244.224 42.9296 244.223 42.9329C244.223 42.9363 244.222 42.9397 244.222 42.9431C244.221 42.9464 244.221 42.9498 244.22 42.9532C244.22 42.9565 244.219 42.9599 244.219 42.9633C244.218 42.9667 244.218 42.97 244.217 42.9734C244.217 42.9768 244.216 42.9802 244.216 42.9835C244.215 42.9869 244.215 42.9903 244.214 42.9936C244.214 42.997 244.213 43.0004 244.213 43.0038C244.213 43.0071 244.212 43.0105 244.212 43.0139C244.211 43.0173 244.211 43.0206 244.21 43.024C244.21 43.0274 244.209 43.0307 244.209 43.0341C244.208 43.0375 244.208 43.0409 244.207 43.0442C244.207 43.0476 244.206 43.051 244.206 43.0543C244.205 43.0577 244.205 43.0611 244.204 43.0645C244.204 43.0678 244.203 43.0712 244.203 43.0746C244.202 43.078 244.202 43.0813 244.201 43.0847C244.201 43.0881 244.2 43.0914 244.2 43.0948C244.2 43.0982 244.199 43.1016 244.199 43.1049C244.198 43.1083 244.198 43.1117 244.197 43.1151C244.197 43.1184 244.196 43.1218 244.196 43.1252C244.195 43.1285 244.195 43.1319 244.194 43.1353C244.194 43.1387 244.193 43.142 244.193 43.1454C244.192 43.1488 244.192 43.1521 244.191 43.1555C244.191 43.1589 244.19 43.1623 244.19 43.1656C244.189 43.169 244.189 43.1724 244.188 43.1758C244.188 43.1791 244.187 43.1825 244.187 43.1859C244.186 43.1892 244.186 43.1926 244.186 43.196C244.185 43.1994 244.185 43.2027 244.184 43.2061C244.184 43.2095 244.183 43.2129 244.183 43.2162C244.182 43.2196 244.182 43.223 244.181 43.2263C244.181 43.2297 244.18 43.2331 244.18 43.2365C244.179 43.2398 244.179 43.2432 244.178 43.2466C244.178 43.2499 244.177 43.2533 244.177 43.2567C244.176 43.2601 244.176 43.2634 244.175 43.2668C244.175 43.2702 244.174 43.2736 244.174 43.2769C244.173 43.2803 244.173 43.2837 244.173 43.287C244.172 43.2904 244.172 43.2938 244.171 43.2972C244.171 43.3005 244.17 43.3039 244.17 43.3073C244.169 43.3107 244.169 43.314 244.168 43.3174C244.168 43.3208 244.167 43.3241 244.167 43.3275C244.166 43.3309 244.166 43.3343 244.165 43.3376C244.165 43.341 244.164 43.3444 244.164 43.3477C244.163 43.3511 244.163 43.3545 244.162 43.3579C244.162 43.3612 244.161 43.3646 244.161 43.368C244.16 43.3714 244.16 43.3747 244.16 43.3781C244.159 43.3815 244.159 43.3848 244.158 43.3882C244.158 43.3916 244.157 43.395 244.157 43.3983C244.156 43.4017 244.156 43.4051 244.155 43.4084C244.155 43.4118 244.154 43.4152 244.154 43.4186C244.133 43.5625 244.128 43.5984 244.107 43.7423C244.087 43.8862 244.082 43.9222 244.061 44.0661C244.041 44.21 244.036 44.2459 244.015 44.3898C243.994 44.5337 243.989 44.5697 243.969 44.7136C243.948 44.8575 243.943 44.8934 243.922 45.0373C243.902 45.1812 243.897 45.2172 243.876 45.3611C243.856 45.505 243.851 45.5409 243.83 45.6848C243.809 45.8287 243.804 45.8647 243.784 46.0086L244.774 46.15L245.764 46.2914C245.764 46.288 245.765 46.2847 245.765 46.2813C245.766 46.2779 245.766 46.2745 245.767 46.2712C245.767 46.2678 245.767 46.2644 245.768 46.2611C245.768 46.2577 245.769 46.2543 245.769 46.2509C245.77 46.2476 245.77 46.2442 245.771 46.2408C245.771 46.2375 245.772 46.2341 245.772 46.2307C245.773 46.2273 245.773 46.224 245.774 46.2206C245.774 46.2172 245.775 46.2138 245.775 46.2105C245.776 46.2071 245.776 46.2037 245.777 46.2004C245.777 46.197 245.778 46.1936 245.778 46.1902C245.779 46.1869 245.779 46.1835 245.78 46.1801C245.78 46.1767 245.78 46.1734 245.781 46.17C245.781 46.1666 245.782 46.1633 245.782 46.1599C245.783 46.1565 245.783 46.1531 245.784 46.1498C245.784 46.1464 245.785 46.143 245.785 46.1397C245.786 46.1363 245.786 46.1329 245.787 46.1295C245.787 46.1262 245.788 46.1228 245.788 46.1194C245.789 46.116 245.789 46.1127 245.79 46.1093C245.79 46.1059 245.791 46.1026 245.791 46.0992C245.792 46.0958 245.792 46.0924 245.793 46.0891C245.793 46.0857 245.793 46.0823 245.794 46.0789C245.794 46.0756 245.795 46.0722 245.795 46.0688C245.796 46.0655 245.796 46.0621 245.797 46.0587C245.797 46.0553 245.798 46.052 245.798 46.0486C245.799 46.0452 245.799 46.0419 245.8 46.0385C245.8 46.0351 245.801 46.0317 245.801 46.0284C245.802 46.025 245.802 46.0216 245.803 46.0182C245.803 46.0149 245.804 46.0115 245.804 46.0081C245.805 46.0048 245.805 46.0014 245.806 45.998C245.806 45.9946 245.807 45.9913 245.807 45.9879C245.807 45.9845 245.808 45.9811 245.808 45.9778C245.809 45.9744 245.809 45.971 245.81 45.9677C245.81 45.9643 245.811 45.9609 245.811 45.9575C245.812 45.9542 245.812 45.9508 245.813 45.9474C245.813 45.9441 245.814 45.9407 245.814 45.9373C245.815 45.9339 245.815 45.9306 245.816 45.9272C245.816 45.9238 245.817 45.9204 245.817 45.9171C245.818 45.9137 245.818 45.9103 245.819 45.907C245.819 45.9036 245.82 45.9002 245.82 45.8968C245.82 45.8935 245.821 45.8901 245.821 45.8867C245.822 45.8834 245.822 45.88 245.823 45.8766C245.823 45.8732 245.824 45.8699 245.824 45.8665C245.825 45.8631 245.825 45.8597 245.826 45.8564C245.826 45.853 245.827 45.8496 245.827 45.8463C245.828 45.8429 245.828 45.8395 245.829 45.8361C245.829 45.8328 245.83 45.8294 245.83 45.826C245.831 45.8226 245.831 45.8193 245.832 45.8159C245.832 45.8125 245.833 45.8092 245.833 45.8058C245.833 45.8024 245.834 45.799 245.834 45.7957C245.835 45.7923 245.835 45.7889 245.836 45.7856C245.836 45.7822 245.837 45.7788 245.837 45.7754C245.838 45.7721 245.838 45.7687 245.839 45.7653C245.839 45.7619 245.84 45.7586 245.84 45.7552C245.841 45.7518 245.841 45.7485 245.842 45.7451C245.842 45.7417 245.843 45.7383 245.843 45.735C245.844 45.7316 245.844 45.7282 245.845 45.7248C245.845 45.7215 245.846 45.7181 245.846 45.7147C245.846 45.7114 245.847 45.708 245.847 45.7046C245.848 45.7012 245.848 45.6979 245.849 45.6945C245.849 45.6911 245.85 45.6878 245.85 45.6844C245.851 45.681 245.851 45.6776 245.852 45.6743C245.852 45.6709 245.853 45.6675 245.853 45.6641C245.854 45.6608 245.854 45.6574 245.855 45.654C245.855 45.6507 245.856 45.6473 245.856 45.6439C245.857 45.6405 245.857 45.6372 245.858 45.6338C245.858 45.6304 245.859 45.627 245.859 45.6237C245.86 45.6203 245.86 45.6169 245.86 45.6136C245.861 45.6102 245.861 45.6068 245.862 45.6034C245.862 45.6001 245.863 45.5967 245.863 45.5933C245.864 45.59 245.864 45.5866 245.865 45.5832C245.865 45.5798 245.866 45.5765 245.866 45.5731C245.867 45.5697 245.867 45.5663 245.868 45.563C245.868 45.5596 245.869 45.5562 245.869 45.5529C245.87 45.5495 245.87 45.5461 245.871 45.5427C245.871 45.5394 245.872 45.536 245.872 45.5326C245.873 45.5292 245.873 45.5259 245.873 45.5225C245.874 45.5191 245.874 45.5158 245.875 45.5124C245.875 45.509 245.876 45.5056 245.876 45.5023C245.877 45.4989 245.877 45.4955 245.878 45.4922C245.878 45.4888 245.879 45.4854 245.879 45.482C245.88 45.4787 245.88 45.4753 245.881 45.4719C245.881 45.4685 245.882 45.4652 245.882 45.4618C245.883 45.4584 245.883 45.4551 245.884 45.4517C245.884 45.4483 245.885 45.4449 245.885 45.4416C245.886 45.4382 245.886 45.4348 245.886 45.4314C245.887 45.4281 245.887 45.4247 245.888 45.4213C245.888 45.418 245.889 45.4146 245.889 45.4112C245.89 45.4078 245.89 45.4045 245.891 45.4011C245.891 45.3977 245.892 45.3944 245.892 45.391C245.893 45.3876 245.893 45.3842 245.894 45.3809C245.894 45.3775 245.895 45.3741 245.895 45.3707C245.896 45.3674 245.896 45.364 245.897 45.3606C245.897 45.3573 245.898 45.3539 245.898 45.3505C245.899 45.3471 245.899 45.3438 245.899 45.3404C245.9 45.337 245.9 45.3336 245.901 45.3303C245.901 45.3269 245.902 45.3235 245.902 45.3202C245.903 45.3168 245.903 45.3134 245.904 45.31C245.904 45.3067 245.905 45.3033 245.905 45.2999C245.906 45.2966 245.906 45.2932 245.907 45.2898C245.907 45.2864 245.908 45.2831 245.908 45.2797C245.909 45.2763 245.909 45.2729 245.91 45.2696C245.91 45.2662 245.911 45.2628 245.911 45.2595C245.912 45.2561 245.912 45.2527 245.912 45.2493C245.913 45.246 245.913 45.2426 245.914 45.2392C245.914 45.2359 245.915 45.2325 245.915 45.2291C245.916 45.2257 245.916 45.2224 245.917 45.219C245.917 45.2156 245.918 45.2122 245.918 45.2089C245.919 45.2055 245.919 45.2021 245.92 45.1988C245.92 45.1954 245.921 45.192 245.921 45.1886C245.922 45.1853 245.922 45.1819 245.923 45.1785C245.923 45.1751 245.924 45.1718 245.924 45.1684C245.925 45.165 245.925 45.1617 245.926 45.1583C245.926 45.1549 245.926 45.1515 245.927 45.1482C245.927 45.1448 245.928 45.1414 245.928 45.1381C245.929 45.1347 245.929 45.1313 245.93 45.1279C245.93 45.1246 245.931 45.1212 245.931 45.1178C245.932 45.1144 245.932 45.1111 245.933 45.1077C245.933 45.1043 245.934 45.101 245.934 45.0976C245.935 45.0942 245.935 45.0908 245.936 45.0875C245.936 45.0841 245.937 45.0807 245.937 45.0773C245.938 45.074 245.938 45.0706 245.939 45.0672C245.939 45.0639 245.939 45.0605 245.94 45.0571C245.94 45.0537 245.941 45.0504 245.941 45.047C245.942 45.0436 245.942 45.0403 245.943 45.0369C245.943 45.0335 245.944 45.0301 245.944 45.0268C245.945 45.0234 245.945 45.02 245.946 45.0166C245.946 45.0133 245.947 45.0099 245.947 45.0065C245.948 45.0032 245.948 44.9998 245.949 44.9964C245.949 44.993 245.95 44.9897 245.95 44.9863C245.951 44.9829 245.951 44.9795 245.952 44.9762C245.952 44.9728 245.952 44.9694 245.953 44.9661C245.953 44.9627 245.954 44.9593 245.954 44.9559C245.955 44.9526 245.955 44.9492 245.956 44.9458C245.956 44.9425 245.957 44.9391 245.957 44.9357C245.958 44.9323 245.958 44.929 245.959 44.9256C245.959 44.9222 245.96 44.9188 245.96 44.9155C245.961 44.9121 245.961 44.9087 245.962 44.9054C245.962 44.902 245.963 44.8986 245.963 44.8952C245.964 44.8919 245.964 44.8885 245.965 44.8851C245.965 44.8817 245.965 44.8784 245.966 44.875C245.966 44.8716 245.967 44.8683 245.967 44.8649C245.968 44.8615 245.968 44.8581 245.969 44.8548C245.969 44.8514 245.97 44.848 245.97 44.8447C245.971 44.8413 245.971 44.8379 245.972 44.8345C245.972 44.8312 245.973 44.8278 245.973 44.8244C245.974 44.821 245.974 44.8177 245.975 44.8143C245.975 44.8109 245.976 44.8076 245.976 44.8042C245.977 44.8008 245.977 44.7974 245.978 44.7941C245.978 44.7907 245.979 44.7873 245.979 44.7839C245.979 44.7806 245.98 44.7772 245.98 44.7738C245.981 44.7705 245.981 44.7671 245.982 44.7637C245.982 44.7603 245.983 44.757 245.983 44.7536C245.984 44.7502 245.984 44.7469 245.985 44.7435C245.985 44.7401 245.986 44.7367 245.986 44.7334C245.987 44.73 245.987 44.7266 245.988 44.7232C245.988 44.7199 245.989 44.7165 245.989 44.7131C245.99 44.7098 245.99 44.7064 245.991 44.703C245.991 44.6996 245.992 44.6963 245.992 44.6929C245.992 44.6895 245.993 44.6861 245.993 44.6828C245.994 44.6794 245.994 44.676 245.995 44.6727C245.995 44.6693 245.996 44.6659 245.996 44.6625C245.997 44.6592 245.997 44.6558 245.998 44.6524C245.998 44.6491 245.999 44.6457 245.999 44.6423C246 44.6389 246 44.6356 246.001 44.6322C246.001 44.6288 246.002 44.6254 246.002 44.6221C246.003 44.6187 246.003 44.6153 246.004 44.612C246.004 44.6086 246.005 44.6052 246.005 44.6018C246.005 44.5985 246.006 44.5951 246.006 44.5917C246.007 44.5884 246.007 44.585 246.008 44.5816C246.008 44.5782 246.009 44.5749 246.009 44.5715C246.01 44.5681 246.01 44.5647 246.011 44.5614C246.011 44.558 246.012 44.5546 246.012 44.5513C246.013 44.5479 246.013 44.5445 246.014 44.5411C246.014 44.5378 246.015 44.5344 246.015 44.531C246.016 44.5276 246.016 44.5243 246.017 44.5209C246.017 44.5175 246.018 44.5142 246.018 44.5108C246.018 44.5074 246.019 44.504 246.019 44.5007C246.02 44.4973 246.02 44.4939 246.021 44.4906C246.021 44.4872 246.022 44.4838 246.022 44.4804C246.023 44.4771 246.023 44.4737 246.024 44.4703C246.024 44.4669 246.025 44.4636 246.025 44.4602C246.026 44.4568 246.026 44.4535 246.027 44.4501C246.027 44.4467 246.028 44.4433 246.028 44.44C246.029 44.4366 246.029 44.4332 246.03 44.4298C246.03 44.4265 246.031 44.4231 246.031 44.4197C246.031 44.4164 246.032 44.413 246.032 44.4096C246.033 44.4062 246.033 44.4029 246.034 44.3995C246.034 44.3961 246.035 44.3928 246.035 44.3894C246.036 44.386 246.036 44.3826 246.037 44.3793C246.037 44.3759 246.038 44.3725 246.038 44.3691C246.039 44.3658 246.039 44.3624 246.04 44.359C246.04 44.3557 246.041 44.3523 246.041 44.3489C246.042 44.3455 246.042 44.3422 246.043 44.3388C246.043 44.3354 246.044 44.332 246.044 44.3287C246.045 44.3253 246.045 44.3219 246.045 44.3186C246.046 44.3152 246.046 44.3118 246.047 44.3084C246.047 44.3051 246.048 44.3017 246.048 44.2983C246.049 44.295 246.049 44.2916 246.05 44.2882C246.05 44.2848 246.051 44.2815 246.051 44.2781C246.052 44.2747 246.052 44.2713 246.053 44.268C246.053 44.2646 246.054 44.2612 246.054 44.2579C246.055 44.2545 246.055 44.2511 246.056 44.2477C246.056 44.2444 246.057 44.241 246.057 44.2376C246.058 44.2342 246.058 44.2309 246.058 44.2275C246.059 44.2241 246.059 44.2208 246.06 44.2174C246.06 44.214 246.061 44.2106 246.061 44.2073C246.062 44.2039 246.062 44.2005 246.063 44.1972C246.063 44.1938 246.064 44.1904 246.064 44.187C246.065 44.1837 246.065 44.1803 246.066 44.1769C246.066 44.1735 246.067 44.1702 246.067 44.1668C246.068 44.1634 246.068 44.1601 246.069 44.1567C246.069 44.1533 246.07 44.1499 246.07 44.1466C246.071 44.1432 246.071 44.1398 246.071 44.1364C246.072 44.1331 246.072 44.1297 246.073 44.1263C246.073 44.123 246.074 44.1196 246.074 44.1162C246.075 44.1128 246.075 44.1095 246.076 44.1061C246.076 44.1027 246.077 44.0994 246.077 44.096C246.078 44.0926 246.078 44.0892 246.079 44.0859C246.079 44.0825 246.08 44.0791 246.08 44.0757C246.081 44.0724 246.081 44.069 246.082 44.0656C246.082 44.0623 246.083 44.0589 246.083 44.0555C246.084 44.0521 246.084 44.0488 246.084 44.0454C246.085 44.042 246.085 44.0386 246.086 44.0353C246.086 44.0319 246.087 44.0285 246.087 44.0252C246.088 44.0218 246.088 44.0184 246.089 44.015C246.089 44.0117 246.09 44.0083 246.09 44.0049C246.091 44.0016 246.091 43.9982 246.092 43.9948C246.092 43.9914 246.093 43.9881 246.093 43.9847C246.094 43.9813 246.094 43.9779 246.095 43.9746C246.095 43.9712 246.096 43.9678 246.096 43.9645C246.097 43.9611 246.097 43.9577 246.097 43.9543C246.098 43.951 246.098 43.9476 246.099 43.9442C246.099 43.9409 246.1 43.9375 246.1 43.9341C246.101 43.9307 246.101 43.9274 246.102 43.924C246.102 43.9206 246.103 43.9172 246.103 43.9139C246.104 43.9105 246.104 43.9071 246.105 43.9038C246.105 43.9004 246.106 43.897 246.106 43.8936C246.107 43.8903 246.107 43.8869 246.108 43.8835C246.108 43.8801 246.109 43.8768 246.109 43.8734C246.11 43.87 246.11 43.8667 246.111 43.8633C246.111 43.8599 246.111 43.8565 246.112 43.8532C246.112 43.8498 246.113 43.8464 246.113 43.8431C246.114 43.8397 246.114 43.8363 246.115 43.8329C246.115 43.8296 246.116 43.8262 246.116 43.8228C246.117 43.8194 246.117 43.8161 246.118 43.8127C246.118 43.8093 246.119 43.806 246.119 43.8026C246.12 43.7992 246.12 43.7958 246.121 43.7925C246.121 43.7891 246.122 43.7857 246.122 43.7823C246.123 43.779 246.123 43.7756 246.124 43.7722C246.124 43.7689 246.124 43.7655 246.125 43.7621C246.125 43.7587 246.126 43.7554 246.126 43.752C246.127 43.7486 246.127 43.7453 246.128 43.7419C246.128 43.7385 246.129 43.7351 246.129 43.7318C246.13 43.7284 246.13 43.725 246.131 43.7216C246.131 43.7183 246.132 43.7149 246.132 43.7115C246.133 43.7082 246.133 43.7048 246.134 43.7014C246.154 43.5575 246.159 43.5215 246.18 43.3777C246.2 43.2338 246.206 43.1978 246.226 43.0539C246.247 42.91 246.252 42.874 246.272 42.7302C246.293 42.5863 246.298 42.5503 246.319 42.4064C246.339 42.2625 246.344 42.2265 246.365 42.0827C246.385 41.9388 246.391 41.9028 246.411 41.7589C246.432 41.615 246.437 41.579 246.457 41.4352C246.478 41.2913 246.483 41.2553 246.504 41.1114L245.514 40.97ZM244.774 46.15H243.774C243.774 47.5198 243.545 49.0296 243.072 50.6853L244.034 50.96L244.995 51.2347C245.509 49.437 245.774 47.7402 245.774 46.15H244.774ZM244.034 50.96L243.046 50.804C242.69 53.058 242.055 54.6126 241.234 55.5884C240.447 56.5226 239.438 56.99 238.114 56.99V57.99V58.99C239.996 58.99 241.577 58.2857 242.764 56.8766C243.915 55.509 244.637 53.5486 245.021 51.116L244.034 50.96ZM238.114 57.99V56.99C236.984 56.99 236.292 56.6427 235.847 56.0772C235.367 55.4657 235.044 54.4329 235.044 52.81H234.044H233.044C233.044 54.6404 233.399 56.1976 234.275 57.3128C235.187 58.4739 236.53 58.99 238.114 58.99V57.99ZM234.044 52.81H235.044C235.044 50.5528 235.719 48.2619 237.121 45.9245L236.264 45.41L235.406 44.8955C233.849 47.4914 233.044 50.1338 233.044 52.81H234.044ZM236.264 45.41L237.138 45.8956C237.146 45.8801 237.158 45.8592 237.167 45.8437C237.174 45.831 237.188 45.8046 237.195 45.792C237.211 45.7639 237.237 45.717 237.253 45.6891C237.268 45.6612 237.294 45.6148 237.309 45.5871C237.325 45.5595 237.322 45.564 237.337 45.5364C237.353 45.5089 237.35 45.5133 237.365 45.4859C237.37 45.4775 237.375 45.4691 237.379 45.4607C237.384 45.4523 237.389 45.444 237.393 45.4356C237.398 45.4272 237.403 45.4189 237.407 45.4105C237.412 45.4022 237.417 45.3938 237.421 45.3855C237.466 45.3043 237.432 45.3669 237.477 45.2859C237.489 45.2643 237.574 45.1097 237.586 45.0892C237.761 44.7745 237.84 44.632 238.005 44.3347C238.071 44.2159 238.14 44.0915 238.204 43.977C238.247 43.899 238.354 43.7059 238.395 43.6323C238.4 43.6231 238.484 43.4729 238.488 43.4648C238.533 43.3841 238.535 43.3802 238.58 43.3006C238.596 43.2718 238.609 43.2482 238.624 43.2197C238.633 43.2042 238.661 43.1548 238.669 43.1396C238.695 43.0919 238.731 43.0285 238.757 42.9819C238.778 42.9434 238.822 42.8649 238.842 42.8274C238.846 42.8211 238.849 42.8147 238.853 42.8083C238.857 42.802 238.86 42.7956 238.864 42.7893C238.867 42.783 238.871 42.7767 238.874 42.7703C238.878 42.764 238.881 42.7577 238.885 42.7514C238.92 42.688 238.891 42.7393 238.926 42.6762C238.93 42.67 238.933 42.6637 238.937 42.6575C238.94 42.6513 238.944 42.6451 238.947 42.6389C238.954 42.6258 238.96 42.6149 238.968 42.6018C238.971 42.5957 238.975 42.5895 238.978 42.5833C238.981 42.5772 238.985 42.5711 238.988 42.5649C238.992 42.5579 239.005 42.5352 239.009 42.5282C239.014 42.5194 239.085 42.3913 239.089 42.3835C239.171 42.2356 239.165 42.2475 239.244 42.1039C239.269 42.0595 239.258 42.08 239.282 42.036C239.297 42.0084 239.286 42.0298 239.301 42.0023C239.301 42.0014 239.319 41.9698 239.319 41.9689C239.333 41.9435 239.342 41.9278 239.356 41.9026C239.359 41.8972 239.362 41.8917 239.365 41.8862C239.368 41.8807 239.371 41.8753 239.374 41.8698C239.377 41.8644 239.38 41.8589 239.383 41.8535C239.386 41.8481 239.39 41.8426 239.393 41.8372C239.503 41.6391 239.567 41.5237 239.667 41.3429C239.784 41.1331 239.806 41.0931 239.913 40.9006C239.925 40.878 240.015 40.7173 240.025 40.699C240.055 40.644 240.048 40.657 240.078 40.6031C240.096 40.571 240.086 40.5881 240.104 40.5563C240.106 40.5525 240.108 40.5486 240.111 40.5448C240.113 40.5409 240.115 40.5371 240.117 40.5333C240.119 40.5294 240.121 40.5256 240.123 40.5218C240.125 40.518 240.128 40.5142 240.13 40.5104C240.165 40.446 240.144 40.4843 240.179 40.421C240.193 40.3961 240.19 40.4021 240.203 40.3775C240.209 40.3669 240.21 40.3665 240.215 40.356C240.217 40.3537 240.226 40.3371 240.227 40.3348C240.232 40.3256 240.315 40.1771 240.318 40.1722C240.463 39.9103 240.5 39.8445 240.607 39.6519C240.619 39.6292 240.705 39.4751 240.708 39.4698C240.725 39.4389 240.733 39.4248 240.748 39.3982C240.75 39.3929 240.762 39.3716 240.765 39.3673C240.771 39.3563 240.775 39.3496 240.78 39.3397C240.781 39.3386 240.781 39.3375 240.782 39.3365C240.782 39.3354 240.783 39.3343 240.784 39.3333C240.786 39.329 240.785 39.3313 240.787 39.3271C240.788 39.3256 240.793 39.3166 240.794 39.3153C240.805 39.2949 240.795 39.3135 240.805 39.2942C240.806 39.2931 240.815 39.2763 240.815 39.2763C240.817 39.2739 240.818 39.2707 240.82 39.2686C240.82 39.268 240.82 39.2674 240.821 39.2668C240.821 39.2662 240.821 39.2656 240.822 39.265C240.822 39.2644 240.822 39.2639 240.822 39.2633C240.823 39.2627 240.823 39.2622 240.823 39.2617C240.829 39.2521 240.825 39.2587 240.83 39.2503C240.83 39.2492 240.83 39.2489 240.831 39.2479C240.831 39.2476 240.831 39.2472 240.832 39.2468C240.832 39.2465 240.832 39.2461 240.832 39.2458C240.833 39.2446 240.833 39.245 240.833 39.2439C240.834 39.2431 240.834 39.2429 240.834 39.2421C240.836 39.2392 240.834 39.2419 240.836 39.2393C240.836 39.2389 240.836 39.2385 240.836 39.2382C240.837 39.238 240.837 39.2378 240.837 39.2377C240.837 39.2375 240.837 39.2374 240.837 39.2373C240.837 39.2372 240.837 39.2366 240.837 39.2366C240.837 39.2363 240.838 39.2362 240.838 39.236C240.838 39.236 240.838 39.2359 240.838 39.2359C240.838 39.2358 240.838 39.2358 240.838 39.2357C240.838 39.2357 240.838 39.2357 240.838 39.2357C240.838 39.2356 240.838 39.2356 239.964 38.75C239.09 38.2644 239.09 38.2644 239.09 38.2644C239.09 38.2644 239.089 38.2644 239.089 38.2645C239.089 38.2645 239.089 38.2647 239.089 38.2648C239.089 38.2648 239.089 38.2657 239.089 38.266C239.088 38.2678 239.088 38.2679 239.086 38.2709C239.083 38.2755 239.08 38.2814 239.075 38.2904C239.068 38.3028 239.048 38.3386 239.032 38.3684C239.001 38.4232 238.927 38.5564 238.858 38.6806C238.822 38.7459 238.774 38.8321 238.728 38.9147C238.697 38.9714 238.61 39.1269 238.569 39.2009C238.567 39.2042 238.566 39.2074 238.564 39.2107C238.562 39.214 238.56 39.2172 238.558 39.2205C238.554 39.2274 238.551 39.2334 238.547 39.2403C238.54 39.2543 238.533 39.2663 238.525 39.2806C238.509 39.3091 238.495 39.3339 238.479 39.3635C238.474 39.3727 238.437 39.4394 238.431 39.4497C238.42 39.4701 238.418 39.4733 238.406 39.494C238.394 39.5168 238.394 39.516 238.381 39.5391C238.31 39.6674 238.245 39.7838 238.165 39.9294C238.001 40.2229 237.846 40.503 237.644 40.8659C237.543 41.0489 237.452 41.2119 237.341 41.4122C237.285 41.5128 237.236 41.6001 237.178 41.7049C237.149 41.7574 237.124 41.8025 237.094 41.8561C237.079 41.883 237.066 41.9059 237.051 41.933C237.049 41.9372 237.011 42.0061 237.008 42.0106C236.805 42.3765 236.499 42.9282 236.257 43.3634C235.971 43.8774 235.714 44.341 235.39 44.9244L236.264 45.41ZM239.964 38.75L240.889 39.1299C243.723 32.23 246.09 26.7587 247.991 22.7101C249.91 18.6258 251.313 16.0814 252.215 14.9547L251.434 14.33L250.653 13.7053C249.581 15.0452 248.086 17.8042 246.181 21.8599C244.259 25.9512 241.878 31.4567 239.039 38.3701L239.964 38.75ZM251.434 14.33L252.251 14.9067C258.01 6.74704 265.246 2.74999 274.004 2.74999V1.74999V0.749987C264.508 0.749987 256.697 5.1396 250.617 13.7533L251.434 14.33ZM274.004 1.74999V2.74999C275.901 2.74999 278.309 2.98796 281.239 3.47639L281.404 2.49L281.568 1.50361C278.579 1.00536 276.053 0.749987 274.004 0.749987V1.74999ZM281.404 2.49L281.239 3.47639C284.166 3.96412 287.592 4.69782 291.521 5.68014L291.764 4.70999L292.006 3.73985C288.042 2.74883 284.562 2.00253 281.568 1.50361L281.404 2.49ZM291.764 4.70999L291.504 5.67561C297.993 7.42271 305.827 8.6635 314.993 9.40672L315.074 8.40999L315.154 7.41326C306.067 6.67647 298.361 5.45059 292.024 3.74438L291.764 4.70999ZM315.074 8.40999L314.993 9.40672C324.153 10.1495 334.788 10.52 346.894 10.52V9.52V8.52C334.826 8.52 324.247 8.15053 315.154 7.41326L315.074 8.40999ZM346.894 9.52V10.52C352.202 10.52 359.701 9.26083 369.342 6.78866L369.094 5.82L368.845 4.85134C359.247 7.3125 351.945 8.52 346.894 8.52V9.52ZM369.094 5.82L369.336 6.79014C374.25 5.56173 378.407 4.70676 381.815 4.21994L381.674 3.22999L381.532 2.24004C378.033 2.73987 373.804 3.61158 368.851 4.84986L369.094 5.82ZM381.674 3.22999L381.87 4.21057C385.552 3.47406 388.311 3.11998 390.184 3.11998V2.11998V1.11998C388.109 1.11998 385.195 1.50591 381.478 2.24941L381.674 3.22999ZM390.184 2.11998V3.11998C392.234 3.11998 393.628 3.36616 394.475 3.7648C394.886 3.95799 395.126 4.16765 395.265 4.363C395.396 4.54903 395.474 4.77456 395.474 5.07999H396.474H397.474C397.474 4.39875 397.289 3.76094 396.897 3.20697C396.511 2.66232 395.965 2.25531 395.327 1.95516C394.077 1.36714 392.327 1.11998 390.184 1.11998V2.11998ZM396.474 5.07999H395.474C395.474 6.18462 394.934 7.31882 393.595 8.48992C392.244 9.67226 390.15 10.8234 387.243 11.9137L387.594 12.85L387.945 13.7863C390.957 12.6566 393.303 11.4027 394.912 9.99507C396.534 8.57617 397.474 6.93536 397.474 5.07999H396.474ZM387.594 12.85L387.277 11.9013C382.928 13.3512 378.718 14.07 374.644 14.07V15.07V16.07C378.956 16.07 383.38 15.3088 387.91 13.7987L387.594 12.85ZM374.644 15.07V14.07C374.641 14.07 374.638 14.07 374.635 14.07C374.632 14.07 374.629 14.07 374.626 14.07C374.623 14.07 374.621 14.07 374.618 14.07C374.615 14.07 374.612 14.07 374.609 14.07C374.606 14.07 374.603 14.07 374.6 14.07C374.597 14.07 374.595 14.07 374.592 14.07C374.589 14.07 374.586 14.07 374.583 14.07C374.58 14.07 374.577 14.07 374.574 14.07C374.571 14.07 374.569 14.07 374.566 14.07C374.563 14.07 374.56 14.07 374.557 14.07C374.554 14.07 374.551 14.07 374.548 14.07C374.545 14.07 374.543 14.07 374.54 14.07C374.537 14.07 374.534 14.07 374.531 14.07C374.528 14.07 374.525 14.07 374.522 14.07C374.519 14.07 374.516 14.07 374.514 14.07C374.511 14.07 374.508 14.07 374.505 14.07C374.502 14.07 374.499 14.07 374.496 14.07C374.493 14.07 374.49 14.07 374.488 14.07C374.485 14.07 374.482 14.07 374.479 14.07C374.476 14.07 374.473 14.07 374.47 14.07C374.467 14.07 374.464 14.07 374.462 14.07C374.459 14.07 374.456 14.07 374.453 14.07C374.45 14.07 374.447 14.07 374.444 14.07C374.441 14.07 374.438 14.07 374.436 14.07C374.433 14.07 374.43 14.07 374.427 14.07C374.424 14.07 374.421 14.07 374.418 14.07C374.415 14.07 374.412 14.07 374.41 14.07C374.407 14.07 374.404 14.07 374.401 14.07C374.398 14.07 374.395 14.07 374.392 14.07C374.389 14.07 374.386 14.07 374.384 14.07C374.381 14.07 374.378 14.07 374.375 14.07C374.372 14.07 374.369 14.07 374.366 14.07C374.363 14.07 374.36 14.07 374.358 14.07C374.355 14.07 374.352 14.07 374.349 14.07C374.346 14.07 374.343 14.07 374.34 14.07C374.337 14.07 374.334 14.07 374.331 14.07C374.329 14.07 374.326 14.07 374.323 14.07C374.32 14.07 374.317 14.07 374.314 14.07C374.311 14.07 374.308 14.07 374.305 14.07C374.303 14.07 374.3 14.07 374.297 14.07C374.294 14.07 374.291 14.07 374.288 14.07C374.285 14.07 374.282 14.07 374.279 14.07C374.277 14.07 374.274 14.07 374.271 14.07C374.268 14.07 374.265 14.07 374.262 14.07C374.259 14.07 374.256 14.07 374.253 14.07C374.251 14.07 374.248 14.07 374.245 14.07C374.242 14.07 374.239 14.07 374.236 14.07C374.233 14.07 374.23 14.07 374.227 14.07C374.225 14.07 374.222 14.07 374.219 14.07C374.216 14.07 374.213 14.07 374.21 14.07C374.207 14.07 374.204 14.07 374.201 14.07C374.199 14.07 374.196 14.07 374.193 14.07C374.19 14.07 374.187 14.07 374.184 14.07C374.181 14.07 374.178 14.07 374.175 14.07C374.173 14.07 374.17 14.07 374.167 14.07C374.164 14.07 374.161 14.07 374.158 14.07C374.155 14.07 374.152 14.07 374.149 14.07C374.146 14.07 374.144 14.07 374.141 14.07C374.138 14.07 374.135 14.07 374.132 14.07C374.129 14.07 374.126 14.07 374.123 14.07C374.12 14.07 374.118 14.07 374.115 14.07C374.112 14.07 374.109 14.07 374.106 14.07C374.103 14.07 374.1 14.07 374.097 14.07C374.094 14.07 374.092 14.07 374.089 14.07C374.086 14.07 374.083 14.07 374.08 14.07C374.077 14.07 374.074 14.07 374.071 14.07C374.068 14.07 374.066 14.07 374.063 14.07C374.06 14.07 374.057 14.07 374.054 14.07C374.051 14.07 374.048 14.07 374.045 14.07C374.042 14.07 374.04 14.07 374.037 14.07C374.034 14.07 374.031 14.07 374.028 14.07C374.025 14.07 374.022 14.07 374.019 14.07C374.016 14.07 374.014 14.07 374.011 14.07C374.008 14.07 374.005 14.07 374.002 14.07C373.999 14.07 373.996 14.07 373.993 14.07C373.99 14.07 373.988 14.07 373.985 14.07C373.982 14.07 373.979 14.07 373.976 14.07C373.973 14.07 373.97 14.07 373.967 14.07C373.964 14.07 373.961 14.07 373.959 14.07C373.956 14.07 373.953 14.07 373.95 14.07C373.947 14.07 373.944 14.07 373.941 14.07C373.938 14.07 373.935 14.07 373.933 14.07C373.93 14.07 373.927 14.07 373.924 14.07C373.921 14.07 373.918 14.07 373.915 14.07C373.912 14.07 373.909 14.07 373.907 14.07C373.904 14.07 373.901 14.07 373.898 14.07C373.895 14.07 373.892 14.07 373.889 14.07C373.886 14.07 373.883 14.07 373.881 14.07C373.878 14.07 373.875 14.07 373.872 14.07C373.869 14.07 373.866 14.07 373.863 14.07C373.86 14.07 373.857 14.07 373.855 14.07C373.852 14.07 373.849 14.07 373.846 14.07C373.843 14.07 373.84 14.07 373.837 14.07C373.834 14.07 373.831 14.07 373.829 14.07C373.826 14.07 373.823 14.07 373.82 14.07C373.817 14.07 373.814 14.07 373.811 14.07C373.808 14.07 373.805 14.07 373.803 14.07C373.8 14.07 373.797 14.07 373.794 14.07C373.791 14.07 373.788 14.07 373.785 14.07C373.782 14.07 373.779 14.07 373.776 14.07C373.774 14.07 373.771 14.07 373.768 14.07C373.765 14.07 373.762 14.07 373.759 14.07C373.756 14.07 373.753 14.07 373.75 14.07C373.748 14.07 373.745 14.07 373.742 14.07C373.739 14.07 373.736 14.07 373.733 14.07C373.73 14.07 373.727 14.07 373.724 14.07C373.722 14.07 373.719 14.07 373.716 14.07C373.713 14.07 373.71 14.07 373.707 14.07C373.704 14.07 373.701 14.07 373.698 14.07C373.696 14.07 373.693 14.07 373.69 14.07C373.687 14.07 373.684 14.07 373.681 14.07C373.678 14.07 373.675 14.07 373.672 14.07C373.67 14.07 373.667 14.07 373.664 14.07C373.661 14.07 373.658 14.07 373.655 14.07C373.652 14.07 373.649 14.07 373.646 14.07C373.644 14.07 373.641 14.07 373.638 14.07C373.635 14.07 373.632 14.07 373.629 14.07C373.626 14.07 373.623 14.07 373.62 14.07C373.618 14.07 373.615 14.07 373.612 14.07C373.609 14.07 373.606 14.07 373.603 14.07C373.6 14.07 373.597 14.07 373.594 14.07C373.591 14.07 373.589 14.07 373.586 14.07C373.583 14.07 373.58 14.07 373.577 14.07C373.574 14.07 373.571 14.07 373.568 14.07C373.565 14.07 373.563 14.07 373.56 14.07C373.557 14.07 373.554 14.07 373.551 14.07C373.548 14.07 373.545 14.07 373.542 14.07C373.539 14.07 373.537 14.07 373.534 14.07C373.531 14.07 373.528 14.07 373.525 14.07C373.522 14.07 373.519 14.07 373.516 14.07C373.513 14.07 373.511 14.07 373.508 14.07C373.505 14.07 373.502 14.07 373.499 14.07C373.496 14.07 373.493 14.07 373.49 14.07C373.487 14.07 373.485 14.07 373.482 14.07C373.479 14.07 373.476 14.07 373.473 14.07C373.47 14.07 373.467 14.07 373.464 14.07C373.461 14.07 373.459 14.07 373.456 14.07C373.453 14.07 373.45 14.07 373.447 14.07C373.444 14.07 373.441 14.07 373.438 14.07C373.435 14.07 373.433 14.07 373.43 14.07C373.427 14.07 373.424 14.07 373.421 14.07C373.418 14.07 373.415 14.07 373.412 14.07C373.409 14.07 373.406 14.07 373.404 14.07C373.401 14.07 373.398 14.07 373.395 14.07C373.392 14.07 373.389 14.07 373.386 14.07C373.383 14.07 373.38 14.07 373.378 14.07C373.375 14.07 373.372 14.07 373.369 14.07C373.366 14.07 373.363 14.07 373.36 14.07C373.357 14.07 373.354 14.07 373.352 14.07C373.349 14.07 373.346 14.07 373.343 14.07C373.34 14.07 373.337 14.07 373.334 14.07C373.331 14.07 373.328 14.07 373.326 14.07C373.323 14.07 373.32 14.07 373.317 14.07C373.314 14.07 373.311 14.07 373.308 14.07C373.305 14.07 373.302 14.07 373.3 14.07C373.297 14.07 373.294 14.07 373.291 14.07C373.288 14.07 373.285 14.07 373.282 14.07C373.279 14.07 373.276 14.07 373.274 14.07C373.271 14.07 373.268 14.07 373.265 14.07C373.262 14.07 373.259 14.07 373.256 14.07C373.253 14.07 373.25 14.07 373.248 14.07C373.245 14.07 373.242 14.07 373.239 14.07C373.236 14.07 373.233 14.07 373.23 14.07C373.227 14.07 373.224 14.07 373.222 14.07C373.219 14.07 373.216 14.07 373.213 14.07C373.21 14.07 373.207 14.07 373.204 14.07C373.201 14.07 373.198 14.07 373.195 14.07C373.193 14.07 373.19 14.07 373.187 14.07C373.184 14.07 373.181 14.07 373.178 14.07C373.175 14.07 373.172 14.07 373.169 14.07C373.167 14.07 373.164 14.07 373.161 14.07C373.158 14.07 373.155 14.07 373.152 14.07C373.149 14.07 373.146 14.07 373.143 14.07C373.141 14.07 373.138 14.07 373.135 14.07C373.132 14.07 373.129 14.07 373.126 14.07C373.123 14.07 373.12 14.07 373.117 14.07C373.115 14.07 373.112 14.07 373.109 14.07C373.106 14.07 373.103 14.07 373.1 14.07C373.097 14.07 373.094 14.07 373.091 14.07C373.089 14.07 373.086 14.07 373.083 14.07C373.08 14.07 373.077 14.07 373.074 14.07C373.071 14.07 373.068 14.07 373.065 14.07C373.063 14.07 373.06 14.07 373.057 14.07C373.054 14.07 373.051 14.07 373.048 14.07C373.045 14.07 373.042 14.07 373.039 14.07C373.037 14.07 373.034 14.07 373.031 14.07C373.028 14.07 373.025 14.07 373.022 14.07C373.019 14.07 373.016 14.07 373.013 14.07C373.01 14.07 373.008 14.07 373.005 14.07C373.002 14.07 372.999 14.07 372.996 14.07C372.993 14.07 372.99 14.07 372.987 14.07C372.984 14.07 372.982 14.07 372.979 14.07C372.976 14.07 372.973 14.07 372.97 14.07C372.967 14.07 372.964 14.07 372.961 14.07C372.958 14.07 372.956 14.07 372.953 14.07C372.95 14.07 372.947 14.07 372.944 14.07C372.941 14.07 372.938 14.07 372.935 14.07C372.932 14.07 372.93 14.07 372.927 14.07C372.924 14.07 372.921 14.07 372.918 14.07C372.915 14.07 372.912 14.07 372.909 14.07C372.906 14.07 372.904 14.07 372.901 14.07C372.898 14.07 372.895 14.07 372.892 14.07C372.889 14.07 372.886 14.07 372.883 14.07C372.88 14.07 372.878 14.07 372.875 14.07C372.872 14.07 372.869 14.07 372.866 14.07C372.863 14.07 372.86 14.07 372.857 14.07C372.854 14.07 372.852 14.07 372.849 14.07C372.846 14.07 372.843 14.07 372.84 14.07C372.837 14.07 372.834 14.07 372.831 14.07C372.828 14.07 372.825 14.07 372.823 14.07C372.82 14.07 372.817 14.07 372.814 14.07C372.811 14.07 372.808 14.07 372.805 14.07C372.802 14.07 372.799 14.07 372.797 14.07C372.794 14.07 372.791 14.07 372.788 14.07C372.785 14.07 372.782 14.07 372.779 14.07C372.776 14.07 372.773 14.07 372.771 14.07C372.768 14.07 372.765 14.07 372.762 14.07C372.759 14.07 372.756 14.07 372.753 14.07C372.75 14.07 372.747 14.07 372.745 14.07C372.742 14.07 372.739 14.07 372.736 14.07C372.733 14.07 372.73 14.07 372.727 14.07C372.724 14.07 372.721 14.07 372.719 14.07C372.716 14.07 372.713 14.07 372.71 14.07C372.707 14.07 372.704 14.07 372.701 14.07C372.698 14.07 372.695 14.07 372.693 14.07C372.69 14.07 372.687 14.07 372.684 14.07C372.681 14.07 372.678 14.07 372.675 14.07C372.672 14.07 372.669 14.07 372.667 14.07C372.664 14.07 372.661 14.07 372.658 14.07C372.655 14.07 372.652 14.07 372.649 14.07C372.646 14.07 372.643 14.07 372.64 14.07C372.638 14.07 372.635 14.07 372.632 14.07C372.629 14.07 372.626 14.07 372.623 14.07C372.62 14.07 372.617 14.07 372.614 14.07C372.612 14.07 372.609 14.07 372.606 14.07C372.603 14.07 372.6 14.07 372.597 14.07C372.594 14.07 372.591 14.07 372.588 14.07C372.586 14.07 372.583 14.07 372.58 14.07C372.577 14.07 372.574 14.07 372.571 14.07C372.568 14.07 372.565 14.07 372.562 14.07C372.56 14.07 372.557 14.07 372.554 14.07C372.551 14.07 372.548 14.07 372.545 14.07C372.542 14.07 372.539 14.07 372.536 14.07C372.534 14.07 372.531 14.07 372.528 14.07C372.525 14.07 372.522 14.07 372.519 14.07C372.516 14.07 372.513 14.07 372.51 14.07C372.508 14.07 372.505 14.07 372.502 14.07C372.499 14.07 372.496 14.07 372.493 14.07C372.49 14.07 372.487 14.07 372.484 14.07C372.482 14.07 372.479 14.07 372.476 14.07C372.473 14.07 372.47 14.07 372.467 14.07C372.464 14.07 372.461 14.07 372.458 14.07C372.455 14.07 372.453 14.07 372.45 14.07C372.447 14.07 372.444 14.07 372.441 14.07C372.438 14.07 372.435 14.07 372.432 14.07C372.429 14.07 372.427 14.07 372.424 14.07C372.421 14.07 372.418 14.07 372.415 14.07C372.412 14.07 372.409 14.07 372.406 14.07C372.403 14.07 372.401 14.07 372.398 14.07C372.395 14.07 372.392 14.07 372.389 14.07C372.386 14.07 372.383 14.07 372.38 14.07C372.377 14.07 372.375 14.07 372.372 14.07C372.369 14.07 372.366 14.07 372.363 14.07C372.36 14.07 372.357 14.07 372.354 14.07C372.351 14.07 372.349 14.07 372.346 14.07C372.343 14.07 372.34 14.07 372.337 14.07C372.334 14.07 372.331 14.07 372.328 14.07C372.325 14.07 372.323 14.07 372.32 14.07C372.317 14.07 372.314 14.07 372.311 14.07C372.308 14.07 372.305 14.07 372.302 14.07C372.299 14.07 372.297 14.07 372.294 14.07C372.291 14.07 372.288 14.07 372.285 14.07C372.282 14.07 372.279 14.07 372.276 14.07C372.273 14.07 372.27 14.07 372.268 14.07C372.265 14.07 372.262 14.07 372.259 14.07C372.256 14.07 372.253 14.07 372.25 14.07C372.247 14.07 372.244 14.07 372.242 14.07C372.239 14.07 372.236 14.07 372.233 14.07C372.23 14.07 372.227 14.07 372.224 14.07C372.221 14.07 372.218 14.07 372.216 14.07C372.213 14.07 372.21 14.07 372.207 14.07C372.204 14.07 372.201 14.07 372.198 14.07C372.195 14.07 372.192 14.07 372.19 14.07C372.187 14.07 372.184 14.07 372.181 14.07C372.178 14.07 372.175 14.07 372.172 14.07C372.169 14.07 372.166 14.07 372.164 14.07C372.161 14.07 372.158 14.07 372.155 14.07C372.152 14.07 372.149 14.07 372.146 14.07C372.143 14.07 372.14 14.07 372.138 14.07C372.135 14.07 372.132 14.07 372.129 14.07C372.126 14.07 372.123 14.07 372.12 14.07C372.117 14.07 372.114 14.07 372.112 14.07C372.109 14.07 372.106 14.07 372.103 14.07C372.1 14.07 372.097 14.07 372.094 14.07C372.091 14.07 372.088 14.07 372.085 14.07C372.083 14.07 372.08 14.07 372.077 14.07C372.074 14.07 372.071 14.07 372.068 14.07C372.065 14.07 372.062 14.07 372.059 14.07C372.057 14.07 372.054 14.07 372.051 14.07C372.048 14.07 372.045 14.07 372.042 14.07C372.039 14.07 372.036 14.07 372.033 14.07C372.031 14.07 372.028 14.07 372.025 14.07C372.022 14.07 372.019 14.07 372.016 14.07C372.013 14.07 372.01 14.07 372.007 14.07C372.005 14.07 372.002 14.07 371.999 14.07C371.996 14.07 371.993 14.07 371.99 14.07C371.987 14.07 371.984 14.07 371.981 14.07C371.979 14.07 371.976 14.07 371.973 14.07C371.97 14.07 371.967 14.07 371.964 14.07C371.961 14.07 371.958 14.07 371.955 14.07C371.953 14.07 371.95 14.07 371.947 14.07C371.944 14.07 371.941 14.07 371.938 14.07C371.935 14.07 371.932 14.07 371.929 14.07C371.927 14.07 371.924 14.07 371.921 14.07C371.918 14.07 371.915 14.07 371.912 14.07C371.909 14.07 371.906 14.07 371.903 14.07C371.9 14.07 371.898 14.07 371.895 14.07C371.892 14.07 371.889 14.07 371.886 14.07C371.883 14.07 371.88 14.07 371.877 14.07C371.874 14.07 371.872 14.07 371.869 14.07C371.866 14.07 371.863 14.07 371.86 14.07C371.857 14.07 371.854 14.07 371.851 14.07C371.848 14.07 371.846 14.07 371.843 14.07C371.84 14.07 371.837 14.07 371.834 14.07C371.831 14.07 371.828 14.07 371.825 14.07C371.822 14.07 371.82 14.07 371.817 14.07C371.814 14.07 371.811 14.07 371.808 14.07C371.805 14.07 371.802 14.07 371.799 14.07C371.796 14.07 371.794 14.07 371.791 14.07C371.788 14.07 371.785 14.07 371.782 14.07C371.779 14.07 371.776 14.07 371.773 14.07C371.77 14.07 371.768 14.07 371.765 14.07C371.762 14.07 371.759 14.07 371.756 14.07C371.753 14.07 371.75 14.07 371.747 14.07C371.744 14.07 371.742 14.07 371.739 14.07C371.736 14.07 371.733 14.07 371.73 14.07C371.727 14.07 371.724 14.07 371.721 14.07C371.718 14.07 371.715 14.07 371.713 14.07C371.71 14.07 371.707 14.07 371.704 14.07C371.701 14.07 371.698 14.07 371.695 14.07C371.692 14.07 371.689 14.07 371.687 14.07C371.684 14.07 371.681 14.07 371.678 14.07C371.675 14.07 371.672 14.07 371.669 14.07C371.666 14.07 371.663 14.07 371.661 14.07C371.658 14.07 371.655 14.07 371.652 14.07C371.649 14.07 371.646 14.07 371.643 14.07C371.64 14.07 371.637 14.07 371.635 14.07C371.632 14.07 371.629 14.07 371.626 14.07C371.623 14.07 371.62 14.07 371.617 14.07C371.614 14.07 371.611 14.07 371.609 14.07C371.606 14.07 371.603 14.07 371.6 14.07C371.597 14.07 371.594 14.07 371.591 14.07C371.588 14.07 371.585 14.07 371.583 14.07C371.58 14.07 371.577 14.07 371.574 14.07C371.571 14.07 371.568 14.07 371.565 14.07C371.562 14.07 371.559 14.07 371.557 14.07C371.554 14.07 371.551 14.07 371.548 14.07C371.545 14.07 371.542 14.07 371.539 14.07C371.536 14.07 371.533 14.07 371.53 14.07C371.528 14.07 371.525 14.07 371.522 14.07C371.519 14.07 371.516 14.07 371.513 14.07C371.51 14.07 371.507 14.07 371.504 14.07C371.502 14.07 371.499 14.07 371.496 14.07C371.493 14.07 371.49 14.07 371.487 14.07C371.484 14.07 371.481 14.07 371.478 14.07C371.476 14.07 371.473 14.07 371.47 14.07C371.467 14.07 371.464 14.07 371.461 14.07C371.458 14.07 371.455 14.07 371.452 14.07C371.45 14.07 371.447 14.07 371.444 14.07C371.441 14.07 371.438 14.07 371.435 14.07C371.432 14.07 371.429 14.07 371.426 14.07C371.424 14.07 371.421 14.07 371.418 14.07C371.415 14.07 371.412 14.07 371.409 14.07C371.406 14.07 371.403 14.07 371.4 14.07C371.398 14.07 371.395 14.07 371.392 14.07C371.389 14.07 371.386 14.07 371.383 14.07C371.38 14.07 371.377 14.07 371.374 14.07C371.372 14.07 371.369 14.07 371.366 14.07C371.363 14.07 371.36 14.07 371.357 14.07C371.354 14.07 371.351 14.07 371.348 14.07C371.345 14.07 371.343 14.07 371.34 14.07C371.337 14.07 371.334 14.07 371.331 14.07C371.328 14.07 371.325 14.07 371.322 14.07C371.319 14.07 371.317 14.07 371.314 14.07C371.311 14.07 371.308 14.07 371.305 14.07C371.302 14.07 371.299 14.07 371.296 14.07C371.293 14.07 371.291 14.07 371.288 14.07C371.285 14.07 371.282 14.07 371.279 14.07C371.276 14.07 371.273 14.07 371.27 14.07C371.267 14.07 371.265 14.07 371.262 14.07C371.259 14.07 371.256 14.07 371.253 14.07C371.25 14.07 371.247 14.07 371.244 14.07C371.241 14.07 371.239 14.07 371.236 14.07C371.233 14.07 371.23 14.07 371.227 14.07C371.224 14.07 371.221 14.07 371.218 14.07C371.215 14.07 371.213 14.07 371.21 14.07C371.207 14.07 371.204 14.07 371.201 14.07C371.198 14.07 371.195 14.07 371.192 14.07C371.189 14.07 371.187 14.07 371.184 14.07C371.181 14.07 371.178 14.07 371.175 14.07C371.172 14.07 371.169 14.07 371.166 14.07C371.163 14.07 371.16 14.07 371.158 14.07C371.155 14.07 371.152 14.07 371.149 14.07C371.146 14.07 371.143 14.07 371.14 14.07C371.137 14.07 371.134 14.07 371.132 14.07C371.129 14.07 371.126 14.07 371.123 14.07C371.12 14.07 371.117 14.07 371.114 14.07C371.111 14.07 371.108 14.07 371.106 14.07C371.103 14.07 371.1 14.07 371.097 14.07C371.094 14.07 371.091 14.07 371.088 14.07C371.085 14.07 371.082 14.07 371.08 14.07C371.077 14.07 371.074 14.07 371.071 14.07C371.068 14.07 371.065 14.07 371.062 14.07C371.059 14.07 371.056 14.07 371.054 14.07C371.051 14.07 371.048 14.07 371.045 14.07C371.042 14.07 371.039 14.07 371.036 14.07C371.033 14.07 371.03 14.07 371.028 14.07C371.025 14.07 371.022 14.07 371.019 14.07C371.016 14.07 371.013 14.07 371.01 14.07C371.007 14.07 371.004 14.07 371.002 14.07C370.999 14.07 370.996 14.07 370.993 14.07C370.99 14.07 370.987 14.07 370.984 14.07C370.981 14.07 370.978 14.07 370.975 14.07C370.973 14.07 370.97 14.07 370.967 14.07C370.964 14.07 370.961 14.07 370.958 14.07C370.955 14.07 370.952 14.07 370.949 14.07C370.947 14.07 370.944 14.07 370.941 14.07C370.938 14.07 370.935 14.07 370.932 14.07C370.929 14.07 370.926 14.07 370.923 14.07C370.921 14.07 370.918 14.07 370.915 14.07C370.912 14.07 370.909 14.07 370.906 14.07C370.903 14.07 370.9 14.07 370.897 14.07C370.895 14.07 370.892 14.07 370.889 14.07C370.886 14.07 370.883 14.07 370.88 14.07C370.877 14.07 370.874 14.07 370.871 14.07C370.869 14.07 370.866 14.07 370.863 14.07C370.86 14.07 370.857 14.07 370.854 14.07C370.851 14.07 370.848 14.07 370.845 14.07C370.843 14.07 370.84 14.07 370.837 14.07C370.834 14.07 370.831 14.07 370.828 14.07C370.825 14.07 370.822 14.07 370.819 14.07C370.817 14.07 370.814 14.07 370.811 14.07C370.808 14.07 370.805 14.07 370.802 14.07C370.799 14.07 370.796 14.07 370.793 14.07C370.79 14.07 370.788 14.07 370.785 14.07C370.782 14.07 370.779 14.07 370.776 14.07C370.773 14.07 370.77 14.07 370.767 14.07C370.764 14.07 370.762 14.07 370.759 14.07C370.756 14.07 370.753 14.07 370.75 14.07C370.747 14.07 370.744 14.07 370.741 14.07C370.738 14.07 370.736 14.07 370.733 14.07C370.73 14.07 370.727 14.07 370.724 14.07C370.721 14.07 370.718 14.07 370.715 14.07C370.712 14.07 370.71 14.07 370.707 14.07C370.704 14.07 370.701 14.07 370.698 14.07C370.695 14.07 370.692 14.07 370.689 14.07C370.686 14.07 370.684 14.07 370.681 14.07C370.678 14.07 370.675 14.07 370.672 14.07C370.669 14.07 370.666 14.07 370.663 14.07C370.66 14.07 370.658 14.07 370.655 14.07C370.652 14.07 370.649 14.07 370.646 14.07C370.643 14.07 370.64 14.07 370.637 14.07C370.634 14.07 370.631 14.07 370.629 14.07C370.626 14.07 370.623 14.07 370.62 14.07C370.617 14.07 370.614 14.07 370.611 14.07C370.608 14.07 370.605 14.07 370.603 14.07C370.6 14.07 370.597 14.07 370.594 14.07C370.591 14.07 370.588 14.07 370.585 14.07C370.582 14.07 370.579 14.07 370.577 14.07C370.574 14.07 370.571 14.07 370.568 14.07C370.565 14.07 370.562 14.07 370.559 14.07C370.556 14.07 370.553 14.07 370.551 14.07C370.548 14.07 370.545 14.07 370.542 14.07C370.539 14.07 370.536 14.07 370.533 14.07C370.53 14.07 370.527 14.07 370.525 14.07C370.522 14.07 370.519 14.07 370.516 14.07C370.513 14.07 370.51 14.07 370.507 14.07C370.504 14.07 370.501 14.07 370.499 14.07C370.496 14.07 370.493 14.07 370.49 14.07C370.487 14.07 370.484 14.07 370.481 14.07C370.478 14.07 370.475 14.07 370.473 14.07C370.47 14.07 370.467 14.07 370.464 14.07C370.461 14.07 370.458 14.07 370.455 14.07C370.452 14.07 370.449 14.07 370.446 14.07C370.444 14.07 370.441 14.07 370.438 14.07C370.435 14.07 370.432 14.07 370.429 14.07C370.426 14.07 370.423 14.07 370.42 14.07C370.418 14.07 370.415 14.07 370.412 14.07C370.409 14.07 370.406 14.07 370.403 14.07C370.4 14.07 370.397 14.07 370.394 14.07C370.392 14.07 370.389 14.07 370.386 14.07C370.383 14.07 370.38 14.07 370.377 14.07C370.374 14.07 370.371 14.07 370.368 14.07C370.366 14.07 370.363 14.07 370.36 14.07C370.357 14.07 370.354 14.07 370.351 14.07C370.348 14.07 370.345 14.07 370.342 14.07C370.34 14.07 370.337 14.07 370.334 14.07C370.331 14.07 370.328 14.07 370.325 14.07C370.322 14.07 370.319 14.07 370.316 14.07C370.314 14.07 370.311 14.07 370.308 14.07C370.305 14.07 370.302 14.07 370.299 14.07C370.296 14.07 370.293 14.07 370.29 14.07C370.288 14.07 370.285 14.07 370.282 14.07C370.279 14.07 370.276 14.07 370.273 14.07C370.27 14.07 370.267 14.07 370.264 14.07C370.261 14.07 370.259 14.07 370.256 14.07C370.253 14.07 370.25 14.07 370.247 14.07C370.244 14.07 370.241 14.07 370.238 14.07C370.235 14.07 370.233 14.07 370.23 14.07C370.227 14.07 370.224 14.07 370.221 14.07C370.218 14.07 370.215 14.07 370.212 14.07C370.209 14.07 370.207 14.07 370.204 14.07V15.07V16.07C370.207 16.07 370.209 16.07 370.212 16.07C370.215 16.07 370.218 16.07 370.221 16.07C370.224 16.07 370.227 16.07 370.23 16.07C370.233 16.07 370.235 16.07 370.238 16.07C370.241 16.07 370.244 16.07 370.247 16.07C370.25 16.07 370.253 16.07 370.256 16.07C370.259 16.07 370.261 16.07 370.264 16.07C370.267 16.07 370.27 16.07 370.273 16.07C370.276 16.07 370.279 16.07 370.282 16.07C370.285 16.07 370.288 16.07 370.29 16.07C370.293 16.07 370.296 16.07 370.299 16.07C370.302 16.07 370.305 16.07 370.308 16.07C370.311 16.07 370.314 16.07 370.316 16.07C370.319 16.07 370.322 16.07 370.325 16.07C370.328 16.07 370.331 16.07 370.334 16.07C370.337 16.07 370.34 16.07 370.342 16.07C370.345 16.07 370.348 16.07 370.351 16.07C370.354 16.07 370.357 16.07 370.36 16.07C370.363 16.07 370.366 16.07 370.368 16.07C370.371 16.07 370.374 16.07 370.377 16.07C370.38 16.07 370.383 16.07 370.386 16.07C370.389 16.07 370.392 16.07 370.394 16.07C370.397 16.07 370.4 16.07 370.403 16.07C370.406 16.07 370.409 16.07 370.412 16.07C370.415 16.07 370.418 16.07 370.42 16.07C370.423 16.07 370.426 16.07 370.429 16.07C370.432 16.07 370.435 16.07 370.438 16.07C370.441 16.07 370.444 16.07 370.446 16.07C370.449 16.07 370.452 16.07 370.455 16.07C370.458 16.07 370.461 16.07 370.464 16.07C370.467 16.07 370.47 16.07 370.473 16.07C370.475 16.07 370.478 16.07 370.481 16.07C370.484 16.07 370.487 16.07 370.49 16.07C370.493 16.07 370.496 16.07 370.499 16.07C370.501 16.07 370.504 16.07 370.507 16.07C370.51 16.07 370.513 16.07 370.516 16.07C370.519 16.07 370.522 16.07 370.525 16.07C370.527 16.07 370.53 16.07 370.533 16.07C370.536 16.07 370.539 16.07 370.542 16.07C370.545 16.07 370.548 16.07 370.551 16.07C370.553 16.07 370.556 16.07 370.559 16.07C370.562 16.07 370.565 16.07 370.568 16.07C370.571 16.07 370.574 16.07 370.577 16.07C370.579 16.07 370.582 16.07 370.585 16.07C370.588 16.07 370.591 16.07 370.594 16.07C370.597 16.07 370.6 16.07 370.603 16.07C370.605 16.07 370.608 16.07 370.611 16.07C370.614 16.07 370.617 16.07 370.62 16.07C370.623 16.07 370.626 16.07 370.629 16.07C370.631 16.07 370.634 16.07 370.637 16.07C370.64 16.07 370.643 16.07 370.646 16.07C370.649 16.07 370.652 16.07 370.655 16.07C370.658 16.07 370.66 16.07 370.663 16.07C370.666 16.07 370.669 16.07 370.672 16.07C370.675 16.07 370.678 16.07 370.681 16.07C370.684 16.07 370.686 16.07 370.689 16.07C370.692 16.07 370.695 16.07 370.698 16.07C370.701 16.07 370.704 16.07 370.707 16.07C370.71 16.07 370.712 16.07 370.715 16.07C370.718 16.07 370.721 16.07 370.724 16.07C370.727 16.07 370.73 16.07 370.733 16.07C370.736 16.07 370.738 16.07 370.741 16.07C370.744 16.07 370.747 16.07 370.75 16.07C370.753 16.07 370.756 16.07 370.759 16.07C370.762 16.07 370.764 16.07 370.767 16.07C370.77 16.07 370.773 16.07 370.776 16.07C370.779 16.07 370.782 16.07 370.785 16.07C370.788 16.07 370.79 16.07 370.793 16.07C370.796 16.07 370.799 16.07 370.802 16.07C370.805 16.07 370.808 16.07 370.811 16.07C370.814 16.07 370.817 16.07 370.819 16.07C370.822 16.07 370.825 16.07 370.828 16.07C370.831 16.07 370.834 16.07 370.837 16.07C370.84 16.07 370.843 16.07 370.845 16.07C370.848 16.07 370.851 16.07 370.854 16.07C370.857 16.07 370.86 16.07 370.863 16.07C370.866 16.07 370.869 16.07 370.871 16.07C370.874 16.07 370.877 16.07 370.88 16.07C370.883 16.07 370.886 16.07 370.889 16.07C370.892 16.07 370.895 16.07 370.897 16.07C370.9 16.07 370.903 16.07 370.906 16.07C370.909 16.07 370.912 16.07 370.915 16.07C370.918 16.07 370.921 16.07 370.923 16.07C370.926 16.07 370.929 16.07 370.932 16.07C370.935 16.07 370.938 16.07 370.941 16.07C370.944 16.07 370.947 16.07 370.949 16.07C370.952 16.07 370.955 16.07 370.958 16.07C370.961 16.07 370.964 16.07 370.967 16.07C370.97 16.07 370.973 16.07 370.975 16.07C370.978 16.07 370.981 16.07 370.984 16.07C370.987 16.07 370.99 16.07 370.993 16.07C370.996 16.07 370.999 16.07 371.002 16.07C371.004 16.07 371.007 16.07 371.01 16.07C371.013 16.07 371.016 16.07 371.019 16.07C371.022 16.07 371.025 16.07 371.028 16.07C371.03 16.07 371.033 16.07 371.036 16.07C371.039 16.07 371.042 16.07 371.045 16.07C371.048 16.07 371.051 16.07 371.054 16.07C371.056 16.07 371.059 16.07 371.062 16.07C371.065 16.07 371.068 16.07 371.071 16.07C371.074 16.07 371.077 16.07 371.08 16.07C371.082 16.07 371.085 16.07 371.088 16.07C371.091 16.07 371.094 16.07 371.097 16.07C371.1 16.07 371.103 16.07 371.106 16.07C371.108 16.07 371.111 16.07 371.114 16.07C371.117 16.07 371.12 16.07 371.123 16.07C371.126 16.07 371.129 16.07 371.132 16.07C371.134 16.07 371.137 16.07 371.14 16.07C371.143 16.07 371.146 16.07 371.149 16.07C371.152 16.07 371.155 16.07 371.158 16.07C371.16 16.07 371.163 16.07 371.166 16.07C371.169 16.07 371.172 16.07 371.175 16.07C371.178 16.07 371.181 16.07 371.184 16.07C371.187 16.07 371.189 16.07 371.192 16.07C371.195 16.07 371.198 16.07 371.201 16.07C371.204 16.07 371.207 16.07 371.21 16.07C371.213 16.07 371.215 16.07 371.218 16.07C371.221 16.07 371.224 16.07 371.227 16.07C371.23 16.07 371.233 16.07 371.236 16.07C371.239 16.07 371.241 16.07 371.244 16.07C371.247 16.07 371.25 16.07 371.253 16.07C371.256 16.07 371.259 16.07 371.262 16.07C371.265 16.07 371.267 16.07 371.27 16.07C371.273 16.07 371.276 16.07 371.279 16.07C371.282 16.07 371.285 16.07 371.288 16.07C371.291 16.07 371.293 16.07 371.296 16.07C371.299 16.07 371.302 16.07 371.305 16.07C371.308 16.07 371.311 16.07 371.314 16.07C371.317 16.07 371.319 16.07 371.322 16.07C371.325 16.07 371.328 16.07 371.331 16.07C371.334 16.07 371.337 16.07 371.34 16.07C371.343 16.07 371.345 16.07 371.348 16.07C371.351 16.07 371.354 16.07 371.357 16.07C371.36 16.07 371.363 16.07 371.366 16.07C371.369 16.07 371.372 16.07 371.374 16.07C371.377 16.07 371.38 16.07 371.383 16.07C371.386 16.07 371.389 16.07 371.392 16.07C371.395 16.07 371.398 16.07 371.4 16.07C371.403 16.07 371.406 16.07 371.409 16.07C371.412 16.07 371.415 16.07 371.418 16.07C371.421 16.07 371.424 16.07 371.426 16.07C371.429 16.07 371.432 16.07 371.435 16.07C371.438 16.07 371.441 16.07 371.444 16.07C371.447 16.07 371.45 16.07 371.452 16.07C371.455 16.07 371.458 16.07 371.461 16.07C371.464 16.07 371.467 16.07 371.47 16.07C371.473 16.07 371.476 16.07 371.478 16.07C371.481 16.07 371.484 16.07 371.487 16.07C371.49 16.07 371.493 16.07 371.496 16.07C371.499 16.07 371.502 16.07 371.504 16.07C371.507 16.07 371.51 16.07 371.513 16.07C371.516 16.07 371.519 16.07 371.522 16.07C371.525 16.07 371.528 16.07 371.53 16.07C371.533 16.07 371.536 16.07 371.539 16.07C371.542 16.07 371.545 16.07 371.548 16.07C371.551 16.07 371.554 16.07 371.557 16.07C371.559 16.07 371.562 16.07 371.565 16.07C371.568 16.07 371.571 16.07 371.574 16.07C371.577 16.07 371.58 16.07 371.583 16.07C371.585 16.07 371.588 16.07 371.591 16.07C371.594 16.07 371.597 16.07 371.6 16.07C371.603 16.07 371.606 16.07 371.609 16.07C371.611 16.07 371.614 16.07 371.617 16.07C371.62 16.07 371.623 16.07 371.626 16.07C371.629 16.07 371.632 16.07 371.635 16.07C371.637 16.07 371.64 16.07 371.643 16.07C371.646 16.07 371.649 16.07 371.652 16.07C371.655 16.07 371.658 16.07 371.661 16.07C371.663 16.07 371.666 16.07 371.669 16.07C371.672 16.07 371.675 16.07 371.678 16.07C371.681 16.07 371.684 16.07 371.687 16.07C371.689 16.07 371.692 16.07 371.695 16.07C371.698 16.07 371.701 16.07 371.704 16.07C371.707 16.07 371.71 16.07 371.713 16.07C371.715 16.07 371.718 16.07 371.721 16.07C371.724 16.07 371.727 16.07 371.73 16.07C371.733 16.07 371.736 16.07 371.739 16.07C371.742 16.07 371.744 16.07 371.747 16.07C371.75 16.07 371.753 16.07 371.756 16.07C371.759 16.07 371.762 16.07 371.765 16.07C371.768 16.07 371.77 16.07 371.773 16.07C371.776 16.07 371.779 16.07 371.782 16.07C371.785 16.07 371.788 16.07 371.791 16.07C371.794 16.07 371.796 16.07 371.799 16.07C371.802 16.07 371.805 16.07 371.808 16.07C371.811 16.07 371.814 16.07 371.817 16.07C371.82 16.07 371.822 16.07 371.825 16.07C371.828 16.07 371.831 16.07 371.834 16.07C371.837 16.07 371.84 16.07 371.843 16.07C371.846 16.07 371.848 16.07 371.851 16.07C371.854 16.07 371.857 16.07 371.86 16.07C371.863 16.07 371.866 16.07 371.869 16.07C371.872 16.07 371.874 16.07 371.877 16.07C371.88 16.07 371.883 16.07 371.886 16.07C371.889 16.07 371.892 16.07 371.895 16.07C371.898 16.07 371.9 16.07 371.903 16.07C371.906 16.07 371.909 16.07 371.912 16.07C371.915 16.07 371.918 16.07 371.921 16.07C371.924 16.07 371.927 16.07 371.929 16.07C371.932 16.07 371.935 16.07 371.938 16.07C371.941 16.07 371.944 16.07 371.947 16.07C371.95 16.07 371.953 16.07 371.955 16.07C371.958 16.07 371.961 16.07 371.964 16.07C371.967 16.07 371.97 16.07 371.973 16.07C371.976 16.07 371.979 16.07 371.981 16.07C371.984 16.07 371.987 16.07 371.99 16.07C371.993 16.07 371.996 16.07 371.999 16.07C372.002 16.07 372.005 16.07 372.007 16.07C372.01 16.07 372.013 16.07 372.016 16.07C372.019 16.07 372.022 16.07 372.025 16.07C372.028 16.07 372.031 16.07 372.033 16.07C372.036 16.07 372.039 16.07 372.042 16.07C372.045 16.07 372.048 16.07 372.051 16.07C372.054 16.07 372.057 16.07 372.059 16.07C372.062 16.07 372.065 16.07 372.068 16.07C372.071 16.07 372.074 16.07 372.077 16.07C372.08 16.07 372.083 16.07 372.085 16.07C372.088 16.07 372.091 16.07 372.094 16.07C372.097 16.07 372.1 16.07 372.103 16.07C372.106 16.07 372.109 16.07 372.112 16.07C372.114 16.07 372.117 16.07 372.12 16.07C372.123 16.07 372.126 16.07 372.129 16.07C372.132 16.07 372.135 16.07 372.138 16.07C372.14 16.07 372.143 16.07 372.146 16.07C372.149 16.07 372.152 16.07 372.155 16.07C372.158 16.07 372.161 16.07 372.164 16.07C372.166 16.07 372.169 16.07 372.172 16.07C372.175 16.07 372.178 16.07 372.181 16.07C372.184 16.07 372.187 16.07 372.19 16.07C372.192 16.07 372.195 16.07 372.198 16.07C372.201 16.07 372.204 16.07 372.207 16.07C372.21 16.07 372.213 16.07 372.216 16.07C372.218 16.07 372.221 16.07 372.224 16.07C372.227 16.07 372.23 16.07 372.233 16.07C372.236 16.07 372.239 16.07 372.242 16.07C372.244 16.07 372.247 16.07 372.25 16.07C372.253 16.07 372.256 16.07 372.259 16.07C372.262 16.07 372.265 16.07 372.268 16.07C372.27 16.07 372.273 16.07 372.276 16.07C372.279 16.07 372.282 16.07 372.285 16.07C372.288 16.07 372.291 16.07 372.294 16.07C372.297 16.07 372.299 16.07 372.302 16.07C372.305 16.07 372.308 16.07 372.311 16.07C372.314 16.07 372.317 16.07 372.32 16.07C372.323 16.07 372.325 16.07 372.328 16.07C372.331 16.07 372.334 16.07 372.337 16.07C372.34 16.07 372.343 16.07 372.346 16.07C372.349 16.07 372.351 16.07 372.354 16.07C372.357 16.07 372.36 16.07 372.363 16.07C372.366 16.07 372.369 16.07 372.372 16.07C372.375 16.07 372.377 16.07 372.38 16.07C372.383 16.07 372.386 16.07 372.389 16.07C372.392 16.07 372.395 16.07 372.398 16.07C372.401 16.07 372.403 16.07 372.406 16.07C372.409 16.07 372.412 16.07 372.415 16.07C372.418 16.07 372.421 16.07 372.424 16.07C372.427 16.07 372.429 16.07 372.432 16.07C372.435 16.07 372.438 16.07 372.441 16.07C372.444 16.07 372.447 16.07 372.45 16.07C372.453 16.07 372.455 16.07 372.458 16.07C372.461 16.07 372.464 16.07 372.467 16.07C372.47 16.07 372.473 16.07 372.476 16.07C372.479 16.07 372.482 16.07 372.484 16.07C372.487 16.07 372.49 16.07 372.493 16.07C372.496 16.07 372.499 16.07 372.502 16.07C372.505 16.07 372.508 16.07 372.51 16.07C372.513 16.07 372.516 16.07 372.519 16.07C372.522 16.07 372.525 16.07 372.528 16.07C372.531 16.07 372.534 16.07 372.536 16.07C372.539 16.07 372.542 16.07 372.545 16.07C372.548 16.07 372.551 16.07 372.554 16.07C372.557 16.07 372.56 16.07 372.562 16.07C372.565 16.07 372.568 16.07 372.571 16.07C372.574 16.07 372.577 16.07 372.58 16.07C372.583 16.07 372.586 16.07 372.588 16.07C372.591 16.07 372.594 16.07 372.597 16.07C372.6 16.07 372.603 16.07 372.606 16.07C372.609 16.07 372.612 16.07 372.614 16.07C372.617 16.07 372.62 16.07 372.623 16.07C372.626 16.07 372.629 16.07 372.632 16.07C372.635 16.07 372.638 16.07 372.64 16.07C372.643 16.07 372.646 16.07 372.649 16.07C372.652 16.07 372.655 16.07 372.658 16.07C372.661 16.07 372.664 16.07 372.667 16.07C372.669 16.07 372.672 16.07 372.675 16.07C372.678 16.07 372.681 16.07 372.684 16.07C372.687 16.07 372.69 16.07 372.693 16.07C372.695 16.07 372.698 16.07 372.701 16.07C372.704 16.07 372.707 16.07 372.71 16.07C372.713 16.07 372.716 16.07 372.719 16.07C372.721 16.07 372.724 16.07 372.727 16.07C372.73 16.07 372.733 16.07 372.736 16.07C372.739 16.07 372.742 16.07 372.745 16.07C372.747 16.07 372.75 16.07 372.753 16.07C372.756 16.07 372.759 16.07 372.762 16.07C372.765 16.07 372.768 16.07 372.771 16.07C372.773 16.07 372.776 16.07 372.779 16.07C372.782 16.07 372.785 16.07 372.788 16.07C372.791 16.07 372.794 16.07 372.797 16.07C372.799 16.07 372.802 16.07 372.805 16.07C372.808 16.07 372.811 16.07 372.814 16.07C372.817 16.07 372.82 16.07 372.823 16.07C372.825 16.07 372.828 16.07 372.831 16.07C372.834 16.07 372.837 16.07 372.84 16.07C372.843 16.07 372.846 16.07 372.849 16.07C372.852 16.07 372.854 16.07 372.857 16.07C372.86 16.07 372.863 16.07 372.866 16.07C372.869 16.07 372.872 16.07 372.875 16.07C372.878 16.07 372.88 16.07 372.883 16.07C372.886 16.07 372.889 16.07 372.892 16.07C372.895 16.07 372.898 16.07 372.901 16.07C372.904 16.07 372.906 16.07 372.909 16.07C372.912 16.07 372.915 16.07 372.918 16.07C372.921 16.07 372.924 16.07 372.927 16.07C372.93 16.07 372.932 16.07 372.935 16.07C372.938 16.07 372.941 16.07 372.944 16.07C372.947 16.07 372.95 16.07 372.953 16.07C372.956 16.07 372.958 16.07 372.961 16.07C372.964 16.07 372.967 16.07 372.97 16.07C372.973 16.07 372.976 16.07 372.979 16.07C372.982 16.07 372.984 16.07 372.987 16.07C372.99 16.07 372.993 16.07 372.996 16.07C372.999 16.07 373.002 16.07 373.005 16.07C373.008 16.07 373.01 16.07 373.013 16.07C373.016 16.07 373.019 16.07 373.022 16.07C373.025 16.07 373.028 16.07 373.031 16.07C373.034 16.07 373.037 16.07 373.039 16.07C373.042 16.07 373.045 16.07 373.048 16.07C373.051 16.07 373.054 16.07 373.057 16.07C373.06 16.07 373.063 16.07 373.065 16.07C373.068 16.07 373.071 16.07 373.074 16.07C373.077 16.07 373.08 16.07 373.083 16.07C373.086 16.07 373.089 16.07 373.091 16.07C373.094 16.07 373.097 16.07 373.1 16.07C373.103 16.07 373.106 16.07 373.109 16.07C373.112 16.07 373.115 16.07 373.117 16.07C373.12 16.07 373.123 16.07 373.126 16.07C373.129 16.07 373.132 16.07 373.135 16.07C373.138 16.07 373.141 16.07 373.143 16.07C373.146 16.07 373.149 16.07 373.152 16.07C373.155 16.07 373.158 16.07 373.161 16.07C373.164 16.07 373.167 16.07 373.169 16.07C373.172 16.07 373.175 16.07 373.178 16.07C373.181 16.07 373.184 16.07 373.187 16.07C373.19 16.07 373.193 16.07 373.195 16.07C373.198 16.07 373.201 16.07 373.204 16.07C373.207 16.07 373.21 16.07 373.213 16.07C373.216 16.07 373.219 16.07 373.222 16.07C373.224 16.07 373.227 16.07 373.23 16.07C373.233 16.07 373.236 16.07 373.239 16.07C373.242 16.07 373.245 16.07 373.248 16.07C373.25 16.07 373.253 16.07 373.256 16.07C373.259 16.07 373.262 16.07 373.265 16.07C373.268 16.07 373.271 16.07 373.274 16.07C373.276 16.07 373.279 16.07 373.282 16.07C373.285 16.07 373.288 16.07 373.291 16.07C373.294 16.07 373.297 16.07 373.3 16.07C373.302 16.07 373.305 16.07 373.308 16.07C373.311 16.07 373.314 16.07 373.317 16.07C373.32 16.07 373.323 16.07 373.326 16.07C373.328 16.07 373.331 16.07 373.334 16.07C373.337 16.07 373.34 16.07 373.343 16.07C373.346 16.07 373.349 16.07 373.352 16.07C373.354 16.07 373.357 16.07 373.36 16.07C373.363 16.07 373.366 16.07 373.369 16.07C373.372 16.07 373.375 16.07 373.378 16.07C373.38 16.07 373.383 16.07 373.386 16.07C373.389 16.07 373.392 16.07 373.395 16.07C373.398 16.07 373.401 16.07 373.404 16.07C373.406 16.07 373.409 16.07 373.412 16.07C373.415 16.07 373.418 16.07 373.421 16.07C373.424 16.07 373.427 16.07 373.43 16.07C373.433 16.07 373.435 16.07 373.438 16.07C373.441 16.07 373.444 16.07 373.447 16.07C373.45 16.07 373.453 16.07 373.456 16.07C373.459 16.07 373.461 16.07 373.464 16.07C373.467 16.07 373.47 16.07 373.473 16.07C373.476 16.07 373.479 16.07 373.482 16.07C373.485 16.07 373.487 16.07 373.49 16.07C373.493 16.07 373.496 16.07 373.499 16.07C373.502 16.07 373.505 16.07 373.508 16.07C373.511 16.07 373.513 16.07 373.516 16.07C373.519 16.07 373.522 16.07 373.525 16.07C373.528 16.07 373.531 16.07 373.534 16.07C373.537 16.07 373.539 16.07 373.542 16.07C373.545 16.07 373.548 16.07 373.551 16.07C373.554 16.07 373.557 16.07 373.56 16.07C373.563 16.07 373.565 16.07 373.568 16.07C373.571 16.07 373.574 16.07 373.577 16.07C373.58 16.07 373.583 16.07 373.586 16.07C373.589 16.07 373.591 16.07 373.594 16.07C373.597 16.07 373.6 16.07 373.603 16.07C373.606 16.07 373.609 16.07 373.612 16.07C373.615 16.07 373.618 16.07 373.62 16.07C373.623 16.07 373.626 16.07 373.629 16.07C373.632 16.07 373.635 16.07 373.638 16.07C373.641 16.07 373.644 16.07 373.646 16.07C373.649 16.07 373.652 16.07 373.655 16.07C373.658 16.07 373.661 16.07 373.664 16.07C373.667 16.07 373.67 16.07 373.672 16.07C373.675 16.07 373.678 16.07 373.681 16.07C373.684 16.07 373.687 16.07 373.69 16.07C373.693 16.07 373.696 16.07 373.698 16.07C373.701 16.07 373.704 16.07 373.707 16.07C373.71 16.07 373.713 16.07 373.716 16.07C373.719 16.07 373.722 16.07 373.724 16.07C373.727 16.07 373.73 16.07 373.733 16.07C373.736 16.07 373.739 16.07 373.742 16.07C373.745 16.07 373.748 16.07 373.75 16.07C373.753 16.07 373.756 16.07 373.759 16.07C373.762 16.07 373.765 16.07 373.768 16.07C373.771 16.07 373.774 16.07 373.776 16.07C373.779 16.07 373.782 16.07 373.785 16.07C373.788 16.07 373.791 16.07 373.794 16.07C373.797 16.07 373.8 16.07 373.803 16.07C373.805 16.07 373.808 16.07 373.811 16.07C373.814 16.07 373.817 16.07 373.82 16.07C373.823 16.07 373.826 16.07 373.829 16.07C373.831 16.07 373.834 16.07 373.837 16.07C373.84 16.07 373.843 16.07 373.846 16.07C373.849 16.07 373.852 16.07 373.855 16.07C373.857 16.07 373.86 16.07 373.863 16.07C373.866 16.07 373.869 16.07 373.872 16.07C373.875 16.07 373.878 16.07 373.881 16.07C373.883 16.07 373.886 16.07 373.889 16.07C373.892 16.07 373.895 16.07 373.898 16.07C373.901 16.07 373.904 16.07 373.907 16.07C373.909 16.07 373.912 16.07 373.915 16.07C373.918 16.07 373.921 16.07 373.924 16.07C373.927 16.07 373.93 16.07 373.933 16.07C373.935 16.07 373.938 16.07 373.941 16.07C373.944 16.07 373.947 16.07 373.95 16.07C373.953 16.07 373.956 16.07 373.959 16.07C373.961 16.07 373.964 16.07 373.967 16.07C373.97 16.07 373.973 16.07 373.976 16.07C373.979 16.07 373.982 16.07 373.985 16.07C373.988 16.07 373.99 16.07 373.993 16.07C373.996 16.07 373.999 16.07 374.002 16.07C374.005 16.07 374.008 16.07 374.011 16.07C374.014 16.07 374.016 16.07 374.019 16.07C374.022 16.07 374.025 16.07 374.028 16.07C374.031 16.07 374.034 16.07 374.037 16.07C374.04 16.07 374.042 16.07 374.045 16.07C374.048 16.07 374.051 16.07 374.054 16.07C374.057 16.07 374.06 16.07 374.063 16.07C374.066 16.07 374.068 16.07 374.071 16.07C374.074 16.07 374.077 16.07 374.08 16.07C374.083 16.07 374.086 16.07 374.089 16.07C374.092 16.07 374.094 16.07 374.097 16.07C374.1 16.07 374.103 16.07 374.106 16.07C374.109 16.07 374.112 16.07 374.115 16.07C374.118 16.07 374.12 16.07 374.123 16.07C374.126 16.07 374.129 16.07 374.132 16.07C374.135 16.07 374.138 16.07 374.141 16.07C374.144 16.07 374.146 16.07 374.149 16.07C374.152 16.07 374.155 16.07 374.158 16.07C374.161 16.07 374.164 16.07 374.167 16.07C374.17 16.07 374.173 16.07 374.175 16.07C374.178 16.07 374.181 16.07 374.184 16.07C374.187 16.07 374.19 16.07 374.193 16.07C374.196 16.07 374.199 16.07 374.201 16.07C374.204 16.07 374.207 16.07 374.21 16.07C374.213 16.07 374.216 16.07 374.219 16.07C374.222 16.07 374.225 16.07 374.227 16.07C374.23 16.07 374.233 16.07 374.236 16.07C374.239 16.07 374.242 16.07 374.245 16.07C374.248 16.07 374.251 16.07 374.253 16.07C374.256 16.07 374.259 16.07 374.262 16.07C374.265 16.07 374.268 16.07 374.271 16.07C374.274 16.07 374.277 16.07 374.279 16.07C374.282 16.07 374.285 16.07 374.288 16.07C374.291 16.07 374.294 16.07 374.297 16.07C374.3 16.07 374.303 16.07 374.305 16.07C374.308 16.07 374.311 16.07 374.314 16.07C374.317 16.07 374.32 16.07 374.323 16.07C374.326 16.07 374.329 16.07 374.331 16.07C374.334 16.07 374.337 16.07 374.34 16.07C374.343 16.07 374.346 16.07 374.349 16.07C374.352 16.07 374.355 16.07 374.358 16.07C374.36 16.07 374.363 16.07 374.366 16.07C374.369 16.07 374.372 16.07 374.375 16.07C374.378 16.07 374.381 16.07 374.384 16.07C374.386 16.07 374.389 16.07 374.392 16.07C374.395 16.07 374.398 16.07 374.401 16.07C374.404 16.07 374.407 16.07 374.41 16.07C374.412 16.07 374.415 16.07 374.418 16.07C374.421 16.07 374.424 16.07 374.427 16.07C374.43 16.07 374.433 16.07 374.436 16.07C374.438 16.07 374.441 16.07 374.444 16.07C374.447 16.07 374.45 16.07 374.453 16.07C374.456 16.07 374.459 16.07 374.462 16.07C374.464 16.07 374.467 16.07 374.47 16.07C374.473 16.07 374.476 16.07 374.479 16.07C374.482 16.07 374.485 16.07 374.488 16.07C374.49 16.07 374.493 16.07 374.496 16.07C374.499 16.07 374.502 16.07 374.505 16.07C374.508 16.07 374.511 16.07 374.514 16.07C374.516 16.07 374.519 16.07 374.522 16.07C374.525 16.07 374.528 16.07 374.531 16.07C374.534 16.07 374.537 16.07 374.54 16.07C374.543 16.07 374.545 16.07 374.548 16.07C374.551 16.07 374.554 16.07 374.557 16.07C374.56 16.07 374.563 16.07 374.566 16.07C374.569 16.07 374.571 16.07 374.574 16.07C374.577 16.07 374.58 16.07 374.583 16.07C374.586 16.07 374.589 16.07 374.592 16.07C374.595 16.07 374.597 16.07 374.6 16.07C374.603 16.07 374.606 16.07 374.609 16.07C374.612 16.07 374.615 16.07 374.618 16.07C374.621 16.07 374.623 16.07 374.626 16.07C374.629 16.07 374.632 16.07 374.635 16.07C374.638 16.07 374.641 16.07 374.644 16.07V15.07ZM370.204 15.07L370.368 14.0836C368.871 13.8341 367.131 13.5856 365.148 13.3377L365.024 14.33L364.9 15.3223C366.864 15.5678 368.576 15.8125 370.039 16.0564L370.204 15.07ZM365.024 14.33L364.429 13.5258C347.348 26.1514 332.853 39.9003 320.953 54.7753L321.734 55.4L322.515 56.0247C334.295 41.2997 348.66 27.6686 365.618 15.1342L365.024 14.33ZM321.734 55.4L320.951 54.7775C286.376 98.2438 265.305 136.74 257.857 170.253L258.834 170.47L259.81 170.687C267.163 137.6 288.025 99.3829 322.516 56.0225L321.734 55.4ZM258.834 170.47L257.853 170.274C257.354 172.769 256.857 175.876 256.362 179.588L257.354 179.72L258.345 179.852C258.837 176.164 259.327 173.104 259.814 170.666L258.834 170.47ZM257.354 179.72L256.356 179.649C256.111 183.084 255.742 186.892 255.251 191.073L256.244 191.19L257.237 191.307C257.732 187.101 258.103 183.263 258.351 179.791L257.354 179.72ZM256.244 191.19L255.251 191.073C255.057 192.714 254.022 194.035 251.783 194.987C249.5 195.957 246.082 196.48 241.444 196.48V197.48V198.48C246.179 198.48 249.915 197.954 252.565 196.828C255.258 195.683 256.937 193.859 257.237 191.307L256.244 191.19Z" fill="black" fill-opacity="0.15" mask="url(#path-1-outside-1_898_2176)"/>
</svg>
