<svg width="429" height="220" viewBox="0 0 429 220" fill="none" xmlns="http://www.w3.org/2000/svg">
<mask id="path-1-outside-1_898_2097" maskUnits="userSpaceOnUse" x="0" y="0" width="429" height="220" fill="black">
<rect fill="white" width="429" height="220"/>
<path d="M46.26 218.21C16.1667 218.21 1.12 202.3 1.12 170.48C1.12 138.907 15.6733 105.607 44.78 70.58C75.12 34.0733 105.46 15.82 135.8 15.82C136.787 15.82 137.28 16.3133 137.28 17.3C137.28 18.2867 136.787 18.78 135.8 18.78C130.867 20.0133 127.043 21.37 124.33 22.85C99.6633 34.69 70.9267 68.36 38.12 123.86C27.5133 141.373 22.21 158.64 22.21 175.66C22.21 186.02 24.1833 194.407 28.13 200.82C32.8167 209.207 39.8467 213.4 49.22 213.4C66.24 213.4 84.2467 205.877 103.24 190.83C111.133 184.91 118.41 178.373 125.07 171.22C131.977 163.82 138.39 155.927 144.31 147.54C148.75 140.88 152.943 133.85 156.89 126.45C161.083 119.05 164.907 111.157 168.36 102.77C177.733 80.57 182.42 62.07 182.42 47.27C182.42 29.7567 175.883 21 162.81 21C151.71 21 141.473 25.81 132.1 35.43C123.713 43.8167 118.163 53.8067 115.45 65.4C114.957 68.6067 114.463 71.69 113.97 74.65C113.723 77.61 113.6 80.6933 113.6 83.9C113.6 103.633 119.89 113.5 132.47 113.5C133.457 113.5 134.32 113.377 135.06 113.13C136.047 112.883 136.91 112.76 137.65 112.76C138.883 112.76 139.5 113.253 139.5 114.24C139.5 115.72 137.033 116.46 132.1 116.46C123.96 116.46 117.793 112.39 113.6 104.25C110.393 98.0833 108.79 90.4367 108.79 81.31C108.79 78.35 108.913 75.5133 109.16 72.8C109.407 69.84 109.9 67.0033 110.64 64.29C113.353 51.2167 120.383 39.7467 131.73 29.88C143.323 19.0267 155.657 13.6 168.73 13.6C180.077 13.6 188.71 19.0267 194.63 29.88C199.317 38.2667 201.66 48.75 201.66 61.33C201.66 76.13 198.7 90.8067 192.78 105.36C179.707 136.933 160.467 162.957 135.06 183.43C107.433 206.617 77.8333 218.21 46.26 218.21ZM211.104 210.07C209.13 210.07 208.144 208.96 208.144 206.74C208.144 206.247 208.144 205.63 208.144 204.89C208.39 204.15 208.637 203.41 208.884 202.67C212.337 194.037 218.874 185.033 228.494 175.66C238.36 166.287 251.434 157.037 267.714 147.91C282.02 140.017 296.327 132.37 310.634 124.97C324.94 117.57 339.124 109.8 353.184 101.66C368.477 92.78 380.317 83.7767 388.704 74.65C397.09 65.2767 402.147 56.15 403.874 47.27C404.614 43.57 404.984 39.6233 404.984 35.43C404.984 15.2033 394.13 5.08998 372.424 5.08998C341.344 5.08998 312.114 23.8367 284.734 61.33C272.647 78.1033 266.604 91.9167 266.604 102.77C266.604 113.623 273.757 119.05 288.064 119.05C301.877 119.05 317.417 112.39 334.684 99.07C352.937 84.5167 362.064 70.8267 362.064 58C362.064 53.3133 359.72 49.86 355.034 47.64C354.294 47.1467 353.924 46.6533 353.924 46.16C353.924 45.1733 354.54 44.68 355.774 44.68C358.734 44.68 361.077 46.2833 362.804 49.49C364.284 51.9567 365.024 54.7933 365.024 58C365.024 74.0333 356.02 88.8333 338.014 102.4C321.24 115.473 304.59 122.01 288.064 122.01C265.37 122.01 254.024 111.403 254.024 90.19C254.024 78.8433 257.477 68.6067 264.384 59.48C275.73 43.2 291.64 29.6333 312.114 18.78C322.474 13.1067 332.587 8.91332 342.454 6.19999C352.567 3.23999 362.557 1.75998 372.424 1.75998C387.224 1.75998 399.804 5.82998 410.164 13.97C421.757 22.6033 427.554 34.0733 427.554 48.38C427.554 63.92 416.7 79.2133 394.994 94.26C389.32 98.2067 382.044 102.647 373.164 107.58C364.53 112.267 354.047 117.447 341.714 123.12C336.287 125.587 329.504 128.67 321.364 132.37C313.224 136.07 303.727 140.387 292.874 145.32C280.047 150.993 268.947 156.42 259.574 161.6C250.2 166.533 242.43 171.22 236.264 175.66C239.224 173.687 242.06 172.7 244.774 172.7C251.187 172.7 257.6 173.193 264.014 174.18C270.674 174.92 277.334 176.277 283.994 178.25C288.68 179.237 293.244 180.47 297.684 181.95C302.124 183.43 306.687 184.787 311.374 186.02C322.227 188.98 331.6 190.46 339.494 190.46C368.107 190.46 382.414 180.593 382.414 160.86C382.414 159.38 382.29 157.9 382.044 156.42C381.797 154.94 381.304 153.46 380.564 151.98C380.07 150.5 379.577 149.39 379.084 148.65C378.837 147.91 378.714 147.54 378.714 147.54C378.714 146.553 379.207 146.06 380.194 146.06C381.674 146.06 383.03 148.157 384.264 152.35C384.757 154.077 385.127 155.68 385.374 157.16C385.62 158.393 385.744 159.627 385.744 160.86C385.744 173.193 379.7 184.293 367.614 194.16C356.514 203.78 344.55 208.59 331.724 208.59C321.117 208.59 305.577 205.63 285.104 199.71C274.744 196.997 265.617 194.9 257.724 193.42C250.077 191.94 243.54 191.2 238.114 191.2C229.48 191.2 223.314 194.283 219.614 200.45C216.16 206.863 213.324 210.07 211.104 210.07Z"/>
</mask>
<path d="M44.78 70.58L44.0109 69.9408L44.0109 69.9409L44.78 70.58ZM135.8 18.78V17.78H135.677L135.557 17.8098L135.8 18.78ZM124.33 22.85L124.763 23.7515L124.786 23.7403L124.809 23.7279L124.33 22.85ZM38.12 123.86L38.9754 124.378L38.9809 124.369L38.12 123.86ZM28.13 200.82L29.0029 200.332L28.9927 200.314L28.9817 200.296L28.13 200.82ZM103.24 190.83L102.64 190.03L102.629 190.038L102.619 190.046L103.24 190.83ZM125.07 171.22L124.339 170.538L124.338 170.539L125.07 171.22ZM144.31 147.54L145.127 148.117L145.135 148.106L145.142 148.095L144.31 147.54ZM156.89 126.45L156.02 125.957L156.014 125.968L156.008 125.979L156.89 126.45ZM168.36 102.77L167.439 102.381L167.435 102.389L168.36 102.77ZM132.1 35.43L132.807 36.1372L132.816 36.1279L132.1 35.43ZM115.45 65.4L114.476 65.1721L114.468 65.2097L114.462 65.2479L115.45 65.4ZM113.97 74.65L112.984 74.4856L112.977 74.5261L112.973 74.567L113.97 74.65ZM135.06 113.13L134.817 112.16L134.78 112.169L134.744 112.181L135.06 113.13ZM113.6 104.25L114.489 103.792L114.487 103.789L113.6 104.25ZM109.16 72.8L110.156 72.8905L110.157 72.883L109.16 72.8ZM110.64 64.29L111.605 64.5531L111.613 64.5234L111.619 64.4932L110.64 64.29ZM131.73 29.88L132.386 30.6346L132.4 30.6226L132.413 30.61L131.73 29.88ZM194.63 29.88L193.752 30.3589L193.757 30.3678L194.63 29.88ZM192.78 105.36L193.704 105.743L193.706 105.737L192.78 105.36ZM135.06 183.43L134.433 182.651L134.425 182.658L134.417 182.664L135.06 183.43ZM46.26 218.21V217.21C31.3822 217.21 20.4038 213.28 13.1315 205.59C5.84944 197.89 2.12 186.249 2.12 170.48H1.12H0.120003C0.120003 186.531 3.9139 198.755 11.6785 206.965C19.4529 215.185 31.0445 219.21 46.26 219.21V218.21ZM1.12 170.48H2.12C2.12 139.224 16.5271 106.144 45.5491 71.2191L44.78 70.58L44.0109 69.9409C14.8195 105.069 0.120003 138.589 0.120003 170.48H1.12ZM44.78 70.58L45.5491 71.2191C75.8064 34.812 105.892 16.82 135.8 16.82V15.82V14.82C105.028 14.82 74.4336 33.3347 44.0109 69.9408L44.78 70.58ZM135.8 15.82V16.82C135.966 16.82 136.071 16.8411 136.131 16.8612C136.187 16.8796 136.202 16.8959 136.203 16.8971C136.204 16.8983 136.22 16.9134 136.239 16.9687C136.259 17.0289 136.28 17.1337 136.28 17.3H137.28H138.28C138.28 16.6525 138.117 15.9832 137.617 15.4829C137.117 14.9825 136.447 14.82 135.8 14.82V15.82ZM137.28 17.3H136.28C136.28 17.4663 136.259 17.5711 136.239 17.6313C136.22 17.6866 136.204 17.7017 136.203 17.7029C136.202 17.704 136.187 17.7204 136.131 17.7388C136.071 17.7589 135.966 17.78 135.8 17.78V18.78V19.78C136.447 19.78 137.117 19.6174 137.617 19.1171C138.117 18.6167 138.28 17.9475 138.28 17.3H137.28ZM135.8 18.78L135.557 17.8098C130.587 19.0524 126.671 20.4338 123.851 21.9721L124.33 22.85L124.809 23.7279C127.415 22.3062 131.146 20.9743 136.043 19.7501L135.8 18.78ZM124.33 22.85L123.897 21.9485C111.384 27.9547 97.9264 39.45 83.5169 56.3333C69.0985 73.227 53.6798 95.5718 37.2592 123.351L38.12 123.86L38.9809 124.369C55.3669 96.6482 70.7199 74.408 85.0381 57.6317C99.3653 40.845 112.609 29.5853 124.763 23.7515L124.33 22.85ZM38.12 123.86L37.2646 123.342C26.5827 140.98 21.21 158.423 21.21 175.66H22.21H23.21C23.21 158.857 28.444 141.767 38.9754 124.378L38.12 123.86ZM22.21 175.66H21.21C21.21 186.138 23.2048 194.725 27.2783 201.344L28.13 200.82L28.9817 200.296C25.1619 194.089 23.21 185.902 23.21 175.66H22.21ZM28.13 200.82L27.2571 201.308C29.671 205.628 32.7152 208.913 36.4052 211.114C40.0965 213.316 44.3796 214.4 49.22 214.4V213.4V212.4C44.6871 212.4 40.7685 211.388 37.4298 209.396C34.0898 207.404 31.2757 204.399 29.0029 200.332L28.13 200.82ZM49.22 213.4V214.4C66.5437 214.4 84.764 206.743 103.861 191.614L103.24 190.83L102.619 190.046C83.7293 205.011 65.9363 212.4 49.22 212.4V213.4ZM103.24 190.83L103.84 191.63C111.78 185.675 119.101 179.099 125.802 171.901L125.07 171.22L124.338 170.539C117.719 177.648 110.486 184.145 102.64 190.03L103.24 190.83ZM125.07 171.22L125.801 171.902C132.739 164.469 139.181 156.54 145.127 148.117L144.31 147.54L143.493 146.963C137.599 155.313 131.214 163.171 124.339 170.538L125.07 171.22ZM144.31 147.54L145.142 148.095C149.601 141.406 153.811 134.348 157.772 126.921L156.89 126.45L156.008 125.979C152.076 133.352 147.899 140.354 143.478 146.985L144.31 147.54ZM156.89 126.45L157.76 126.943C161.975 119.504 165.817 111.573 169.285 103.151L168.36 102.77L167.435 102.389C163.997 110.74 160.191 118.596 156.02 125.957L156.89 126.45ZM168.36 102.77L169.281 103.159C178.678 80.9037 183.42 62.2615 183.42 47.27H182.42H181.42C181.42 61.8785 176.789 80.2363 167.439 102.381L168.36 102.77ZM182.42 47.27H183.42C183.42 38.4179 181.773 31.5968 178.319 26.9693C174.824 22.287 169.592 20 162.81 20V21V22C169.101 22 173.675 24.0914 176.716 28.1657C179.799 32.2949 181.42 38.6087 181.42 47.27H182.42ZM162.81 21V20C151.385 20 140.903 24.9624 131.384 34.7321L132.1 35.43L132.816 36.1279C142.044 26.6575 152.035 22 162.81 22V21ZM132.1 35.43L131.393 34.7229C122.874 43.2419 117.232 53.3981 114.476 65.1721L115.45 65.4L116.424 65.6279C119.095 54.2153 124.553 44.3914 132.807 36.1371L132.1 35.43ZM115.45 65.4L114.462 65.2479C113.969 68.4508 113.476 71.53 112.984 74.4856L113.97 74.65L114.956 74.8144C115.45 71.85 115.944 68.7625 116.438 65.552L115.45 65.4ZM113.97 74.65L112.973 74.567C112.724 77.5566 112.6 80.6678 112.6 83.9H113.6H114.6C114.6 80.7189 114.722 77.6633 114.967 74.733L113.97 74.65ZM113.6 83.9H112.6C112.6 93.8407 114.178 101.468 117.474 106.638C120.819 111.884 125.869 114.5 132.47 114.5V113.5V112.5C126.491 112.5 122.106 110.183 119.161 105.562C116.167 100.866 114.6 93.6926 114.6 83.9H113.6ZM132.47 113.5V114.5C133.537 114.5 134.511 114.367 135.376 114.079L135.06 113.13L134.744 112.181C134.129 112.386 133.376 112.5 132.47 112.5V113.5ZM135.06 113.13L135.303 114.1C136.237 113.866 137.016 113.76 137.65 113.76V112.76V111.76C136.804 111.76 135.856 111.9 134.817 112.16L135.06 113.13ZM137.65 112.76V113.76C138.16 113.76 138.357 113.866 138.413 113.911C138.426 113.921 138.5 113.967 138.5 114.24H139.5H140.5C140.5 113.526 140.266 112.832 139.662 112.349C139.101 111.9 138.374 111.76 137.65 111.76V112.76ZM139.5 114.24H138.5C138.5 114.29 138.495 114.355 138.369 114.468C138.214 114.607 137.908 114.784 137.363 114.947C136.273 115.274 134.541 115.46 132.1 115.46V116.46V117.46C134.592 117.46 136.561 117.276 137.937 116.863C138.625 116.656 139.244 116.37 139.706 115.955C140.197 115.513 140.5 114.93 140.5 114.24H139.5ZM132.1 116.46V115.46C128.205 115.46 124.824 114.489 121.921 112.573C119.011 110.652 116.526 107.746 114.489 103.792L113.6 104.25L112.711 104.708C114.868 108.894 117.562 112.093 120.819 114.242C124.082 116.396 127.855 117.46 132.1 117.46V116.46ZM113.6 104.25L114.487 103.789C111.374 97.802 109.79 90.3245 109.79 81.31H108.79H107.79C107.79 90.5488 109.413 98.3646 112.713 104.711L113.6 104.25ZM108.79 81.31H109.79C109.79 78.3777 109.912 75.5713 110.156 72.8905L109.16 72.8L108.164 72.7095C107.914 75.4553 107.79 78.3223 107.79 81.31H108.79ZM109.16 72.8L110.157 72.883C110.398 69.9805 110.882 67.2043 111.605 64.5531L110.64 64.29L109.675 64.0269C108.918 66.8023 108.415 69.6995 108.163 72.7169L109.16 72.8ZM110.64 64.29L111.619 64.4932C114.282 51.6608 121.183 40.3768 132.386 30.6346L131.73 29.88L131.074 29.1254C119.584 39.1166 112.424 50.7725 109.661 64.0868L110.64 64.29ZM131.73 29.88L132.413 30.61C143.863 19.8908 155.963 14.6 168.73 14.6V13.6V12.6C155.351 12.6 142.783 18.1625 131.047 29.15L131.73 29.88ZM168.73 13.6V14.6C174.237 14.6 179.043 15.9145 183.183 18.5166C187.327 21.1215 190.857 25.0506 193.752 30.3588L194.63 29.88L195.508 29.4011C192.483 23.8561 188.736 19.6452 184.247 16.8233C179.754 13.9988 174.57 12.6 168.73 12.6V13.6ZM194.63 29.88L193.757 30.3678C198.339 38.5663 200.66 48.8695 200.66 61.33H201.66H202.66C202.66 48.6305 200.295 37.9671 195.503 29.3922L194.63 29.88ZM201.66 61.33H200.66C200.66 75.993 197.728 90.5421 191.854 104.983L192.78 105.36L193.706 105.737C199.672 91.0713 202.66 76.267 202.66 61.33H201.66ZM192.78 105.36L191.856 104.977C178.844 136.404 159.703 162.288 134.433 182.651L135.06 183.43L135.687 184.209C161.231 163.625 180.57 137.463 193.704 105.743L192.78 105.36ZM135.06 183.43L134.417 182.664C106.943 205.722 77.565 217.21 46.26 217.21V218.21V219.21C78.1016 219.21 107.923 207.511 135.703 184.196L135.06 183.43ZM208.144 204.89L207.195 204.574L207.144 204.728V204.89H208.144ZM208.884 202.67L207.955 202.299L207.944 202.326L207.935 202.354L208.884 202.67ZM228.494 175.66L227.805 174.935L227.796 174.944L228.494 175.66ZM267.714 147.91L267.231 147.034L267.225 147.038L267.714 147.91ZM353.184 101.66L353.685 102.525L353.686 102.525L353.184 101.66ZM388.704 74.65L389.44 75.3267L389.449 75.3168L388.704 74.65ZM403.874 47.27L402.893 47.0739L402.892 47.0791L403.874 47.27ZM284.734 61.33L283.926 60.7402L283.922 60.7454L284.734 61.33ZM334.684 99.07L335.294 99.8618L335.301 99.8569L335.307 99.8519L334.684 99.07ZM355.034 47.64L354.479 48.472L354.54 48.5125L354.606 48.5437L355.034 47.64ZM362.804 49.49L361.923 49.9641L361.934 49.9846L361.946 50.0045L362.804 49.49ZM338.014 102.4L337.412 101.601L337.405 101.606L337.399 101.611L338.014 102.4ZM264.384 59.48L265.181 60.0834L265.193 60.0678L265.204 60.0518L264.384 59.48ZM312.114 18.78L312.582 19.6636L312.594 19.6571L312.114 18.78ZM342.454 6.19999L342.719 7.1642L342.727 7.16203L342.735 7.15973L342.454 6.19999ZM410.164 13.97L409.546 14.7563L409.556 14.7643L409.566 14.772L410.164 13.97ZM394.994 94.26L394.424 93.4381L394.423 93.4391L394.994 94.26ZM373.164 107.58L373.641 108.459L373.649 108.454L373.164 107.58ZM341.714 123.12L342.128 124.03L342.132 124.028L341.714 123.12ZM321.364 132.37L321.777 133.28L321.364 132.37ZM292.874 145.32L293.278 146.235L293.287 146.23L292.874 145.32ZM259.574 161.6L260.039 162.485L260.048 162.48L260.057 162.475L259.574 161.6ZM236.264 175.66L235.679 174.848L236.818 176.492L236.264 175.66ZM264.014 174.18L263.862 175.168L263.882 175.172L263.903 175.174L264.014 174.18ZM283.994 178.25L283.71 179.209L283.748 179.22L283.788 179.229L283.994 178.25ZM297.684 181.95L298 181.001L297.684 181.95ZM311.374 186.02L311.637 185.055L311.628 185.053L311.374 186.02ZM382.044 156.42L381.057 156.584V156.584L382.044 156.42ZM380.564 151.98L379.615 152.296L379.637 152.364L379.669 152.427L380.564 151.98ZM379.084 148.65L378.135 148.966L378.177 149.093L378.252 149.205L379.084 148.65ZM378.714 147.54H377.714V147.702L377.765 147.856L378.714 147.54ZM384.264 152.35L385.225 152.075L385.223 152.068L384.264 152.35ZM385.374 157.16L384.387 157.324L384.39 157.34L384.393 157.356L385.374 157.16ZM367.614 194.16L366.981 193.385L366.97 193.395L366.959 193.404L367.614 194.16ZM285.104 199.71L285.381 198.749L285.369 198.746L285.357 198.743L285.104 199.71ZM257.724 193.42L257.534 194.402L257.539 194.403L257.724 193.42ZM219.614 200.45L218.756 199.936L218.744 199.955L218.733 199.976L219.614 200.45ZM211.104 210.07V209.07C210.304 209.07 209.878 208.85 209.631 208.573C209.365 208.273 209.144 207.723 209.144 206.74H208.144H207.144C207.144 207.977 207.416 209.092 208.136 209.902C208.876 210.735 209.93 211.07 211.104 211.07V210.07ZM208.144 206.74H209.144C209.144 206.739 209.144 206.738 209.144 206.737C209.144 206.736 209.144 206.735 209.144 206.734C209.144 206.733 209.144 206.732 209.144 206.731C209.144 206.73 209.144 206.729 209.144 206.728C209.144 206.727 209.144 206.726 209.144 206.726C209.144 206.725 209.144 206.724 209.144 206.723C209.144 206.722 209.144 206.721 209.144 206.72C209.144 206.719 209.144 206.718 209.144 206.717C209.144 206.716 209.144 206.715 209.144 206.714C209.144 206.713 209.144 206.712 209.144 206.711C209.144 206.71 209.144 206.709 209.144 206.708C209.144 206.707 209.144 206.706 209.144 206.705C209.144 206.704 209.144 206.703 209.144 206.702C209.144 206.701 209.144 206.7 209.144 206.699C209.144 206.698 209.144 206.697 209.144 206.696C209.144 206.695 209.144 206.694 209.144 206.693C209.144 206.692 209.144 206.691 209.144 206.69C209.144 206.689 209.144 206.689 209.144 206.688C209.144 206.687 209.144 206.686 209.144 206.685C209.144 206.684 209.144 206.683 209.144 206.682C209.144 206.681 209.144 206.68 209.144 206.679C209.144 206.678 209.144 206.677 209.144 206.676C209.144 206.675 209.144 206.674 209.144 206.673C209.144 206.672 209.144 206.671 209.144 206.67C209.144 206.669 209.144 206.668 209.144 206.667C209.144 206.666 209.144 206.665 209.144 206.664C209.144 206.663 209.144 206.662 209.144 206.661C209.144 206.66 209.144 206.659 209.144 206.658C209.144 206.657 209.144 206.656 209.144 206.655C209.144 206.654 209.144 206.653 209.144 206.652C209.144 206.651 209.144 206.65 209.144 206.649C209.144 206.648 209.144 206.647 209.144 206.646C209.144 206.645 209.144 206.644 209.144 206.643C209.144 206.642 209.144 206.641 209.144 206.64C209.144 206.639 209.144 206.638 209.144 206.637C209.144 206.636 209.144 206.635 209.144 206.634C209.144 206.633 209.144 206.632 209.144 206.631C209.144 206.63 209.144 206.629 209.144 206.628C209.144 206.627 209.144 206.626 209.144 206.625C209.144 206.624 209.144 206.623 209.144 206.622C209.144 206.621 209.144 206.62 209.144 206.619C209.144 206.618 209.144 206.617 209.144 206.616C209.144 206.615 209.144 206.614 209.144 206.613C209.144 206.612 209.144 206.611 209.144 206.61C209.144 206.609 209.144 206.608 209.144 206.607C209.144 206.606 209.144 206.605 209.144 206.604C209.144 206.603 209.144 206.602 209.144 206.601C209.144 206.6 209.144 206.599 209.144 206.598C209.144 206.597 209.144 206.596 209.144 206.595C209.144 206.594 209.144 206.593 209.144 206.592C209.144 206.591 209.144 206.59 209.144 206.589C209.144 206.588 209.144 206.587 209.144 206.586C209.144 206.585 209.144 206.584 209.144 206.583C209.144 206.582 209.144 206.581 209.144 206.58C209.144 206.579 209.144 206.578 209.144 206.577C209.144 206.576 209.144 206.575 209.144 206.574C209.144 206.573 209.144 206.572 209.144 206.571C209.144 206.57 209.144 206.569 209.144 206.568C209.144 206.567 209.144 206.566 209.144 206.565C209.144 206.564 209.144 206.562 209.144 206.561C209.144 206.56 209.144 206.559 209.144 206.558C209.144 206.557 209.144 206.556 209.144 206.555C209.144 206.554 209.144 206.553 209.144 206.552C209.144 206.551 209.144 206.55 209.144 206.549C209.144 206.548 209.144 206.547 209.144 206.546C209.144 206.545 209.144 206.544 209.144 206.543C209.144 206.542 209.144 206.541 209.144 206.54C209.144 206.539 209.144 206.538 209.144 206.537C209.144 206.536 209.144 206.535 209.144 206.534C209.144 206.533 209.144 206.532 209.144 206.531C209.144 206.53 209.144 206.529 209.144 206.528C209.144 206.527 209.144 206.526 209.144 206.525C209.144 206.524 209.144 206.522 209.144 206.521C209.144 206.52 209.144 206.519 209.144 206.518C209.144 206.517 209.144 206.516 209.144 206.515C209.144 206.514 209.144 206.513 209.144 206.512C209.144 206.511 209.144 206.51 209.144 206.509C209.144 206.508 209.144 206.507 209.144 206.506C209.144 206.505 209.144 206.504 209.144 206.503C209.144 206.502 209.144 206.501 209.144 206.5C209.144 206.499 209.144 206.498 209.144 206.497C209.144 206.496 209.144 206.495 209.144 206.493C209.144 206.492 209.144 206.491 209.144 206.49C209.144 206.489 209.144 206.488 209.144 206.487C209.144 206.486 209.144 206.485 209.144 206.484C209.144 206.483 209.144 206.482 209.144 206.481C209.144 206.48 209.144 206.479 209.144 206.478C209.144 206.477 209.144 206.476 209.144 206.475C209.144 206.474 209.144 206.473 209.144 206.472C209.144 206.471 209.144 206.469 209.144 206.468C209.144 206.467 209.144 206.466 209.144 206.465C209.144 206.464 209.144 206.463 209.144 206.462C209.144 206.461 209.144 206.46 209.144 206.459C209.144 206.458 209.144 206.457 209.144 206.456C209.144 206.455 209.144 206.454 209.144 206.453C209.144 206.452 209.144 206.451 209.144 206.449C209.144 206.448 209.144 206.447 209.144 206.446C209.144 206.445 209.144 206.444 209.144 206.443C209.144 206.442 209.144 206.441 209.144 206.44C209.144 206.439 209.144 206.438 209.144 206.437C209.144 206.436 209.144 206.435 209.144 206.434C209.144 206.433 209.144 206.432 209.144 206.43C209.144 206.429 209.144 206.428 209.144 206.427C209.144 206.426 209.144 206.425 209.144 206.424C209.144 206.423 209.144 206.422 209.144 206.421C209.144 206.42 209.144 206.419 209.144 206.418C209.144 206.417 209.144 206.416 209.144 206.415C209.144 206.413 209.144 206.412 209.144 206.411C209.144 206.41 209.144 206.409 209.144 206.408C209.144 206.407 209.144 206.406 209.144 206.405C209.144 206.404 209.144 206.403 209.144 206.402C209.144 206.401 209.144 206.4 209.144 206.399C209.144 206.397 209.144 206.396 209.144 206.395C209.144 206.394 209.144 206.393 209.144 206.392C209.144 206.391 209.144 206.39 209.144 206.389C209.144 206.388 209.144 206.387 209.144 206.386C209.144 206.385 209.144 206.384 209.144 206.382C209.144 206.381 209.144 206.38 209.144 206.379C209.144 206.378 209.144 206.377 209.144 206.376C209.144 206.375 209.144 206.374 209.144 206.373C209.144 206.372 209.144 206.371 209.144 206.37C209.144 206.368 209.144 206.367 209.144 206.366C209.144 206.365 209.144 206.364 209.144 206.363C209.144 206.362 209.144 206.361 209.144 206.36C209.144 206.359 209.144 206.358 209.144 206.357C209.144 206.356 209.144 206.354 209.144 206.353C209.144 206.352 209.144 206.351 209.144 206.35C209.144 206.349 209.144 206.348 209.144 206.347C209.144 206.346 209.144 206.345 209.144 206.344C209.144 206.343 209.144 206.341 209.144 206.34C209.144 206.339 209.144 206.338 209.144 206.337C209.144 206.336 209.144 206.335 209.144 206.334C209.144 206.333 209.144 206.332 209.144 206.331C209.144 206.329 209.144 206.328 209.144 206.327C209.144 206.326 209.144 206.325 209.144 206.324C209.144 206.323 209.144 206.322 209.144 206.321C209.144 206.32 209.144 206.319 209.144 206.318C209.144 206.316 209.144 206.315 209.144 206.314C209.144 206.313 209.144 206.312 209.144 206.311C209.144 206.31 209.144 206.309 209.144 206.308C209.144 206.307 209.144 206.305 209.144 206.304C209.144 206.303 209.144 206.302 209.144 206.301C209.144 206.3 209.144 206.299 209.144 206.298C209.144 206.297 209.144 206.296 209.144 206.294C209.144 206.293 209.144 206.292 209.144 206.291C209.144 206.29 209.144 206.289 209.144 206.288C209.144 206.287 209.144 206.286 209.144 206.285C209.144 206.283 209.144 206.282 209.144 206.281C209.144 206.28 209.144 206.279 209.144 206.278C209.144 206.277 209.144 206.276 209.144 206.275C209.144 206.274 209.144 206.272 209.144 206.271C209.144 206.27 209.144 206.269 209.144 206.268C209.144 206.267 209.144 206.266 209.144 206.265C209.144 206.264 209.144 206.262 209.144 206.261C209.144 206.26 209.144 206.259 209.144 206.258C209.144 206.257 209.144 206.256 209.144 206.255C209.144 206.254 209.144 206.253 209.144 206.251C209.144 206.25 209.144 206.249 209.144 206.248C209.144 206.247 209.144 206.246 209.144 206.245C209.144 206.244 209.144 206.242 209.144 206.241C209.144 206.24 209.144 206.239 209.144 206.238C209.144 206.237 209.144 206.236 209.144 206.235C209.144 206.234 209.144 206.232 209.144 206.231C209.144 206.23 209.144 206.229 209.144 206.228C209.144 206.227 209.144 206.226 209.144 206.225C209.144 206.224 209.144 206.222 209.144 206.221C209.144 206.22 209.144 206.219 209.144 206.218C209.144 206.217 209.144 206.216 209.144 206.215C209.144 206.213 209.144 206.212 209.144 206.211C209.144 206.21 209.144 206.209 209.144 206.208C209.144 206.207 209.144 206.206 209.144 206.204C209.144 206.203 209.144 206.202 209.144 206.201C209.144 206.2 209.144 206.199 209.144 206.198C209.144 206.197 209.144 206.195 209.144 206.194C209.144 206.193 209.144 206.192 209.144 206.191C209.144 206.19 209.144 206.189 209.144 206.188C209.144 206.186 209.144 206.185 209.144 206.184C209.144 206.183 209.144 206.182 209.144 206.181C209.144 206.18 209.144 206.178 209.144 206.177C209.144 206.176 209.144 206.175 209.144 206.174C209.144 206.173 209.144 206.172 209.144 206.171C209.144 206.169 209.144 206.168 209.144 206.167C209.144 206.166 209.144 206.165 209.144 206.164C209.144 206.163 209.144 206.161 209.144 206.16C209.144 206.159 209.144 206.158 209.144 206.157C209.144 206.156 209.144 206.155 209.144 206.154C209.144 206.152 209.144 206.151 209.144 206.15C209.144 206.149 209.144 206.148 209.144 206.147C209.144 206.146 209.144 206.144 209.144 206.143C209.144 206.142 209.144 206.141 209.144 206.14C209.144 206.139 209.144 206.138 209.144 206.136C209.144 206.135 209.144 206.134 209.144 206.133C209.144 206.132 209.144 206.131 209.144 206.13C209.144 206.128 209.144 206.127 209.144 206.126C209.144 206.125 209.144 206.124 209.144 206.123C209.144 206.122 209.144 206.12 209.144 206.119C209.144 206.118 209.144 206.117 209.144 206.116C209.144 206.115 209.144 206.113 209.144 206.112C209.144 206.111 209.144 206.11 209.144 206.109C209.144 206.108 209.144 206.107 209.144 206.105C209.144 206.104 209.144 206.103 209.144 206.102C209.144 206.101 209.144 206.1 209.144 206.099C209.144 206.097 209.144 206.096 209.144 206.095C209.144 206.094 209.144 206.093 209.144 206.092C209.144 206.09 209.144 206.089 209.144 206.088C209.144 206.087 209.144 206.086 209.144 206.085C209.144 206.083 209.144 206.082 209.144 206.081C209.144 206.08 209.144 206.079 209.144 206.078C209.144 206.077 209.144 206.075 209.144 206.074C209.144 206.073 209.144 206.072 209.144 206.071C209.144 206.07 209.144 206.068 209.144 206.067C209.144 206.066 209.144 206.065 209.144 206.064C209.144 206.063 209.144 206.061 209.144 206.06C209.144 206.059 209.144 206.058 209.144 206.057C209.144 206.056 209.144 206.054 209.144 206.053C209.144 206.052 209.144 206.051 209.144 206.05C209.144 206.049 209.144 206.047 209.144 206.046C209.144 206.045 209.144 206.044 209.144 206.043C209.144 206.042 209.144 206.04 209.144 206.039C209.144 206.038 209.144 206.037 209.144 206.036C209.144 206.035 209.144 206.033 209.144 206.032C209.144 206.031 209.144 206.03 209.144 206.029C209.144 206.028 209.144 206.026 209.144 206.025C209.144 206.024 209.144 206.023 209.144 206.022C209.144 206.021 209.144 206.019 209.144 206.018C209.144 206.017 209.144 206.016 209.144 206.015C209.144 206.013 209.144 206.012 209.144 206.011C209.144 206.01 209.144 206.009 209.144 206.008C209.144 206.006 209.144 206.005 209.144 206.004C209.144 206.003 209.144 206.002 209.144 206C209.144 205.999 209.144 205.998 209.144 205.997C209.144 205.996 209.144 205.995 209.144 205.993C209.144 205.992 209.144 205.991 209.144 205.99C209.144 205.989 209.144 205.987 209.144 205.986C209.144 205.985 209.144 205.984 209.144 205.983C209.144 205.982 209.144 205.98 209.144 205.979C209.144 205.978 209.144 205.977 209.144 205.976C209.144 205.974 209.144 205.973 209.144 205.972C209.144 205.971 209.144 205.97 209.144 205.969C209.144 205.967 209.144 205.966 209.144 205.965C209.144 205.964 209.144 205.963 209.144 205.961C209.144 205.96 209.144 205.959 209.144 205.958C209.144 205.957 209.144 205.955 209.144 205.954C209.144 205.953 209.144 205.952 209.144 205.951C209.144 205.949 209.144 205.948 209.144 205.947C209.144 205.946 209.144 205.945 209.144 205.943C209.144 205.942 209.144 205.941 209.144 205.94C209.144 205.939 209.144 205.938 209.144 205.936C209.144 205.935 209.144 205.934 209.144 205.933C209.144 205.932 209.144 205.93 209.144 205.929C209.144 205.928 209.144 205.927 209.144 205.926C209.144 205.924 209.144 205.923 209.144 205.922C209.144 205.921 209.144 205.92 209.144 205.918C209.144 205.917 209.144 205.916 209.144 205.915C209.144 205.914 209.144 205.912 209.144 205.911C209.144 205.91 209.144 205.909 209.144 205.908C209.144 205.906 209.144 205.905 209.144 205.904C209.144 205.903 209.144 205.901 209.144 205.9C209.144 205.899 209.144 205.898 209.144 205.897C209.144 205.895 209.144 205.894 209.144 205.893C209.144 205.892 209.144 205.891 209.144 205.889C209.144 205.888 209.144 205.887 209.144 205.886C209.144 205.885 209.144 205.883 209.144 205.882C209.144 205.881 209.144 205.88 209.144 205.879C209.144 205.877 209.144 205.876 209.144 205.875C209.144 205.874 209.144 205.872 209.144 205.871C209.144 205.87 209.144 205.869 209.144 205.868C209.144 205.866 209.144 205.865 209.144 205.864C209.144 205.863 209.144 205.862 209.144 205.86C209.144 205.859 209.144 205.858 209.144 205.857C209.144 205.855 209.144 205.854 209.144 205.853C209.144 205.852 209.144 205.851 209.144 205.849C209.144 205.848 209.144 205.847 209.144 205.846C209.144 205.844 209.144 205.843 209.144 205.842C209.144 205.841 209.144 205.84 209.144 205.838C209.144 205.837 209.144 205.836 209.144 205.835C209.144 205.833 209.144 205.832 209.144 205.831C209.144 205.83 209.144 205.829 209.144 205.827C209.144 205.826 209.144 205.825 209.144 205.824C209.144 205.822 209.144 205.821 209.144 205.82C209.144 205.819 209.144 205.818 209.144 205.816C209.144 205.815 209.144 205.814 209.144 205.813C209.144 205.811 209.144 205.81 209.144 205.809C209.144 205.808 209.144 205.806 209.144 205.805C209.144 205.804 209.144 205.803 209.144 205.802C209.144 205.8 209.144 205.799 209.144 205.798C209.144 205.797 209.144 205.795 209.144 205.794C209.144 205.793 209.144 205.792 209.144 205.79C209.144 205.789 209.144 205.788 209.144 205.787C209.144 205.785 209.144 205.784 209.144 205.783C209.144 205.782 209.144 205.781 209.144 205.779C209.144 205.778 209.144 205.777 209.144 205.776C209.144 205.774 209.144 205.773 209.144 205.772C209.144 205.771 209.144 205.769 209.144 205.768C209.144 205.767 209.144 205.766 209.144 205.764C209.144 205.763 209.144 205.762 209.144 205.761C209.144 205.759 209.144 205.758 209.144 205.757C209.144 205.756 209.144 205.754 209.144 205.753C209.144 205.752 209.144 205.751 209.144 205.75C209.144 205.748 209.144 205.747 209.144 205.746C209.144 205.745 209.144 205.743 209.144 205.742C209.144 205.741 209.144 205.74 209.144 205.738C209.144 205.737 209.144 205.736 209.144 205.735C209.144 205.733 209.144 205.732 209.144 205.731C209.144 205.73 209.144 205.728 209.144 205.727C209.144 205.726 209.144 205.725 209.144 205.723C209.144 205.722 209.144 205.721 209.144 205.72C209.144 205.718 209.144 205.717 209.144 205.716C209.144 205.715 209.144 205.713 209.144 205.712C209.144 205.711 209.144 205.71 209.144 205.708C209.144 205.707 209.144 205.706 209.144 205.704C209.144 205.703 209.144 205.702 209.144 205.701C209.144 205.699 209.144 205.698 209.144 205.697C209.144 205.696 209.144 205.694 209.144 205.693C209.144 205.692 209.144 205.691 209.144 205.689C209.144 205.688 209.144 205.687 209.144 205.686C209.144 205.684 209.144 205.683 209.144 205.682C209.144 205.681 209.144 205.679 209.144 205.678C209.144 205.677 209.144 205.676 209.144 205.674C209.144 205.673 209.144 205.672 209.144 205.67C209.144 205.669 209.144 205.668 209.144 205.667C209.144 205.665 209.144 205.664 209.144 205.663C209.144 205.662 209.144 205.66 209.144 205.659C209.144 205.658 209.144 205.657 209.144 205.655C209.144 205.654 209.144 205.653 209.144 205.651C209.144 205.65 209.144 205.649 209.144 205.648C209.144 205.646 209.144 205.645 209.144 205.644C209.144 205.643 209.144 205.641 209.144 205.64C209.144 205.639 209.144 205.637 209.144 205.636C209.144 205.635 209.144 205.634 209.144 205.632C209.144 205.631 209.144 205.63 209.144 205.629C209.144 205.627 209.144 205.626 209.144 205.625C209.144 205.623 209.144 205.622 209.144 205.621C209.144 205.62 209.144 205.618 209.144 205.617C209.144 205.616 209.144 205.615 209.144 205.613C209.144 205.612 209.144 205.611 209.144 205.609C209.144 205.608 209.144 205.607 209.144 205.606C209.144 205.604 209.144 205.603 209.144 205.602C209.144 205.6 209.144 205.599 209.144 205.598C209.144 205.597 209.144 205.595 209.144 205.594C209.144 205.593 209.144 205.591 209.144 205.59C209.144 205.589 209.144 205.588 209.144 205.586C209.144 205.585 209.144 205.584 209.144 205.582C209.144 205.581 209.144 205.58 209.144 205.579C209.144 205.577 209.144 205.576 209.144 205.575C209.144 205.573 209.144 205.572 209.144 205.571C209.144 205.57 209.144 205.568 209.144 205.567C209.144 205.566 209.144 205.564 209.144 205.563C209.144 205.562 209.144 205.561 209.144 205.559C209.144 205.558 209.144 205.557 209.144 205.555C209.144 205.554 209.144 205.553 209.144 205.552C209.144 205.55 209.144 205.549 209.144 205.548C209.144 205.546 209.144 205.545 209.144 205.544C209.144 205.542 209.144 205.541 209.144 205.54C209.144 205.539 209.144 205.537 209.144 205.536C209.144 205.535 209.144 205.533 209.144 205.532C209.144 205.531 209.144 205.529 209.144 205.528C209.144 205.527 209.144 205.526 209.144 205.524C209.144 205.523 209.144 205.522 209.144 205.52C209.144 205.519 209.144 205.518 209.144 205.516C209.144 205.515 209.144 205.514 209.144 205.513C209.144 205.511 209.144 205.51 209.144 205.509C209.144 205.507 209.144 205.506 209.144 205.505C209.144 205.503 209.144 205.502 209.144 205.501C209.144 205.5 209.144 205.498 209.144 205.497C209.144 205.496 209.144 205.494 209.144 205.493C209.144 205.492 209.144 205.49 209.144 205.489C209.144 205.488 209.144 205.486 209.144 205.485C209.144 205.484 209.144 205.482 209.144 205.481C209.144 205.48 209.144 205.479 209.144 205.477C209.144 205.476 209.144 205.475 209.144 205.473C209.144 205.472 209.144 205.471 209.144 205.469C209.144 205.468 209.144 205.467 209.144 205.465C209.144 205.464 209.144 205.463 209.144 205.461C209.144 205.46 209.144 205.459 209.144 205.458C209.144 205.456 209.144 205.455 209.144 205.454C209.144 205.452 209.144 205.451 209.144 205.45C209.144 205.448 209.144 205.447 209.144 205.446C209.144 205.444 209.144 205.443 209.144 205.442C209.144 205.44 209.144 205.439 209.144 205.438C209.144 205.436 209.144 205.435 209.144 205.434C209.144 205.432 209.144 205.431 209.144 205.43C209.144 205.428 209.144 205.427 209.144 205.426C209.144 205.425 209.144 205.423 209.144 205.422C209.144 205.421 209.144 205.419 209.144 205.418C209.144 205.417 209.144 205.415 209.144 205.414C209.144 205.413 209.144 205.411 209.144 205.41C209.144 205.409 209.144 205.407 209.144 205.406C209.144 205.405 209.144 205.403 209.144 205.402C209.144 205.401 209.144 205.399 209.144 205.398C209.144 205.397 209.144 205.395 209.144 205.394C209.144 205.393 209.144 205.391 209.144 205.39C209.144 205.389 209.144 205.387 209.144 205.386C209.144 205.385 209.144 205.383 209.144 205.382C209.144 205.381 209.144 205.379 209.144 205.378C209.144 205.377 209.144 205.375 209.144 205.374C209.144 205.373 209.144 205.371 209.144 205.37C209.144 205.369 209.144 205.367 209.144 205.366C209.144 205.365 209.144 205.363 209.144 205.362C209.144 205.361 209.144 205.359 209.144 205.358C209.144 205.357 209.144 205.355 209.144 205.354C209.144 205.353 209.144 205.351 209.144 205.35C209.144 205.349 209.144 205.347 209.144 205.346C209.144 205.345 209.144 205.343 209.144 205.342C209.144 205.34 209.144 205.339 209.144 205.338C209.144 205.336 209.144 205.335 209.144 205.334C209.144 205.332 209.144 205.331 209.144 205.33C209.144 205.328 209.144 205.327 209.144 205.326C209.144 205.324 209.144 205.323 209.144 205.322C209.144 205.32 209.144 205.319 209.144 205.318C209.144 205.316 209.144 205.315 209.144 205.314C209.144 205.312 209.144 205.311 209.144 205.309C209.144 205.308 209.144 205.307 209.144 205.305C209.144 205.304 209.144 205.303 209.144 205.301C209.144 205.3 209.144 205.299 209.144 205.297C209.144 205.296 209.144 205.295 209.144 205.293C209.144 205.292 209.144 205.291 209.144 205.289C209.144 205.288 209.144 205.286 209.144 205.285C209.144 205.284 209.144 205.282 209.144 205.281C209.144 205.28 209.144 205.278 209.144 205.277C209.144 205.276 209.144 205.274 209.144 205.273C209.144 205.272 209.144 205.27 209.144 205.269C209.144 205.267 209.144 205.266 209.144 205.265C209.144 205.263 209.144 205.262 209.144 205.261C209.144 205.259 209.144 205.258 209.144 205.257C209.144 205.255 209.144 205.254 209.144 205.252C209.144 205.251 209.144 205.25 209.144 205.248C209.144 205.247 209.144 205.246 209.144 205.244C209.144 205.243 209.144 205.242 209.144 205.24C209.144 205.239 209.144 205.237 209.144 205.236C209.144 205.235 209.144 205.233 209.144 205.232C209.144 205.231 209.144 205.229 209.144 205.228C209.144 205.226 209.144 205.225 209.144 205.224C209.144 205.222 209.144 205.221 209.144 205.22C209.144 205.218 209.144 205.217 209.144 205.215C209.144 205.214 209.144 205.213 209.144 205.211C209.144 205.21 209.144 205.209 209.144 205.207C209.144 205.206 209.144 205.204 209.144 205.203C209.144 205.202 209.144 205.2 209.144 205.199C209.144 205.198 209.144 205.196 209.144 205.195C209.144 205.193 209.144 205.192 209.144 205.191C209.144 205.189 209.144 205.188 209.144 205.187C209.144 205.185 209.144 205.184 209.144 205.182C209.144 205.181 209.144 205.18 209.144 205.178C209.144 205.177 209.144 205.176 209.144 205.174C209.144 205.173 209.144 205.171 209.144 205.17C209.144 205.169 209.144 205.167 209.144 205.166C209.144 205.164 209.144 205.163 209.144 205.162C209.144 205.16 209.144 205.159 209.144 205.158C209.144 205.156 209.144 205.155 209.144 205.153C209.144 205.152 209.144 205.151 209.144 205.149C209.144 205.148 209.144 205.146 209.144 205.145C209.144 205.144 209.144 205.142 209.144 205.141C209.144 205.14 209.144 205.138 209.144 205.137C209.144 205.135 209.144 205.134 209.144 205.133C209.144 205.131 209.144 205.13 209.144 205.128C209.144 205.127 209.144 205.126 209.144 205.124C209.144 205.123 209.144 205.121 209.144 205.12C209.144 205.119 209.144 205.117 209.144 205.116C209.144 205.114 209.144 205.113 209.144 205.112C209.144 205.11 209.144 205.109 209.144 205.107C209.144 205.106 209.144 205.105 209.144 205.103C209.144 205.102 209.144 205.1 209.144 205.099C209.144 205.098 209.144 205.096 209.144 205.095C209.144 205.093 209.144 205.092 209.144 205.091C209.144 205.089 209.144 205.088 209.144 205.086C209.144 205.085 209.144 205.084 209.144 205.082C209.144 205.081 209.144 205.079 209.144 205.078C209.144 205.077 209.144 205.075 209.144 205.074C209.144 205.072 209.144 205.071 209.144 205.07C209.144 205.068 209.144 205.067 209.144 205.065C209.144 205.064 209.144 205.063 209.144 205.061C209.144 205.06 209.144 205.058 209.144 205.057C209.144 205.056 209.144 205.054 209.144 205.053C209.144 205.051 209.144 205.05 209.144 205.048C209.144 205.047 209.144 205.046 209.144 205.044C209.144 205.043 209.144 205.041 209.144 205.04C209.144 205.039 209.144 205.037 209.144 205.036C209.144 205.034 209.144 205.033 209.144 205.032C209.144 205.03 209.144 205.029 209.144 205.027C209.144 205.026 209.144 205.024 209.144 205.023C209.144 205.022 209.144 205.02 209.144 205.019C209.144 205.017 209.144 205.016 209.144 205.015C209.144 205.013 209.144 205.012 209.144 205.01C209.144 205.009 209.144 205.007 209.144 205.006C209.144 205.005 209.144 205.003 209.144 205.002C209.144 205 209.144 204.999 209.144 204.998C209.144 204.996 209.144 204.995 209.144 204.993C209.144 204.992 209.144 204.99 209.144 204.989C209.144 204.988 209.144 204.986 209.144 204.985C209.144 204.983 209.144 204.982 209.144 204.98C209.144 204.979 209.144 204.978 209.144 204.976C209.144 204.975 209.144 204.973 209.144 204.972C209.144 204.97 209.144 204.969 209.144 204.968C209.144 204.966 209.144 204.965 209.144 204.963C209.144 204.962 209.144 204.96 209.144 204.959C209.144 204.958 209.144 204.956 209.144 204.955C209.144 204.953 209.144 204.952 209.144 204.95C209.144 204.949 209.144 204.948 209.144 204.946C209.144 204.945 209.144 204.943 209.144 204.942C209.144 204.94 209.144 204.939 209.144 204.938C209.144 204.936 209.144 204.935 209.144 204.933C209.144 204.932 209.144 204.93 209.144 204.929C209.144 204.927 209.144 204.926 209.144 204.925C209.144 204.923 209.144 204.922 209.144 204.92C209.144 204.919 209.144 204.917 209.144 204.916C209.144 204.915 209.144 204.913 209.144 204.912C209.144 204.91 209.144 204.909 209.144 204.907C209.144 204.906 209.144 204.904 209.144 204.903C209.144 204.902 209.144 204.9 209.144 204.899C209.144 204.897 209.144 204.896 209.144 204.894C209.144 204.893 209.144 204.891 209.144 204.89H208.144H207.144C207.144 204.891 207.144 204.893 207.144 204.894C207.144 204.896 207.144 204.897 207.144 204.899C207.144 204.9 207.144 204.902 207.144 204.903C207.144 204.904 207.144 204.906 207.144 204.907C207.144 204.909 207.144 204.91 207.144 204.912C207.144 204.913 207.144 204.915 207.144 204.916C207.144 204.917 207.144 204.919 207.144 204.92C207.144 204.922 207.144 204.923 207.144 204.925C207.144 204.926 207.144 204.927 207.144 204.929C207.144 204.93 207.144 204.932 207.144 204.933C207.144 204.935 207.144 204.936 207.144 204.938C207.144 204.939 207.144 204.94 207.144 204.942C207.144 204.943 207.144 204.945 207.144 204.946C207.144 204.948 207.144 204.949 207.144 204.95C207.144 204.952 207.144 204.953 207.144 204.955C207.144 204.956 207.144 204.958 207.144 204.959C207.144 204.96 207.144 204.962 207.144 204.963C207.144 204.965 207.144 204.966 207.144 204.968C207.144 204.969 207.144 204.97 207.144 204.972C207.144 204.973 207.144 204.975 207.144 204.976C207.144 204.978 207.144 204.979 207.144 204.98C207.144 204.982 207.144 204.983 207.144 204.985C207.144 204.986 207.144 204.988 207.144 204.989C207.144 204.99 207.144 204.992 207.144 204.993C207.144 204.995 207.144 204.996 207.144 204.998C207.144 204.999 207.144 205 207.144 205.002C207.144 205.003 207.144 205.005 207.144 205.006C207.144 205.007 207.144 205.009 207.144 205.01C207.144 205.012 207.144 205.013 207.144 205.015C207.144 205.016 207.144 205.017 207.144 205.019C207.144 205.02 207.144 205.022 207.144 205.023C207.144 205.024 207.144 205.026 207.144 205.027C207.144 205.029 207.144 205.03 207.144 205.032C207.144 205.033 207.144 205.034 207.144 205.036C207.144 205.037 207.144 205.039 207.144 205.04C207.144 205.041 207.144 205.043 207.144 205.044C207.144 205.046 207.144 205.047 207.144 205.048C207.144 205.05 207.144 205.051 207.144 205.053C207.144 205.054 207.144 205.056 207.144 205.057C207.144 205.058 207.144 205.06 207.144 205.061C207.144 205.063 207.144 205.064 207.144 205.065C207.144 205.067 207.144 205.068 207.144 205.07C207.144 205.071 207.144 205.072 207.144 205.074C207.144 205.075 207.144 205.077 207.144 205.078C207.144 205.079 207.144 205.081 207.144 205.082C207.144 205.084 207.144 205.085 207.144 205.086C207.144 205.088 207.144 205.089 207.144 205.091C207.144 205.092 207.144 205.093 207.144 205.095C207.144 205.096 207.144 205.098 207.144 205.099C207.144 205.1 207.144 205.102 207.144 205.103C207.144 205.105 207.144 205.106 207.144 205.107C207.144 205.109 207.144 205.11 207.144 205.112C207.144 205.113 207.144 205.114 207.144 205.116C207.144 205.117 207.144 205.119 207.144 205.12C207.144 205.121 207.144 205.123 207.144 205.124C207.144 205.126 207.144 205.127 207.144 205.128C207.144 205.13 207.144 205.131 207.144 205.133C207.144 205.134 207.144 205.135 207.144 205.137C207.144 205.138 207.144 205.14 207.144 205.141C207.144 205.142 207.144 205.144 207.144 205.145C207.144 205.146 207.144 205.148 207.144 205.149C207.144 205.151 207.144 205.152 207.144 205.153C207.144 205.155 207.144 205.156 207.144 205.158C207.144 205.159 207.144 205.16 207.144 205.162C207.144 205.163 207.144 205.164 207.144 205.166C207.144 205.167 207.144 205.169 207.144 205.17C207.144 205.171 207.144 205.173 207.144 205.174C207.144 205.176 207.144 205.177 207.144 205.178C207.144 205.18 207.144 205.181 207.144 205.182C207.144 205.184 207.144 205.185 207.144 205.187C207.144 205.188 207.144 205.189 207.144 205.191C207.144 205.192 207.144 205.193 207.144 205.195C207.144 205.196 207.144 205.198 207.144 205.199C207.144 205.2 207.144 205.202 207.144 205.203C207.144 205.204 207.144 205.206 207.144 205.207C207.144 205.209 207.144 205.21 207.144 205.211C207.144 205.213 207.144 205.214 207.144 205.215C207.144 205.217 207.144 205.218 207.144 205.22C207.144 205.221 207.144 205.222 207.144 205.224C207.144 205.225 207.144 205.226 207.144 205.228C207.144 205.229 207.144 205.231 207.144 205.232C207.144 205.233 207.144 205.235 207.144 205.236C207.144 205.237 207.144 205.239 207.144 205.24C207.144 205.242 207.144 205.243 207.144 205.244C207.144 205.246 207.144 205.247 207.144 205.248C207.144 205.25 207.144 205.251 207.144 205.252C207.144 205.254 207.144 205.255 207.144 205.257C207.144 205.258 207.144 205.259 207.144 205.261C207.144 205.262 207.144 205.263 207.144 205.265C207.144 205.266 207.144 205.267 207.144 205.269C207.144 205.27 207.144 205.272 207.144 205.273C207.144 205.274 207.144 205.276 207.144 205.277C207.144 205.278 207.144 205.28 207.144 205.281C207.144 205.282 207.144 205.284 207.144 205.285C207.144 205.286 207.144 205.288 207.144 205.289C207.144 205.291 207.144 205.292 207.144 205.293C207.144 205.295 207.144 205.296 207.144 205.297C207.144 205.299 207.144 205.3 207.144 205.301C207.144 205.303 207.144 205.304 207.144 205.305C207.144 205.307 207.144 205.308 207.144 205.309C207.144 205.311 207.144 205.312 207.144 205.314C207.144 205.315 207.144 205.316 207.144 205.318C207.144 205.319 207.144 205.32 207.144 205.322C207.144 205.323 207.144 205.324 207.144 205.326C207.144 205.327 207.144 205.328 207.144 205.33C207.144 205.331 207.144 205.332 207.144 205.334C207.144 205.335 207.144 205.336 207.144 205.338C207.144 205.339 207.144 205.34 207.144 205.342C207.144 205.343 207.144 205.345 207.144 205.346C207.144 205.347 207.144 205.349 207.144 205.35C207.144 205.351 207.144 205.353 207.144 205.354C207.144 205.355 207.144 205.357 207.144 205.358C207.144 205.359 207.144 205.361 207.144 205.362C207.144 205.363 207.144 205.365 207.144 205.366C207.144 205.367 207.144 205.369 207.144 205.37C207.144 205.371 207.144 205.373 207.144 205.374C207.144 205.375 207.144 205.377 207.144 205.378C207.144 205.379 207.144 205.381 207.144 205.382C207.144 205.383 207.144 205.385 207.144 205.386C207.144 205.387 207.144 205.389 207.144 205.39C207.144 205.391 207.144 205.393 207.144 205.394C207.144 205.395 207.144 205.397 207.144 205.398C207.144 205.399 207.144 205.401 207.144 205.402C207.144 205.403 207.144 205.405 207.144 205.406C207.144 205.407 207.144 205.409 207.144 205.41C207.144 205.411 207.144 205.413 207.144 205.414C207.144 205.415 207.144 205.417 207.144 205.418C207.144 205.419 207.144 205.421 207.144 205.422C207.144 205.423 207.144 205.425 207.144 205.426C207.144 205.427 207.144 205.428 207.144 205.43C207.144 205.431 207.144 205.432 207.144 205.434C207.144 205.435 207.144 205.436 207.144 205.438C207.144 205.439 207.144 205.44 207.144 205.442C207.144 205.443 207.144 205.444 207.144 205.446C207.144 205.447 207.144 205.448 207.144 205.45C207.144 205.451 207.144 205.452 207.144 205.454C207.144 205.455 207.144 205.456 207.144 205.458C207.144 205.459 207.144 205.46 207.144 205.461C207.144 205.463 207.144 205.464 207.144 205.465C207.144 205.467 207.144 205.468 207.144 205.469C207.144 205.471 207.144 205.472 207.144 205.473C207.144 205.475 207.144 205.476 207.144 205.477C207.144 205.479 207.144 205.48 207.144 205.481C207.144 205.482 207.144 205.484 207.144 205.485C207.144 205.486 207.144 205.488 207.144 205.489C207.144 205.49 207.144 205.492 207.144 205.493C207.144 205.494 207.144 205.496 207.144 205.497C207.144 205.498 207.144 205.5 207.144 205.501C207.144 205.502 207.144 205.503 207.144 205.505C207.144 205.506 207.144 205.507 207.144 205.509C207.144 205.51 207.144 205.511 207.144 205.513C207.144 205.514 207.144 205.515 207.144 205.516C207.144 205.518 207.144 205.519 207.144 205.52C207.144 205.522 207.144 205.523 207.144 205.524C207.144 205.526 207.144 205.527 207.144 205.528C207.144 205.529 207.144 205.531 207.144 205.532C207.144 205.533 207.144 205.535 207.144 205.536C207.144 205.537 207.144 205.539 207.144 205.54C207.144 205.541 207.144 205.542 207.144 205.544C207.144 205.545 207.144 205.546 207.144 205.548C207.144 205.549 207.144 205.55 207.144 205.552C207.144 205.553 207.144 205.554 207.144 205.555C207.144 205.557 207.144 205.558 207.144 205.559C207.144 205.561 207.144 205.562 207.144 205.563C207.144 205.564 207.144 205.566 207.144 205.567C207.144 205.568 207.144 205.57 207.144 205.571C207.144 205.572 207.144 205.573 207.144 205.575C207.144 205.576 207.144 205.577 207.144 205.579C207.144 205.58 207.144 205.581 207.144 205.582C207.144 205.584 207.144 205.585 207.144 205.586C207.144 205.588 207.144 205.589 207.144 205.59C207.144 205.591 207.144 205.593 207.144 205.594C207.144 205.595 207.144 205.597 207.144 205.598C207.144 205.599 207.144 205.6 207.144 205.602C207.144 205.603 207.144 205.604 207.144 205.606C207.144 205.607 207.144 205.608 207.144 205.609C207.144 205.611 207.144 205.612 207.144 205.613C207.144 205.615 207.144 205.616 207.144 205.617C207.144 205.618 207.144 205.62 207.144 205.621C207.144 205.622 207.144 205.623 207.144 205.625C207.144 205.626 207.144 205.627 207.144 205.629C207.144 205.63 207.144 205.631 207.144 205.632C207.144 205.634 207.144 205.635 207.144 205.636C207.144 205.637 207.144 205.639 207.144 205.64C207.144 205.641 207.144 205.643 207.144 205.644C207.144 205.645 207.144 205.646 207.144 205.648C207.144 205.649 207.144 205.65 207.144 205.651C207.144 205.653 207.144 205.654 207.144 205.655C207.144 205.657 207.144 205.658 207.144 205.659C207.144 205.66 207.144 205.662 207.144 205.663C207.144 205.664 207.144 205.665 207.144 205.667C207.144 205.668 207.144 205.669 207.144 205.67C207.144 205.672 207.144 205.673 207.144 205.674C207.144 205.676 207.144 205.677 207.144 205.678C207.144 205.679 207.144 205.681 207.144 205.682C207.144 205.683 207.144 205.684 207.144 205.686C207.144 205.687 207.144 205.688 207.144 205.689C207.144 205.691 207.144 205.692 207.144 205.693C207.144 205.694 207.144 205.696 207.144 205.697C207.144 205.698 207.144 205.699 207.144 205.701C207.144 205.702 207.144 205.703 207.144 205.704C207.144 205.706 207.144 205.707 207.144 205.708C207.144 205.71 207.144 205.711 207.144 205.712C207.144 205.713 207.144 205.715 207.144 205.716C207.144 205.717 207.144 205.718 207.144 205.72C207.144 205.721 207.144 205.722 207.144 205.723C207.144 205.725 207.144 205.726 207.144 205.727C207.144 205.728 207.144 205.73 207.144 205.731C207.144 205.732 207.144 205.733 207.144 205.735C207.144 205.736 207.144 205.737 207.144 205.738C207.144 205.74 207.144 205.741 207.144 205.742C207.144 205.743 207.144 205.745 207.144 205.746C207.144 205.747 207.144 205.748 207.144 205.75C207.144 205.751 207.144 205.752 207.144 205.753C207.144 205.754 207.144 205.756 207.144 205.757C207.144 205.758 207.144 205.759 207.144 205.761C207.144 205.762 207.144 205.763 207.144 205.764C207.144 205.766 207.144 205.767 207.144 205.768C207.144 205.769 207.144 205.771 207.144 205.772C207.144 205.773 207.144 205.774 207.144 205.776C207.144 205.777 207.144 205.778 207.144 205.779C207.144 205.781 207.144 205.782 207.144 205.783C207.144 205.784 207.144 205.785 207.144 205.787C207.144 205.788 207.144 205.789 207.144 205.79C207.144 205.792 207.144 205.793 207.144 205.794C207.144 205.795 207.144 205.797 207.144 205.798C207.144 205.799 207.144 205.8 207.144 205.802C207.144 205.803 207.144 205.804 207.144 205.805C207.144 205.806 207.144 205.808 207.144 205.809C207.144 205.81 207.144 205.811 207.144 205.813C207.144 205.814 207.144 205.815 207.144 205.816C207.144 205.818 207.144 205.819 207.144 205.82C207.144 205.821 207.144 205.822 207.144 205.824C207.144 205.825 207.144 205.826 207.144 205.827C207.144 205.829 207.144 205.83 207.144 205.831C207.144 205.832 207.144 205.833 207.144 205.835C207.144 205.836 207.144 205.837 207.144 205.838C207.144 205.84 207.144 205.841 207.144 205.842C207.144 205.843 207.144 205.844 207.144 205.846C207.144 205.847 207.144 205.848 207.144 205.849C207.144 205.851 207.144 205.852 207.144 205.853C207.144 205.854 207.144 205.855 207.144 205.857C207.144 205.858 207.144 205.859 207.144 205.86C207.144 205.862 207.144 205.863 207.144 205.864C207.144 205.865 207.144 205.866 207.144 205.868C207.144 205.869 207.144 205.87 207.144 205.871C207.144 205.872 207.144 205.874 207.144 205.875C207.144 205.876 207.144 205.877 207.144 205.879C207.144 205.88 207.144 205.881 207.144 205.882C207.144 205.883 207.144 205.885 207.144 205.886C207.144 205.887 207.144 205.888 207.144 205.889C207.144 205.891 207.144 205.892 207.144 205.893C207.144 205.894 207.144 205.895 207.144 205.897C207.144 205.898 207.144 205.899 207.144 205.9C207.144 205.901 207.144 205.903 207.144 205.904C207.144 205.905 207.144 205.906 207.144 205.908C207.144 205.909 207.144 205.91 207.144 205.911C207.144 205.912 207.144 205.914 207.144 205.915C207.144 205.916 207.144 205.917 207.144 205.918C207.144 205.92 207.144 205.921 207.144 205.922C207.144 205.923 207.144 205.924 207.144 205.926C207.144 205.927 207.144 205.928 207.144 205.929C207.144 205.93 207.144 205.932 207.144 205.933C207.144 205.934 207.144 205.935 207.144 205.936C207.144 205.938 207.144 205.939 207.144 205.94C207.144 205.941 207.144 205.942 207.144 205.943C207.144 205.945 207.144 205.946 207.144 205.947C207.144 205.948 207.144 205.949 207.144 205.951C207.144 205.952 207.144 205.953 207.144 205.954C207.144 205.955 207.144 205.957 207.144 205.958C207.144 205.959 207.144 205.96 207.144 205.961C207.144 205.963 207.144 205.964 207.144 205.965C207.144 205.966 207.144 205.967 207.144 205.969C207.144 205.97 207.144 205.971 207.144 205.972C207.144 205.973 207.144 205.974 207.144 205.976C207.144 205.977 207.144 205.978 207.144 205.979C207.144 205.98 207.144 205.982 207.144 205.983C207.144 205.984 207.144 205.985 207.144 205.986C207.144 205.987 207.144 205.989 207.144 205.99C207.144 205.991 207.144 205.992 207.144 205.993C207.144 205.995 207.144 205.996 207.144 205.997C207.144 205.998 207.144 205.999 207.144 206C207.144 206.002 207.144 206.003 207.144 206.004C207.144 206.005 207.144 206.006 207.144 206.008C207.144 206.009 207.144 206.01 207.144 206.011C207.144 206.012 207.144 206.013 207.144 206.015C207.144 206.016 207.144 206.017 207.144 206.018C207.144 206.019 207.144 206.021 207.144 206.022C207.144 206.023 207.144 206.024 207.144 206.025C207.144 206.026 207.144 206.028 207.144 206.029C207.144 206.03 207.144 206.031 207.144 206.032C207.144 206.033 207.144 206.035 207.144 206.036C207.144 206.037 207.144 206.038 207.144 206.039C207.144 206.04 207.144 206.042 207.144 206.043C207.144 206.044 207.144 206.045 207.144 206.046C207.144 206.047 207.144 206.049 207.144 206.05C207.144 206.051 207.144 206.052 207.144 206.053C207.144 206.054 207.144 206.056 207.144 206.057C207.144 206.058 207.144 206.059 207.144 206.06C207.144 206.061 207.144 206.063 207.144 206.064C207.144 206.065 207.144 206.066 207.144 206.067C207.144 206.068 207.144 206.07 207.144 206.071C207.144 206.072 207.144 206.073 207.144 206.074C207.144 206.075 207.144 206.077 207.144 206.078C207.144 206.079 207.144 206.08 207.144 206.081C207.144 206.082 207.144 206.083 207.144 206.085C207.144 206.086 207.144 206.087 207.144 206.088C207.144 206.089 207.144 206.09 207.144 206.092C207.144 206.093 207.144 206.094 207.144 206.095C207.144 206.096 207.144 206.097 207.144 206.099C207.144 206.1 207.144 206.101 207.144 206.102C207.144 206.103 207.144 206.104 207.144 206.105C207.144 206.107 207.144 206.108 207.144 206.109C207.144 206.11 207.144 206.111 207.144 206.112C207.144 206.113 207.144 206.115 207.144 206.116C207.144 206.117 207.144 206.118 207.144 206.119C207.144 206.12 207.144 206.122 207.144 206.123C207.144 206.124 207.144 206.125 207.144 206.126C207.144 206.127 207.144 206.128 207.144 206.13C207.144 206.131 207.144 206.132 207.144 206.133C207.144 206.134 207.144 206.135 207.144 206.136C207.144 206.138 207.144 206.139 207.144 206.14C207.144 206.141 207.144 206.142 207.144 206.143C207.144 206.144 207.144 206.146 207.144 206.147C207.144 206.148 207.144 206.149 207.144 206.15C207.144 206.151 207.144 206.152 207.144 206.154C207.144 206.155 207.144 206.156 207.144 206.157C207.144 206.158 207.144 206.159 207.144 206.16C207.144 206.161 207.144 206.163 207.144 206.164C207.144 206.165 207.144 206.166 207.144 206.167C207.144 206.168 207.144 206.169 207.144 206.171C207.144 206.172 207.144 206.173 207.144 206.174C207.144 206.175 207.144 206.176 207.144 206.177C207.144 206.178 207.144 206.18 207.144 206.181C207.144 206.182 207.144 206.183 207.144 206.184C207.144 206.185 207.144 206.186 207.144 206.188C207.144 206.189 207.144 206.19 207.144 206.191C207.144 206.192 207.144 206.193 207.144 206.194C207.144 206.195 207.144 206.197 207.144 206.198C207.144 206.199 207.144 206.2 207.144 206.201C207.144 206.202 207.144 206.203 207.144 206.204C207.144 206.206 207.144 206.207 207.144 206.208C207.144 206.209 207.144 206.21 207.144 206.211C207.144 206.212 207.144 206.213 207.144 206.215C207.144 206.216 207.144 206.217 207.144 206.218C207.144 206.219 207.144 206.22 207.144 206.221C207.144 206.222 207.144 206.224 207.144 206.225C207.144 206.226 207.144 206.227 207.144 206.228C207.144 206.229 207.144 206.23 207.144 206.231C207.144 206.232 207.144 206.234 207.144 206.235C207.144 206.236 207.144 206.237 207.144 206.238C207.144 206.239 207.144 206.24 207.144 206.241C207.144 206.242 207.144 206.244 207.144 206.245C207.144 206.246 207.144 206.247 207.144 206.248C207.144 206.249 207.144 206.25 207.144 206.251C207.144 206.253 207.144 206.254 207.144 206.255C207.144 206.256 207.144 206.257 207.144 206.258C207.144 206.259 207.144 206.26 207.144 206.261C207.144 206.262 207.144 206.264 207.144 206.265C207.144 206.266 207.144 206.267 207.144 206.268C207.144 206.269 207.144 206.27 207.144 206.271C207.144 206.272 207.144 206.274 207.144 206.275C207.144 206.276 207.144 206.277 207.144 206.278C207.144 206.279 207.144 206.28 207.144 206.281C207.144 206.282 207.144 206.283 207.144 206.285C207.144 206.286 207.144 206.287 207.144 206.288C207.144 206.289 207.144 206.29 207.144 206.291C207.144 206.292 207.144 206.293 207.144 206.294C207.144 206.296 207.144 206.297 207.144 206.298C207.144 206.299 207.144 206.3 207.144 206.301C207.144 206.302 207.144 206.303 207.144 206.304C207.144 206.305 207.144 206.307 207.144 206.308C207.144 206.309 207.144 206.31 207.144 206.311C207.144 206.312 207.144 206.313 207.144 206.314C207.144 206.315 207.144 206.316 207.144 206.318C207.144 206.319 207.144 206.32 207.144 206.321C207.144 206.322 207.144 206.323 207.144 206.324C207.144 206.325 207.144 206.326 207.144 206.327C207.144 206.328 207.144 206.329 207.144 206.331C207.144 206.332 207.144 206.333 207.144 206.334C207.144 206.335 207.144 206.336 207.144 206.337C207.144 206.338 207.144 206.339 207.144 206.34C207.144 206.341 207.144 206.343 207.144 206.344C207.144 206.345 207.144 206.346 207.144 206.347C207.144 206.348 207.144 206.349 207.144 206.35C207.144 206.351 207.144 206.352 207.144 206.353C207.144 206.354 207.144 206.356 207.144 206.357C207.144 206.358 207.144 206.359 207.144 206.36C207.144 206.361 207.144 206.362 207.144 206.363C207.144 206.364 207.144 206.365 207.144 206.366C207.144 206.367 207.144 206.368 207.144 206.37C207.144 206.371 207.144 206.372 207.144 206.373C207.144 206.374 207.144 206.375 207.144 206.376C207.144 206.377 207.144 206.378 207.144 206.379C207.144 206.38 207.144 206.381 207.144 206.382C207.144 206.384 207.144 206.385 207.144 206.386C207.144 206.387 207.144 206.388 207.144 206.389C207.144 206.39 207.144 206.391 207.144 206.392C207.144 206.393 207.144 206.394 207.144 206.395C207.144 206.396 207.144 206.397 207.144 206.399C207.144 206.4 207.144 206.401 207.144 206.402C207.144 206.403 207.144 206.404 207.144 206.405C207.144 206.406 207.144 206.407 207.144 206.408C207.144 206.409 207.144 206.41 207.144 206.411C207.144 206.412 207.144 206.413 207.144 206.415C207.144 206.416 207.144 206.417 207.144 206.418C207.144 206.419 207.144 206.42 207.144 206.421C207.144 206.422 207.144 206.423 207.144 206.424C207.144 206.425 207.144 206.426 207.144 206.427C207.144 206.428 207.144 206.429 207.144 206.43C207.144 206.432 207.144 206.433 207.144 206.434C207.144 206.435 207.144 206.436 207.144 206.437C207.144 206.438 207.144 206.439 207.144 206.44C207.144 206.441 207.144 206.442 207.144 206.443C207.144 206.444 207.144 206.445 207.144 206.446C207.144 206.447 207.144 206.448 207.144 206.449C207.144 206.451 207.144 206.452 207.144 206.453C207.144 206.454 207.144 206.455 207.144 206.456C207.144 206.457 207.144 206.458 207.144 206.459C207.144 206.46 207.144 206.461 207.144 206.462C207.144 206.463 207.144 206.464 207.144 206.465C207.144 206.466 207.144 206.467 207.144 206.468C207.144 206.469 207.144 206.471 207.144 206.472C207.144 206.473 207.144 206.474 207.144 206.475C207.144 206.476 207.144 206.477 207.144 206.478C207.144 206.479 207.144 206.48 207.144 206.481C207.144 206.482 207.144 206.483 207.144 206.484C207.144 206.485 207.144 206.486 207.144 206.487C207.144 206.488 207.144 206.489 207.144 206.49C207.144 206.491 207.144 206.492 207.144 206.493C207.144 206.495 207.144 206.496 207.144 206.497C207.144 206.498 207.144 206.499 207.144 206.5C207.144 206.501 207.144 206.502 207.144 206.503C207.144 206.504 207.144 206.505 207.144 206.506C207.144 206.507 207.144 206.508 207.144 206.509C207.144 206.51 207.144 206.511 207.144 206.512C207.144 206.513 207.144 206.514 207.144 206.515C207.144 206.516 207.144 206.517 207.144 206.518C207.144 206.519 207.144 206.52 207.144 206.521C207.144 206.522 207.144 206.524 207.144 206.525C207.144 206.526 207.144 206.527 207.144 206.528C207.144 206.529 207.144 206.53 207.144 206.531C207.144 206.532 207.144 206.533 207.144 206.534C207.144 206.535 207.144 206.536 207.144 206.537C207.144 206.538 207.144 206.539 207.144 206.54C207.144 206.541 207.144 206.542 207.144 206.543C207.144 206.544 207.144 206.545 207.144 206.546C207.144 206.547 207.144 206.548 207.144 206.549C207.144 206.55 207.144 206.551 207.144 206.552C207.144 206.553 207.144 206.554 207.144 206.555C207.144 206.556 207.144 206.557 207.144 206.558C207.144 206.559 207.144 206.56 207.144 206.561C207.144 206.562 207.144 206.564 207.144 206.565C207.144 206.566 207.144 206.567 207.144 206.568C207.144 206.569 207.144 206.57 207.144 206.571C207.144 206.572 207.144 206.573 207.144 206.574C207.144 206.575 207.144 206.576 207.144 206.577C207.144 206.578 207.144 206.579 207.144 206.58C207.144 206.581 207.144 206.582 207.144 206.583C207.144 206.584 207.144 206.585 207.144 206.586C207.144 206.587 207.144 206.588 207.144 206.589C207.144 206.59 207.144 206.591 207.144 206.592C207.144 206.593 207.144 206.594 207.144 206.595C207.144 206.596 207.144 206.597 207.144 206.598C207.144 206.599 207.144 206.6 207.144 206.601C207.144 206.602 207.144 206.603 207.144 206.604C207.144 206.605 207.144 206.606 207.144 206.607C207.144 206.608 207.144 206.609 207.144 206.61C207.144 206.611 207.144 206.612 207.144 206.613C207.144 206.614 207.144 206.615 207.144 206.616C207.144 206.617 207.144 206.618 207.144 206.619C207.144 206.62 207.144 206.621 207.144 206.622C207.144 206.623 207.144 206.624 207.144 206.625C207.144 206.626 207.144 206.627 207.144 206.628C207.144 206.629 207.144 206.63 207.144 206.631C207.144 206.632 207.144 206.633 207.144 206.634C207.144 206.635 207.144 206.636 207.144 206.637C207.144 206.638 207.144 206.639 207.144 206.64C207.144 206.641 207.144 206.642 207.144 206.643C207.144 206.644 207.144 206.645 207.144 206.646C207.144 206.647 207.144 206.648 207.144 206.649C207.144 206.65 207.144 206.651 207.144 206.652C207.144 206.653 207.144 206.654 207.144 206.655C207.144 206.656 207.144 206.657 207.144 206.658C207.144 206.659 207.144 206.66 207.144 206.661C207.144 206.662 207.144 206.663 207.144 206.664C207.144 206.665 207.144 206.666 207.144 206.667C207.144 206.668 207.144 206.669 207.144 206.67C207.144 206.671 207.144 206.672 207.144 206.673C207.144 206.674 207.144 206.675 207.144 206.676C207.144 206.677 207.144 206.678 207.144 206.679C207.144 206.68 207.144 206.681 207.144 206.682C207.144 206.683 207.144 206.684 207.144 206.685C207.144 206.686 207.144 206.687 207.144 206.688C207.144 206.689 207.144 206.689 207.144 206.69C207.144 206.691 207.144 206.692 207.144 206.693C207.144 206.694 207.144 206.695 207.144 206.696C207.144 206.697 207.144 206.698 207.144 206.699C207.144 206.7 207.144 206.701 207.144 206.702C207.144 206.703 207.144 206.704 207.144 206.705C207.144 206.706 207.144 206.707 207.144 206.708C207.144 206.709 207.144 206.71 207.144 206.711C207.144 206.712 207.144 206.713 207.144 206.714C207.144 206.715 207.144 206.716 207.144 206.717C207.144 206.718 207.144 206.719 207.144 206.72C207.144 206.721 207.144 206.722 207.144 206.723C207.144 206.724 207.144 206.725 207.144 206.726C207.144 206.726 207.144 206.727 207.144 206.728C207.144 206.729 207.144 206.73 207.144 206.731C207.144 206.732 207.144 206.733 207.144 206.734C207.144 206.735 207.144 206.736 207.144 206.737C207.144 206.738 207.144 206.739 207.144 206.74H208.144ZM208.144 204.89L209.092 205.206C209.339 204.466 209.586 203.726 209.832 202.986L208.884 202.67L207.935 202.354C207.688 203.094 207.442 203.834 207.195 204.574L208.144 204.89ZM208.884 202.67L209.812 203.041C213.196 194.582 219.631 185.692 229.192 176.376L228.494 175.66L227.796 174.944C218.117 184.375 211.478 193.491 207.955 202.299L208.884 202.67ZM228.494 175.66L229.182 176.385C238.971 167.086 251.97 157.882 268.203 148.782L267.714 147.91L267.225 147.038C250.897 156.191 237.749 165.488 227.805 174.935L228.494 175.66ZM267.714 147.91L268.197 148.786C282.496 140.896 296.794 133.254 311.093 125.858L310.634 124.97L310.174 124.082C295.86 131.486 281.545 139.137 267.231 147.034L267.714 147.91ZM310.634 124.97L311.093 125.858C325.414 118.451 339.611 110.673 353.685 102.525L353.184 101.66L352.683 100.795C338.636 108.927 324.467 116.689 310.174 124.082L310.634 124.97ZM353.184 101.66L353.686 102.525C369.032 93.6139 380.963 84.5516 389.44 75.3266L388.704 74.65L387.967 73.9734C379.671 83.0017 367.922 91.9461 352.682 100.795L353.184 101.66ZM388.704 74.65L389.449 75.3168C397.911 65.8592 403.083 56.574 404.855 47.4609L403.874 47.27L402.892 47.0791C401.211 55.726 396.27 64.6942 387.958 73.9832L388.704 74.65ZM403.874 47.27L404.854 47.4661C405.609 43.6949 405.984 39.682 405.984 35.43H404.984H403.984C403.984 39.5647 403.619 43.4451 402.893 47.0739L403.874 47.27ZM404.984 35.43H405.984C405.984 25.1437 403.221 17.2503 397.525 11.9434C391.844 6.64887 383.414 4.08998 372.424 4.08998V5.08998V6.08998C383.14 6.08998 390.991 8.58777 396.162 13.4066C401.32 18.213 403.984 25.4896 403.984 35.43H404.984ZM372.424 5.08998V4.08998C340.89 4.08998 311.397 23.1219 283.926 60.7402L284.734 61.33L285.541 61.9197C312.83 24.5514 341.798 6.08998 372.424 6.08998V5.08998ZM284.734 61.33L283.922 60.7454C271.808 77.5576 265.604 91.5884 265.604 102.77H266.604H267.604C267.604 92.2449 273.486 78.6491 285.545 61.9146L284.734 61.33ZM266.604 102.77H265.604C265.604 108.436 267.485 112.834 271.364 115.777C275.191 118.68 280.812 120.05 288.064 120.05V119.05V118.05C281.008 118.05 275.9 116.707 272.573 114.183C269.299 111.699 267.604 107.957 267.604 102.77H266.604ZM288.064 119.05V120.05C302.193 120.05 317.947 113.244 335.294 99.8618L334.684 99.07L334.073 98.2782C316.887 111.536 301.561 118.05 288.064 118.05V119.05ZM334.684 99.07L335.307 99.8519C353.615 85.2553 363.064 71.3066 363.064 58H362.064H361.064C361.064 70.3467 352.259 83.778 334.06 98.2881L334.684 99.07ZM362.064 58H363.064C363.064 55.482 362.431 53.2458 361.134 51.3335C359.84 49.4273 357.928 47.9043 355.462 46.7363L355.034 47.64L354.606 48.5437C356.826 49.5957 358.429 50.9094 359.479 52.4565C360.524 53.9975 361.064 55.8313 361.064 58H362.064ZM355.034 47.64L355.588 46.8079C355.275 46.5988 355.095 46.4254 355.001 46.3C354.913 46.1825 354.924 46.1412 354.924 46.16H353.924H352.924C352.924 47.1842 353.679 47.9384 354.479 48.472L355.034 47.64ZM353.924 46.16H354.924C354.924 45.8874 354.998 45.8413 355.011 45.8309C355.067 45.7863 355.264 45.68 355.774 45.68V44.68V43.68C355.05 43.68 354.322 43.8203 353.762 44.2691C353.158 44.752 352.924 45.446 352.924 46.16H353.924ZM355.774 44.68V45.68C358.275 45.68 360.323 46.9928 361.923 49.9641L362.804 49.49L363.684 49.0159C361.831 45.5739 359.192 43.68 355.774 43.68V44.68ZM362.804 49.49L361.946 50.0045C363.323 52.2984 364.024 54.9532 364.024 58H365.024H366.024C366.024 54.6334 365.245 51.6149 363.661 48.9755L362.804 49.49ZM365.024 58H364.024C364.024 73.6049 355.276 88.1421 337.412 101.601L338.014 102.4L338.615 103.199C356.765 89.5246 366.024 74.4617 366.024 58H365.024ZM338.014 102.4L337.399 101.611C320.75 114.587 304.311 121.01 288.064 121.01V122.01V123.01C304.87 123.01 321.73 116.359 338.628 103.189L338.014 102.4ZM288.064 122.01V121.01C276.855 121.01 268.635 118.389 263.217 113.324C257.811 108.272 255.024 100.625 255.024 90.19H254.024H253.024C253.024 100.969 255.91 109.232 261.851 114.786C267.779 120.327 276.579 123.01 288.064 123.01V122.01ZM254.024 90.19H255.024C255.024 79.0632 258.405 69.038 265.181 60.0834L264.384 59.48L263.586 58.8765C256.549 68.1753 253.024 78.6234 253.024 90.19H254.024ZM264.384 59.48L265.204 60.0518C276.446 43.9224 292.226 30.4549 312.582 19.6635L312.114 18.78L311.645 17.8965C291.055 28.8118 275.015 42.4775 263.563 58.9082L264.384 59.48ZM312.114 18.78L312.594 19.6571C322.896 14.0154 332.937 9.85406 342.719 7.1642L342.454 6.19999L342.189 5.23579C332.237 7.97257 322.051 12.1979 311.633 17.9029L312.114 18.78ZM342.454 6.19999L342.735 7.15973C352.763 4.22462 362.658 2.75998 372.424 2.75998V1.75998V0.759979C362.456 0.759979 352.371 2.25536 342.173 5.24026L342.454 6.19999ZM372.424 1.75998V2.75998C387.029 2.75998 399.384 6.77173 409.546 14.7563L410.164 13.97L410.782 13.1837C400.224 4.88824 387.419 0.759979 372.424 0.759979V1.75998ZM410.164 13.97L409.566 14.772C420.909 23.219 426.554 34.3931 426.554 48.38H427.554H428.554C428.554 33.7535 422.605 21.9877 410.761 13.1679L410.164 13.97ZM427.554 48.38H426.554C426.554 63.4158 416.049 78.4482 394.424 93.4381L394.994 94.26L395.563 95.0818C417.352 79.9785 428.554 64.4242 428.554 48.38H427.554ZM394.994 94.26L394.423 93.4391C388.786 97.36 381.541 101.782 372.678 106.706L373.164 107.58L373.649 108.454C382.546 103.511 389.854 99.0534 395.565 95.0809L394.994 94.26ZM373.164 107.58L372.687 106.701C364.078 111.374 353.616 116.544 341.296 122.212L341.714 123.12L342.132 124.028C354.478 118.349 364.982 113.159 373.641 108.459L373.164 107.58ZM341.714 123.12L341.3 122.21C335.873 124.676 329.09 127.76 320.95 131.46L321.364 132.37L321.777 133.28C329.917 129.58 336.701 126.497 342.128 124.03L341.714 123.12ZM321.364 132.37L320.95 131.46C312.81 135.16 303.313 139.476 292.46 144.41L292.874 145.32L293.287 146.23C304.141 141.297 313.637 136.98 321.777 133.28L321.364 132.37ZM292.874 145.32L292.469 144.405C279.623 150.087 268.496 155.527 259.09 160.725L259.574 161.6L260.057 162.475C269.398 157.313 280.471 151.899 293.278 146.235L292.874 145.32ZM259.574 161.6L259.108 160.715C249.708 165.662 241.895 170.373 235.679 174.848L236.264 175.66L236.848 176.472C242.965 172.067 250.693 167.404 260.039 162.485L259.574 161.6ZM236.264 175.66L236.818 176.492C239.664 174.595 242.311 173.7 244.774 173.7V172.7V171.7C241.81 171.7 238.783 172.779 235.709 174.828L236.264 175.66ZM244.774 172.7V173.7C251.135 173.7 257.498 174.189 263.862 175.168L264.014 174.18L264.166 173.192C257.703 172.197 251.239 171.7 244.774 171.7V172.7ZM264.014 174.18L263.903 175.174C270.502 175.907 277.104 177.252 283.71 179.209L283.994 178.25L284.278 177.291C277.563 175.302 270.845 173.933 264.124 173.186L264.014 174.18ZM283.994 178.25L283.788 179.229C288.438 180.208 292.964 181.431 297.367 182.899L297.684 181.95L298 181.001C293.523 179.509 288.923 178.266 284.2 177.271L283.994 178.25ZM297.684 181.95L297.367 182.899C301.829 184.386 306.412 185.748 311.119 186.987L311.374 186.02L311.628 185.053C306.962 183.825 302.419 182.474 298 181.001L297.684 181.95ZM311.374 186.02L311.111 186.985C322.017 189.959 331.483 191.46 339.494 191.46V190.46V189.46C331.718 189.46 322.438 188.001 311.637 185.055L311.374 186.02ZM339.494 190.46V191.46C353.884 191.46 364.855 188.984 372.251 183.883C379.715 178.736 383.414 171.004 383.414 160.86H382.414H381.414C381.414 170.45 377.959 177.518 371.116 182.237C364.206 187.002 353.716 189.46 339.494 189.46V190.46ZM382.414 160.86H383.414C383.414 159.324 383.286 157.789 383.03 156.256L382.044 156.42L381.057 156.584C381.295 158.011 381.414 159.436 381.414 160.86H382.414ZM382.044 156.42L383.03 156.256C382.765 154.668 382.238 153.093 381.458 151.533L380.564 151.98L379.669 152.427C380.369 153.827 380.829 155.212 381.057 156.584L382.044 156.42ZM380.564 151.98L381.512 151.664C381.009 150.153 380.482 148.945 379.916 148.095L379.084 148.65L378.252 149.205C378.672 149.835 379.132 150.847 379.615 152.296L380.564 151.98ZM379.084 148.65L380.032 148.334C380.031 148.33 380.031 148.329 380.029 148.325C380.024 148.309 380.032 148.333 380.027 148.316C380.026 148.315 380.026 148.314 380.025 148.312C380.025 148.311 380.024 148.309 380.024 148.308C380.023 148.306 380.023 148.305 380.022 148.304C380.022 148.302 380.021 148.301 380.021 148.299C380.018 148.29 380.021 148.3 380.018 148.291C380.018 148.289 380.017 148.288 380.017 148.287C380.016 148.285 380.016 148.284 380.015 148.282C380.014 148.278 380.014 148.279 380.012 148.274C380.008 148.26 380.014 148.279 380.01 148.265C380.007 148.256 380.007 148.258 380.004 148.249C379.995 148.221 380.008 148.26 379.999 148.232C379.996 148.224 379.999 148.232 379.996 148.224C379.995 148.223 379.995 148.221 379.994 148.22C379.994 148.218 379.993 148.217 379.993 148.216C379.993 148.214 379.992 148.213 379.992 148.212C379.991 148.21 379.991 148.209 379.99 148.207C379.985 148.193 379.992 148.214 379.988 148.199C379.96 148.116 379.973 148.155 379.946 148.074C379.937 148.048 379.949 148.084 379.941 148.059C379.938 148.05 379.938 148.052 379.936 148.044C379.931 148.03 379.93 148.027 379.926 148.014C379.91 147.966 379.932 148.033 379.916 147.985C379.916 147.984 379.915 147.983 379.915 147.981C379.915 147.98 379.914 147.979 379.914 147.978C379.913 147.977 379.913 147.975 379.913 147.974C379.912 147.973 379.912 147.972 379.911 147.971C379.911 147.97 379.911 147.968 379.91 147.967C379.91 147.966 379.909 147.965 379.909 147.964C379.909 147.962 379.908 147.961 379.908 147.96C379.907 147.959 379.907 147.958 379.907 147.957C379.891 147.91 379.913 147.975 379.897 147.929C379.893 147.916 379.892 147.913 379.888 147.901C379.885 147.892 379.887 147.897 379.884 147.888C379.878 147.872 379.885 147.891 379.879 147.874C379.865 147.833 379.884 147.889 379.87 147.848C379.841 147.76 379.866 147.833 379.837 147.748C379.818 147.69 379.841 147.759 379.822 147.702C379.817 147.687 379.812 147.672 379.807 147.657C379.806 147.653 379.794 147.618 379.793 147.615C379.793 147.614 379.792 147.613 379.792 147.613C379.792 147.612 379.791 147.611 379.791 147.61C379.791 147.609 379.791 147.608 379.79 147.607C379.79 147.607 379.79 147.606 379.789 147.605C379.789 147.604 379.789 147.603 379.789 147.602C379.788 147.601 379.788 147.601 379.788 147.6C379.787 147.599 379.787 147.598 379.787 147.597C379.787 147.596 379.786 147.596 379.786 147.595C379.783 147.586 379.782 147.584 379.779 147.575C379.776 147.564 379.757 147.509 379.755 147.501C379.754 147.497 379.753 147.496 379.752 147.493C379.747 147.479 379.754 147.498 379.749 147.484C379.745 147.471 379.748 147.481 379.744 147.468C379.729 147.423 379.748 147.48 379.733 147.436C379.729 147.423 379.718 147.39 379.714 147.38C379.703 147.345 379.693 147.316 379.685 147.293C379.682 147.283 379.686 147.294 379.683 147.285C379.683 147.284 379.681 147.281 379.681 147.281C379.681 147.279 379.681 147.281 379.681 147.279C379.681 147.278 379.68 147.278 379.68 147.278C379.68 147.277 379.68 147.277 379.68 147.277C379.68 147.276 379.679 147.274 379.679 147.273C379.678 147.271 379.679 147.274 379.678 147.271C379.678 147.271 379.678 147.271 379.678 147.27C379.678 147.27 379.678 147.27 379.678 147.27C379.676 147.266 379.677 147.267 379.675 147.263C379.666 147.235 379.676 147.266 379.668 147.241C379.666 147.233 379.668 147.241 379.666 147.234C379.665 147.232 379.665 147.232 379.665 147.231C379.664 147.23 379.664 147.23 379.664 147.229C379.664 147.229 379.664 147.229 379.664 147.229C379.664 147.229 379.664 147.229 379.664 147.229C379.664 147.229 379.664 147.228 379.664 147.228C379.664 147.228 379.664 147.228 379.664 147.228C379.664 147.227 379.663 147.227 379.663 147.226C379.663 147.225 379.663 147.225 379.663 147.225C379.663 147.225 379.663 147.224 379.663 147.224C379.663 147.224 379.663 147.224 379.663 147.224C379.663 147.224 379.663 147.224 379.663 147.224C379.662 147.224 379.662 147.224 379.662 147.224C379.662 147.224 379.662 147.224 379.662 147.224C379.662 147.224 379.662 147.224 379.662 147.224C379.662 147.224 379.662 147.224 379.662 147.224C379.662 147.224 379.662 147.224 379.662 147.224C379.662 147.224 379.662 147.224 379.662 147.224C379.662 147.224 379.662 147.224 379.662 147.224C379.662 147.224 379.662 147.224 378.714 147.54C377.765 147.856 377.765 147.856 377.765 147.856C377.765 147.856 377.765 147.856 377.765 147.856C377.765 147.856 377.765 147.856 377.765 147.856C377.765 147.856 377.765 147.856 377.765 147.857C377.765 147.857 377.765 147.857 377.765 147.857C377.765 147.857 377.765 147.857 377.765 147.857C377.765 147.857 377.765 147.857 377.765 147.857C377.766 147.858 377.766 147.859 377.766 147.861C377.767 147.863 377.769 147.868 377.771 147.874C377.776 147.889 377.779 147.899 377.788 147.926C377.789 147.929 377.799 147.959 377.801 147.965C377.802 147.967 377.808 147.984 377.809 147.987C377.81 147.992 377.811 147.995 377.813 148C377.813 148.002 377.814 148.004 377.815 148.006C377.817 148.013 377.815 148.005 377.817 148.012C377.818 148.017 377.818 148.014 377.819 148.019C377.82 148.021 377.821 148.024 377.821 148.026C377.822 148.028 377.825 148.037 377.826 148.039C377.827 148.043 377.834 148.064 377.836 148.069C377.844 148.094 377.848 148.105 377.858 148.134C377.87 148.171 377.893 148.241 377.91 148.29C377.916 148.309 377.933 148.359 377.94 148.381C377.942 148.389 377.953 148.421 377.956 148.43C377.958 148.434 377.963 148.451 377.965 148.455C377.967 148.461 377.967 148.462 377.969 148.468C377.969 148.469 377.971 148.473 377.971 148.474C377.971 148.475 377.972 148.476 377.972 148.477C377.972 148.478 377.973 148.48 377.973 148.481C377.999 148.558 378.094 148.843 378.135 148.966L379.084 148.65ZM378.714 147.54H379.714C379.714 147.374 379.735 147.269 379.755 147.209C379.773 147.153 379.79 147.138 379.791 147.137C379.792 147.136 379.807 147.12 379.862 147.101C379.923 147.081 380.027 147.06 380.194 147.06V146.06V145.06C379.546 145.06 378.877 145.223 378.377 145.723C377.876 146.223 377.714 146.893 377.714 147.54H378.714ZM380.194 146.06V147.06C380.412 147.06 380.859 147.214 381.482 148.176C382.083 149.105 382.698 150.57 383.304 152.632L384.264 152.35L385.223 152.068C384.596 149.937 383.916 148.257 383.161 147.089C382.426 145.954 381.455 145.06 380.194 145.06V146.06ZM384.264 152.35L383.302 152.625C383.787 154.322 384.148 155.888 384.387 157.324L385.374 157.16L386.36 156.996C386.106 155.472 385.727 153.831 385.225 152.075L384.264 152.35ZM385.374 157.16L384.393 157.356C384.627 158.526 384.744 159.694 384.744 160.86H385.744H386.744C386.744 159.56 386.614 158.26 386.354 156.964L385.374 157.16ZM385.744 160.86H384.744C384.744 172.816 378.902 183.654 366.981 193.385L367.614 194.16L368.246 194.935C380.498 184.933 386.744 173.571 386.744 160.86H385.744ZM367.614 194.16L366.959 193.404C356.013 202.891 344.275 207.59 331.724 207.59V208.59V209.59C344.826 209.59 357.015 204.669 368.269 194.916L367.614 194.16ZM331.724 208.59V207.59C321.264 207.59 305.836 204.664 285.381 198.749L285.104 199.71L284.826 200.671C305.318 206.596 320.97 209.59 331.724 209.59V208.59ZM285.104 199.71L285.357 198.743C274.981 196.025 265.831 193.923 257.908 192.437L257.724 193.42L257.539 194.403C265.403 195.877 274.506 197.968 284.85 200.677L285.104 199.71ZM257.724 193.42L257.914 192.438C250.229 190.951 243.625 190.2 238.114 190.2V191.2V192.2C243.456 192.2 249.925 192.929 257.534 194.402L257.724 193.42ZM238.114 191.2V190.2C229.212 190.2 222.676 193.403 218.756 199.936L219.614 200.45L220.471 200.965C223.952 195.164 229.749 192.2 238.114 192.2V191.2ZM219.614 200.45L218.733 199.976C217.021 203.155 215.491 205.483 214.147 207.002C212.76 208.57 211.753 209.07 211.104 209.07V210.07V211.07C212.674 211.07 214.196 209.966 215.645 208.328C217.138 206.64 218.753 204.158 220.494 200.924L219.614 200.45Z" fill="white" fill-opacity="0.2" mask="url(#path-1-outside-1_898_2097)"/>
</svg>
