<svg width="425" height="232" viewBox="0 0 425 232" fill="none" xmlns="http://www.w3.org/2000/svg">
<mask id="path-1-outside-1_898_2141" maskUnits="userSpaceOnUse" x="0" y="0" width="425" height="232" fill="black">
<rect fill="white" width="425" height="232"/>
<path d="M46.26 230.21C16.1667 230.21 1.12 214.3 1.12 182.48C1.12 150.907 15.6733 117.607 44.78 82.58C75.12 46.0733 105.46 27.82 135.8 27.82C136.787 27.82 137.28 28.3133 137.28 29.3C137.28 30.2867 136.787 30.78 135.8 30.78C130.867 32.0133 127.043 33.37 124.33 34.85C99.6633 46.69 70.9267 80.36 38.12 135.86C27.5133 153.373 22.21 170.64 22.21 187.66C22.21 198.02 24.1833 206.407 28.13 212.82C32.8167 221.207 39.8467 225.4 49.22 225.4C66.24 225.4 84.2467 217.877 103.24 202.83C111.133 196.91 118.41 190.373 125.07 183.22C131.977 175.82 138.39 167.927 144.31 159.54C148.75 152.88 152.943 145.85 156.89 138.45C161.083 131.05 164.907 123.157 168.36 114.77C177.733 92.57 182.42 74.07 182.42 59.27C182.42 41.7567 175.883 33 162.81 33C151.71 33 141.473 37.81 132.1 47.43C123.713 55.8167 118.163 65.8067 115.45 77.4C114.957 80.6067 114.463 83.69 113.97 86.65C113.723 89.61 113.6 92.6933 113.6 95.9C113.6 115.633 119.89 125.5 132.47 125.5C133.457 125.5 134.32 125.377 135.06 125.13C136.047 124.883 136.91 124.76 137.65 124.76C138.883 124.76 139.5 125.253 139.5 126.24C139.5 127.72 137.033 128.46 132.1 128.46C123.96 128.46 117.793 124.39 113.6 116.25C110.393 110.083 108.79 102.437 108.79 93.31C108.79 90.35 108.913 87.5133 109.16 84.8C109.407 81.84 109.9 79.0033 110.64 76.29C113.353 63.2167 120.383 51.7467 131.73 41.88C143.323 31.0267 155.657 25.6 168.73 25.6C180.077 25.6 188.71 31.0267 194.63 41.88C199.317 50.2667 201.66 60.75 201.66 73.33C201.66 88.13 198.7 102.807 192.78 117.36C179.707 148.933 160.467 174.957 135.06 195.43C107.433 218.617 77.8333 230.21 46.26 230.21ZM261.794 225.4C222.574 225.4 202.964 211.833 202.964 184.7C202.964 171.133 209.747 160.527 223.314 152.88C234.66 146.713 247.734 143.63 262.534 143.63H268.454C277.334 144.617 284.98 147.7 291.394 152.88C299.04 159.047 302.864 166.2 302.864 174.34C302.864 181.247 301.384 184.7 298.424 184.7C297.437 184.7 296.944 184.207 296.944 183.22L298.054 180.26C299.04 178.533 299.534 176.56 299.534 174.34C299.534 165.707 295.464 158.8 287.324 153.62C280.417 148.933 272.4 146.59 263.274 146.59C251.927 146.59 241.814 150.043 232.934 156.95C224.054 164.35 219.614 173.847 219.614 185.44C219.614 196.54 223.93 205.42 232.564 212.08C240.457 217.753 250.2 220.59 261.794 220.59C283.747 220.59 304.097 211.463 322.844 193.21C341.097 175.203 350.224 154.977 350.224 132.53C350.224 121.183 346.77 112.55 339.864 106.63C333.204 100.71 324.077 97.75 312.484 97.75C301.137 97.75 290.9 99.8467 281.774 104.04C270.92 120.073 262.904 128.09 257.724 128.09C255.257 128.09 254.024 126.61 254.024 123.65C254.024 122.17 255.01 119.827 256.984 116.62C260.684 111.933 265.987 107.863 272.894 104.41C276.347 100.217 280.294 94.9133 284.734 88.5C288.927 82.3333 292.504 76.66 295.464 71.48C298.67 66.3 301.384 61.3667 303.604 56.68C309.524 45.0867 313.347 37.81 315.074 34.85C320.994 26.71 327.53 22.64 334.684 22.64C337.89 22.64 341.837 23.38 346.524 24.86C351.21 26.0933 356.637 28.0667 362.804 30.78C375.137 36.2067 384.51 38.92 390.924 38.92C398.57 38.92 405.107 37.1933 410.534 33.74C416.947 29.7933 420.154 24.12 420.154 16.72C420.154 12.5267 419.044 9.31998 416.824 7.09998L413.494 3.39998C413.494 2.41332 413.987 1.91998 414.974 1.91998C417.687 1.91998 419.907 4.26332 421.634 8.95C423.114 12.65 423.854 15.98 423.854 18.94C423.854 29.3 419.784 37.81 411.644 44.47C404.244 50.8833 395.24 54.09 384.634 54.09C380.687 54.09 376.124 53.4733 370.944 52.24C366.01 51.0067 360.46 49.1567 354.294 46.69C342.207 41.7567 334.19 39.29 330.244 39.29C322.844 39.29 315.814 45.95 309.154 59.27C305.947 65.19 302.494 71.3567 298.794 77.77C295.094 84.1833 290.777 90.9667 285.844 98.12L285.104 99.23C296.204 95.7767 307.18 94.05 318.034 94.05C325.927 94.05 333.08 94.79 339.494 96.27C346.154 97.75 352.074 100.217 357.254 103.67C369.834 111.317 376.124 122.54 376.124 137.34C376.124 142.027 375.507 147.083 374.274 152.51C365.394 184.083 338.877 206.407 294.724 219.48C282.637 223.427 271.66 225.4 261.794 225.4Z"/>
</mask>
<path d="M44.78 82.58L44.0109 81.9408L44.0109 81.9409L44.78 82.58ZM135.8 30.78V29.78H135.677L135.557 29.8098L135.8 30.78ZM124.33 34.85L124.763 35.7515L124.786 35.7403L124.809 35.7279L124.33 34.85ZM38.12 135.86L38.9754 136.378L38.9809 136.369L38.12 135.86ZM28.13 212.82L29.0029 212.332L28.9927 212.314L28.9817 212.296L28.13 212.82ZM103.24 202.83L102.64 202.03L102.629 202.038L102.619 202.046L103.24 202.83ZM125.07 183.22L124.339 182.538L124.338 182.539L125.07 183.22ZM144.31 159.54L145.127 160.117L145.135 160.106L145.142 160.095L144.31 159.54ZM156.89 138.45L156.02 137.957L156.014 137.968L156.008 137.979L156.89 138.45ZM168.36 114.77L167.439 114.381L167.435 114.389L168.36 114.77ZM132.1 47.43L132.807 48.1372L132.816 48.1279L132.1 47.43ZM115.45 77.4L114.476 77.1721L114.468 77.2097L114.462 77.2479L115.45 77.4ZM113.97 86.65L112.984 86.4856L112.977 86.5261L112.973 86.5669L113.97 86.65ZM135.06 125.13L134.817 124.16L134.78 124.169L134.744 124.181L135.06 125.13ZM113.6 116.25L114.489 115.792L114.487 115.789L113.6 116.25ZM109.16 84.8L110.156 84.8905L110.157 84.883L109.16 84.8ZM110.64 76.29L111.605 76.5531L111.613 76.5234L111.619 76.4932L110.64 76.29ZM131.73 41.88L132.386 42.6346L132.4 42.6226L132.413 42.61L131.73 41.88ZM194.63 41.88L193.752 42.3589L193.757 42.3678L194.63 41.88ZM192.78 117.36L193.704 117.743L193.706 117.737L192.78 117.36ZM135.06 195.43L134.433 194.651L134.425 194.658L134.417 194.664L135.06 195.43ZM46.26 230.21V229.21C31.3822 229.21 20.4038 225.28 13.1315 217.59C5.84944 209.89 2.12 198.249 2.12 182.48H1.12H0.120002C0.120002 198.531 3.9139 210.755 11.6785 218.965C19.4529 227.185 31.0445 231.21 46.26 231.21V230.21ZM1.12 182.48H2.12C2.12 151.224 16.5271 118.144 45.5491 83.2191L44.78 82.58L44.0109 81.9409C14.8195 117.069 0.120002 150.589 0.120002 182.48H1.12ZM44.78 82.58L45.5491 83.2192C75.8064 46.812 105.892 28.82 135.8 28.82V27.82V26.82C105.028 26.82 74.4336 45.3347 44.0109 81.9408L44.78 82.58ZM135.8 27.82V28.82C135.966 28.82 136.071 28.8411 136.131 28.8612C136.187 28.8796 136.202 28.8959 136.203 28.8971C136.204 28.8983 136.22 28.9134 136.239 28.9687C136.259 29.0289 136.28 29.1337 136.28 29.3H137.28H138.28C138.28 28.6525 138.117 27.9832 137.617 27.4829C137.117 26.9825 136.447 26.82 135.8 26.82V27.82ZM137.28 29.3H136.28C136.28 29.4663 136.259 29.5711 136.239 29.6313C136.22 29.6865 136.204 29.7017 136.203 29.7029C136.202 29.704 136.187 29.7204 136.131 29.7388C136.071 29.7588 135.966 29.78 135.8 29.78V30.78V31.78C136.447 31.78 137.117 31.6174 137.617 31.1171C138.117 30.6167 138.28 29.9475 138.28 29.3H137.28ZM135.8 30.78L135.557 29.8098C130.587 31.0524 126.671 32.4338 123.851 33.9721L124.33 34.85L124.809 35.7279C127.415 34.3062 131.146 32.9743 136.043 31.7501L135.8 30.78ZM124.33 34.85L123.897 33.9485C111.384 39.9547 97.9264 51.45 83.5169 68.3333C69.0985 85.227 53.6798 107.572 37.2592 135.351L38.12 135.86L38.9809 136.369C55.3669 108.648 70.7199 86.408 85.0381 69.6317C99.3653 52.845 112.609 41.5852 124.763 35.7515L124.33 34.85ZM38.12 135.86L37.2646 135.342C26.5827 152.98 21.21 170.423 21.21 187.66H22.21H23.21C23.21 170.857 28.444 153.767 38.9754 136.378L38.12 135.86ZM22.21 187.66H21.21C21.21 198.138 23.2048 206.725 27.2783 213.344L28.13 212.82L28.9817 212.296C25.1619 206.089 23.21 197.902 23.21 187.66H22.21ZM28.13 212.82L27.2571 213.308C29.671 217.628 32.7152 220.913 36.4052 223.114C40.0965 225.316 44.3796 226.4 49.22 226.4V225.4V224.4C44.6871 224.4 40.7685 223.388 37.4298 221.396C34.0898 219.404 31.2757 216.399 29.0029 212.332L28.13 212.82ZM49.22 225.4V226.4C66.5437 226.4 84.764 218.743 103.861 203.614L103.24 202.83L102.619 202.046C83.7293 217.011 65.9363 224.4 49.22 224.4V225.4ZM103.24 202.83L103.84 203.63C111.78 197.675 119.101 191.099 125.802 183.901L125.07 183.22L124.338 182.539C117.719 189.648 110.486 196.145 102.64 202.03L103.24 202.83ZM125.07 183.22L125.801 183.902C132.739 176.469 139.181 168.54 145.127 160.117L144.31 159.54L143.493 158.963C137.599 167.313 131.214 175.171 124.339 182.538L125.07 183.22ZM144.31 159.54L145.142 160.095C149.601 153.406 153.811 146.348 157.772 138.921L156.89 138.45L156.008 137.979C152.076 145.352 147.899 152.354 143.478 158.985L144.31 159.54ZM156.89 138.45L157.76 138.943C161.975 131.504 165.817 123.573 169.285 115.151L168.36 114.77L167.435 114.389C163.997 122.74 160.191 130.596 156.02 137.957L156.89 138.45ZM168.36 114.77L169.281 115.159C178.678 92.9037 183.42 74.2615 183.42 59.27H182.42H181.42C181.42 73.8785 176.789 92.2363 167.439 114.381L168.36 114.77ZM182.42 59.27H183.42C183.42 50.4179 181.773 43.5967 178.319 38.9693C174.824 34.287 169.592 32 162.81 32V33V34C169.101 34 173.675 36.0914 176.716 40.1657C179.799 44.2949 181.42 50.6088 181.42 59.27H182.42ZM162.81 33V32C151.385 32 140.903 36.9624 131.384 46.7321L132.1 47.43L132.816 48.1279C142.044 38.6576 152.035 34 162.81 34V33ZM132.1 47.43L131.393 46.7229C122.874 55.2419 117.232 65.3981 114.476 77.1721L115.45 77.4L116.424 77.6279C119.095 66.2153 124.553 56.3914 132.807 48.1371L132.1 47.43ZM115.45 77.4L114.462 77.2479C113.969 80.4508 113.476 83.53 112.984 86.4856L113.97 86.65L114.956 86.8144C115.45 83.85 115.944 80.7625 116.438 77.552L115.45 77.4ZM113.97 86.65L112.973 86.5669C112.724 89.5566 112.6 92.6678 112.6 95.9H113.6H114.6C114.6 92.7189 114.722 89.6633 114.967 86.733L113.97 86.65ZM113.6 95.9H112.6C112.6 105.841 114.178 113.468 117.474 118.638C120.819 123.884 125.869 126.5 132.47 126.5V125.5V124.5C126.491 124.5 122.106 122.183 119.161 117.562C116.167 112.866 114.6 105.693 114.6 95.9H113.6ZM132.47 125.5V126.5C133.537 126.5 134.511 126.367 135.376 126.079L135.06 125.13L134.744 124.181C134.129 124.386 133.376 124.5 132.47 124.5V125.5ZM135.06 125.13L135.303 126.1C136.237 125.866 137.016 125.76 137.65 125.76V124.76V123.76C136.804 123.76 135.856 123.9 134.817 124.16L135.06 125.13ZM137.65 124.76V125.76C138.16 125.76 138.357 125.866 138.413 125.911C138.426 125.921 138.5 125.967 138.5 126.24H139.5H140.5C140.5 125.526 140.266 124.832 139.662 124.349C139.101 123.9 138.374 123.76 137.65 123.76V124.76ZM139.5 126.24H138.5C138.5 126.29 138.495 126.355 138.369 126.468C138.214 126.607 137.908 126.784 137.363 126.947C136.273 127.274 134.541 127.46 132.1 127.46V128.46V129.46C134.592 129.46 136.561 129.276 137.937 128.863C138.625 128.656 139.244 128.37 139.706 127.955C140.197 127.513 140.5 126.93 140.5 126.24H139.5ZM132.1 128.46V127.46C128.205 127.46 124.824 126.489 121.921 124.573C119.011 122.652 116.526 119.746 114.489 115.792L113.6 116.25L112.711 116.708C114.868 120.894 117.562 124.093 120.819 126.242C124.082 128.396 127.855 129.46 132.1 129.46V128.46ZM113.6 116.25L114.487 115.789C111.374 109.802 109.79 102.325 109.79 93.31H108.79H107.79C107.79 102.549 109.413 110.365 112.713 116.711L113.6 116.25ZM108.79 93.31H109.79C109.79 90.3777 109.912 87.5713 110.156 84.8905L109.16 84.8L108.164 84.7095C107.914 87.4553 107.79 90.3223 107.79 93.31H108.79ZM109.16 84.8L110.157 84.883C110.398 81.9805 110.882 79.2043 111.605 76.5531L110.64 76.29L109.675 76.0269C108.918 78.8023 108.415 81.6995 108.163 84.717L109.16 84.8ZM110.64 76.29L111.619 76.4932C114.282 63.6608 121.183 52.3768 132.386 42.6346L131.73 41.88L131.074 41.1254C119.584 51.1166 112.424 62.7725 109.661 76.0868L110.64 76.29ZM131.73 41.88L132.413 42.61C143.863 31.8908 155.963 26.6 168.73 26.6V25.6V24.6C155.351 24.6 142.783 30.1625 131.047 41.15L131.73 41.88ZM168.73 25.6V26.6C174.237 26.6 179.043 27.9145 183.183 30.5166C187.327 33.1215 190.857 37.0506 193.752 42.3588L194.63 41.88L195.508 41.4011C192.483 35.8561 188.736 31.6452 184.247 28.8234C179.754 25.9988 174.57 24.6 168.73 24.6V25.6ZM194.63 41.88L193.757 42.3678C198.339 50.5663 200.66 60.8695 200.66 73.33H201.66H202.66C202.66 60.6305 200.295 49.9671 195.503 41.3922L194.63 41.88ZM201.66 73.33H200.66C200.66 87.993 197.728 102.542 191.854 116.983L192.78 117.36L193.706 117.737C199.672 103.071 202.66 88.267 202.66 73.33H201.66ZM192.78 117.36L191.856 116.977C178.844 148.404 159.703 174.288 134.433 194.651L135.06 195.43L135.687 196.209C161.231 175.625 180.57 149.463 193.704 117.743L192.78 117.36ZM135.06 195.43L134.417 194.664C106.943 217.722 77.565 229.21 46.26 229.21V230.21V231.21C78.1016 231.21 107.923 219.511 135.703 196.196L135.06 195.43ZM223.314 152.88L222.836 152.001L222.829 152.005L222.823 152.009L223.314 152.88ZM268.454 143.63L268.564 142.636L268.509 142.63H268.454V143.63ZM291.394 152.88L290.765 153.658L290.766 153.658L291.394 152.88ZM296.944 183.22L296.007 182.869L295.944 183.039V183.22H296.944ZM298.054 180.26L297.185 179.764L297.146 179.834L297.117 179.909L298.054 180.26ZM287.324 153.62L286.762 154.447L286.774 154.456L286.787 154.464L287.324 153.62ZM232.934 156.95L232.32 156.161L232.306 156.171L232.293 156.182L232.934 156.95ZM232.564 212.08L231.953 212.872L231.966 212.882L231.98 212.892L232.564 212.08ZM322.844 193.21L323.541 193.926L323.546 193.922L322.844 193.21ZM339.864 106.63L339.199 107.377L339.206 107.383L339.213 107.389L339.864 106.63ZM281.774 104.04L281.356 103.131L281.102 103.248L280.946 103.479L281.774 104.04ZM256.984 116.62L256.199 116L256.163 116.046L256.132 116.096L256.984 116.62ZM272.894 104.41L273.341 105.304L273.531 105.21L273.666 105.046L272.894 104.41ZM284.734 88.5L285.556 89.0692L285.561 89.0623L284.734 88.5ZM295.464 71.48L294.613 70.9536L294.604 70.9686L294.595 70.9839L295.464 71.48ZM303.604 56.68L302.713 56.2252L302.706 56.2385L302.7 56.2519L303.604 56.68ZM315.074 34.85L314.265 34.2618L314.235 34.3026L314.21 34.3461L315.074 34.85ZM346.524 24.86L346.223 25.8136L346.246 25.8209L346.269 25.8271L346.524 24.86ZM362.804 30.78L363.206 29.8647L363.206 29.8647L362.804 30.78ZM410.534 33.74L410.01 32.8883L410.003 32.8923L409.997 32.8963L410.534 33.74ZM416.824 7.09998L416.08 7.76895L416.098 7.78849L416.117 7.80709L416.824 7.09998ZM413.494 3.39998H412.494V3.78372L412.75 4.06895L413.494 3.39998ZM421.634 8.95L420.695 9.29571L420.7 9.30862L420.705 9.32139L421.634 8.95ZM411.644 44.47L411.01 43.696L410.999 43.705L410.989 43.7143L411.644 44.47ZM370.944 52.24L370.701 53.2102L370.712 53.2128L370.944 52.24ZM354.294 46.69L353.916 47.6159L353.922 47.6185L354.294 46.69ZM309.154 59.27L310.033 59.7463L310.041 59.7319L310.048 59.7172L309.154 59.27ZM298.794 77.77L297.927 77.2703L297.927 77.2703L298.794 77.77ZM285.844 98.12L285.02 97.5523L285.016 97.5587L285.012 97.5653L285.844 98.12ZM285.104 99.23L284.272 98.6753L282.706 101.023L285.401 100.185L285.104 99.23ZM339.494 96.27L339.269 97.2444L339.277 97.2462L339.494 96.27ZM357.254 103.67L356.699 104.502L356.716 104.514L356.734 104.525L357.254 103.67ZM374.274 152.51L375.236 152.781L375.243 152.756L375.249 152.732L374.274 152.51ZM294.724 219.48L294.44 218.521L294.426 218.525L294.413 218.529L294.724 219.48ZM261.794 225.4V224.4C242.268 224.4 227.801 221.017 218.24 214.403C208.746 207.834 203.964 197.991 203.964 184.7H202.964H201.964C201.964 198.542 206.987 209.049 217.102 216.047C227.151 222.999 242.099 226.4 261.794 226.4V225.4ZM202.964 184.7H203.964C203.964 171.554 210.497 161.252 223.805 153.751L223.314 152.88L222.823 152.009C208.997 159.801 201.964 170.712 201.964 184.7H202.964ZM223.314 152.88L223.791 153.759C234.971 147.683 247.876 144.63 262.534 144.63V143.63V142.63C247.591 142.63 234.35 145.744 222.836 152.001L223.314 152.88ZM262.534 143.63V144.63H268.454V143.63V142.63H262.534V143.63ZM268.454 143.63L268.343 144.624C277.05 145.591 284.513 148.608 290.765 153.658L291.394 152.88L292.022 152.102C285.448 146.792 277.617 143.642 268.564 142.636L268.454 143.63ZM291.394 152.88L290.766 153.658C298.231 159.679 301.864 166.565 301.864 174.34H302.864H303.864C303.864 165.835 299.85 158.415 292.021 152.102L291.394 152.88ZM302.864 174.34H301.864C301.864 177.752 301.494 180.178 300.835 181.716C300.51 182.474 300.136 182.964 299.752 183.263C299.382 183.551 298.954 183.7 298.424 183.7V184.7V185.7C299.374 185.7 300.24 185.418 300.98 184.842C301.706 184.277 302.258 183.472 302.673 182.504C303.494 180.588 303.864 177.834 303.864 174.34H302.864ZM298.424 184.7V183.7C298.257 183.7 298.153 183.679 298.092 183.659C298.037 183.64 298.022 183.624 298.021 183.623C298.02 183.622 298.003 183.607 297.985 183.551C297.965 183.491 297.944 183.386 297.944 183.22H296.944H295.944C295.944 183.867 296.106 184.537 296.607 185.037C297.107 185.537 297.776 185.7 298.424 185.7V184.7ZM296.944 183.22L297.88 183.571L298.99 180.611L298.054 180.26L297.117 179.909L296.007 182.869L296.944 183.22ZM298.054 180.26L298.922 180.756C300.005 178.861 300.534 176.713 300.534 174.34H299.534H298.534C298.534 176.407 298.076 178.205 297.185 179.764L298.054 180.26ZM299.534 174.34H300.534C300.534 165.32 296.249 158.114 287.861 152.776L287.324 153.62L286.787 154.464C294.679 159.486 298.534 166.094 298.534 174.34H299.534ZM287.324 153.62L287.885 152.793C280.797 147.983 272.581 145.59 263.274 145.59V146.59V147.59C272.22 147.59 280.037 149.884 286.762 154.447L287.324 153.62ZM263.274 146.59V145.59C251.707 145.59 241.377 149.116 232.32 156.161L232.934 156.95L233.548 157.739C242.25 150.97 252.147 147.59 263.274 147.59V146.59ZM232.934 156.95L232.293 156.182C223.185 163.772 218.614 173.551 218.614 185.44H219.614H220.614C220.614 174.142 224.923 164.928 233.574 157.718L232.934 156.95ZM219.614 185.44H218.614C218.614 196.843 223.069 206.018 231.953 212.872L232.564 212.08L233.174 211.288C224.792 204.822 220.614 196.237 220.614 185.44H219.614ZM232.564 212.08L231.98 212.892C240.074 218.71 250.032 221.59 261.794 221.59V220.59V219.59C250.368 219.59 240.84 216.797 233.147 211.268L232.564 212.08ZM261.794 220.59V221.59C284.057 221.59 304.646 212.324 323.541 193.926L322.844 193.21L322.146 192.494C303.548 210.602 283.437 219.59 261.794 219.59V220.59ZM322.844 193.21L323.546 193.922C341.96 175.756 351.224 155.283 351.224 132.53H350.224H349.224C349.224 154.67 340.234 174.65 322.141 192.498L322.844 193.21ZM350.224 132.53H351.224C351.224 120.97 347.696 112.026 340.514 105.871L339.864 106.63L339.213 107.389C345.845 113.074 349.224 121.397 349.224 132.53H350.224ZM339.864 106.63L340.528 105.883C333.635 99.7559 324.246 96.75 312.484 96.75V97.75V98.75C323.908 98.75 332.772 101.664 339.199 107.377L339.864 106.63ZM312.484 97.75V96.75C301.012 96.75 290.63 98.8705 281.356 103.131L281.774 104.04L282.191 104.949C291.171 100.823 301.262 98.75 312.484 98.75V97.75ZM281.774 104.04L280.946 103.479C275.533 111.475 270.857 117.427 266.914 121.37C264.943 123.342 263.179 124.786 261.621 125.732C260.057 126.683 258.767 127.09 257.724 127.09V128.09V129.09C259.27 129.09 260.925 128.495 262.66 127.442C264.401 126.384 266.291 124.822 268.328 122.785C272.402 118.711 277.161 112.639 282.602 104.601L281.774 104.04ZM257.724 128.09V127.09C256.697 127.09 256.093 126.791 255.717 126.34C255.312 125.854 255.024 125.016 255.024 123.65H254.024H253.024C253.024 125.244 253.352 126.626 254.18 127.62C255.038 128.649 256.283 129.09 257.724 129.09V128.09ZM254.024 123.65H255.024C255.024 123.106 255.212 122.295 255.685 121.171C256.152 120.063 256.864 118.723 257.835 117.144L256.984 116.62L256.132 116.096C255.13 117.724 254.362 119.159 253.842 120.394C253.329 121.613 253.024 122.714 253.024 123.65H254.024ZM256.984 116.62L257.769 117.24C261.355 112.697 266.529 108.711 273.341 105.304L272.894 104.41L272.446 103.516C265.445 107.016 260.012 111.17 256.199 116L256.984 116.62ZM272.894 104.41L273.666 105.046C277.142 100.824 281.106 95.4965 285.556 89.0692L284.734 88.5L283.911 87.9308C279.481 94.3302 275.552 99.6094 272.122 103.774L272.894 104.41ZM284.734 88.5L285.561 89.0623C289.765 82.8792 293.356 77.1835 296.332 71.9761L295.464 71.48L294.595 70.9839C291.651 76.1365 288.089 81.7875 283.907 87.9377L284.734 88.5ZM295.464 71.48L296.314 72.0063C299.537 66.7999 302.269 61.8337 304.507 57.1081L303.604 56.68L302.7 56.2519C300.498 60.8996 297.804 65.8001 294.613 70.9536L295.464 71.48ZM303.604 56.68L304.494 57.1348C310.419 45.533 314.228 38.2844 315.937 35.3539L315.074 34.85L314.21 34.3461C312.466 37.3356 308.629 44.6403 302.713 56.2252L303.604 56.68ZM315.074 34.85L315.882 35.4382C321.696 27.4443 327.968 23.64 334.684 23.64V22.64V21.64C327.093 21.64 320.291 25.9757 314.265 34.2618L315.074 34.85ZM334.684 22.64V23.64C337.749 23.64 341.587 24.3498 346.223 25.8136L346.524 24.86L346.825 23.9064C342.087 22.4102 338.032 21.64 334.684 21.64V22.64ZM346.524 24.86L346.269 25.8271C350.89 27.043 356.265 28.9956 362.401 31.6953L362.804 30.78L363.206 29.8647C357.009 27.1377 351.531 25.1436 346.778 23.8929L346.524 24.86ZM362.804 30.78L362.401 31.6953C374.752 37.1297 384.288 39.92 390.924 39.92V38.92V37.92C384.732 37.92 375.522 35.2836 363.206 29.8647L362.804 30.78ZM390.924 38.92V39.92C398.724 39.92 405.455 38.157 411.071 34.5837L410.534 33.74L409.997 32.8963C404.759 36.2296 398.417 37.92 390.924 37.92V38.92ZM410.534 33.74L411.058 34.5916C417.76 30.4669 421.154 24.4747 421.154 16.72H420.154H419.154C419.154 23.7653 416.134 29.1197 410.01 32.8883L410.534 33.74ZM420.154 16.72H421.154C421.154 12.3533 419.995 8.8567 417.531 6.39287L416.824 7.09998L416.117 7.80709C418.093 9.78327 419.154 12.7 419.154 16.72H420.154ZM416.824 7.09998L417.567 6.43102L414.237 2.73102L413.494 3.39998L412.75 4.06895L416.08 7.76895L416.824 7.09998ZM413.494 3.39998H414.494C414.494 3.23367 414.515 3.12885 414.535 3.06871C414.553 3.01342 414.57 2.99826 414.571 2.99709C414.572 2.99592 414.587 2.9796 414.642 2.96116C414.703 2.94112 414.807 2.91998 414.974 2.91998V1.91998V0.919981C414.326 0.919981 413.657 1.08253 413.157 1.58288C412.656 2.08322 412.494 2.75251 412.494 3.39998H413.494ZM414.974 1.91998V2.91998C416.988 2.91998 418.983 4.64874 420.695 9.29571L421.634 8.95L422.572 8.6043C420.831 3.87791 418.386 0.919981 414.974 0.919981V1.91998ZM421.634 8.95L420.705 9.32139C422.153 12.9417 422.854 16.1429 422.854 18.94H423.854H424.854C424.854 15.817 424.074 12.3583 422.562 8.57861L421.634 8.95ZM423.854 18.94H422.854C422.854 28.9948 418.922 37.2226 411.01 43.696L411.644 44.47L412.277 45.244C420.645 38.3974 424.854 29.6052 424.854 18.94H423.854ZM411.644 44.47L410.989 43.7143C403.786 49.9565 395.021 53.09 384.634 53.09V54.09V55.09C395.459 55.09 404.701 51.8102 412.299 45.2257L411.644 44.47ZM384.634 54.09V53.09C380.787 53.09 376.304 52.4883 371.175 51.2672L370.944 52.24L370.712 53.2128C375.943 54.4584 380.587 55.09 384.634 55.09V54.09ZM370.944 52.24L371.186 51.2699C366.308 50.0502 360.802 48.2162 354.665 45.7615L354.294 46.69L353.922 47.6185C360.119 50.0972 365.713 51.9631 370.701 53.2101L370.944 52.24ZM354.294 46.69L354.672 45.7641C348.614 43.2917 343.558 41.4297 339.51 40.1842C335.489 38.9469 332.376 38.29 330.244 38.29V39.29V40.29C332.058 40.29 334.927 40.8665 338.922 42.0958C342.891 43.317 347.887 45.155 353.916 47.6158L354.294 46.69ZM330.244 39.29V38.29C326.217 38.29 322.375 40.1091 318.733 43.559C315.101 47.0003 311.616 52.1085 308.259 58.8228L309.154 59.27L310.048 59.7172C313.351 53.1115 316.711 48.2297 320.109 45.0109C323.497 41.8009 326.871 40.29 330.244 40.29V39.29ZM309.154 59.27L308.274 58.7937C305.072 64.7051 301.623 70.8639 297.927 77.2703L298.794 77.77L299.66 78.2697C303.364 71.8494 306.822 65.6749 310.033 59.7463L309.154 59.27ZM298.794 77.77L297.927 77.2703C294.243 83.6568 289.941 90.4173 285.02 97.5523L285.844 98.12L286.667 98.6877C291.613 91.516 295.944 84.7099 299.66 78.2697L298.794 77.77ZM285.844 98.12L285.012 97.5653L284.272 98.6753L285.104 99.23L285.936 99.7847L286.676 98.6747L285.844 98.12ZM285.104 99.23L285.401 100.185C296.411 96.7593 307.288 95.05 318.034 95.05V94.05V93.05C307.073 93.05 295.996 94.794 284.807 98.2751L285.104 99.23ZM318.034 94.05V95.05C325.866 95.05 332.942 95.7844 339.269 97.2444L339.494 96.27L339.719 95.2956C333.219 93.7956 325.988 93.05 318.034 93.05V94.05ZM339.494 96.27L339.277 97.2462C345.828 98.702 351.631 101.123 356.699 104.502L357.254 103.67L357.808 102.838C352.516 99.3098 346.48 96.798 339.711 95.2938L339.494 96.27ZM357.254 103.67L356.734 104.525C369.014 111.989 375.124 122.887 375.124 137.34H376.124H377.124C377.124 122.193 370.653 110.645 357.773 102.815L357.254 103.67ZM376.124 137.34H375.124C375.124 141.94 374.518 146.921 373.299 152.288L374.274 152.51L375.249 152.732C376.496 147.245 377.124 142.114 377.124 137.34H376.124ZM374.274 152.51L373.311 152.239C364.559 183.358 338.41 205.502 294.44 218.521L294.724 219.48L295.008 220.439C339.344 207.311 366.228 184.809 375.236 152.781L374.274 152.51ZM294.724 219.48L294.413 218.529C282.399 222.452 271.53 224.4 261.794 224.4V225.4V226.4C271.791 226.4 282.875 224.401 295.034 220.431L294.724 219.48Z" fill="black" fill-opacity="0.15" mask="url(#path-1-outside-1_898_2141)"/>
</svg>
