<svg width="350" height="219" viewBox="0 0 350 219" fill="none" xmlns="http://www.w3.org/2000/svg">
<mask id="path-1-outside-1_898_2081" maskUnits="userSpaceOnUse" x="0" y="0" width="350" height="219" fill="black">
<rect fill="white" width="350" height="219"/>
<path d="M46.26 217.21C16.1667 217.21 1.12 201.3 1.12 169.48C1.12 137.907 15.6733 104.607 44.78 69.58C75.12 33.0733 105.46 14.82 135.8 14.82C136.787 14.82 137.28 15.3133 137.28 16.3C137.28 17.2867 136.787 17.78 135.8 17.78C130.867 19.0133 127.043 20.37 124.33 21.85C99.6633 33.69 70.9267 67.36 38.12 122.86C27.5133 140.373 22.21 157.64 22.21 174.66C22.21 185.02 24.1833 193.407 28.13 199.82C32.8167 208.207 39.8467 212.4 49.22 212.4C66.24 212.4 84.2467 204.877 103.24 189.83C111.133 183.91 118.41 177.373 125.07 170.22C131.977 162.82 138.39 154.927 144.31 146.54C148.75 139.88 152.943 132.85 156.89 125.45C161.083 118.05 164.907 110.157 168.36 101.77C177.733 79.57 182.42 61.07 182.42 46.27C182.42 28.7567 175.883 20 162.81 20C151.71 20 141.473 24.81 132.1 34.43C123.713 42.8167 118.163 52.8067 115.45 64.4C114.957 67.6067 114.463 70.69 113.97 73.65C113.723 76.61 113.6 79.6933 113.6 82.9C113.6 102.633 119.89 112.5 132.47 112.5C133.457 112.5 134.32 112.377 135.06 112.13C136.047 111.883 136.91 111.76 137.65 111.76C138.883 111.76 139.5 112.253 139.5 113.24C139.5 114.72 137.033 115.46 132.1 115.46C123.96 115.46 117.793 111.39 113.6 103.25C110.393 97.0833 108.79 89.4367 108.79 80.31C108.79 77.35 108.913 74.5133 109.16 71.8C109.407 68.84 109.9 66.0033 110.64 63.29C113.353 50.2167 120.383 38.7467 131.73 28.88C143.323 18.0267 155.657 12.6 168.73 12.6C180.077 12.6 188.71 18.0267 194.63 28.88C199.317 37.2667 201.66 47.75 201.66 60.33C201.66 75.13 198.7 89.8067 192.78 104.36C179.707 135.933 160.467 161.957 135.06 182.43C107.433 205.617 77.8333 217.21 46.26 217.21ZM224.424 206.11C224.424 205.863 224.547 205.74 224.794 205.74C226.027 205.247 227.384 204.753 228.864 204.26C230.59 203.767 232.44 203.273 234.414 202.78C243.047 200.067 250.694 195.997 257.354 190.57C259.82 188.597 266.604 174.29 277.704 147.65C289.05 120.763 304.59 81.5433 324.324 29.99L322.104 31.84C305.824 46.1467 291.024 58.9733 277.704 70.32C264.63 81.42 252.914 90.7933 242.554 98.44C240.58 99.92 237.99 101.77 234.784 103.99C231.824 105.963 228.247 108.307 224.054 111.02L221.464 113.24C220.724 113.24 220.354 112.5 220.354 111.02C220.354 106.087 222.82 101.893 227.754 98.44C228.987 97.9467 230.22 97.4533 231.454 96.96C232.934 96.22 234.537 95.48 236.264 94.74C241.444 91.5333 248.35 86.6 256.984 79.94C261.177 76.4867 265.74 72.7867 270.674 68.84C275.854 64.6467 281.404 59.96 287.324 54.78C327.284 19.5067 347.264 1.86999 347.264 1.86999C348.004 1.86999 348.374 2.73332 348.374 4.45998C348.374 8.15999 346.277 16.4233 342.084 29.25C338.137 41.83 331.847 58.7267 323.214 79.94L291.024 160.6C287.57 168.987 284.98 175.647 283.254 180.58C281.774 185.267 281.034 188.103 281.034 189.09C281.034 192.297 284.734 195.627 292.134 199.08C294.847 200.313 297.56 201.423 300.274 202.41C302.987 203.397 305.577 204.137 308.044 204.63V205.74C300.397 205 290.9 204.63 279.554 204.63C276.347 204.63 272.4 204.753 267.714 205C263.027 205 257.724 205.123 251.804 205.37C245.637 205.617 240.21 205.74 235.524 205.74C230.837 205.987 227.137 206.11 224.424 206.11Z"/>
</mask>
<path d="M44.78 69.58L44.0109 68.9408L44.0109 68.9409L44.78 69.58ZM135.8 17.78V16.78H135.677L135.557 16.8098L135.8 17.78ZM124.33 21.85L124.763 22.7515L124.786 22.7403L124.809 22.7279L124.33 21.85ZM38.12 122.86L38.9754 123.378L38.9809 123.369L38.12 122.86ZM28.13 199.82L29.0029 199.332L28.9927 199.314L28.9817 199.296L28.13 199.82ZM103.24 189.83L102.64 189.03L102.629 189.038L102.619 189.046L103.24 189.83ZM125.07 170.22L124.339 169.538L124.338 169.539L125.07 170.22ZM144.31 146.54L145.127 147.117L145.135 147.106L145.142 147.095L144.31 146.54ZM156.89 125.45L156.02 124.957L156.014 124.968L156.008 124.979L156.89 125.45ZM168.36 101.77L167.439 101.381L167.435 101.389L168.36 101.77ZM132.1 34.43L132.807 35.1372L132.816 35.1279L132.1 34.43ZM115.45 64.4L114.476 64.1721L114.468 64.2097L114.462 64.2479L115.45 64.4ZM113.97 73.65L112.984 73.4856L112.977 73.5261L112.973 73.567L113.97 73.65ZM135.06 112.13L134.817 111.16L134.78 111.169L134.744 111.181L135.06 112.13ZM113.6 103.25L114.489 102.792L114.487 102.789L113.6 103.25ZM109.16 71.8L110.156 71.8905L110.157 71.883L109.16 71.8ZM110.64 63.29L111.605 63.5531L111.613 63.5234L111.619 63.4932L110.64 63.29ZM131.73 28.88L132.386 29.6346L132.4 29.6226L132.413 29.61L131.73 28.88ZM194.63 28.88L193.752 29.3589L193.757 29.3678L194.63 28.88ZM192.78 104.36L193.704 104.743L193.706 104.737L192.78 104.36ZM135.06 182.43L134.433 181.651L134.425 181.658L134.417 181.664L135.06 182.43ZM46.26 217.21V216.21C31.3822 216.21 20.4038 212.28 13.1315 204.59C5.84944 196.89 2.12 185.249 2.12 169.48H1.12H0.120003C0.120003 185.531 3.9139 197.755 11.6785 205.965C19.4529 214.185 31.0445 218.21 46.26 218.21V217.21ZM1.12 169.48H2.12C2.12 138.224 16.5271 105.144 45.5491 70.2191L44.78 69.58L44.0109 68.9409C14.8195 104.069 0.120003 137.589 0.120003 169.48H1.12ZM44.78 69.58L45.5491 70.2191C75.8064 33.812 105.892 15.82 135.8 15.82V14.82V13.82C105.028 13.82 74.4336 32.3347 44.0109 68.9408L44.78 69.58ZM135.8 14.82V15.82C135.966 15.82 136.071 15.8411 136.131 15.8612C136.187 15.8796 136.202 15.8959 136.203 15.8971C136.204 15.8983 136.22 15.9134 136.239 15.9687C136.259 16.0289 136.28 16.1337 136.28 16.3H137.28H138.28C138.28 15.6525 138.117 14.9832 137.617 14.4829C137.117 13.9825 136.447 13.82 135.8 13.82V14.82ZM137.28 16.3H136.28C136.28 16.4663 136.259 16.5711 136.239 16.6313C136.22 16.6866 136.204 16.7017 136.203 16.7029C136.202 16.704 136.187 16.7204 136.131 16.7388C136.071 16.7589 135.966 16.78 135.8 16.78V17.78V18.78C136.447 18.78 137.117 18.6174 137.617 18.1171C138.117 17.6167 138.28 16.9475 138.28 16.3H137.28ZM135.8 17.78L135.557 16.8098C130.587 18.0524 126.671 19.4338 123.851 20.9721L124.33 21.85L124.809 22.7279C127.415 21.3062 131.146 19.9743 136.043 18.7501L135.8 17.78ZM124.33 21.85L123.897 20.9485C111.384 26.9547 97.9264 38.45 83.5169 55.3333C69.0985 72.227 53.6798 94.5718 37.2592 122.351L38.12 122.86L38.9809 123.369C55.3669 95.6482 70.7199 73.408 85.0381 56.6317C99.3653 39.845 112.609 28.5853 124.763 22.7515L124.33 21.85ZM38.12 122.86L37.2646 122.342C26.5827 139.98 21.21 157.423 21.21 174.66H22.21H23.21C23.21 157.857 28.444 140.767 38.9754 123.378L38.12 122.86ZM22.21 174.66H21.21C21.21 185.138 23.2048 193.725 27.2783 200.344L28.13 199.82L28.9817 199.296C25.1619 193.089 23.21 184.902 23.21 174.66H22.21ZM28.13 199.82L27.2571 200.308C29.671 204.628 32.7152 207.913 36.4052 210.114C40.0965 212.316 44.3796 213.4 49.22 213.4V212.4V211.4C44.6871 211.4 40.7685 210.388 37.4298 208.396C34.0898 206.404 31.2757 203.399 29.0029 199.332L28.13 199.82ZM49.22 212.4V213.4C66.5437 213.4 84.764 205.743 103.861 190.614L103.24 189.83L102.619 189.046C83.7293 204.011 65.9363 211.4 49.22 211.4V212.4ZM103.24 189.83L103.84 190.63C111.78 184.675 119.101 178.099 125.802 170.901L125.07 170.22L124.338 169.539C117.719 176.648 110.486 183.145 102.64 189.03L103.24 189.83ZM125.07 170.22L125.801 170.902C132.739 163.469 139.181 155.54 145.127 147.117L144.31 146.54L143.493 145.963C137.599 154.313 131.214 162.171 124.339 169.538L125.07 170.22ZM144.31 146.54L145.142 147.095C149.601 140.406 153.811 133.348 157.772 125.921L156.89 125.45L156.008 124.979C152.076 132.352 147.899 139.354 143.478 145.985L144.31 146.54ZM156.89 125.45L157.76 125.943C161.975 118.504 165.817 110.573 169.285 102.151L168.36 101.77L167.435 101.389C163.997 109.74 160.191 117.596 156.02 124.957L156.89 125.45ZM168.36 101.77L169.281 102.159C178.678 79.9037 183.42 61.2615 183.42 46.27H182.42H181.42C181.42 60.8785 176.789 79.2363 167.439 101.381L168.36 101.77ZM182.42 46.27H183.42C183.42 37.4179 181.773 30.5968 178.319 25.9693C174.824 21.287 169.592 19 162.81 19V20V21C169.101 21 173.675 23.0914 176.716 27.1657C179.799 31.2949 181.42 37.6087 181.42 46.27H182.42ZM162.81 20V19C151.385 19 140.903 23.9624 131.384 33.7321L132.1 34.43L132.816 35.1279C142.044 25.6575 152.035 21 162.81 21V20ZM132.1 34.43L131.393 33.7229C122.874 42.2419 117.232 52.3981 114.476 64.1721L115.45 64.4L116.424 64.6279C119.095 53.2153 124.553 43.3914 132.807 35.1371L132.1 34.43ZM115.45 64.4L114.462 64.2479C113.969 67.4508 113.476 70.53 112.984 73.4856L113.97 73.65L114.956 73.8144C115.45 70.85 115.944 67.7625 116.438 64.552L115.45 64.4ZM113.97 73.65L112.973 73.567C112.724 76.5566 112.6 79.6678 112.6 82.9H113.6H114.6C114.6 79.7189 114.722 76.6633 114.967 73.733L113.97 73.65ZM113.6 82.9H112.6C112.6 92.8407 114.178 100.468 117.474 105.638C120.819 110.884 125.869 113.5 132.47 113.5V112.5V111.5C126.491 111.5 122.106 109.183 119.161 104.562C116.167 99.8656 114.6 92.6926 114.6 82.9H113.6ZM132.47 112.5V113.5C133.537 113.5 134.511 113.367 135.376 113.079L135.06 112.13L134.744 111.181C134.129 111.386 133.376 111.5 132.47 111.5V112.5ZM135.06 112.13L135.303 113.1C136.237 112.866 137.016 112.76 137.65 112.76V111.76V110.76C136.804 110.76 135.856 110.9 134.817 111.16L135.06 112.13ZM137.65 111.76V112.76C138.16 112.76 138.357 112.866 138.413 112.911C138.426 112.921 138.5 112.967 138.5 113.24H139.5H140.5C140.5 112.526 140.266 111.832 139.662 111.349C139.101 110.9 138.374 110.76 137.65 110.76V111.76ZM139.5 113.24H138.5C138.5 113.29 138.495 113.355 138.369 113.468C138.214 113.607 137.908 113.784 137.363 113.947C136.273 114.274 134.541 114.46 132.1 114.46V115.46V116.46C134.592 116.46 136.561 116.276 137.937 115.863C138.625 115.656 139.244 115.37 139.706 114.955C140.197 114.513 140.5 113.93 140.5 113.24H139.5ZM132.1 115.46V114.46C128.205 114.46 124.824 113.489 121.921 111.573C119.011 109.652 116.526 106.746 114.489 102.792L113.6 103.25L112.711 103.708C114.868 107.894 117.562 111.093 120.819 113.242C124.082 115.396 127.855 116.46 132.1 116.46V115.46ZM113.6 103.25L114.487 102.789C111.374 96.802 109.79 89.3245 109.79 80.31H108.79H107.79C107.79 89.5488 109.413 97.3646 112.713 103.711L113.6 103.25ZM108.79 80.31H109.79C109.79 77.3777 109.912 74.5713 110.156 71.8905L109.16 71.8L108.164 71.7095C107.914 74.4553 107.79 77.3223 107.79 80.31H108.79ZM109.16 71.8L110.157 71.883C110.398 68.9805 110.882 66.2043 111.605 63.5531L110.64 63.29L109.675 63.0269C108.918 65.8023 108.415 68.6995 108.163 71.7169L109.16 71.8ZM110.64 63.29L111.619 63.4932C114.282 50.6608 121.183 39.3768 132.386 29.6346L131.73 28.88L131.074 28.1254C119.584 38.1166 112.424 49.7725 109.661 63.0868L110.64 63.29ZM131.73 28.88L132.413 29.61C143.863 18.8908 155.963 13.6 168.73 13.6V12.6V11.6C155.351 11.6 142.783 17.1625 131.047 28.15L131.73 28.88ZM168.73 12.6V13.6C174.237 13.6 179.043 14.9145 183.183 17.5166C187.327 20.1215 190.857 24.0506 193.752 29.3588L194.63 28.88L195.508 28.4011C192.483 22.8561 188.736 18.6452 184.247 15.8233C179.754 12.9988 174.57 11.6 168.73 11.6V12.6ZM194.63 28.88L193.757 29.3678C198.339 37.5663 200.66 47.8695 200.66 60.33H201.66H202.66C202.66 47.6305 200.295 36.9671 195.503 28.3922L194.63 28.88ZM201.66 60.33H200.66C200.66 74.993 197.728 89.5421 191.854 103.983L192.78 104.36L193.706 104.737C199.672 90.0713 202.66 75.267 202.66 60.33H201.66ZM192.78 104.36L191.856 103.977C178.844 135.404 159.703 161.288 134.433 181.651L135.06 182.43L135.687 183.209C161.231 162.625 180.57 136.463 193.704 104.743L192.78 104.36ZM135.06 182.43L134.417 181.664C106.943 204.722 77.565 216.21 46.26 216.21V217.21V218.21C78.1016 218.21 107.923 206.511 135.703 183.196L135.06 182.43ZM224.424 206.11H223.424V207.11H224.424V206.11ZM224.794 205.74V206.74H224.986L225.165 206.668L224.794 205.74ZM228.864 204.26L228.589 203.298L228.568 203.304L228.547 203.311L228.864 204.26ZM234.414 202.78L234.656 203.75L234.685 203.743L234.714 203.734L234.414 202.78ZM257.354 190.57L256.729 189.789L256.722 189.795L257.354 190.57ZM277.704 147.65L276.782 147.261L276.781 147.265L277.704 147.65ZM324.324 29.99L325.258 30.3475L326.628 26.7683L323.684 29.2218L324.324 29.99ZM322.104 31.84L321.464 31.0718L321.453 31.0802L321.444 31.0888L322.104 31.84ZM277.704 70.32L278.351 71.0823L278.352 71.0812L277.704 70.32ZM242.554 98.44L241.96 97.6354L241.954 97.64L242.554 98.44ZM234.784 103.99L235.338 104.822L235.346 104.817L235.353 104.812L234.784 103.99ZM224.054 111.02L223.51 110.18L223.454 110.217L223.403 110.261L224.054 111.02ZM221.464 113.24V114.24H221.834L222.114 113.999L221.464 113.24ZM227.754 98.44L227.382 97.5115L227.275 97.5545L227.18 97.6208L227.754 98.44ZM231.454 96.96L231.825 97.8885L231.864 97.873L231.901 97.8544L231.454 96.96ZM236.264 94.74L236.658 95.6591L236.726 95.6297L236.79 95.5903L236.264 94.74ZM256.984 79.94L257.594 80.7318L257.607 80.722L257.619 80.7119L256.984 79.94ZM270.674 68.84L271.298 69.6209L271.303 69.6172L270.674 68.84ZM287.324 54.78L287.982 55.5326L287.985 55.5297L287.324 54.78ZM347.264 1.86999V0.869987H346.885L346.602 1.12029L347.264 1.86999ZM342.084 29.25L341.133 28.9392L341.13 28.9507L342.084 29.25ZM323.214 79.94L322.287 79.563L322.285 79.5693L323.214 79.94ZM291.024 160.6L291.948 160.981L291.952 160.971L291.024 160.6ZM283.254 180.58L282.31 180.25L282.305 180.264L282.3 180.279L283.254 180.58ZM292.134 199.08L291.711 199.986L291.72 199.99L292.134 199.08ZM300.274 202.41L299.932 203.35L300.274 202.41ZM308.044 204.63H309.044V203.81L308.24 203.649L308.044 204.63ZM308.044 205.74L307.947 206.735L309.044 206.841V205.74H308.044ZM267.714 205V206H267.74L267.766 205.999L267.714 205ZM251.804 205.37L251.844 206.369L251.845 206.369L251.804 205.37ZM235.524 205.74V204.74H235.497L235.471 204.741L235.524 205.74ZM224.424 206.11H225.424C225.424 206.141 225.415 206.348 225.223 206.54C225.031 206.732 224.824 206.74 224.794 206.74V205.74V204.74C224.516 204.74 224.124 204.81 223.809 205.125C223.494 205.441 223.424 205.833 223.424 206.11H224.424ZM224.794 205.74L225.165 206.668C226.377 206.184 227.715 205.697 229.18 205.209L228.864 204.26L228.547 203.311C227.052 203.81 225.677 204.31 224.422 204.812L224.794 205.74ZM228.864 204.26L229.138 205.222C230.853 204.732 232.692 204.241 234.656 203.75L234.414 202.78L234.171 201.81C232.188 202.306 230.328 202.802 228.589 203.298L228.864 204.26ZM234.414 202.78L234.714 203.734C243.461 200.985 251.222 196.856 257.985 191.345L257.354 190.57L256.722 189.795C250.165 195.137 242.633 199.149 234.114 201.826L234.414 202.78ZM257.354 190.57L257.978 191.351C258.402 191.012 258.844 190.477 259.3 189.826C259.768 189.158 260.296 188.304 260.883 187.272C262.056 185.205 263.495 182.374 265.195 178.788C268.597 171.613 273.075 161.359 278.627 148.035L277.704 147.65L276.781 147.265C271.233 160.58 266.769 170.8 263.388 177.932C261.696 181.499 260.282 184.28 259.144 186.283C258.574 187.286 258.081 188.081 257.662 188.678C257.232 189.291 256.922 189.634 256.729 189.789L257.354 190.57ZM277.704 147.65L278.625 148.039C289.978 121.136 305.523 81.9038 325.258 30.3475L324.324 29.99L323.39 29.6325C303.658 81.1828 288.122 120.39 276.782 147.261L277.704 147.65ZM324.324 29.99L323.684 29.2218L321.464 31.0718L322.104 31.84L322.744 32.6082L324.964 30.7582L324.324 29.99ZM322.104 31.84L321.444 31.0888C305.167 45.3929 290.371 58.2161 277.055 69.5587L277.704 70.32L278.352 71.0812C291.677 59.7306 306.481 46.9005 322.764 32.5912L322.104 31.84ZM277.704 70.32L277.056 69.5577C263.995 80.6475 252.297 90.0058 241.96 97.6354L242.554 98.44L243.148 99.2446C253.531 91.5809 265.266 82.1925 278.351 71.0823L277.704 70.32ZM242.554 98.44L241.954 97.64C239.995 99.1094 237.416 100.951 234.214 103.168L234.784 103.99L235.353 104.812C238.565 102.589 241.166 100.731 243.154 99.24L242.554 98.44ZM234.784 103.99L234.229 103.158C231.274 105.128 227.701 107.469 223.51 110.18L224.054 111.02L224.597 111.86C228.793 109.145 232.373 106.799 235.338 104.822L234.784 103.99ZM224.054 111.02L223.403 110.261L220.813 112.481L221.464 113.24L222.114 113.999L224.704 111.779L224.054 111.02ZM221.464 113.24V112.24C221.454 112.24 221.49 112.24 221.533 112.269C221.57 112.294 221.559 112.304 221.526 112.238C221.445 112.077 221.354 111.709 221.354 111.02H220.354H219.354C219.354 111.811 219.447 112.553 219.737 113.132C219.889 113.436 220.109 113.724 220.423 113.933C220.744 114.147 221.104 114.24 221.464 114.24V113.24ZM220.354 111.02H221.354C221.354 106.487 223.594 102.572 228.327 99.2592L227.754 98.44L227.18 97.6208C222.046 101.214 219.354 105.687 219.354 111.02H220.354ZM227.754 98.44L228.125 99.3685C228.176 99.3479 228.189 99.3428 228.241 99.3222C228.292 99.3017 228.305 99.2965 228.356 99.276C228.408 99.2554 228.421 99.2503 228.472 99.2297C228.523 99.2092 228.536 99.204 228.588 99.1835C228.639 99.1629 228.652 99.1578 228.703 99.1372C228.755 99.1167 228.767 99.1115 228.819 99.091C228.87 99.0704 228.883 99.0653 228.934 99.0447C228.986 99.0242 228.999 99.019 229.05 98.9985C229.101 98.9779 229.114 98.9728 229.166 98.9522C229.217 98.9317 229.23 98.9265 229.281 98.906C229.333 98.8854 229.346 98.8803 229.397 98.8597C229.448 98.8392 229.461 98.834 229.513 98.8135C229.564 98.7929 229.577 98.7878 229.628 98.7672C229.68 98.7467 229.692 98.7415 229.744 98.721C229.795 98.7004 229.808 98.6953 229.859 98.6747C229.911 98.6542 229.924 98.649 229.975 98.6285C230.044 98.6011 230.138 98.5634 230.206 98.536C230.275 98.5086 230.369 98.4709 230.438 98.4435C230.506 98.4161 230.6 98.3784 230.669 98.351C230.737 98.3236 230.832 98.2859 230.9 98.2585C230.969 98.2311 231.063 98.1934 231.131 98.166C231.2 98.1386 231.294 98.1009 231.363 98.0735C231.431 98.0461 231.525 98.0084 231.594 97.981C231.662 97.9536 231.757 97.9159 231.825 97.8885L231.454 96.96L231.082 96.0315C231.031 96.0521 231.018 96.0572 230.967 96.0778C230.915 96.0983 230.902 96.1035 230.851 96.124C230.8 96.1446 230.787 96.1497 230.735 96.1703C230.684 96.1908 230.671 96.196 230.62 96.2165C230.568 96.2371 230.556 96.2422 230.504 96.2628C230.453 96.2833 230.44 96.2885 230.389 96.309C230.337 96.3296 230.324 96.3347 230.273 96.3553C230.222 96.3758 230.209 96.381 230.157 96.4015C230.106 96.4221 230.093 96.4272 230.042 96.4478C229.99 96.4683 229.977 96.4735 229.926 96.494C229.875 96.5146 229.862 96.5197 229.81 96.5403C229.759 96.5608 229.746 96.566 229.695 96.5865C229.643 96.6071 229.631 96.6122 229.579 96.6328C229.528 96.6533 229.515 96.6585 229.464 96.679C229.412 96.6996 229.399 96.7047 229.348 96.7253C229.297 96.7458 229.284 96.751 229.232 96.7715C229.164 96.7989 229.07 96.8366 229.001 96.864C228.933 96.8914 228.838 96.9291 228.77 96.9565C228.701 96.9839 228.607 97.0216 228.539 97.049C228.47 97.0764 228.376 97.1141 228.307 97.1415C228.239 97.1689 228.145 97.2066 228.076 97.234C228.008 97.2614 227.913 97.2991 227.845 97.3265C227.776 97.3539 227.682 97.3916 227.614 97.419C227.545 97.4464 227.451 97.4841 227.382 97.5115L227.754 98.44ZM231.454 96.96L231.901 97.8544C233.361 97.1243 234.947 96.3924 236.658 95.6591L236.264 94.74L235.87 93.8208C234.127 94.5676 232.506 95.3157 231.006 96.0656L231.454 96.96ZM236.264 94.74L236.79 95.5903C242.013 92.3568 248.952 87.3992 257.594 80.7318L256.984 79.94L256.373 79.1482C247.749 85.8008 240.874 90.7099 235.737 93.8897L236.264 94.74ZM256.984 79.94L257.619 80.7119C261.809 77.262 266.368 73.565 271.298 69.6209L270.674 68.84L270.049 68.0591C265.113 72.0083 260.545 75.7113 256.348 79.1681L256.984 79.94ZM270.674 68.84L271.303 69.6172C276.494 65.4146 282.054 60.7195 287.982 55.5326L287.324 54.78L286.665 54.0274C280.753 59.2005 275.213 63.8787 270.044 68.0627L270.674 68.84ZM287.324 54.78L287.985 55.5297C288.064 55.4608 288.141 55.392 288.219 55.3232C288.297 55.2545 288.375 55.1858 288.453 55.1171C288.531 55.0485 288.608 54.98 288.686 54.9115C288.763 54.843 288.841 54.7746 288.918 54.7062C289.114 54.5334 289.187 54.4692 289.382 54.2969C289.459 54.2288 289.536 54.1608 289.613 54.0928C289.69 54.0249 289.767 53.957 289.844 53.8892C289.921 53.8214 289.998 53.7536 290.074 53.6859C290.151 53.6182 290.227 53.5506 290.304 53.4831C290.497 53.3123 290.569 53.2489 290.762 53.0786C290.838 53.0113 290.915 52.9441 290.991 52.877C291.067 52.8098 291.143 52.7428 291.219 52.6757C291.295 52.6087 291.37 52.5418 291.446 52.4749C291.522 52.408 291.598 52.3412 291.673 52.2745C291.864 52.1057 291.935 52.0431 292.126 51.8749C292.201 51.8084 292.276 51.742 292.352 51.6756C292.427 51.6093 292.502 51.543 292.577 51.4768C292.652 51.4106 292.727 51.3445 292.802 51.2784C292.876 51.2124 292.951 51.1464 293.026 51.0804C293.215 50.9137 293.285 50.8518 293.473 50.6856C293.548 50.62 293.622 50.5544 293.696 50.4888C293.77 50.4233 293.844 50.3579 293.919 50.2925C293.993 50.2271 294.067 50.1617 294.141 50.0965C294.215 50.0312 294.288 49.966 294.362 49.9009C294.549 49.736 294.618 49.6753 294.804 49.511C294.877 49.4461 294.951 49.3813 295.024 49.3166C295.097 49.2519 295.171 49.1872 295.244 49.1226C295.317 49.058 295.39 48.9935 295.463 48.9291C295.536 48.8646 295.609 48.8002 295.682 48.7359C295.866 48.5732 295.935 48.513 296.118 48.3508C296.191 48.2868 296.263 48.2228 296.336 48.1589C296.408 48.0949 296.48 48.0311 296.553 47.9673C296.625 47.9035 296.697 47.8398 296.769 47.7762C296.841 47.7125 296.913 47.649 296.985 47.5854C297.057 47.5219 297.129 47.4585 297.201 47.3951C297.273 47.3317 297.344 47.2684 297.416 47.2052C297.488 47.142 297.559 47.0788 297.631 47.0157C297.702 46.9526 297.774 46.8895 297.845 46.8265C297.916 46.7636 297.988 46.7007 298.059 46.6378C298.13 46.575 298.201 46.5122 298.272 46.4495C298.343 46.3868 298.414 46.3242 298.485 46.2616C298.556 46.199 298.627 46.1365 298.697 46.0741C298.768 46.0117 298.839 45.9493 298.909 45.887C298.98 45.8247 299.05 45.7625 299.121 45.7003C299.191 45.6381 299.262 45.576 299.332 45.514C299.402 45.452 299.472 45.39 299.542 45.3281C299.613 45.2662 299.683 45.2044 299.753 45.1426C299.823 45.0809 299.892 45.0192 299.962 44.9576C300.032 44.8959 300.102 44.8344 300.172 44.7729C300.241 44.7114 300.311 44.6499 300.38 44.5886C300.45 44.5272 300.519 44.4659 300.589 44.4047C300.658 44.3435 300.727 44.2823 300.796 44.2213C300.866 44.1602 300.935 44.0991 301.004 44.0382C301.073 43.9772 301.142 43.9163 301.211 43.8555C301.28 43.7947 301.348 43.7339 301.417 43.6733C301.486 43.6126 301.555 43.552 301.623 43.4914C301.692 43.4309 301.76 43.3704 301.829 43.31C301.897 43.2495 301.966 43.1892 302.034 43.1289C302.102 43.0686 302.17 43.0084 302.239 42.9483C302.307 42.8881 302.375 42.828 302.443 42.768C302.511 42.708 302.579 42.6481 302.646 42.5882C302.714 42.5283 302.782 42.4685 302.85 42.4088C302.917 42.349 302.985 42.2894 303.053 42.2297C303.12 42.1701 303.188 42.1106 303.255 42.0511C303.322 41.9916 303.39 41.9322 303.457 41.8729C303.524 41.8136 303.591 41.7543 303.658 41.6951C303.725 41.6359 303.792 41.5767 303.859 41.5177C303.926 41.4586 303.993 41.3996 304.06 41.3407C304.127 41.2817 304.193 41.2228 304.26 41.164C304.326 41.1052 304.393 41.0465 304.459 40.9878C304.526 40.9292 304.592 40.8706 304.659 40.812C304.725 40.7535 304.791 40.6951 304.857 40.6366C304.923 40.5782 304.99 40.5199 305.056 40.4617C305.122 40.4034 305.187 40.3452 305.253 40.2871C305.319 40.2289 305.385 40.1709 305.451 40.1129C305.516 40.0549 305.582 39.997 305.648 39.9391C305.713 39.8812 305.779 39.8235 305.844 39.7657C305.909 39.708 305.975 39.6503 306.04 39.5928C306.105 39.5352 306.17 39.4776 306.235 39.4202C306.3 39.3627 306.366 39.3053 306.43 39.248C306.495 39.1907 306.56 39.1334 306.625 39.0763C306.69 39.0191 306.755 38.9619 306.819 38.9049C306.884 38.8478 306.948 38.7909 307.013 38.7339C307.077 38.677 307.142 38.6202 307.206 38.5634C307.27 38.5066 307.335 38.4499 307.399 38.3932C307.463 38.3366 307.527 38.28 307.591 38.2235C307.655 38.167 307.719 38.1105 307.783 38.0542C307.847 37.9978 307.911 37.9415 307.974 37.8852C308.038 37.829 308.102 37.7728 308.165 37.7167C308.229 37.6606 308.292 37.6045 308.356 37.5486C308.419 37.4926 308.482 37.4367 308.546 37.3808C308.609 37.325 308.672 37.2692 308.735 37.2135C308.798 37.1578 308.861 37.1022 308.924 37.0466C308.987 36.991 309.05 36.9355 309.113 36.8801C309.176 36.8246 309.239 36.7693 309.301 36.714C309.364 36.6587 309.426 36.6034 309.489 36.5483C309.551 36.4931 309.614 36.438 309.676 36.383C309.738 36.3279 309.801 36.273 309.863 36.2181C309.925 36.1632 309.987 36.1083 310.049 36.0536C310.111 35.9988 310.173 35.9441 310.235 35.8895C310.297 35.8348 310.359 35.7803 310.421 35.7258C310.482 35.6713 310.544 35.6169 310.606 35.5625C310.667 35.5081 310.729 35.4538 310.79 35.3996C310.852 35.3454 310.913 35.2912 310.974 35.2371C311.035 35.183 311.097 35.129 311.158 35.0751C311.219 35.0211 311.28 34.9672 311.341 34.9134C311.402 34.8596 311.463 34.8058 311.524 34.7521C311.585 34.6984 311.645 34.6448 311.706 34.5913C311.767 34.5377 311.827 34.4842 311.888 34.4308C311.948 34.3774 312.009 34.324 312.069 34.2708C312.129 34.2175 312.19 34.1642 312.25 34.1111C312.31 34.058 312.37 34.0049 312.43 33.9519C312.49 33.8988 312.55 33.8459 312.61 33.793C312.67 33.7401 312.73 33.6873 312.79 33.6346C312.849 33.5818 312.909 33.5291 312.969 33.4765C313.028 33.4239 313.088 33.3714 313.147 33.3189C313.207 33.2664 313.266 33.214 313.325 33.1617C313.385 33.1093 313.444 33.0571 313.503 33.0048C313.562 32.9526 313.621 32.9005 313.68 32.8484C313.739 32.7963 313.798 32.7443 313.857 32.6924C313.916 32.6405 313.975 32.5886 314.033 32.5368C314.092 32.485 314.151 32.4332 314.209 32.3816C314.268 32.3299 314.326 32.2783 314.385 32.2268C314.443 32.1752 314.501 32.1238 314.56 32.0724C314.618 32.021 314.676 31.9696 314.734 31.9184C314.792 31.8671 314.85 31.8159 314.908 31.7648C314.966 31.7136 315.024 31.6626 315.082 31.6116C315.139 31.5606 315.197 31.5096 315.255 31.4588C315.312 31.4079 315.37 31.3571 315.427 31.3064C315.485 31.2557 315.542 31.205 315.599 31.1544C315.657 31.1038 315.714 31.0533 315.771 31.0028C315.828 30.9524 315.885 30.902 315.942 30.8517C315.999 30.8013 316.056 30.7511 316.113 30.7009C316.17 30.6507 316.227 30.6006 316.284 30.5505C316.34 30.5005 316.397 30.4505 316.453 30.4006C316.51 30.3506 316.566 30.3008 316.623 30.251C316.679 30.2012 316.736 30.1515 316.792 30.1018C316.848 30.0522 316.904 30.0026 316.96 29.9531C317.016 29.9036 317.072 29.8541 317.128 29.8047C317.184 29.7554 317.24 29.706 317.296 29.6568C317.352 29.6075 317.408 29.5584 317.463 29.5092C317.519 29.4601 317.574 29.4111 317.63 29.3621C317.685 29.3131 317.741 29.2642 317.796 29.2154C317.851 29.1665 317.907 29.1178 317.962 29.069C318.017 29.0203 318.072 28.9717 318.127 28.9231C318.182 28.8745 318.237 28.826 318.292 28.7776C318.347 28.7292 318.402 28.6808 318.456 28.6325C318.511 28.5842 318.566 28.5359 318.62 28.4878C318.675 28.4396 318.729 28.3915 318.784 28.3434C318.838 28.2954 318.893 28.2474 318.947 28.1995C319.001 28.1516 319.055 28.1038 319.109 28.056C319.164 28.0083 319.218 27.9606 319.272 27.9129C319.326 27.8653 319.379 27.8177 319.433 27.7702C319.487 27.7227 319.541 27.6753 319.594 27.6279C319.648 27.5806 319.702 27.5333 319.755 27.4861C319.809 27.4388 319.862 27.3916 319.915 27.3446C319.969 27.2975 320.022 27.2504 320.075 27.2035C320.129 27.1565 320.182 27.1096 320.235 27.0628C320.347 26.9634 320.44 26.8815 320.552 26.7827C320.605 26.7361 320.657 26.6896 320.71 26.6432C320.763 26.5968 320.815 26.5504 320.868 26.5041C320.92 26.4578 320.972 26.4116 321.025 26.3654C321.077 26.3193 321.129 26.2732 321.181 26.2272C321.233 26.1812 321.285 26.1352 321.337 26.0893C321.389 26.0435 321.441 25.9977 321.493 25.9519C321.545 25.9061 321.597 25.8605 321.648 25.8148C321.7 25.7692 321.752 25.7237 321.803 25.6782C321.855 25.6327 321.906 25.5873 321.958 25.542C322.009 25.4966 322.06 25.4513 322.111 25.4061C322.163 25.3609 322.214 25.3158 322.265 25.2707C322.316 25.2256 322.367 25.1806 322.418 25.1357C322.469 25.0907 322.52 25.0459 322.57 25.0011C322.621 24.9562 322.672 24.9115 322.722 24.8668C322.773 24.8222 322.824 24.7775 322.874 24.733C322.924 24.6885 322.975 24.644 323.025 24.5996C323.075 24.5552 323.126 24.5108 323.176 24.4666C323.226 24.4223 323.276 24.3781 323.326 24.334C323.376 24.2898 323.426 24.2458 323.476 24.2018C323.526 24.1578 323.575 24.1138 323.625 24.07C323.675 24.0261 323.724 23.9823 323.774 23.9386C323.824 23.8949 323.873 23.8512 323.922 23.8076C323.972 23.764 324.021 23.7205 324.07 23.677C324.12 23.6335 324.169 23.5901 324.218 23.5468C324.267 23.5035 324.316 23.4602 324.365 23.417C324.414 23.3738 324.463 23.3307 324.511 23.2877C324.56 23.2446 324.609 23.2016 324.658 23.1587C324.706 23.1158 324.755 23.0729 324.803 23.0301C324.852 22.9873 324.9 22.9446 324.948 22.902C324.997 22.8593 325.045 22.8167 325.093 22.7742C325.141 22.7317 325.189 22.6892 325.237 22.6468C325.285 22.6044 325.333 22.5621 325.381 22.5199C325.429 22.4776 325.477 22.4354 325.525 22.3933C325.572 22.3512 325.62 22.3092 325.667 22.2672C325.715 22.2252 325.763 22.1833 325.81 22.1414C325.857 22.0996 325.905 22.0578 325.952 22.0161C325.999 21.9744 326.046 21.9327 326.093 21.8912C326.141 21.8496 326.188 21.8081 326.235 21.7666C326.323 21.689 326.428 21.5959 326.515 21.5188C326.562 21.4776 326.609 21.4365 326.655 21.3954C326.702 21.3544 326.748 21.3134 326.794 21.2725C326.841 21.2316 326.887 21.1908 326.933 21.15C326.979 21.1093 327.025 21.0685 327.071 21.0279C327.158 20.9518 327.261 20.8605 327.347 20.7849C327.392 20.7445 327.438 20.7042 327.484 20.664C327.529 20.6238 327.575 20.5836 327.62 20.5435C327.666 20.5034 327.711 20.4634 327.756 20.4234C327.801 20.3835 327.847 20.3436 327.892 20.3037C327.976 20.2291 328.078 20.1397 328.162 20.0656C328.206 20.026 328.251 19.9865 328.296 19.9471C328.34 19.9077 328.385 19.8683 328.43 19.829C328.474 19.7897 328.519 19.7505 328.563 19.7113C328.607 19.6722 328.652 19.6331 328.696 19.5941C328.779 19.521 328.878 19.4333 328.96 19.3607C329.004 19.322 329.048 19.2833 329.092 19.2447C329.135 19.2061 329.179 19.1675 329.223 19.129C329.266 19.0906 329.31 19.0521 329.353 19.0138C329.397 18.9754 329.44 18.9372 329.483 18.899C329.564 18.8273 329.662 18.7415 329.742 18.6705C329.785 18.6325 329.828 18.5947 329.871 18.5568C329.914 18.519 329.956 18.4813 329.999 18.4436C330.042 18.4059 330.084 18.3683 330.127 18.3308C330.169 18.2932 330.212 18.2558 330.254 18.2184C330.334 18.1482 330.429 18.0643 330.508 17.9947C330.55 17.9576 330.592 17.9205 330.634 17.8835C330.676 17.8465 330.717 17.8096 330.759 17.7727C330.801 17.7358 330.843 17.699 330.884 17.6623C330.926 17.6256 330.967 17.5889 331.009 17.5523C331.086 17.4837 331.18 17.4016 331.257 17.3335C331.298 17.2972 331.339 17.2609 331.38 17.2247C331.421 17.1885 331.462 17.1524 331.503 17.1163C331.544 17.0803 331.584 17.0443 331.625 17.0084C331.666 16.9724 331.706 16.9366 331.747 16.9008C331.823 16.8337 331.914 16.7534 331.989 16.6868C332.03 16.6513 332.07 16.6158 332.11 16.5805C332.15 16.5451 332.19 16.5098 332.23 16.4745C332.251 16.4556 332.448 16.2822 332.469 16.2638C332.543 16.1982 332.632 16.1197 332.705 16.0547C332.745 16.02 332.784 15.9853 332.823 15.9507C332.862 15.9162 332.901 15.8816 332.94 15.8472C332.961 15.8287 333.153 15.6593 333.174 15.6413C333.212 15.6071 333.251 15.573 333.29 15.539C333.328 15.5049 333.367 15.471 333.405 15.4371C333.443 15.4032 333.482 15.3693 333.52 15.3355C333.558 15.3018 333.597 15.2681 333.635 15.2344C333.673 15.2008 333.711 15.1672 333.749 15.1337C333.787 15.1002 333.825 15.0668 333.862 15.0334C333.9 15 333.938 14.9667 333.976 14.9335C334.013 14.9003 334.051 14.8671 334.088 14.834C334.126 14.8009 334.163 14.7678 334.201 14.7349C334.238 14.7019 334.275 14.669 334.312 14.6362C334.491 14.4783 334.579 14.4012 334.755 14.2454C334.792 14.2131 334.828 14.1809 334.865 14.1487C334.901 14.1166 334.937 14.0845 334.974 14.0525C335.01 14.0204 335.046 13.9885 335.082 13.9566C335.118 13.9247 335.154 13.8929 335.19 13.8611C335.226 13.8294 335.262 13.7977 335.298 13.7661C335.334 13.7345 335.37 13.7029 335.405 13.6714C335.441 13.6399 335.477 13.6085 335.512 13.5771C335.548 13.5458 335.583 13.5145 335.618 13.4833C335.789 13.3331 335.871 13.2599 336.039 13.1119C336.074 13.0812 336.109 13.0506 336.143 13.0201C336.178 12.9895 336.212 12.9591 336.247 12.9286C336.281 12.8982 336.316 12.8679 336.35 12.8376C336.384 12.8073 336.418 12.7771 336.453 12.747C336.498 12.7065 336.611 12.6069 336.657 12.567C336.764 12.472 336.752 12.483 336.859 12.3885C337.02 12.2461 337.098 12.1769 337.257 12.0365C337.362 11.9441 337.35 11.9548 337.454 11.863C337.487 11.8342 337.519 11.8054 337.552 11.7768C337.584 11.7481 337.617 11.7195 337.649 11.691C337.692 11.6527 337.799 11.5584 337.842 11.5206C337.944 11.4309 337.932 11.4411 338.033 11.3519C338.185 11.2173 338.26 11.1517 338.41 11.0193C338.477 10.9599 338.715 10.7503 338.779 10.6931C338.82 10.657 338.921 10.5681 338.961 10.5325C339.057 10.4478 339.046 10.4575 339.142 10.3734C339.171 10.347 339.201 10.3207 339.231 10.2945C339.261 10.2682 339.29 10.2421 339.32 10.216C339.36 10.1809 339.457 10.0947 339.496 10.0602C339.56 10.0042 339.783 9.80714 339.844 9.75337C339.873 9.72807 339.901 9.70285 339.93 9.67769C339.958 9.65253 339.987 9.62743 340.015 9.6024C340.043 9.57738 340.072 9.55241 340.1 9.52751C340.128 9.50262 340.156 9.4778 340.184 9.45305C340.212 9.42828 340.24 9.40359 340.268 9.37897C340.296 9.35434 340.324 9.32979 340.352 9.3053C340.379 9.28081 340.407 9.25639 340.435 9.23203C340.462 9.20767 340.49 9.1834 340.517 9.15916C340.577 9.10669 340.786 8.92207 340.843 8.87175C340.864 8.85255 340.982 8.74915 341.003 8.73047C341.029 8.70706 341.056 8.68372 341.082 8.66043C341.108 8.63716 341.135 8.61394 341.161 8.59081C341.187 8.56766 341.213 8.54459 341.239 8.52158C341.265 8.49857 341.291 8.47562 341.317 8.45274C341.338 8.43419 341.452 8.33432 341.472 8.3163C341.567 8.2327 341.531 8.26454 341.625 8.18147C341.65 8.15913 341.675 8.13687 341.7 8.11467C341.726 8.09247 341.751 8.07033 341.776 8.04826C341.796 8.03035 341.905 7.93404 341.925 7.91667C342.016 7.83604 341.981 7.86678 342.072 7.78668C342.085 7.77504 342.205 7.66942 342.217 7.65833C342.237 7.64108 342.342 7.54826 342.361 7.53157C342.449 7.45392 342.415 7.48354 342.503 7.40643C342.526 7.38571 342.55 7.36505 342.573 7.34447C342.596 7.32388 342.619 7.30336 342.643 7.2829C342.661 7.26631 342.763 7.17705 342.781 7.161C342.804 7.14081 342.826 7.1207 342.849 7.10065C342.872 7.0806 342.894 7.06062 342.917 7.0407C343.002 6.9661 343.102 6.8774 343.184 6.80495C343.206 6.78558 343.228 6.76627 343.25 6.74703C343.272 6.72779 343.293 6.70862 343.315 6.68951C343.413 6.60326 343.347 6.66138 343.444 6.57568C343.465 6.55683 343.486 6.53806 343.508 6.51936C343.529 6.50066 343.55 6.48202 343.571 6.46346C343.66 6.38511 343.608 6.43065 343.696 6.35284C343.774 6.28426 343.866 6.20292 343.941 6.13647C344.026 6.06156 343.977 6.10509 344.061 6.03072C344.151 5.9518 344.09 6.00494 344.179 5.92657C344.201 5.90746 344.39 5.74007 344.41 5.72312C344.429 5.70644 344.447 5.68982 344.466 5.67326C344.485 5.65672 344.504 5.64023 344.522 5.62382C344.541 5.6074 344.559 5.59105 344.578 5.57477C344.596 5.55849 344.615 5.54227 344.633 5.52612C344.651 5.50998 344.669 5.4939 344.688 5.47789C344.706 5.46188 344.724 5.44593 344.742 5.43005C344.76 5.41418 344.778 5.39836 344.795 5.38262C344.813 5.36688 344.831 5.3512 344.849 5.33559C344.866 5.31998 344.884 5.30444 344.902 5.28897C344.919 5.2735 344.936 5.25809 344.954 5.24275C344.971 5.22741 344.989 5.21214 345.006 5.19693C345.023 5.18172 345.04 5.16659 345.057 5.15152C345.103 5.11104 345.215 5.01224 345.258 4.97391C345.362 4.88247 345.351 4.89203 345.452 4.80275C345.605 4.66801 345.675 4.60594 345.818 4.47981C345.885 4.42086 346.098 4.23305 346.155 4.18271C346.177 4.1635 346.293 4.06091 346.312 4.04385C346.405 3.96159 346.371 3.99155 346.462 3.91144C346.476 3.89919 346.593 3.79559 346.605 3.7855C346.624 3.76891 346.724 3.68044 346.74 3.66601C346.831 3.58606 346.78 3.63078 346.868 3.55298C346.961 3.47146 346.899 3.52578 346.989 3.44641C347.013 3.42474 347.194 3.26572 347.208 3.25265C347.254 3.21219 347.363 3.11658 347.399 3.08472C347.499 2.99603 347.469 3.02271 347.56 2.94263C347.577 2.92767 347.684 2.83272 347.691 2.82637C347.745 2.779 347.852 2.68429 347.867 2.67136C347.872 2.6668 347.876 2.66328 347.881 2.65926C347.885 2.65546 347.889 2.65202 347.893 2.64876C347.899 2.64341 347.907 2.6358 347.911 2.63261C347.912 2.63147 347.917 2.62756 347.917 2.62696C347.919 2.62538 347.921 2.62396 347.922 2.62292C347.926 2.61956 347.921 2.62332 347.925 2.6205C347.925 2.62023 347.925 2.62003 347.925 2.6199C347.925 2.61976 347.925 2.61969 347.264 1.86999C346.602 1.12029 346.602 1.12035 346.602 1.12049C346.602 1.12062 346.601 1.12083 346.601 1.12109C346.601 1.12136 346.6 1.1217 346.6 1.1221C346.599 1.12251 346.599 1.12298 346.598 1.12352C346.598 1.12405 346.597 1.12466 346.596 1.12534C346.595 1.12601 346.595 1.12675 346.594 1.12756C346.593 1.12836 346.592 1.12923 346.591 1.13018C346.59 1.13112 346.589 1.13213 346.587 1.13321C346.585 1.13499 346.555 1.16156 346.543 1.17196C346.543 1.1722 346.48 1.22769 346.47 1.23654C346.465 1.24142 346.383 1.31348 346.368 1.32697C346.289 1.3961 346.386 1.31058 346.306 1.38187C346.26 1.42248 346.285 1.40046 346.236 1.44322C346.223 1.45497 346.212 1.46404 346.199 1.47633C346.192 1.48198 346.186 1.48769 346.179 1.49348C346.173 1.49927 346.166 1.50512 346.159 1.51104C346.153 1.51696 346.146 1.52295 346.139 1.52901C346.132 1.53506 346.125 1.54118 346.118 1.54737C346.111 1.55356 346.104 1.55982 346.097 1.56614C346.09 1.57246 346.082 1.57886 346.075 1.58532C345.99 1.66084 345.79 1.83704 345.665 1.94701C345.587 2.01614 345.685 1.92981 345.606 1.99948C345.601 2.00356 345.55 2.04897 345.545 2.05357C345.534 2.06273 345.524 2.07195 345.513 2.08123C345.503 2.09052 345.492 2.09986 345.482 2.10928C345.439 2.14722 345.46 2.12813 345.417 2.1666C345.323 2.24957 345.242 2.32047 345.139 2.41203C345.126 2.4228 345.114 2.43363 345.102 2.44453C345.089 2.45543 345.077 2.4664 345.064 2.47743C345.052 2.48846 345.039 2.49957 345.027 2.51073C345.014 2.5219 345.001 2.53313 344.989 2.54444C344.976 2.55574 344.963 2.56712 344.95 2.57855C344.937 2.58999 344.924 2.60149 344.911 2.61307C344.898 2.62463 344.884 2.63628 344.871 2.64798C344.858 2.65969 344.845 2.67146 344.831 2.6833C344.818 2.69514 344.804 2.70705 344.791 2.71902C344.777 2.731 344.764 2.74305 344.75 2.75516C344.717 2.78405 344.7 2.79919 344.667 2.82863C344.644 2.84871 344.52 2.95817 344.495 2.98041C344.468 3.00421 344.434 3.03437 344.406 3.05872C344.391 3.07191 344.376 3.08516 344.361 3.09848C344.346 3.1118 344.331 3.12519 344.315 3.13864C344.3 3.1521 344.285 3.16563 344.269 3.17921C344.254 3.1928 344.239 3.20646 344.223 3.22018C344.194 3.24548 344.158 3.27751 344.129 3.30334C344.113 3.31734 344.097 3.3314 344.081 3.34553C344.065 3.35966 344.049 3.37385 344.033 3.38811C344.017 3.40237 344 3.41671 343.984 3.43111C343.968 3.4455 343.951 3.45997 343.935 3.4745C343.913 3.49342 343.857 3.54304 343.835 3.5625C343.818 3.5773 343.802 3.59217 343.785 3.6071C343.768 3.62204 343.751 3.63705 343.734 3.65211C343.679 3.70059 343.686 3.69433 343.63 3.74335C343.608 3.76333 343.548 3.81567 343.525 3.83619C343.454 3.89887 343.49 3.86742 343.418 3.93065C343.4 3.94653 343.382 3.96247 343.364 3.97849C343.346 3.99449 343.328 4.01057 343.309 4.02672C343.195 4.12791 342.98 4.31736 342.856 4.42716C342.836 4.44439 342.817 4.46168 342.797 4.47903C342.777 4.49639 342.757 4.51382 342.738 4.53131C342.718 4.54881 342.698 4.56636 342.678 4.58399C342.658 4.60162 342.638 4.61931 342.618 4.63707C342.602 4.65066 342.512 4.73032 342.496 4.74445C342.476 4.76248 342.455 4.78058 342.435 4.79874C342.414 4.81691 342.393 4.83514 342.373 4.85344C342.352 4.87174 342.331 4.89011 342.31 4.90854C342.289 4.92698 342.268 4.94548 342.247 4.96404C342.231 4.97826 342.137 5.06152 342.12 5.07626C342.099 5.09511 342.078 5.11401 342.056 5.13298C342.035 5.15195 342.013 5.171 341.991 5.1901C341.985 5.19545 341.867 5.29967 341.861 5.30555C341.839 5.32493 341.817 5.34437 341.794 5.36388C341.772 5.38339 341.75 5.40297 341.728 5.42262C341.706 5.44226 341.683 5.46198 341.661 5.48176C341.639 5.50153 341.616 5.52139 341.594 5.5413C341.587 5.54687 341.464 5.65548 341.457 5.66159C341.434 5.68177 341.411 5.70203 341.388 5.72234C341.365 5.74266 341.342 5.76305 341.319 5.7835C341.296 5.80396 341.273 5.82447 341.249 5.84506C341.226 5.86565 341.203 5.8863 341.179 5.90702C341.156 5.92774 341.132 5.94853 341.109 5.96939C341.085 5.99024 341.061 6.01117 341.037 6.03216C340.936 6.12152 340.852 6.19577 340.748 6.28728C340.724 6.30881 340.7 6.33041 340.675 6.35207C340.65 6.37373 340.626 6.39546 340.601 6.41726C340.576 6.43906 340.552 6.46093 340.527 6.48286C340.502 6.50479 340.477 6.52679 340.452 6.54886C340.305 6.6785 340.298 6.6851 340.148 6.81689C340.039 6.91306 339.949 6.99307 339.837 7.0914C339.816 7.11017 339.701 7.21176 339.679 7.23106C339.653 7.25447 339.626 7.27795 339.599 7.3015C339.573 7.32506 339.546 7.34866 339.519 7.37234C339.492 7.39603 339.465 7.41978 339.438 7.4436C339.411 7.46741 339.384 7.4913 339.357 7.51524C339.335 7.53468 339.216 7.6398 339.194 7.65976C339.077 7.76283 338.98 7.84842 338.861 7.95363C338.838 7.97372 338.715 8.08237 338.691 8.103C338.601 8.18311 338.612 8.17332 338.52 8.25397C338.492 8.27927 338.463 8.30463 338.434 8.33006C338.405 8.35548 338.376 8.38098 338.348 8.40656C338.319 8.43211 338.29 8.45775 338.26 8.48346C338.231 8.50916 338.202 8.53493 338.173 8.56076C338.048 8.67072 337.945 8.76189 337.818 8.87401C337.788 8.90038 337.758 8.92682 337.728 8.95332C337.698 8.97983 337.668 9.00641 337.638 9.03305C337.608 9.05969 337.577 9.08641 337.547 9.11317C337.517 9.13995 337.486 9.16681 337.456 9.19371C337.425 9.22063 337.395 9.2476 337.364 9.27464C337.333 9.3017 337.303 9.32881 337.272 9.35599C337.241 9.38316 337.21 9.41042 337.179 9.43773C337.148 9.46504 337.117 9.49243 337.086 9.51988C337.055 9.54733 337.024 9.57484 336.993 9.60243C336.962 9.63002 336.93 9.65767 336.899 9.68538C336.867 9.7131 336.836 9.74089 336.804 9.76874C336.773 9.7966 336.741 9.82452 336.709 9.85251C336.678 9.88049 336.646 9.90855 336.614 9.93668C336.582 9.9648 336.55 9.99298 336.518 10.0212C336.486 10.0495 336.454 10.0778 336.422 10.1062C336.39 10.1346 336.358 10.1631 336.325 10.1916C336.293 10.2201 336.261 10.2487 336.228 10.2774C336.196 10.306 336.163 10.3348 336.131 10.3636C336.098 10.3923 336.065 10.4212 336.032 10.4501C336 10.4791 335.967 10.5081 335.934 10.5371C335.901 10.5662 335.868 10.5953 335.835 10.6245C335.802 10.6537 335.769 10.683 335.735 10.7123C335.702 10.7417 335.669 10.7711 335.635 10.8005C335.602 10.83 335.569 10.8595 335.535 10.8891C335.502 10.9187 335.468 10.9484 335.434 10.9781C335.401 11.0079 335.367 11.0377 335.333 11.0676C335.299 11.0974 335.265 11.1274 335.231 11.1574C335.197 11.1874 335.163 11.2175 335.129 11.2476C335.095 11.2777 335.061 11.3079 335.026 11.3382C334.992 11.3685 334.958 11.3988 334.923 11.4292C334.877 11.4701 334.763 11.5711 334.716 11.6125C334.623 11.6942 334.599 11.7152 334.506 11.7974C334.471 11.8283 334.436 11.8594 334.401 11.8904C334.366 11.9215 334.33 11.9527 334.295 11.9839C334.26 12.0151 334.224 12.0464 334.189 12.0777C334.153 12.1091 334.117 12.1405 334.082 12.172C333.987 12.2558 333.962 12.2774 333.867 12.3617C333.831 12.3935 333.795 12.4253 333.759 12.4572C333.723 12.4891 333.686 12.521 333.65 12.5531C333.614 12.5851 333.577 12.6172 333.541 12.6493C333.505 12.6815 333.468 12.7137 333.431 12.746C333.334 12.832 333.309 12.8541 333.211 12.9406C333.174 12.9732 333.137 13.0058 333.1 13.0385C333.063 13.0712 333.026 13.1039 332.989 13.1368C332.952 13.1696 332.914 13.2025 332.877 13.2355C332.84 13.2684 332.802 13.3015 332.765 13.3346C332.665 13.4227 332.639 13.4453 332.539 13.534C332.501 13.5674 332.463 13.6008 332.425 13.6343C332.387 13.6678 332.349 13.7014 332.311 13.735C332.273 13.7687 332.235 13.8024 332.197 13.8361C332.158 13.8699 332.12 13.9037 332.082 13.9377C331.959 14.0454 331.741 14.2379 331.617 14.3478C331.578 14.3822 331.539 14.4167 331.5 14.4513C331.46 14.4859 331.421 14.5206 331.382 14.5553C331.343 14.59 331.303 14.6248 331.264 14.6596C331.224 14.6945 331.185 14.7294 331.145 14.7644C331.105 14.7994 331.066 14.8344 331.026 14.8695C330.986 14.9046 330.946 14.9398 330.906 14.9751C330.866 15.0103 330.826 15.0457 330.786 15.0811C330.746 15.1164 330.706 15.1519 330.666 15.1874C330.625 15.2229 330.585 15.2585 330.545 15.2942C330.504 15.3298 330.464 15.3656 330.423 15.4014C330.383 15.4372 330.342 15.473 330.301 15.5089C330.261 15.5449 330.22 15.5809 330.179 15.6169C330.138 15.653 330.097 15.6891 330.056 15.7253C330.015 15.7615 329.974 15.7978 329.933 15.8341C329.892 15.8704 329.851 15.9068 329.809 15.9433C329.768 15.9798 329.727 16.0163 329.685 16.0529C329.644 16.0895 329.602 16.1262 329.561 16.1629C329.519 16.1996 329.477 16.2364 329.436 16.2733C329.394 16.3102 329.352 16.3471 329.31 16.3841C329.268 16.4211 329.226 16.4582 329.184 16.4953C329.142 16.5325 329.1 16.5697 329.058 16.6069C329.015 16.6442 328.973 16.6815 328.931 16.7189C328.888 16.7564 328.846 16.7938 328.803 16.8314C328.761 16.8689 328.718 16.9065 328.676 16.9442C328.633 16.9819 328.59 17.0196 328.547 17.0574C328.504 17.0952 328.461 17.1331 328.419 17.1711C328.376 17.209 328.332 17.247 328.289 17.2851C328.246 17.3232 328.203 17.3613 328.16 17.3995C328.116 17.4378 328.073 17.476 328.03 17.5144C327.986 17.5527 327.943 17.5912 327.899 17.6296C327.855 17.6681 327.812 17.7067 327.768 17.7453C327.724 17.7839 327.68 17.8226 327.637 17.8613C327.593 17.9001 327.549 17.9389 327.505 17.9778C327.461 18.0167 327.416 18.0556 327.372 18.0947C327.328 18.1337 327.284 18.1728 327.239 18.2119C327.195 18.2511 327.151 18.2903 327.106 18.3296C327.062 18.3689 327.017 18.4082 326.972 18.4477C326.928 18.4871 326.883 18.5266 326.838 18.5661C326.793 18.6057 326.748 18.6453 326.703 18.685C326.658 18.7247 326.613 18.7645 326.568 18.8043C326.523 18.8441 326.478 18.884 326.433 18.924C326.387 18.964 326.342 19.004 326.297 19.0441C326.251 19.0842 326.206 19.1244 326.16 19.1646C326.115 19.2048 326.069 19.2451 326.023 19.2855C325.977 19.3259 325.932 19.3663 325.886 19.4068C325.84 19.4473 325.794 19.4879 325.748 19.5285C325.702 19.5691 325.656 19.6098 325.609 19.6506C325.563 19.6914 325.517 19.7322 325.471 19.7731C325.424 19.814 325.378 19.855 325.331 19.896C325.285 19.9371 325.238 19.9782 325.192 20.0194C325.145 20.0605 325.098 20.1018 325.052 20.1431C325.005 20.1844 324.958 20.2258 324.911 20.2672C324.864 20.3087 324.817 20.3502 324.77 20.3918C324.723 20.4333 324.676 20.475 324.628 20.5167C324.581 20.5584 324.534 20.6002 324.486 20.642C324.439 20.6839 324.391 20.7258 324.344 20.7678C324.243 20.857 324.159 20.9307 324.058 21.0205C324.01 21.0627 323.962 21.105 323.914 21.1474C323.866 21.1898 323.818 21.2323 323.77 21.2748C323.721 21.3173 323.673 21.3599 323.625 21.4026C323.576 21.4452 323.528 21.4879 323.48 21.5307C323.377 21.6217 323.292 21.6968 323.188 21.7883C323.139 21.8313 323.09 21.8744 323.041 21.9176C322.992 21.9608 322.943 22.0041 322.894 22.0474C322.845 22.0907 322.796 22.1341 322.747 22.1776C322.698 22.2211 322.648 22.2646 322.599 22.3082C322.494 22.4009 322.407 22.4773 322.302 22.5706C322.252 22.6144 322.202 22.6584 322.152 22.7024C322.102 22.7464 322.053 22.7904 322.003 22.8346C321.953 22.8787 321.902 22.9229 321.852 22.9672C321.802 23.0114 321.752 23.0558 321.702 23.1002C321.595 23.1946 321.506 23.2724 321.399 23.3674C321.348 23.4121 321.298 23.4568 321.247 23.5016C321.196 23.5464 321.145 23.5913 321.094 23.6363C320.945 23.7683 320.938 23.7742 320.788 23.9067C320.679 24.0029 320.589 24.0821 320.48 24.1788C320.428 24.2243 320.377 24.2698 320.325 24.3154C320.273 24.3611 320.221 24.4067 320.17 24.4525C320.017 24.5869 320.011 24.5929 319.858 24.7278C319.806 24.7738 319.753 24.8199 319.701 24.866C319.649 24.9122 319.596 24.9584 319.544 25.0047C319.439 25.0974 319.334 25.1901 319.228 25.2832C319.176 25.3298 319.123 25.3764 319.07 25.4231C319.017 25.4698 318.964 25.5166 318.911 25.5634C318.858 25.6102 318.805 25.6571 318.752 25.7041C318.699 25.751 318.645 25.7981 318.592 25.8452C318.485 25.9394 318.378 26.0338 318.271 26.1285C317.414 26.885 316.533 27.6627 315.637 28.4537C315.581 28.5032 315.525 28.5528 315.468 28.6024C315.412 28.6521 315.356 28.7018 315.299 28.7516C315.243 28.8014 315.186 28.8512 315.13 28.9012C315.073 28.9511 315.017 29.0011 314.96 29.0511C314.903 29.1012 314.846 29.1513 314.79 29.2015C314.733 29.2517 314.676 29.3019 314.619 29.3522C314.562 29.4026 314.505 29.453 314.448 29.5034C314.39 29.5539 314.333 29.6044 314.276 29.655C314.219 29.7056 314.161 29.7563 314.104 29.807C314.046 29.8577 313.989 29.9085 313.931 29.9594C313.873 30.0102 313.816 30.0612 313.758 30.1122C313.7 30.1632 313.642 30.2142 313.584 30.2654C313.526 30.3165 313.469 30.3677 313.41 30.4189C313.352 30.4702 313.294 30.5215 313.236 30.573C313.178 30.6244 313.119 30.6758 313.061 30.7274C313.003 30.7789 312.944 30.8305 312.886 30.8822C312.827 30.9338 312.769 30.9856 312.71 31.0374C312.651 31.0892 312.592 31.1411 312.534 31.193C312.475 31.2449 312.416 31.2969 312.357 31.349C312.298 31.4011 312.239 31.4532 312.18 31.5054C312.12 31.5576 312.061 31.6099 312.002 31.6623C311.943 31.7146 311.883 31.767 311.824 31.8195C311.764 31.872 311.705 31.9245 311.645 31.9771C311.586 32.0297 311.526 32.0824 311.466 32.1352C311.406 32.1879 311.347 32.2407 311.287 32.2936C311.227 32.3465 311.167 32.3994 311.107 32.4524C311.047 32.5055 310.987 32.5585 310.926 32.6117C310.866 32.6648 310.806 32.7181 310.745 32.7713C310.685 32.8246 310.625 32.878 310.564 32.9314C310.504 32.9848 310.443 33.0383 310.382 33.0919C310.322 33.1454 310.261 33.199 310.2 33.2527C310.139 33.3064 310.078 33.3602 310.017 33.414C309.956 33.4678 309.895 33.5217 309.834 33.5757C309.773 33.6296 309.712 33.6836 309.651 33.7377C309.589 33.7918 309.528 33.846 309.467 33.9002C309.405 33.9544 309.344 34.0087 309.282 34.0631C309.221 34.1175 309.159 34.1719 309.097 34.2264C309.035 34.2809 308.974 34.3354 308.912 34.3901C308.85 34.4447 308.788 34.4994 308.726 34.5542C308.664 34.6089 308.602 34.6638 308.539 34.7187C308.477 34.7736 308.415 34.8285 308.353 34.8836C308.29 34.9386 308.228 34.9937 308.165 35.0489C308.103 35.104 308.04 35.1593 307.978 35.2146C307.915 35.2699 307.852 35.3252 307.789 35.3807C307.727 35.4361 307.664 35.4916 307.601 35.5472C307.538 35.6028 307.475 35.6584 307.412 35.7141C307.349 35.7698 307.285 35.8256 307.222 35.8814C307.159 35.9373 307.096 35.9932 307.032 36.0492C306.526 36.4959 306.012 36.9501 305.496 37.4055C305.431 37.4625 305.366 37.5197 305.301 37.5768C305.237 37.634 305.172 37.6913 305.107 37.7486C305.042 37.8059 304.977 37.8633 304.912 37.9208C304.847 37.9782 304.782 38.0358 304.716 38.0934C304.651 38.1509 304.586 38.2086 304.52 38.2663C304.455 38.3241 304.39 38.3818 304.324 38.4397C304.258 38.4976 304.193 38.5555 304.127 38.6135C304.061 38.6715 303.996 38.7295 303.93 38.7877C303.864 38.8458 303.798 38.904 303.732 38.9622C303.666 39.0205 303.6 39.0788 303.534 39.1372C303.468 39.1956 303.401 39.2541 303.335 39.3126C303.269 39.3712 303.202 39.4298 303.136 39.4884C303.069 39.5471 303.003 39.6058 302.936 39.6646C302.87 39.7234 302.803 39.7823 302.736 39.8412C302.669 39.9002 302.603 39.9592 302.536 40.0182C302.469 40.0773 302.402 40.1365 302.335 40.1957C301.8 40.6681 301.255 41.1485 300.71 41.6295C300.642 41.6898 300.574 41.7501 300.505 41.8106C300.437 41.871 300.368 41.9315 300.3 41.992C300.231 42.0526 300.162 42.1132 300.094 42.1739C300.025 42.2345 299.956 42.2953 299.887 42.3561C299.818 42.4169 299.749 42.4778 299.68 42.5388C299.611 42.5997 299.542 42.6608 299.473 42.7218C299.404 42.7829 299.334 42.8441 299.265 42.9053C299.196 42.9665 299.126 43.0278 299.057 43.0892C298.987 43.1505 298.918 43.212 298.848 43.2735C298.778 43.3349 298.709 43.3965 298.639 43.4581C298.569 43.5198 298.499 43.5815 298.429 43.6432C298.359 43.705 298.289 43.7668 298.219 43.8287C298.149 43.8906 298.079 43.9526 298.008 44.0146C297.938 44.0766 297.868 44.1387 297.797 44.2009C297.727 44.2631 297.656 44.3253 297.586 44.3876C297.515 44.4499 297.445 44.5123 297.374 44.5747C296.807 45.0754 296.239 45.5768 295.662 46.086C295.59 46.1496 295.518 46.2131 295.446 46.2768C295.374 46.3404 295.301 46.4041 295.229 46.4679C295.157 46.5317 295.085 46.5955 295.012 46.6595C294.94 46.7234 294.867 46.7874 294.795 46.8514C294.722 46.9155 294.649 46.9796 294.577 47.0437C294.504 47.1079 294.431 47.1722 294.358 47.2365C294.285 47.3008 294.213 47.3652 294.14 47.4297C294.067 47.4941 293.993 47.5586 293.92 47.6232C293.847 47.6878 293.774 47.7525 293.701 47.8172C293.627 47.8819 293.554 47.9467 293.48 48.0116C293.407 48.0764 293.333 48.1413 293.26 48.2063C293.186 48.2713 293.112 48.3364 293.039 48.4015C292.965 48.4666 292.891 48.5318 292.817 48.5971C292.743 48.6623 292.669 48.7277 292.595 48.7931C292.521 48.8585 292.447 48.9239 292.373 48.9894C292.298 49.055 292.224 49.1206 292.15 49.1862C291.553 49.7125 290.956 50.2402 290.35 50.7751C290.274 50.8418 290.198 50.9086 290.123 50.9755C290.047 51.0424 289.971 51.1093 289.895 51.1763C289.819 51.2433 289.743 51.3104 289.667 51.3776C289.591 51.4447 289.515 51.5119 289.439 51.5792C289.362 51.6465 289.286 51.7138 289.21 51.7812C289.133 51.8486 289.057 51.9161 288.98 51.9837C288.904 52.0512 288.827 52.1188 288.751 52.1865C288.674 52.2542 288.597 52.322 288.52 52.3898C288.444 52.4576 288.367 52.5255 288.29 52.5934C288.213 52.6614 288.136 52.7294 288.059 52.7975C287.981 52.8656 287.904 52.9337 287.827 53.0019C287.75 53.0702 287.672 53.1384 287.595 53.2068C287.517 53.2752 287.44 53.3436 287.362 53.4121C287.285 53.4806 287.207 53.5491 287.129 53.6177C287.052 53.6864 286.974 53.7551 286.896 53.8238C286.818 53.8926 286.74 53.9614 286.662 54.0303L287.324 54.78ZM347.264 1.86999V2.86999C347.239 2.86999 347.182 2.85732 347.135 2.82122C347.103 2.79618 347.13 2.8008 347.177 2.91141C347.281 3.15406 347.374 3.63756 347.374 4.45998H348.374H349.374C349.374 3.55574 349.281 2.74425 349.015 2.12357C348.878 1.80251 348.673 1.48338 348.363 1.24252C348.039 0.990578 347.659 0.869987 347.264 0.869987V1.86999ZM348.374 4.45998H347.374C347.374 6.17394 346.879 9.0585 345.832 13.1866C344.791 17.2877 343.226 22.5366 341.133 28.9393L342.084 29.25L343.034 29.5607C345.134 23.1368 346.714 17.8406 347.77 13.6784C348.82 9.54314 349.374 6.44603 349.374 4.45998H348.374ZM342.084 29.25L341.13 28.9507C337.195 41.4922 330.917 58.3596 322.287 79.563L323.214 79.94L324.14 80.3169C332.777 59.0937 339.079 42.1678 343.038 29.5493L342.084 29.25ZM323.214 79.94L322.285 79.5693L290.095 160.229L291.024 160.6L291.952 160.971L324.142 80.3106L323.214 79.94ZM291.024 160.6L290.099 160.219C286.643 168.612 284.045 175.291 282.31 180.25L283.254 180.58L284.198 180.91C285.915 176.002 288.498 169.361 291.948 160.981L291.024 160.6ZM283.254 180.58L282.3 180.279C281.558 182.629 280.997 184.528 280.621 185.97C280.256 187.368 280.034 188.447 280.034 189.09H281.034H282.034C282.034 188.746 282.181 187.914 282.556 186.475C282.92 185.08 283.469 183.218 284.207 180.881L283.254 180.58ZM281.034 189.09H280.034C280.034 191.102 281.194 192.985 283.14 194.736C285.095 196.496 287.971 198.241 291.711 199.986L292.134 199.08L292.557 198.174C288.897 196.466 286.222 194.819 284.478 193.249C282.723 191.67 282.034 190.285 282.034 189.09H281.034ZM292.134 199.08L291.72 199.99C294.456 201.234 297.193 202.354 299.932 203.35L300.274 202.41L300.615 201.47C297.927 200.493 295.238 199.393 292.547 198.17L292.134 199.08ZM300.274 202.41L299.932 203.35C302.686 204.351 305.325 205.106 307.848 205.611L308.044 204.63L308.24 203.649C305.829 203.167 303.288 202.442 300.615 201.47L300.274 202.41ZM308.044 204.63H307.044V205.74H308.044H309.044V204.63H308.044ZM308.044 205.74L308.14 204.745C300.45 204 290.919 203.63 279.554 203.63V204.63V205.63C290.882 205.63 300.344 206 307.947 206.735L308.044 205.74ZM279.554 204.63V203.63C276.324 203.63 272.358 203.754 267.661 204.001L267.714 205L267.766 205.999C272.443 205.753 276.371 205.63 279.554 205.63V204.63ZM267.714 205V204C263.01 204 257.693 204.124 251.762 204.371L251.804 205.37L251.845 206.369C257.755 206.123 263.044 206 267.714 206V205ZM251.804 205.37L251.764 204.371C245.606 204.617 240.194 204.74 235.524 204.74V205.74V206.74C240.227 206.74 245.668 206.616 251.844 206.369L251.804 205.37ZM235.524 205.74L235.471 204.741C230.791 204.988 227.111 205.11 224.424 205.11V206.11V207.11C227.163 207.11 230.883 206.986 235.576 206.739L235.524 205.74Z" fill="white" fill-opacity="0.2" mask="url(#path-1-outside-1_898_2081)"/>
</svg>
